<?xml version="1.0" encoding="UTF-8"?>
<svg width="256px" height="256px" viewBox="0 0 256 256" version="1.1" xmlns="http://www.w3.org/2000/svg" xmlns:xlink="http://www.w3.org/1999/xlink">
    <!-- Generator: Sketch 63.1 (92452) - https://sketch.com -->
    <title>Teams/Defualt/P76ers/WhiteBG/256</title>
    <desc>Created with Sketch.</desc>
    <defs>
        <polygon id="path-1" points="0 0.200046679 114.979156 0.200046679 114.979156 166.4 0 166.4"></polygon>
        <polygon id="path-3" points="0.154650256 0 16.9976998 0 16.9976998 16.7810537 0.154650256 16.7810537"></polygon>
    </defs>
    <g id="Teams/Defualt/P76ers/WhiteBG/256" stroke="none" stroke-width="1" fill="none" fill-rule="evenodd">
        <g id="Teams/Defualt/P76ers/WhiteBG/base" transform="translate(20.000000, 0.000000)">
            <g id="Group-33" transform="translate(-0.000000, 0.000000)">
                <path d="M154.132858,240.047246 C141.9829,240.047246 142.499127,224.460466 142.499127,206.483305 C142.499127,188.492375 144.202144,172.951342 154.132858,172.951342 C166.328052,172.951342 166.980875,188.492375 166.980875,206.483305 C166.980875,224.460466 164.476908,240.047246 154.132858,240.047246 M169.216084,151.837638 C158.349154,151.837638 147.217902,156.186693 141.358905,165.304964 L141.15268,165.304964 L140.920733,165.304964 L141.15268,165.304964 L142.243675,149.524981 C142.876097,138.861979 145.295356,109.8665 160.065919,109.8665 C167.163594,109.8665 165.570121,119.301445 166.370627,123.585211 C168.325104,133.621083 172.693519,145.130179 186.418323,145.130179 C195.76806,145.130179 205.569718,138.92638 205.569718,126.248741 C205.569718,106.7002 189.244266,93.8666667 169.435613,93.8666667 C118.556225,93.8666667 98.1333333,132.748785 98.1333333,179.831572 C98.1333333,220.710561 113.994004,256 157.691009,256 C186.063528,256 209.066667,235.793681 209.066667,201.834897 C209.066667,173.143212 193.909821,151.837638 169.216084,151.837638" id="Fill-1" fill="#006BB6"></path>
                <g id="Group-5" transform="translate(0.000000, 89.600000)">
                    <mask id="mask-2" fill="white">
                        <use xlink:href="#path-1"></use>
                    </mask>
                    <g id="Clip-4"></g>
                    <path d="M0,1.95273978 L0,63.0644817 C33.7792,68.1146323 74.095669,64.7624774 102.59509,22.5183484 C103.789462,20.7228387 104.495669,21.9847054 103.725462,23.553428 C95.7620966,39.9805075 76.9332966,55.1636129 60.6534621,68.1146323 C45.0043586,80.5516903 3.05081379,125.178649 3.60253793,164.416396 C3.64137931,167.429488 3.73715862,166.602856 6.35144828,164.631553 C19.0918621,155.051475 44.0280276,154.745514 59.344331,162.18431 C61.4951724,163.19926 61.6496552,162.893746 61.3993931,160.094916 C58.4580414,129.675028 65.2076138,96.4451269 78.0830897,77.1668817 C86.9393655,63.7931527 110.796359,29.4042667 114.906483,2.4148129 C115.329766,-0.383569892 113.911172,0.0516645161 110.462676,3.73661935 C83.4326069,32.6651699 34.5750069,31.962443 3.05081379,1.30861075 C1.05931034,-0.637195699 0.173462069,0.235062366 0,1.95273978" id="Fill-3" fill="#ED174C" mask="url(#mask-2)"></path>
                </g>
                <g id="Group-8" transform="translate(51.200000, 0.000000)">
                    <mask id="mask-4" fill="white">
                        <use xlink:href="#path-3"></use>
                    </mask>
                    <g id="Clip-7"></g>
                    <polygon id="Fill-6" fill="#006BB6" mask="url(#mask-4)" points="8.60877675 -9.22522523e-05 10.5224315 6.43634739 16.9976998 6.43634739 11.7315391 10.4599294 13.6591973 16.7810537 8.60877675 12.9083041 3.47608615 16.7810537 5.38799043 10.4336375 0.154650256 6.43634739 6.62991863 6.43634739"></polygon>
                </g>
                <polygon id="Fill-9" fill="#006BB6" points="98.1313461 21.3333333 100.112381 27.8399354 106.666667 27.8399354 101.349314 31.9672084 103.296787 38.4 98.1503351 34.4264595 92.9875437 38.4 94.9844766 31.9672084 89.6 27.8399354 96.1692999 27.8399354"></polygon>
                <polygon id="Fill-11" fill="#006BB6" points="81.0500704 4.26666667 83.0190459 10.7786082 89.6 10.7786082 84.2737201 14.892622 86.2059625 21.3333333 81.0668879 17.3355373 75.9256005 21.3333333 77.8587281 14.8663793 72.5333333 10.7786082 79.081095 10.7786082"></polygon>
                <polygon id="Fill-13" fill="#006BB6" points="106.66711 42.6666667 108.638933 49.1922259 115.2 49.1922259 109.897317 53.2871364 111.819035 59.7333333 106.702139 55.745022 101.534695 59.7333333 103.506518 53.2871364 98.1333333 49.1922259 104.661145 49.1922259"></polygon>
                <polygon id="Fill-15" fill="#006BB6" points="102.383371 68.2666667 104.355791 74.7657756 110.933333 74.7657756 105.597866 78.9078381 107.551218 85.3333333 102.400222 81.3619422 97.2669629 85.3333333 99.1866137 78.8726723 93.8666667 74.7657756 100.427358 74.7657756"></polygon>
                <polygon id="Fill-17" fill="#006BB6" points="89.6168153 85.3333333 91.5505773 91.8605914 98.1333333 91.8605914 92.8064164 95.9821557 94.7415059 102.4 89.6517735 98.4399736 84.4766369 102.4 86.4280993 95.9821557 81.0666667 91.8605914 87.6494227 91.8605914"></polygon>
                <polygon id="Fill-19" fill="#006BB6" points="68.2850694 93.8666667 70.2730099 100.376729 76.8 100.376729 71.4787227 104.49727 73.4515862 110.933333 68.302807 106.972967 63.1331861 110.933333 65.0714614 104.486498 59.7333333 100.376729 66.2966855 100.376729"></polygon>
                <polygon id="Fill-21" fill="#006BB6" points="17.0502913 21.3333333 15.065332 27.8324162 8.53333333 27.8324162 13.8261155 31.972764 11.8907249 38.4 17.017098 34.4113288 22.2063171 38.4 20.2403886 31.972764 25.6 27.8324162 19.0188752 27.8324162"></polygon>
                <polygon id="Fill-23" fill="#006BB6" points="38.3831821 4.26666667 36.4145981 10.7786082 29.8666667 10.7786082 35.1944125 14.892622 33.2271563 21.3333333 38.3831821 17.3355373 43.5427485 21.3333333 41.6073578 14.8663793 46.9333333 10.7786082 40.3685839 10.7786082"></polygon>
                <polygon id="Fill-25" fill="#006BB6" points="12.7573433 42.6666667 10.8256348 49.165056 4.26666667 49.165056 9.60649244 53.2617134 7.65621833 59.7333333 12.7573433 55.772871 17.9106288 59.7333333 15.9771521 53.2617134 21.3333333 49.165056 14.7911627 49.165056"></polygon>
                <polygon id="Fill-27" fill="#006BB6" points="12.83481 64 10.8295754 70.5246366 4.26666667 70.5246366 9.60612501 74.6426756 7.66784975 81.0666667 12.7997783 77.0904676 17.9693992 81.0666667 15.9974225 74.6253552 21.3333333 70.5246366 14.7726418 70.5246366"></polygon>
                <polygon id="Fill-29" fill="#006BB6" points="25.5922479 81.0666667 23.6382658 87.5980236 17.0666667 87.5980236 22.3979235 91.7099249 20.4297661 98.1333333 25.5922479 94.1490929 30.789725 98.1333333 28.8025194 91.6920899 34.1333333 87.5980236 27.5785674 87.5980236"></polygon>
                <polygon id="Fill-31" fill="#006BB6" points="46.9167371 93.8666667 44.9645792 100.40741 38.4 100.40741 43.7262799 104.518373 41.7922672 110.933333 46.8817744 107.010107 52.0894467 110.933333 50.1040963 104.472847 55.4666667 100.40741 48.9020875 100.40741"></polygon>
            </g>
        </g>
    </g>
</svg>