<?xml version="1.0" encoding="UTF-8"?>
<svg width="256px" height="256px" viewBox="0 0 256 256" version="1.1" xmlns="http://www.w3.org/2000/svg" xmlns:xlink="http://www.w3.org/1999/xlink">
    <!-- Generator: Sketch 63.1 (92452) - https://sketch.com -->
    <title>Teams/Defualt/PTrailBlazers/256</title>
    <desc>Created with Sketch.</desc>
    <defs>
        <polygon id="path-1" points="0 0 238.466248 0 238.466248 255.999911 0 255.999911"></polygon>
    </defs>
    <g id="Teams/Defualt/PTrailBlazers/256" stroke="none" stroke-width="1" fill="none" fill-rule="evenodd">
        <g id="Teams/Defualt/PTrailBlazers/base" transform="translate(8.000000, 0.000000)">
            <g id="Group-8" transform="translate(0.000000, 0.000000)">
                <g id="Group-3">
                    <mask id="mask-2" fill="white">
                        <use xlink:href="#path-1"></use>
                    </mask>
                    <g id="Clip-2"></g>
                    <path d="M209.868571,68.7856889 C205.957918,63.1768 201.466449,57.9043556 196.518033,53.1105778 C194.372313,51.0319111 192.132542,49.0359111 189.812943,47.1332444 L238.466248,-8.88888889e-05 L96.726205,-8.88888889e-05 L42.0179039,52.9985778 L42.026162,52.9985778 C41.9880832,53.0372444 41.9481692,53.0741333 41.9082552,53.1105778 C36.9621333,57.9043556 32.4711226,63.1768 28.5600115,68.7856889 C24.6108215,74.4465778 21.2204272,80.4999111 18.4801262,86.7754667 C12.7779326,99.8323556 9.88806882,113.702578 9.88806882,127.999911 C9.88806882,142.297689 12.7779326,156.167911 18.4801262,169.2248 C21.2204272,175.500356 24.6108215,181.553244 28.5600115,187.214133 C32.4711226,192.823022 36.9621333,198.097689 41.9082552,202.889244 C44.0622337,204.973689 46.3079685,206.975467 48.6353663,208.884356 L-4.58781362e-05,255.999911 L141.698248,255.999911 L196.628141,202.786578 L196.624011,202.786578 C201.527925,198.022578 205.985445,192.7848 209.868571,187.214133 C213.815925,181.553244 217.208155,175.500356 219.948456,169.2248 C225.648814,156.167911 228.538219,142.297689 228.538219,127.999911 C228.538219,113.702578 225.648814,99.8323556 219.948456,86.7754667 C217.208155,80.4999111 213.815925,74.4465778 209.868571,68.7856889" id="Fill-1" fill="#061922" mask="url(#mask-2)"></path>
                </g>
                <path d="M190.113629,59.2016889 C187.969285,57.1248 185.753829,55.1616889 183.474145,53.3128 L123.983048,110.942578 C126.912826,111.7408 129.678819,113.253244 131.984654,115.481244 L132.000711,115.498133 C139.18431,122.458133 139.18431,133.741244 132.000711,140.700356 L21.8101448,247.447911 L34.7197935,247.447911 L138.456682,146.952356 C149.174733,136.571467 149.206389,119.758578 138.552109,109.337244 L145.006245,103.0848 C159.224338,116.959467 159.192682,139.371467 144.910819,153.2048 L47.6276072,247.447911 L60.5395498,247.447911 L151.366331,159.459022 C169.212009,142.171022 169.244123,114.159467 151.462216,96.8328 L157.917729,90.5785778 C179.265743,111.359911 179.232252,144.970133 157.822303,165.713244 L73.4491986,247.447911 L86.3611412,247.447911 L164.276439,171.967467 C189.253872,147.769689 189.285987,108.558578 164.374159,84.3243556 L170.829672,78.0705778 C199.307607,105.759022 199.275951,150.571467 170.731951,178.221689 L99.2726251,247.447911 L112.182274,247.447911 L177.187923,184.473244 C209.295736,153.371022 209.327851,102.959467 177.283349,71.8163556 L183.78107,65.5216889 C219.413242,100.140356 219.381586,156.188356 183.685643,190.767911 L125.178173,247.447911 L138.089657,247.447911 L190.141614,197.022578 L190.113629,196.995467 C229.391277,158.945244 229.391277,97.2519111 190.113629,59.2016889" id="Fill-4" fill="#FFFFFF"></path>
                <path d="M48.3730351,196.885733 C50.5169204,198.962622 52.7328344,200.925733 55.012519,202.774622 L114.503157,145.144844 C111.573379,144.346622 108.809222,142.834178 106.50201,140.606178 L106.485494,140.588844 C99.3018953,133.629733 99.3018953,122.346178 106.485494,115.386622 L216.826082,8.49506667 L203.915974,8.49506667 L100.029981,109.134622 C89.3119312,119.515511 89.2821104,136.328844 99.9340961,146.750178 L93.4804186,153.002622 C79.2641606,139.1284 79.2939814,116.7164 93.5758452,102.882622 L191.008161,8.49506667 L178.096677,8.49506667 L87.1203326,96.6284 C69.2741964,113.9164 69.2425405,141.927956 87.0244473,159.254622 L80.5707699,165.5084 C59.2204616,144.727511 59.2544115,111.117289 80.6643613,90.3741778 L165.187028,8.49506667 L152.275544,8.49506667 L74.2102251,84.1199556 C49.2327914,108.317289 49.2006767,147.528844 74.1147986,171.763067 L67.6569921,178.016844 C39.1808918,150.3284 39.2107125,105.515956 67.7547125,77.8661778 L139.363601,8.49506667 L126.451659,8.49506667 L61.2987412,71.6137333 C29.1909276,102.718178 29.1588129,153.127956 61.2028559,184.271067 L54.7051355,190.565733 C19.0734222,155.947067 19.1050781,99.8995111 54.8010208,65.3190667 L113.458053,8.49506667 L100.546569,8.49506667 L48.3450495,59.0648444 L48.3730351,59.0919556 C9.09538638,97.1421778 9.09538638,158.835511 48.3730351,196.885733" id="Fill-6" fill="#E03A3E"></path>
            </g>
        </g>
    </g>
</svg>