<?xml version="1.0" encoding="UTF-8"?>
<svg width="256px" height="256px" viewBox="0 0 256 256" version="1.1" xmlns="http://www.w3.org/2000/svg" xmlns:xlink="http://www.w3.org/1999/xlink">
    <!-- Generator: Sketch 63.1 (92452) - https://sketch.com -->
    <title>Teams/Defualt/MBucks/256</title>
    <desc>Created with Sketch.</desc>
    <defs>
        <polygon id="path-1" points="6.87481587e-06 4.44444444e-05 193.036444 4.44444444e-05 193.036444 256 6.87481587e-06 256"></polygon>
    </defs>
    <g id="Teams/Defualt/MBucks/256" stroke="none" stroke-width="1" fill="none" fill-rule="evenodd">
        <g id="Teams/Defualt/MBucks/base" transform="translate(28.000000, 0.000000)">
            <g id="Group-8" transform="translate(0.000000, 0.000000)">
                <g id="Group-3">
                    <mask id="mask-2" fill="white">
                        <use xlink:href="#path-1"></use>
                    </mask>
                    <g id="Clip-2"></g>
                    <path d="M51.4698222,219.3876 C50.3293778,218.449378 49.8511556,216.925822 50.2511556,215.504044 L63.7240444,167.580933 C63.8031556,167.300489 63.9133778,167.033378 64.0511556,166.784933 L57.8644889,156.874267 C57.3004889,155.971156 57.1502667,154.869378 57.4511556,153.847156 L58.3111556,150.937378 L49.8364889,150.392933 C41.8693778,149.803156 39.0240444,148.753378 37.1298222,147.706267 C29.1369333,143.292489 27.0480444,130.609822 26.5978222,126.828044 L26.0920444,122.5676 C25.8400444,120.840933 26.2889333,119.157378 27.3298222,117.937378 C28.1342667,116.994267 29.2498222,116.398267 30.4520444,116.2556 C12.0222667,99.5796 -4.63995556,78.8658222 1.17915556,49.6596 C7.60537778,17.4053778 33.6671556,7.68404444 34.7733778,7.28626667 C35.1880444,7.13693333 35.6138222,7.06582222 36.0333778,7.06582222 C37.3742667,7.06582222 38.6551556,7.79382222 39.3187111,9.03471111 C39.7822667,9.90271111 39.8698222,10.8818222 39.6258222,11.7738222 C48.2347111,4.47515556 56.4613778,1.28448889 59.9107111,0.178711111 C60.2876,0.0578222222 60.6702667,4.44444444e-05 61.0480444,4.44444444e-05 C62.4729333,4.44444444e-05 63.8191556,0.822711111 64.4373778,2.18226667 C65.2196,3.90137778 64.5907111,5.93426667 62.9747111,6.9116 C55.1107111,11.6649333 48.2662667,18.1249333 43.1076,25.5684889 C49.3809333,24.0973778 53.5956,23.9436 55.0627111,23.9436 C55.5684889,23.9436 55.8284889,23.9596 55.8284889,23.9596 C57.6662667,24.0742667 59.1582667,25.5151556 59.3200444,27.3493778 C59.4822667,29.1840444 58.2924889,30.8618222 56.5031556,31.2969333 C56.4044889,31.3213778 46.1587111,33.9138222 34.8520444,42.0316 C32.7147111,48.5493778 31.6316,55.3462667 31.6316,62.2529333 C31.6316,75.3507111 35.8231556,88.7956 43.1324889,99.1396 C44.8756,101.606267 46.5947111,103.760933 48.4027111,105.7196 C47.6996,92.2756 51.5511556,71.2653778 75.8542667,61.5142667 C76.3084889,61.3320444 76.7773778,61.2453778 77.2400444,61.2453778 C78.6120444,61.2453778 79.9231556,62.0076 80.5716,63.3040444 C81.4391556,65.0364889 80.8320444,67.1453778 79.1760444,68.1520444 L78.9982667,68.2600444 C75.2493778,70.6973778 72.0982667,73.8476 69.6924889,77.5027111 C72.3320444,76.6840444 74.6120444,76.4133778 76.1427111,76.2316 L76.4316,76.1973778 C76.5813778,76.1791556 76.7302667,76.1707111 76.8778222,76.1707111 C78.4356,76.1707111 79.8511556,77.1489333 80.3840444,78.6467111 C80.9671556,80.2867111 80.3364889,82.1120444 78.8658222,83.0422667 L78.7449333,83.1209333 C78.6920444,83.1551556 78.6387111,83.1871556 78.5849333,83.2187111 C70.8076,87.7036 66.4809333,92.9267111 65.7253778,98.7431556 C64.8991556,105.102711 68.4156,111.096489 70.9378222,114.4716 C77.4800444,106.910267 81.7378222,93.9920444 82.9289333,89.1196 C83.3404889,87.4369333 84.8484889,86.2800444 86.5431556,86.2800444 C86.6880444,86.2800444 86.8338222,86.2880444 86.9804889,86.3053778 C88.8480444,86.5244889 90.2587111,88.1013778 90.2702667,89.9813778 C90.3676,105.862267 86.1013778,116.708933 81.7280444,123.637822 C88.2764889,126.955156 94.6947111,127.148044 96.0827111,127.148044 C96.2453778,127.148044 96.4658222,127.141822 96.5089333,127.141822 C96.5556,127.141822 96.7911556,127.148044 96.9533778,127.148044 C98.3413778,127.148044 104.7596,126.955156 111.308044,123.637822 C106.934267,116.708933 102.668489,105.862267 102.765822,89.9813778 C102.777378,88.1013778 104.188044,86.5244889 106.0556,86.3053778 C106.202267,86.2880444 106.348044,86.2800444 106.492933,86.2800444 C108.188044,86.2800444 109.695156,87.4364889 110.107156,89.1196 C111.298267,93.9920444 115.556044,106.910711 122.098711,114.4716 C124.618267,111.098711 128.136489,105.104044 127.310711,98.7431556 C126.555156,92.9267111 122.228933,87.7031556 114.451156,83.2187111 C114.400489,83.1893778 114.216933,83.0724889 114.216933,83.0724889 C112.746711,82.1422667 112.092044,80.3022667 112.675156,78.6618222 C113.209378,77.1627111 114.607156,76.1711556 116.164044,76.1711556 C116.309378,76.1711556 116.456489,76.1791556 116.604489,76.1973778 L116.893822,76.2316 C118.424044,76.4133778 120.7036,76.6840444 123.3436,77.5027111 C120.938267,73.8476 117.786711,70.6973778 114.039156,68.2609333 L113.861378,68.1533778 C112.205378,67.1467111 111.596933,65.0382667 112.464044,63.3044889 C113.112489,62.0080444 114.4236,61.2453778 115.796489,61.2453778 C116.258711,61.2453778 116.728044,61.3320444 117.181822,61.5142667 C141.485378,71.2653778 145.336489,92.2756 144.633378,105.7196 C146.440933,103.760933 148.160489,101.606267 149.9036,99.1396 C157.212489,88.7960444 161.404489,75.3511556 161.404489,62.2529333 C161.404489,55.3453778 160.321822,48.5489333 158.184044,42.0316 C146.804489,33.8578222 136.636933,31.3222667 136.533378,31.2969333 C134.7436,30.8618222 133.553822,29.1836 133.716044,27.3493778 C133.878267,25.5147111 135.370267,24.0738222 137.208044,23.9596 C137.208044,23.9596 137.468044,23.9436 137.973378,23.9436 C139.440489,23.9436 143.6556,24.0973778 149.928489,25.5684889 C144.769822,18.1249333 137.925822,11.6649333 130.061822,6.9116 C128.445378,5.93426667 127.816489,3.90182222 128.598711,2.18226667 C129.217378,0.823155556 130.562711,4.44444444e-05 131.988489,4.44444444e-05 C132.365822,4.44444444e-05 132.748489,0.0578222222 133.125378,0.178711111 C136.574711,1.28448889 144.801822,4.47515556 153.410267,11.7738222 C153.166267,10.8818222 153.253822,9.90271111 153.717378,9.03471111 C154.380933,7.79382222 155.661378,7.06582222 157.002711,7.06582222 C157.422711,7.06582222 157.848044,7.13693333 158.263156,7.28626667 C159.368933,7.68404444 185.430267,17.4053778 191.857378,49.6596 C197.676489,78.8658222 181.014267,99.5796 162.584044,116.2556 C163.785822,116.398267 164.901822,116.993822 165.706267,117.937378 C166.7476,119.157378 167.196044,120.840489 166.944489,122.5676 L166.438711,126.8276 C165.988489,130.610711 163.897822,143.293378 155.904933,147.707156 C154.012044,148.753378 151.166711,149.803156 143.236044,150.390267 L134.724933,150.937378 L135.584489,153.847156 C135.886267,154.869378 135.7356,155.971156 135.172044,156.874267 L128.984933,166.784933 C129.122711,167.033378 129.232489,167.300489 129.3116,167.580933 L142.784933,215.504044 C143.184489,216.925822 142.706711,218.449378 141.566267,219.3876 L96.5182667,256.000044 L51.4698222,219.3876 Z" id="Fill-1" fill="#F0EBD2" mask="url(#mask-2)"></path>
                </g>
                <path d="M22.4554667,88.6111111 C22.4554667,88.6111111 16.9981333,63.8817778 21.0550222,49.248 C19.9736889,50.416 18.8759111,51.6155556 17.8621333,52.928 C7.9768,65.7208889 22.4554667,88.6111111 22.4554667,88.6111111 M170.5808,88.6111111 C170.5808,88.6111111 185.059467,65.7208889 175.174133,52.928 C174.159467,51.6155556 173.062578,50.416 171.981244,49.248 C176.038133,63.8817778 170.5808,88.6111111 170.5808,88.6111111 M4.83146667,50.3871111 C10.9203556,19.8253333 36.0341333,10.7897778 36.0341333,10.7897778 C26.8385778,17.5844444 17.4536889,30.356 13.5750222,48.2911111 C17.3505778,43.6048889 20.8519111,40.0888889 24.9652444,37.2871111 C35.1474667,15.3528889 52.5230222,6.45866667 61.0479111,3.72488889 C49.9892444,10.4093333 40.7416889,20.3582222 35.1208,31.8186667 C47.9074667,27.2533333 55.6234667,27.6782222 55.6234667,27.6782222 C55.6234667,27.6782222 44.1941333,30.4564444 31.7021333,39.7204444 C29.2483556,46.7786667 27.9074667,54.3582222 27.9074667,62.2528889 C27.9074667,76.1404444 32.3808,90.3773333 40.0914667,101.288889 C44.4301333,107.429333 48.6203556,111.674667 53.8359111,115.540889 C52.1110222,111.201333 45.5452444,77.6871111 77.2412444,64.9702222 L77.0163556,65.1071111 C69.5301333,69.9573333 64.0141333,77.5106667 61.7728,86.3977778 C67.5608,80.8564444 73.6670222,80.28 76.8759111,79.8946667 C76.8270222,79.9257778 76.7741333,79.9604444 76.7243556,79.9924444 C47.3008,96.9613333 70.6972444,119.946222 70.6972444,119.946222 C79.9745778,112.171111 85.3821333,94.764 86.5465778,90.004 C86.6590222,108.396889 80.5416889,119.411111 76.3843556,124.793333 C85.8683556,131.301333 96.5048,130.865778 96.5092444,130.865333 L96.5181333,130.865333 L96.5270222,130.865333 C96.5310222,130.865778 107.167911,131.301333 116.651911,124.793333 C112.494133,119.411111 106.377244,108.396889 106.489689,90.004 C107.653689,94.764 113.062133,112.171111 122.339467,119.946222 C122.339467,119.946222 145.735022,96.9613333 116.311467,79.9924444 C116.261689,79.9604444 116.209244,79.9257778 116.159911,79.8946667 C119.3688,80.28 125.475467,80.8564444 131.263467,86.3977778 C129.022578,77.5106667 123.506133,69.9573333 116.019467,65.1071111 L115.795022,64.9702222 C147.490578,77.6871111 140.9248,111.201333 139.200356,115.540889 C144.416356,111.674667 148.606133,107.429333 152.945244,101.288889 C160.655467,90.3773333 165.1288,76.1404444 165.1288,62.2528889 C165.128356,54.3582222 163.788356,46.7786667 161.334133,39.7204444 C148.842133,30.4564444 137.4128,27.6782222 137.4128,27.6782222 C137.4128,27.6782222 145.128356,27.2533333 157.915467,31.8186667 C152.294578,20.3582222 143.046578,10.4093333 131.988356,3.72488889 C140.513244,6.45866667 157.888356,15.3528889 168.070578,37.2871111 C172.184356,40.0888889 175.685244,43.6048889 179.4608,48.2911111 C175.582578,30.356 166.1968,17.5844444 157.002133,10.7897778 C157.002133,10.7897778 182.115467,19.8253333 188.204356,50.3871111 C195.291467,85.9568889 166.883911,108.169778 143.9768,127.199111 L161.465244,120.067111 C162.649689,119.564444 163.471022,120.705778 163.2528,122.069778 L162.740356,126.388444 C162.457244,128.764 160.7128,140.798667 154.1048,144.447556 C152.675911,145.236889 150.213244,146.139111 142.961244,146.676444 L129.8328,147.52 L132.0128,154.902222 L119.125244,175.545778 L125.727022,168.588444 L139.200356,216.512 L102.230133,246.928444 L113.766133,194.601333 L96.5181333,215.582222 L79.2696889,194.601333 L90.8061333,246.928444 L53.8359111,216.512 L67.3092444,168.588444 L73.9110222,175.545778 L61.0230222,154.902222 L63.2030222,147.52 L50.0745778,146.676444 C42.8230222,146.139111 40.3603556,145.236889 38.9314667,144.447556 C32.3234667,140.798667 30.5781333,128.764 30.2959111,126.388444 L29.7825778,122.069778 C29.5652444,120.705778 30.3861333,119.564444 31.5710222,120.067111 L49.0594667,127.199111 C26.1523556,108.169778 -2.25608889,85.9568889 4.83146667,50.3871111" id="Fill-4" fill="#00471B"></path>
                <path d="M36.0357778,126.308356 L36.0344444,126.307911 C36.0344444,126.307911 37.3113333,137.039022 41.8122222,139.5248 C44.8508889,141.203022 52.2762222,141.042133 58.7615556,141.540356 C51.5797778,138.754133 41.002,131.153689 36.0357778,126.308356 L36.0357778,126.308356 Z M75.8131111,148.992792 C79.7371111,152.022578 83.0633333,150.334578 84.8491111,148.583911 C85.4304444,148.013689 85.2535556,147.038133 84.5135556,146.698578 C82.6375556,145.837689 79.1033333,144.215911 75.5837778,142.600356 C74.8797778,142.2768 74.0686667,142.715911 73.9433333,143.479911 C73.694,145.001244 73.73,147.383911 75.8131111,148.992792 L75.8131111,148.992792 Z M82.9411111,169.814133 L80.8277778,179.132356 L86.0282222,186.1488 L91.5477778,186.1488 L86.4353333,178.632356 L87.242,173.9888 C89.5633333,176.465689 92.858,178.017244 96.518,178.026578 C100.178444,178.017244 103.472667,176.465689 105.794,173.9888 L106.600667,178.632356 L101.487778,186.1488 L107.007778,186.1488 L112.207778,179.132356 L110.094889,169.814133 C105.13,166.642133 103.980222,162.1408 103.980222,162.1408 L100.521556,150.803911 L96.518,152.747022 L92.5144444,150.803911 L89.0557778,162.1408 C89.0557778,162.1408 87.906,166.642133 82.9411111,169.814133 L82.9411111,169.814133 Z M108.186889,148.583911 C109.972667,150.334578 113.298889,152.022578 117.222889,148.992792 C119.306,147.383911 119.342,145.001244 119.092667,143.479911 C118.967333,142.715911 118.156222,142.2768 117.452667,142.600356 C113.932667,144.215911 110.398444,145.837689 108.522889,146.698578 C107.782889,147.038133 107.605556,148.013689 108.186889,148.583911 L108.186889,148.583911 Z M104.013556,190.474133 L96.518,190.474133 L89.0228889,190.474133 L92.6228889,195.359022 L96.518,195.359022 L100.413111,195.359022 L104.013556,190.474133 Z M134.274889,141.540356 C140.759778,141.042133 148.184667,141.203022 151.224222,139.5248 C155.725111,137.039022 157.002,126.307911 157.002,126.307911 L156.999778,126.308356 C152.034444,131.153689 141.456222,138.754133 134.274889,141.540356 L134.274889,141.540356 Z" id="Fill-6" fill="#FFFFFF"></path>
            </g>
        </g>
    </g>
</svg>