<?xml version="1.0" encoding="UTF-8"?>
<svg width="256px" height="256px" viewBox="0 0 256 256" version="1.1" xmlns="http://www.w3.org/2000/svg" xmlns:xlink="http://www.w3.org/1999/xlink">
    <!-- Generator: Sketch 63.1 (92452) - https://sketch.com -->
    <title>Teams/Defualt/CBulls/256</title>
    <desc>Created with Sketch.</desc>
    <defs>
        <polygon id="path-1" points="4.78056058e-05 0.325549133 256 0.325549133 256 230.630453 4.78056058e-05 230.630453"></polygon>
        <polygon id="path-3" points="4.78056058e-05 0.325549133 256 0.325549133 256 230.630453 4.78056058e-05 230.630453"></polygon>
    </defs>
    <g id="Teams/Defualt/CBulls/256" stroke="none" stroke-width="1" fill="none" fill-rule="evenodd">
        <g id="Teams/Defualt/CBulls/base" transform="translate(0.000000, 12.000000)">
            <g id="Group-41" transform="translate(0.000000, 0.000000)">
                <g id="Group-3">
                    <mask id="mask-2" fill="white">
                        <use xlink:href="#path-1"></use>
                    </mask>
                    <g id="Clip-2"></g>
                    <path d="M255.912889,49.0188297 C254.897778,31.1793949 246.908889,15.1787839 242.136444,5.61894426 L241.569333,4.47956673 L239.493778,0.325549133 L239.919111,4.95060425 C240.504889,11.3460494 241.918667,33.1799712 235.411111,45.5513715 C227.342222,62.33586 203.610222,60.7094475 195.811111,60.1739756 L195.218667,60.13176 C182.401778,59.2803374 140.718667,57.7983468 127.947556,57.854338 C111.056444,57.925438 92.4177778,59.2981124 77.4426667,60.40194 C70.1075556,60.9427444 63.7702222,61.4097825 59.5053333,61.571535 C59.1551111,61.5835331 58.6542222,61.6315256 57.9586667,61.6964044 C36.96,63.6525432 23.6946667,57.4623993 18.5306667,43.2961683 C15.3631111,34.6095256 15.4408889,17.4286546 15.4782222,9.17394435 L15.4853333,6.70588554 L15.4973333,3.23798295 C15.4973333,3.2424267 13.848,6.2921724 13.848,6.2921724 C9.90311111,13.5879213 2.56311111,27.1662442 0.0964444444,49.6947241 C-1.28711111,76.249686 12.5102222,85.7726425 23.008,90.6283282 C33.9768889,95.7048683 45.1804444,96.4340877 48.8631111,96.6727171 L49.1293333,96.6900477 L49.0293333,96.6767165 C49.784,96.8166946 50.648,96.8540221 51.5617778,96.895349 C52.6973333,96.9464521 53.9191111,97.0099977 55.1768889,97.2481827 C53.1906667,97.6321228 50.5782222,98.0773865 48.2848889,98.4719915 C45.8404444,98.889704 43.5328889,99.287864 42.3342222,99.5420466 C39.8493333,100.068187 29.2791111,102.535801 23.5853333,104.478609 C18.7466667,106.129906 13.5426667,108.585522 13.4897778,108.609519 L12.5431111,109.061004 L13.1555556,109.910204 C13.228,110.010633 14.9786667,112.428922 16.7928889,114.215754 C20.5173333,117.88007 30.8666667,124.40705 43.3711111,122.851293 C53.3662222,121.612376 58.7217778,119.289183 60.7862222,118.199131 C61.4315556,120.343241 62.9808889,125.325573 64.5404444,129.201412 C69.0457778,140.392997 79.2928889,161.71411 83.1488889,169.131173 C86.2662222,175.129792 89.3666667,180.459181 91.42,183.983075 L92.156,185.255765 C91.4813333,187.549629 89.8782222,188.982738 88.6844444,190.032796 C88.3626667,190.314974 88.0871111,190.557159 87.8537778,190.793566 L87.6226667,191.029529 L87.6066667,191.361033 C87.5097778,193.430488 87.0266667,211.963147 99.6377778,225.541915 L99.7742222,225.68767 L99.9644444,225.760547 C106.244,228.166838 114.443556,230.630453 127.651111,230.630453 C141.124,230.630453 152.458222,227.437174 156.435111,225.427266 L156.594222,225.349056 L156.708889,225.21441 C165.508,214.809369 169.507111,199.15937 169.604444,193.474036 L169.609333,193.110982 L169.355556,192.851023 C169.136444,192.626169 168.908,192.405759 168.667556,192.175128 C167.3,190.860223 165.604444,189.232477 164.639111,185.385522 C165.707111,183.543588 167.806667,179.158051 169.515111,175.589275 C170.469333,173.592698 171.296889,171.865857 171.752444,170.977996 C175.475556,163.732017 186.342222,140.416993 190.660444,129.400492 C193.388,122.440246 194.922222,118.955902 195.582667,117.513016 C197.488444,118.544411 202.633333,120.822277 212.349778,121.827009 C224.951556,123.129917 236.962667,114.691235 240.308,110.099508 C240.871556,109.32674 241.824,108.213136 241.833333,108.20336 L242.586667,107.320831 L241.532,106.843572 C241.464444,106.812466 241.033333,106.626717 239.156444,105.986373 L232.184889,103.64896 L225.229333,101.317325 C223.335111,100.671203 214.829333,98.8266028 208.619111,97.4823684 L203.921778,96.4558621 L205.453333,96.1781277 C219.844444,93.6318589 258.063556,86.8644719 255.912889,49.0188297" id="Fill-1" fill="#FFFFFF" mask="url(#mask-2)"></path>
                </g>
                <g id="Group-6">
                    <mask id="mask-4" fill="white">
                        <use xlink:href="#path-3"></use>
                    </mask>
                    <g id="Clip-5"></g>
                    <path d="M255.912889,49.0188297 C254.897778,31.1793949 246.908889,15.1787839 242.136444,5.61894426 L241.569333,4.47956673 L239.493778,0.325549133 L239.919111,4.95060425 C240.504889,11.3460494 241.918667,33.1799712 235.411111,45.5513715 C227.342222,62.33586 203.610222,60.7094475 195.811111,60.1739756 L195.218667,60.13176 C182.401778,59.2803374 140.718667,57.7983468 127.947556,57.854338 C111.056444,57.925438 92.4177778,59.2981124 77.4426667,60.40194 C70.1075556,60.9427444 63.7702222,61.4097825 59.5053333,61.571535 C59.1551111,61.5835331 58.6542222,61.6315256 57.9586667,61.6964044 C36.96,63.6525432 23.6946667,57.4623993 18.5306667,43.2961683 C15.3631111,34.6095256 15.4408889,17.4286546 15.4782222,9.17394435 L15.4853333,6.70588554 L15.4973333,3.23798295 C15.4973333,3.2424267 13.848,6.2921724 13.848,6.2921724 C9.90311111,13.5879213 2.56311111,27.1662442 0.0964444444,49.6947241 C-1.28711111,76.249686 12.5102222,85.7726425 23.008,90.6283282 C33.9768889,95.7048683 45.1804444,96.4340877 48.8631111,96.6727171 L49.1293333,96.6900477 L49.0293333,96.6767165 C49.784,96.8166946 50.648,96.8540221 51.5617778,96.895349 C52.6973333,96.9464521 53.9191111,97.0099977 55.1768889,97.2481827 C53.1906667,97.6321228 50.5782222,98.0773865 48.2848889,98.4719915 C45.8404444,98.889704 43.5328889,99.287864 42.3342222,99.5420466 C39.8493333,100.068187 29.2791111,102.535801 23.5853333,104.478609 C18.7466667,106.129906 13.5426667,108.585522 13.4897778,108.609519 L12.5431111,109.061004 L13.1555556,109.910204 C13.228,110.010633 14.9786667,112.428922 16.7928889,114.215754 C20.5173333,117.88007 30.8666667,124.40705 43.3711111,122.851293 C53.3662222,121.612376 58.7217778,119.289183 60.7862222,118.199131 C61.4315556,120.343241 62.9808889,125.325573 64.5404444,129.201412 C69.0457778,140.392997 79.2928889,161.71411 83.1488889,169.131173 C86.2662222,175.129792 89.3666667,180.459181 91.42,183.983075 L92.156,185.255765 C91.4813333,187.549629 89.8782222,188.982738 88.6844444,190.032796 C88.3626667,190.314974 88.0871111,190.557159 87.8537778,190.793566 L87.6226667,191.029529 L87.6066667,191.361033 C87.5097778,193.430488 87.0266667,211.963147 99.6377778,225.541915 L99.7742222,225.68767 L99.9644444,225.760547 C106.244,228.166838 114.443556,230.630453 127.651111,230.630453 C141.124,230.630453 152.458222,227.437174 156.435111,225.427266 L156.594222,225.349056 L156.708889,225.21441 C165.508,214.809369 169.507111,199.15937 169.604444,193.474036 L169.609333,193.110982 L169.355556,192.851023 C169.136444,192.626169 168.908,192.405759 168.667556,192.175128 C167.3,190.860223 165.604444,189.232477 164.639111,185.385522 C165.707111,183.543588 167.806667,179.158051 169.515111,175.589275 C170.469333,173.592698 171.296889,171.865857 171.752444,170.977996 C175.475556,163.732017 186.342222,140.416993 190.660444,129.400492 C193.388,122.440246 194.922222,118.955902 195.582667,117.513016 C197.488444,118.544411 202.633333,120.822277 212.349778,121.827009 C224.951556,123.129917 236.962667,114.691235 240.308,110.099508 C240.871556,109.32674 241.824,108.213136 241.833333,108.20336 L242.586667,107.320831 L241.532,106.843572 C241.464444,106.812466 241.033333,106.626717 239.156444,105.986373 L232.184889,103.64896 L225.229333,101.317325 C223.335111,100.671203 214.829333,98.8266028 208.619111,97.4823684 L203.921778,96.4558621 L205.453333,96.1781277 C219.844444,93.6318589 258.063556,86.8644719 255.912889,49.0188297" id="Fill-4" fill="#061922" mask="url(#mask-4)"></path>
                </g>
                <path d="M2.45016361,40.8068859 C4.69680632,29.6996819 8.39816444,19.3136659 13.4483628,9.34261733 L13.5086594,9.22522523 L13.6449203,9.22522523 L13.747472,9.22522523 L13.747472,9.43407397 L13.747472,9.22522523 L13.9758396,9.22522523 L13.9658693,9.44271912 C13.8272345,12.4248425 13.7322792,15.4938725 13.7322792,18.5865629 C13.7322792,25.9422246 14.2630794,33.4271087 15.9770228,40.1521291 L16.1441441,40.8068859 L15.6204656,40.3577928 C13.3885409,38.4463036 11.1670614,36.2540743 8.85537428,34.3471352 C6.82238102,36.5288992 4.87389798,38.9022217 2.82286321,40.9893441 L2.30630631,41.5135135 L2.45016361,40.8068859 Z" id="Fill-7" fill="#CE1141"></path>
                <path d="M252.954656,35.9874664 L252.772158,36.0361765 L252.951779,35.9777244 C250.384056,26.8467856 248.089258,17.6029279 243.886446,9.22522523 L243.532546,9.33415883 C243.699015,12.2337411 243.784098,15.1182675 243.784098,17.9784389 C243.784098,24.9820726 243.275651,31.8528604 242.223817,38.5199513 L242.162162,38.908304 L242.491811,38.7369329 C244.552319,37.6648668 246.508014,36.2212751 248.612503,35.2541573 L253.693694,39.2072072 L252.954656,35.9874664 Z" id="Fill-9" fill="#CE1141"></path>
                <path d="M163.747748,133.926762 L163.32204,134.111724 C160.161184,135.481238 156.918875,136.845 153.494314,137.512279 C151.277124,138.073359 149.027984,138.362307 146.809894,138.362307 C139.86222,138.36098 133.226851,135.539647 129.118728,129.350062 L128.987775,129.153153 L128.809122,129.309795 C127.984257,130.031058 127.487898,130.916043 126.627033,131.674475 C122.252955,136.627736 115.904241,138.523817 109.420975,138.525144 C104.384035,138.525144 99.274643,137.376876 94.9991164,135.629473 L94.5585586,135.449379 L94.7264116,135.889659 C98.0074203,144.436844 100.017606,153.920786 100.017606,163.452074 C100.017606,167.721242 99.6143991,172.000144 98.7422835,176.21046 C98.1406227,179.16277 97.1402548,182.225261 96.3351904,185.100577 L96.2078381,185.55369 L96.6308457,185.334213 C105.883911,180.514143 117.184964,178.072026 128.457666,178.072911 C139.123757,178.072911 149.763297,180.259267 158.616306,184.672245 C160.075682,185.2643 161.445057,186.263005 162.77573,186.685585 L163.166787,186.810811 L163.034485,186.427612 C160.455039,178.90878 158.932212,170.920463 158.932212,162.558682 C158.932212,162.441421 158.932662,162.325488 158.933562,162.207343 C158.919161,161.670157 158.912861,161.141821 158.912861,160.613042 C158.912861,151.477342 160.863196,142.478372 163.601945,134.360405 L163.747748,133.926762 Z" id="Fill-11" fill="#CE1141"></path>
                <path d="M73.5448203,143.620941 C72.6149244,142.292574 71.8580618,140.834979 71.5792623,139.142823 L71.4954955,138.630788 L71.8762536,138.913139 C73.4390541,140.07229 75.1575424,140.551653 76.9212987,140.551653 C80.5562695,140.554579 84.3748503,138.496195 87.2313823,136.179356 L87.3650707,136.072072 L87.4801443,136.204226 L87.5744877,136.311997 L87.4374148,136.470485 L87.5744877,136.311997 L87.6396396,136.387096 L87.6303322,136.494867 C87.2377283,140.769634 85.9131131,145.671522 81.9731127,147.349536 C81.3884375,147.523141 80.8139158,147.603604 80.2542014,147.603604 C77.6163938,147.601165 75.3204223,145.826108 73.5448203,143.620941" id="Fill-13" fill="#CE1141"></path>
                <path d="M170.037459,141.554808 C169.191493,140.130578 168.723583,138.596865 168.449789,136.862355 L168.36036,136.29295 L168.762152,136.651517 C170.718556,138.397024 173.186947,139.154318 175.709165,139.155274 C178.671319,139.155274 181.704677,138.105867 184.0349,136.413906 L184.504505,136.072072 L184.325224,136.669206 C183.173252,140.465719 180.254752,144.353069 176.706015,145.225105 C176.396619,145.272914 176.088917,145.297297 175.786302,145.297297 C173.462013,145.29873 171.365746,143.884062 170.037459,141.554808" id="Fill-15" fill="#CE1141"></path>
                <path d="M175.885218,147.519137 C176.389162,147.618511 176.897743,147.662288 177.404005,147.662288 C178.869013,147.662288 180.338658,147.295437 181.770286,146.868174 L182.198198,146.739908 L182.031299,147.1339 C176.680773,159.760915 170.217119,171.978177 163.554577,184.09913 L163.330653,184.504505 L163.165608,184.075053 C161.82392,180.587784 161.441441,176.884256 161.441441,173.098866 C161.441441,170.321221 161.646357,167.499361 161.835047,164.674436 C162.794256,156.5258 164.870303,148.685354 167.451684,141.142591 L167.607921,140.684685 L167.842971,141.111947 C169.428518,144.027928 172.43364,147.032338 175.8727,147.517386" id="Fill-17" fill="#CE1141"></path>
                <path d="M92.7794943,184.296865 C85.2646753,172.716592 79.5561246,160.471086 74.0392982,148.041061 L73.8018018,147.505386 L74.3139305,147.783256 C75.8084308,148.59244 77.8129007,149.236298 79.7215084,149.235425 C81.0078755,149.235425 82.2476069,148.944032 83.2753188,148.232997 C85.6913052,146.528258 87.1072158,143.842029 88.0597924,141.130935 L88.2165401,140.684685 L88.4251051,141.107816 C92.569202,149.581346 94.5576949,159.833772 94.5585586,169.980198 C94.5585586,174.7847 94.1116334,179.567392 93.2359193,184.12674 L93.2246922,184.185193 L93.1832383,184.229687 L92.9150832,184.504505 L92.7794943,184.296865 Z" id="Fill-19" fill="#CE1141"></path>
                <path d="M101.392593,223.410073 L101.351369,223.391751 L101.3209,223.358683 C93.3755488,214.668363 90.3810314,203.488967 89.9504267,191.659819 L89.9459459,191.550335 L90.0351138,191.485986 C100.482543,183.89944 114.448294,179.892786 128.220923,179.891892 C137.259589,179.891892 146.216256,181.617265 154.042866,185.202519 C159.041197,187.431963 163.853126,189.865628 168.271641,193.406194 L168.143042,193.566621 L168.271641,193.406194 L168.36036,193.477247 L168.346918,193.591199 C167.009848,204.720546 163.018801,214.640657 155.983052,223.240262 L155.94855,223.282715 L155.899261,223.303271 C147.518824,226.564096 137.641801,228.324324 127.802865,228.324324 C118.53747,228.324324 109.30613,226.761166 101.392593,223.410073" id="Fill-21" fill="#CE1141"></path>
                <path d="M239.593715,107.512148 C239.59283,107.512148 234.741901,105.675414 233.493634,105.211747 C220.180703,100.26057 203.069833,97.2388605 188.532546,96.8924224 C187.143467,80.8915339 185.280144,70.8894476 182.127372,61.8510015 L182.083092,61.7237118 L181.946708,61.7158382 C174.45002,61.2849777 141.198023,59.963964 128.345609,59.963964 C115.489653,59.963964 82.8358859,61.9612318 75.3453971,62.3920922 L75.209456,62.3986536 L75.1651755,62.5263807 C72.148788,71.1431523 68.7135071,81.8857936 67.1149812,97.7104012 C52.4204983,98.5974925 32.6386292,102.754749 19.3270263,107.706364 C18.3617114,108.065924 17.6563231,108.406676 17.1789794,108.656881 C16.9411931,108.781984 16.7587574,108.885215 16.6334436,108.954328 C16.6028901,108.971825 16.5754362,108.986697 16.5515247,108.998945 L16.1441441,108.544901 L16.2893842,109.271896 C16.2973547,109.313014 16.3168381,109.34582 16.3416352,109.371628 C18.380752,111.654095 25.8738977,120.53332 39.7974571,120.845201 C40.0255017,120.849576 40.2637307,120.850888 40.5108159,120.850888 C45.0584229,120.849576 52.7605725,119.979544 57.9183648,117.751317 C59.1741597,117.203228 61.6051589,116.215967 62.2675952,115.947827 C62.5164516,116.416306 63.2457514,117.816493 63.6110655,118.822563 C65.108189,122.926017 66.8869366,128.809777 68.1936541,131.380505 C70.1318114,135.198759 73.2850256,138.263336 78.4011942,138.376629 C78.4702718,138.378378 78.5375781,138.378378 78.6044417,138.378378 C83.2202406,138.367005 86.4128645,134.720657 86.9703559,133.946421 L87.1837879,133.647662 L86.8144886,133.630165 C73.9399341,132.991967 68.6758687,126.239487 67.8031001,116.038374 L67.7893731,115.883089 L67.6366054,115.856406 C66.1155703,115.588267 65.1506983,115.376117 64.552026,115.053737 C63.9573389,114.730045 63.6920988,114.332866 63.4919509,113.550318 C63.4069324,113.20738 63.3657515,112.860067 63.3657515,112.50488 C63.3648659,111.258666 63.877634,109.899596 64.8305503,108.327502 C65.8304039,107.015237 67.2943172,105.716969 70.2119591,105.711283 C71.4190454,105.711283 72.8767594,105.93743 74.6501933,106.493393 C78.6553642,107.741357 81.8634862,110.295026 84.1040794,112.234116 C86.7750789,114.544141 94.5383356,122.537149 99.2449096,125.330087 C102.011112,126.968669 106.21156,128.495271 110.489942,128.495708 C113.907953,128.497895 117.383529,127.512821 120.168773,124.814367 C126.15461,119.018965 126.879482,114.030608 127.662361,110.942847 L127.724354,110.699203 L127.470627,110.693079 C117.1453,110.402194 107.360639,109.403123 98.3477867,108.172655 C97.3080807,108.022619 96.996346,107.590009 96.996346,107.2252 C96.9972316,106.776842 97.500258,106.243625 98.3269749,106.24275 C98.4868275,106.24275 98.6564218,106.261997 98.837529,106.308364 C98.8663114,106.313175 115.871351,108.535278 127.78059,108.611827 L127.970996,108.612264 L127.985166,108.424173 C128.078598,107.050668 128.101181,104.647473 128.184428,101.937208 L128.190185,101.735556 L127.986052,101.730307 C120.924641,101.571961 109.068981,100.838404 97.8279337,98.6009919 C96.8550912,98.4024024 96.4756073,97.823256 96.4738361,97.3403423 C96.4826922,96.8736133 96.803283,96.4663736 97.5055717,96.4558755 C97.6632103,96.4558755 97.838561,96.4777466 98.0329524,96.5306746 C99.704984,96.9650345 118.006999,99.5217647 127.966125,99.5248267 C127.997565,99.5248267 128.025018,99.5239518 128.04893,99.5248267 L128.253949,99.531388 L128.258377,99.3279869 C128.300443,97.2261753 128.320812,94.2661421 128.332325,91.4194012 L128.332768,91.2177498 L128.128635,91.2181872 C127.924502,91.2194994 127.716383,91.2194994 127.506494,91.2194994 C121.06191,91.2194994 111.741751,90.5782391 98.4854991,88.5840333 C97.4006269,88.4143136 97.0171578,87.8990308 97.0198146,87.4966027 C97.0207003,87.0854263 97.409483,86.6480045 98.2353143,86.6414432 C98.3083771,86.6414432 98.3849824,86.6449425 98.4651301,86.653691 C98.462916,86.653691 114.646552,89.0306409 127.265608,89.0310783 C127.555645,89.0310783 127.843911,89.0288912 128.130849,89.0280164 L128.332325,89.0262667 L128.332325,88.8276772 C128.332325,86.8942729 128.324355,84.6419882 128.303986,82.3765808 C128.303986,82.359084 128.3031,82.3472736 128.3031,82.3385252 C128.307085,81.1111197 128.859706,80.619895 129.260444,80.6177079 C129.6386,80.619895 130.127014,81.0455064 130.133213,82.1766791 C130.133213,83.0349006 130.180593,85.4757141 130.180593,88.5311052 L130.180593,88.7047617 L130.182364,88.9090376 L130.390483,88.9033511 C142.590645,88.5341672 153.323795,87.1234819 158.356716,86.2372654 C158.647196,86.1852122 158.901809,86.1615915 159.122769,86.1615915 C160.123065,86.1804006 160.385648,86.5736428 160.39539,86.9568242 C160.399818,87.3522535 160.058415,87.8054225 159.549633,87.8937817 C157.901955,88.1894788 143.767621,90.8901208 130.31432,91.177507 L130.115058,91.1818812 L130.116829,91.3782835 C130.122143,93.7224268 130.20849,96.7721314 130.249228,99.2540626 L130.252327,99.4574637 L130.45956,99.450465 C139.499424,99.1307097 149.969547,98.7969568 158.963802,96.8355576 C159.381367,96.7441365 159.747566,96.7038937 160.062401,96.7038937 C161.112291,96.7126421 161.500631,97.1225063 161.501517,97.4715689 C161.517015,97.8722472 160.971922,98.491199 159.687345,98.7015989 C150.875526,100.153402 138.166138,101.642385 130.520667,101.701 L130.313435,101.703625 L130.318305,101.907026 C130.373656,104.081449 130.392697,106.717353 130.504283,108.444732 L130.515796,108.63676 L130.711959,108.632823 C145.135888,108.292509 158.793764,106.26987 161.119376,105.873566 C161.287642,105.844259 161.445281,105.830699 161.588307,105.830699 C162.492072,105.838573 162.907865,106.317549 162.908751,106.771156 C162.909194,107.213389 162.510227,107.750981 161.424469,107.904953 C158.881883,108.246142 141.960091,110.406131 131.122439,110.673833 L130.85897,110.679519 L130.932476,110.930162 C132.003178,114.555951 132.211297,119.829508 137.535584,124.353324 C140.137506,126.564491 143.638322,127.558751 147.246739,127.558751 C150.802463,127.557876 154.468446,126.593798 157.508744,124.861608 C162.265798,122.13822 169.786398,114.000425 172.454298,111.695213 C174.671422,109.772744 179.73224,105.143947 186.502728,105.147884 C186.597046,105.147884 186.688706,105.147884 186.780367,105.150508 C190.259928,105.220058 191.952772,106.124646 192.841481,107.108845 C193.734619,108.099606 193.835578,109.186161 194.049453,109.777993 C194.204878,110.195293 194.33462,110.756943 194.333734,111.325154 C194.330192,112.161504 194.065837,112.98517 193.22495,113.494766 C192.039561,114.217387 190.924136,114.025796 189.673212,114.59182 L189.574909,114.636437 L189.55764,114.741855 C188.670258,120.317233 186.899039,126.660286 182.47276,129.973756 C180.084713,131.770248 177.001462,132.780255 174.517326,133.335343 C172.034519,133.891306 170.161011,133.991475 170.157026,133.993663 L169.729719,134.016846 L170.017985,134.329165 C170.019756,134.331352 171.066547,135.466899 171.41592,135.79584 C172.204113,136.531146 174.429651,137.598455 177.345964,137.604142 C177.65637,137.604142 177.974304,137.591894 178.300209,137.566086 C181.487519,137.297947 185.158815,134.905249 186.725016,133.319596 C189.09668,130.27689 191.274394,123.970143 192.877791,119.909994 C193.448124,118.462128 194.738458,115.951327 195.261853,114.660932 C196.576541,115.274198 197.338166,115.677938 199.847099,116.67526 C205.049614,118.731579 211.652722,119.638792 216.090513,119.640104 C216.343355,119.640104 216.589554,119.636605 216.828226,119.632231 C224.07163,119.448951 232.263079,115.119788 237.202126,110.595097 C238.067809,109.799864 239.675634,107.831029 239.679177,107.827092 L239.855856,107.610568 L239.593715,107.512148 Z" id="Fill-23" fill="#CE1141"></path>
                <path d="M134.831999,197.106823 C134.093347,198.310191 133.765766,199.693773 133.765766,201.101854 C133.763202,203.377789 134.628602,205.709781 135.986008,207.408946 C136.07122,207.518984 136.179984,207.565491 136.312299,207.567568 C136.463455,207.567568 136.636021,207.49407 136.757631,207.360362 C136.758059,207.320915 136.758059,207.280221 136.758059,207.239112 C136.769621,205.890826 135.872106,204.721508 135.859688,203.245742 C135.859688,202.899847 135.913213,202.540248 136.041674,202.16487 L136.175702,201.771638 L136.396655,202.125423 C137.761769,204.314156 139.962736,205.696078 142.257908,206.439359 C143.155851,206.667741 144.052082,206.778195 144.928615,206.778195 C147.993269,206.777364 150.833973,205.4324 152.844817,203.038122 C153.79286,201.737173 154.524232,200.098217 154.522523,198.48999 C154.522523,197.735082 154.363228,196.985158 153.994973,196.270528 L153.994116,196.270528 C152.546787,193.543643 149.614876,191.971956 146.672689,191.500658 C146.167408,191.448338 145.665125,191.423423 145.16584,191.423423 C140.898789,191.425084 136.918207,193.27166 134.831999,197.106823" id="Fill-25" fill="#061922"></path>
                <path d="M117.300534,207.567211 C117.545723,207.578923 117.84038,207.300748 118.040833,206.965683 C119.167412,205.246852 119.928358,203.01643 119.927928,200.841225 C119.927928,199.412701 119.601009,198.008857 118.845225,196.778193 L119.015136,196.680309 L118.839633,196.768572 C117.661005,194.57036 115.254281,192.797986 112.952945,192.053396 C111.641829,191.638434 110.256296,191.423423 108.882377,191.423423 C105.591682,191.424678 102.374114,192.650741 100.345067,195.291106 C99.5651942,196.291282 99.1711712,197.575908 99.1711712,198.855932 C99.1711712,199.526899 99.2791404,200.196612 99.4950788,200.818218 C100.579933,203.750981 103.440901,206.069666 106.470061,206.628108 C107.151429,206.745652 107.821182,206.804634 108.47674,206.804634 C112.00144,206.803797 115.109748,205.123033 117.319891,202.176467 L117.53884,201.882814 L117.666167,202.224154 C117.761661,202.484342 117.794783,202.756661 117.794783,203.030235 C117.793493,203.634691 117.633044,204.247513 117.569812,204.741954 C117.464423,205.605761 116.76714,206.271709 116.789078,206.86989 C116.789938,207.062312 116.846719,207.253479 117.020932,207.478111 C117.128471,207.544622 117.219234,207.567211 117.300534,207.567211" id="Fill-27" fill="#061922"></path>
                <path d="M102.129372,221.405405 C109.961277,217.948471 119.319802,215.951437 128.610605,215.951437 C135.621525,215.951437 142.595307,217.089976 148.852966,219.606239 C150.421095,220.308644 152.082289,220.882045 153.663525,221.394846 C154.062876,220.853581 154.255997,220.731923 154.522523,220.253094 C146.883739,216.315035 137.91801,214.486486 128.909462,214.486486 C119.292276,214.486486 109.626154,216.572124 101.477477,220.382557 C101.634334,220.810427 101.841874,221.086798 102.129372,221.405405" id="Fill-29" fill="#061922"></path>
                <path d="M109.395435,162.022392 C114.223898,168.012239 121.434823,170.665769 128.810226,170.666667 C131.519843,170.666667 134.249288,170.308676 136.885002,169.625442 C149.174488,166.231704 156.594052,152.894964 159.135135,141.228849 C158.776436,140.894634 158.460097,140.827791 157.995951,140.684685 C156.458864,147.553808 153.516724,154.296871 149.166827,159.970896 C143.96119,166.283294 136.277107,169.475157 128.709286,169.475157 C126.019947,169.475157 123.344578,169.073202 120.798989,168.264358 C109.543691,164.768785 103.700869,152.484037 102.609902,141.365675 C102.150263,141.37061 101.835726,141.395284 101.477477,141.647403 C102.236783,149.308772 104.545343,156.136174 109.395435,162.022392" id="Fill-31" fill="#061922"></path>
                <path d="M18.5593105,47.3234619 C24.8244918,59.7481807 37.4568661,63.747996 50.3033336,63.116162 C57.4936252,63.0545087 64.3993349,62.2840672 71.4954955,61.8209923 L71.4924308,62.3250194 C67.8821802,72.7871826 65.5411653,83.4455563 64.046891,94.4166968 C45.4466141,95.1191846 26.3783093,93.6044031 12.6373788,80.8367659 C3.32892183,71.105442 0.95288137,57.7626738 2.9760402,44.5814643 C5.1935904,41.8750186 7.47637554,39.6068966 9.79024578,36.9009009 C12.84184,40.1388252 17.7173857,42.7863177 18.5593105,47.3234619" id="Fill-33" fill="#FFFFFF"></path>
                <path d="M252.873561,43.1431172 C253.343597,45.0024683 253.429019,46.7601941 253.609937,48.7150643 C254.497443,62.9727063 248.309871,76.1198844 236.09199,83.3762823 C222.718073,91.407737 207.261628,94.1581635 190.859853,94.5585586 C190.579496,93.092624 190.397263,91.2350175 190.214155,89.575864 C188.918817,80.1984188 187.144681,70.7180399 184.504505,61.7204903 C202.059687,61.5220374 223.425099,66.1270172 235.015681,50.0798097 C236.562464,47.8436161 238.10881,45.7980246 239.465476,43.3651228 C242.060533,42.2066812 244.562283,40.5610486 247.062281,39.2072072 C249.166713,40.2910654 250.766939,41.9615591 252.873561,43.1431172" id="Fill-35" fill="#FFFFFF"></path>
                <path d="M184.502683,115.315315 C184.568154,121.060918 182.876879,127.002212 178.144774,129.742338 C175.921279,131.064509 173.329033,131.562214 170.831404,131.442142 C170.743968,130.932521 170.559803,130.314286 170.749037,129.700633 C174.630859,129.82483 178.340343,128.308801 180.38981,124.833117 C181.790054,122.276308 182.356065,119.406485 182.373383,116.227316 C183.022606,115.821269 183.762644,115.516047 184.502683,115.315315" id="Fill-37" fill="#FFFFFF"></path>
                <path d="M85.254737,131.295683 C84.4916578,131.414063 84.1317756,131.592693 82.6931686,131.302047 C75.9014874,131.302047 68.7909349,126.286388 69.2065735,117.792735 C70.0078988,117.504634 70.9124425,117.615801 71.747406,117.864442 C71.747406,122.687469 73.8620016,129.274314 84.9750334,129.274314 C85.7390342,130.392346 85.0040636,130.505635 85.254737,131.295683" id="Fill-39" fill="#FFFFFF"></path>
            </g>
        </g>
    </g>
</svg>