<?xml version="1.0" encoding="UTF-8"?>
<svg width="256px" height="256px" viewBox="0 0 256 256" version="1.1" xmlns="http://www.w3.org/2000/svg" xmlns:xlink="http://www.w3.org/1999/xlink">
    <!-- Generator: Sketch 63.1 (92452) - https://sketch.com -->
    <title>Teams/Defualt/CCavaliers/256</title>
    <desc>Created with Sketch.</desc>
    <defs>
        <polygon id="path-1" points="0 0 128.912599 0 128.912599 256 0 256"></polygon>
    </defs>
    <g id="Teams/Defualt/CCavaliers/256" stroke="none" stroke-width="1" fill="none" fill-rule="evenodd">
        <g id="Teams/Defualt/CCavaliers/base" transform="translate(60.000000, 0.000000)">
            <g id="Group-22" transform="translate(0.000000, 0.000000)">
                <g id="Group-3">
                    <mask id="mask-2" fill="white">
                        <use xlink:href="#path-1"></use>
                    </mask>
                    <g id="Clip-2"></g>
                    <path d="M55.5026789,129.1324 C56.5875287,127.967067 57.8060904,126.789289 59.0585258,125.605289 L58.9190197,140.9564 L58.9355108,140.943511 L58.725583,162.664844 C45.9297934,166.553289 39.8236136,167.199511 35.4654948,166.180844 L34.9177215,166.025289 C33.6804401,165.5364 33.4669466,164.420844 33.4611525,164.119511 C33.2512247,155.5484 48.055368,137.107067 55.5026789,129.1324 M81.7521209,132.431511 C81.5158965,132.8764 128.912778,105.304844 128.912778,105.304844 L128.912778,95.8684 L126.592429,93.5124 C113.862159,81.4346222 94.8968988,81.3546222 75.6677807,86.5844 L75.6865004,41.6186222 C75.7176999,35.1386222 75.7850015,28.9737333 75.2813531,23.2386222 C74.7429396,17.3777333 73.5947995,11.6981778 71.0498151,6.53551111 L67.8193339,-4.44444444e-05 L64.7929864,6.63195556 C62.2533504,12.1928444 61.0383543,18.0350667 60.4366505,24.0035111 C59.8607976,29.8572889 59.8607976,36.0075111 59.8309353,42.4928444 L59.3776517,92.1746222 C39.5597553,100.282622 21.3321399,112.162622 11.609497,120.175956 L0.931259283,136.6644 L14.2097491,133.396844 C-6.17419467,158.928844 1.10018207,175.641733 1.95281872,177.367511 C4.10780993,183.387956 9.00657071,188.200844 16.9557472,191.366178 C22.9892769,193.771067 29.8295354,194.074622 35.7017193,193.802622 C43.0416149,193.463511 50.7563497,191.826178 58.4840101,189.369733 L58.4563763,192.626178 C51.820697,196.232844 46.4668698,202.560844 43.6228163,210.1484 C42.5286067,213.130622 41.8524698,216.309289 41.6741872,219.577289 C41.660816,220.119956 41.6701758,221.9204 41.4789677,224.389733 C41.2931081,226.705289 40.8973207,229.631956 40.052261,232.585289 L39.5749093,234.239067 L37.8415565,238.329289 C38.0127078,239.035067 42.7550256,237.445733 44.8881772,236.667511 C45.2055203,236.5604 45.6922318,236.375067 46.3202324,236.021289 C47.4590126,235.385733 48.9414326,234.3484 50.7527841,232.608844 C51.8523422,231.547511 52.8311138,230.335956 53.6672593,229.215511 C54.4677483,228.155956 55.2036098,227.086622 55.8574613,226.190178 C56.7863138,224.910178 57.6665842,223.621289 58.5361577,222.407511 L58.5940996,233.366622 L58.6310932,240.655956 L58.6364417,242.6044 C58.3061731,243.071511 57.9045915,243.682622 57.4865188,244.439956 C56.5077472,246.255511 54.103606,252.1004 53.8455419,255.377289 C53.7804687,256.1644 56.1048285,256.047956 59.4930897,255.869733 C59.9575159,255.831067 60.6260758,255.783067 61.439936,255.667956 C62.9745036,255.466178 65.053279,255.075067 67.1672652,254.420844 C70.9513139,253.259956 76.9995519,250.538622 77.8539714,244.470178 L78.1463549,242.304844 L77.537074,241.900844 C85.6377907,234.833733 87.8061531,227.142178 87.5030727,220.759067 C87.3956574,218.571067 86.9958586,216.5764 86.5002329,214.870178 L89.4129253,215.353733 L92.8199062,215.957289 L93.4180444,212.545733 C95.4317466,200.891956 88.8107757,191.199511 75.6432669,189.310178 L75.6432669,182.569289 C88.5807911,176.411956 100.780225,168.398622 110.360242,160.091956 L110.817091,159.700844 L114.682704,140.331956 L107.137338,144.503956 C94.9989656,149.807511 83.9810994,154.017733 75.6642151,157.0004 L75.6659979,113.170178 C78.0269055,111.791956 80.3695392,110.591511 82.6101061,109.648844 C88.7960674,107.053733 92.7958381,106.021733 94.6517602,106.217733 C94.1481118,107.799956 93.3177604,109.771067 92.0840447,112.169733 C92.0840447,112.169733 82.1844563,131.646178 81.7521209,132.431511" id="Fill-1" fill="#FFB81C" mask="url(#mask-2)"></path>
                </g>
                <path d="M126.745098,103.94781 L126.658667,97.8823529 L95.1039547,116.785946 C94.8668339,117.343394 90.7511593,125.113542 90.3529412,125.490196 L126.745098,103.94781 Z" id="Fill-4" fill="#041E42"></path>
                <path d="M8.78431373,130.509804 C12.2916506,129.714577 16.211508,128.820207 20.0875579,127.969343 C22.3016613,125.592864 24.4432086,123.488293 26.3529412,121.72549 C22.3792371,122.55753 17.9916435,123.4816 13.6971408,124.388101 C12.8867023,125.385377 9.27121569,129.913279 8.78431373,130.509804" id="Fill-6" fill="#041E42"></path>
                <path d="M72.8968609,174.972545 C71.2992611,175.750042 69.6790599,176.493793 68.0486661,177.208238 C67.0174276,177.663814 65.9866322,178.118945 64.961598,178.540774 C64.2489931,178.83117 63.524866,179.09004 62.8171359,179.367559 C53.051613,183.167572 43.1664362,185.662136 33.9916485,186.091513 C28.3488638,186.356155 22.1113554,186.013808 16.8049308,183.900222 C11.9301462,181.949596 8.52444446,179.406633 6.2745098,176.469816 C7.99043397,181.379905 12.0116881,185.587983 19.2706854,188.480842 C24.5921775,190.603751 30.8017667,190.931002 36.459619,190.666804 C44.84868,190.277833 53.8293627,188.158475 62.7728197,184.905064 C63.489413,184.646194 64.2064495,184.398425 64.9248155,184.12801 C65.9631446,183.726607 66.9917242,183.286128 68.0353712,182.852754 C69.6662082,182.17916 71.2917273,181.477592 72.8968609,180.732065 C86.1403211,174.635525 98.7593657,166.411192 108.60643,157.829858 L110.431373,149.333333 C100.658759,158.730796 87.2282844,168.052773 72.8968609,174.972545" id="Fill-8" fill="#041E42"></path>
                <path d="M87.580736,209.059733 C76.1125805,205.936272 62.7017537,208.752551 56.5972233,216.140372 C54.0772633,219.17159 51.812651,223.654421 47.3553118,228.246266 C48.3074633,222.707275 48.2593927,220.911848 48.4305065,218.907219 C49.1436279,210.060723 53.7575274,202.582424 62.9848854,198.158735 C62.9901775,198.524617 63.0841138,198.863136 63.2896268,199.16105 C63.6706638,199.766146 64.3873132,200.217209 65.28963,200.434355 C66.1703371,200.572499 64.7696733,200.189404 65.28963,200.444948 C65.4311959,200.469222 65.5749668,200.50762 65.7218248,200.524392 C65.7513728,200.531895 65.7769517,200.531895 65.8007665,200.531895 C65.9388042,200.557493 66.0472939,200.566762 66.1703371,200.572499 C66.2087054,200.583092 66.2457507,200.583092 66.2933803,200.583092 C66.4203926,200.590595 66.5341745,200.590595 66.6519255,200.590595 L66.8009886,200.590595 C66.9535798,200.590595 67.1202835,200.583092 67.2988946,200.566762 C67.4364913,200.557493 67.5930517,200.524392 67.7403507,200.50762 C67.7637245,200.50762 67.7822471,200.487318 67.8135592,200.487318 C67.9388075,200.467016 68.0746401,200.434355 68.1923911,200.401254 L68.2272313,200.401254 C68.5085989,200.331079 68.7930536,200.235305 69.0616318,200.127173 C70.0428903,199.796158 70.8314252,199.242259 71.1388127,198.61686 L71.1388127,198.609357 C71.234513,198.465917 71.3262441,198.328215 71.3866632,198.182568 C74.7030964,198.881231 77.6142367,200.627668 78.8795089,202.627001 C72.9474154,202.359982 64.2695622,204.317386 57.114093,212.582178 C66.9257959,204.783014 78.2157813,204.740644 85.4541614,206.576235 C85.705981,202.228017 79.7813847,197.621608 76.5134632,195.818677 C82.4027782,197.742539 88.7128216,202.895344 87.580736,209.059733 L87.580736,209.059733 Z M78.2043149,233.26843 C81.2063044,226.89793 82.0848063,215.686219 75.1423474,210.697155 L77.505747,210.720989 C84.478195,216.313383 81.3937358,230.718288 78.2043149,233.26843 L78.2043149,233.26843 Z M70.3039712,239.176834 C76.6788438,223.796536 72.026135,212.381803 72.0909642,212.165098 C79.9785184,213.338217 82.5849174,230.483047 70.3039712,239.176834 L70.3039712,239.176834 Z M66.8300956,242.276462 C66.8300956,243.503425 64.2382501,243.497688 64.2457312,242.552308 L64.3577652,213.059281 C64.5897391,212.816095 66.372322,212.010624 67.0911765,211.942215 L66.8300956,242.276462 Z M72.4111411,192.636516 L72.4111411,184.470588 C70.8133436,185.19176 69.1904082,185.87939 67.5670318,186.52509 L67.5489502,194.998642 C67.543217,197.01607 64.2880848,197.363857 64.4128921,195.847807 L64.4627268,187.74102 C63.7381391,188.009804 63.0197256,188.260052 62.300871,188.521333 L62.240452,194.890069 L61.8285439,195.161943 C55.4391178,198.158735 50.114302,204.063608 47.4655656,211.162342 C47.4267563,211.263412 47.3919161,211.353449 47.3570759,211.443485 C46.3974271,214.079691 45.7980877,216.896411 45.6640191,219.786396 C45.5961028,220.882277 45.7341405,227.133171 43.9215686,233.468805 C43.9215686,233.442765 45.5961028,233.205758 48.823892,230.085828 C50.6139721,228.358811 52.2113286,225.915476 53.4964465,224.167715 C56.4486012,220.105936 58.8014166,215.981926 62.2805843,214.201063 L62.3083683,217.834288 C62.3559979,224.758246 62.44817,243.558594 62.4336165,243.624798 C62.416858,243.733371 59.4558829,246.862128 59.0422108,252.208246 C59.0236881,252.432454 73.578067,251.400569 74.6201855,243.850771 C74.6201855,243.850771 71.820622,242.007677 71.9180863,241.950743 C92.4191121,227.710903 81.0060835,210.625215 81.0060835,210.625215 C85.9758822,211.330057 88.7370774,211.820842 90.0513023,212.056525 C91.830798,201.729287 85.7095091,193.223076 72.4111411,192.636516 L72.4111411,192.636516 Z" id="Fill-10" fill="#041E42"></path>
                <path d="M72.7110723,162.850856 C70.8787635,163.492162 69.2562441,164.043193 67.8345868,164.516463 C66.658874,164.912866 65.6376018,165.250278 64.7743411,165.533167 C63.9186686,165.803097 63.1911014,166.039955 62.6719845,166.198159 C61.9448637,166.429208 61.5426931,166.557916 61.5426931,166.557916 C6.88231308,183.599662 24.3608867,148.031558 49.3365265,121.408661 C51.0411762,119.589766 54.8463971,115.969853 59.349279,112.341449 L59.4974706,96.627451 C41.1310866,104.384791 24.1198521,115.405862 14.455707,123.407211 C20.6935911,121.670993 27.0582415,120.298554 33.3760241,118.856846 C-20.9254824,170.847736 10.5281834,198.314385 62.5737853,177.459664 C63.278588,177.182137 64.002138,176.836234 64.7131898,176.543513 C65.7420501,176.103761 66.7722495,175.6868 67.8180715,175.21353 C69.4276465,174.486866 71.062664,173.690038 72.695896,172.866396 C84.3289361,167.081239 96.6859725,159.079443 109.176471,148.516001 C94.4997001,154.966149 81.4307192,159.816833 72.7110723,162.850856" id="Fill-12" fill="#6F263D"></path>
                <path d="M124.235294,96.0607176 C112.34905,84.5512581 94.0171505,84.7593398 75.2950106,90.1744603 L75.2941176,101.368617 C89.666913,94.2561318 106.282472,92.0272048 95.1552758,114.196078 L124.235294,96.0607176 Z" id="Fill-14" fill="#6F263D"></path>
                <path d="M78.8062719,101.60982 C77.6919867,102.071831 76.5304976,102.617965 75.2945715,103.245997 L75.2941176,109.176471 C77.4305495,107.991177 79.424008,106.994605 81.3334979,106.205002 C87.8998374,103.492581 93.5125668,101.782072 96.6080555,102.75817 C97.0732866,95.5507131 89.1126154,97.3555818 78.8062719,101.60982" id="Fill-16" fill="#041E42"></path>
                <path d="M58.9803922,114.196078 C55.8821755,116.752713 53.0099822,119.409318 50.6148499,121.991953 C43.5920468,129.581163 27.3500838,149.35776 27.6109486,159.73896 C27.6703579,162.459223 28.6217999,164.370759 30.196816,165.647059 C30.1445537,165.237316 30.105692,164.817262 30.0945248,164.370759 C29.8354467,153.981938 46.0814299,134.211169 53.1095932,126.627338 C54.8288891,124.772736 56.8036895,122.875097 58.916516,121.00077 L58.9803922,114.196078 Z" id="Fill-18" fill="#041E42"></path>
                <path d="M68.4789002,8.78431373 C63.8038587,18.9802137 63.8836559,30.4581904 63.8337269,43.1344856 L63.4655011,82.910328 L63.0709734,126.025863 L63.0678529,126.025863 L62.9564044,138.389283 L62.9564044,138.411442 L62.745098,161.882353 C63.3246302,161.697553 64.0379006,161.459573 64.8296307,161.202981 L64.9687184,136.734505 L64.9687184,136.726528 L65.0748174,116.920149 L65.1118183,110.488937 L65.1234089,107.841912 L65.1978565,94.3063192 L65.4020301,59.5701505 L65.5206113,32.6394491 C66.0279249,33.5816182 67.9234409,37.3272498 68.0883847,50.580546 L68.003238,93.3238221 L67.988081,105.980175 L67.9849605,108.51242 L67.9680203,114.809354 L67.9381521,134.262973 L67.9381521,134.270064 L67.9234409,134.306846 L67.8637045,160.193894 C69.3071854,159.713503 70.9370082,159.152456 72.7357869,158.531581 L72.7447028,130.273157 L72.7447028,130.269612 L72.7451486,126.025863 L72.7469317,97.282173 L72.7469317,92.3652559 L72.7469317,91.6561917 L72.7469317,90.2633237 L72.7473775,82.910328 L72.7491607,82.910328 L72.7598598,42.2406215 C72.8267288,29.5510314 73.0585417,18.0473511 68.4789002,8.78431373" id="Fill-20" fill="#041E42"></path>
            </g>
        </g>
    </g>
</svg>