<?xml version="1.0" encoding="UTF-8"?>
<svg width="256px" height="256px" viewBox="0 0 256 256" version="1.1" xmlns="http://www.w3.org/2000/svg" xmlns:xlink="http://www.w3.org/1999/xlink">
    <!-- Generator: Sketch 63.1 (92452) - https://sketch.com -->
    <title>Teams/Defualt/BCeltics/256</title>
    <desc>Created with Sketch.</desc>
    <g id="Teams/Defualt/BCeltics/256" stroke="none" stroke-width="1" fill="none" fill-rule="evenodd">
        <g id="Teams/Defualt/BCeltics/base" transform="translate(12.000000, 0.000000)">
            <g id="BCeltics">
                <g id="g10" transform="translate(115.000000, 128.000000) scale(-1, 1) rotate(-180.000000) translate(-115.000000, -128.000000) " fill-rule="nonzero">
                    <g id="g12">
                        <path d="M230.00329,135.628 C230.00329,166.381333 218.038032,195.296889 196.317682,217.044444 C177.558572,235.828889 153.461594,247.314222 127.449642,250.098222 C126.847273,250.698222 126.169885,251.251556 125.405494,251.744 C116.197283,257.673333 108.510309,253.269333 103.183983,250.677778 C102.801343,250.491111 102.352563,250.268444 101.849183,250.012 C91.8224253,248.864 82.1827464,246.413778 73.1028222,242.846222 C72.0312536,244.454222 70.7901161,245.971111 69.3936144,247.372 C63.8364611,252.935556 56.4473427,256.000007 48.5885807,256.000007 C32.3656793,256.000007 19.1668299,242.783556 19.1668299,226.540444 C19.1668299,219.733778 21.4617358,213.280444 25.6782741,208.061333 C9.62982442,188.264 0,163.053333 0,135.628 C0,104.871556 11.9626835,75.956 33.6831672,54.2093333 C44.2919632,43.588 56.6138043,35.3031111 70.0172904,29.6008889 C69.2679914,23.5151111 70.2561073,19.3862667 71.3658512,17.6934222 C69.6759332,16.2697778 68.9643655,15.3783111 68.6971392,13.7777778 C66.0302028,10.1284889 72.5204287,5.50137778 75.1847017,3.45555556 C80.6615095,-0.747048889 83.5415168,-0.0168402667 87.8060404,0.161805778 C93.0728847,0.381770667 98.027669,6.57066667 100.874828,10.5751556 C106.561599,11.3751556 107.628729,10.4840444 107.806288,9.77377778 C109.584541,10.0404444 112.073031,10.4840444 115.449316,11.9111111 C123.13185,15.1484444 120.95986,19.1173778 120.163064,19.8298667 C119.955764,20.0111111 119.785307,20.2706667 119.622396,20.5823111 C137.855488,21.3 155.332622,26.2498222 170.924523,34.9635556 C171.474956,34.3484444 172.044476,33.6427111 172.605119,32.8213333 C174.29193,30.3298667 175.179725,22.2333333 175.53573,18.0507111 C175.89218,13.8666667 176.603748,11.0173778 178.646564,4.43559111 C180.688937,-2.15243111 181.490616,2.65243111 181.581171,4.43559111 C181.668619,6.21337778 182.025956,12.6204889 181.75873,17.2498222 C181.490616,21.8768889 181.404056,28.5515556 182.290963,31.3982667 C183.180978,34.2458222 181.581171,34.9586667 181.135942,35.4911556 C180.688937,36.0267556 181.135942,36.2045333 179.978701,39.8524444 C179.915224,40.0555556 179.862844,40.2689333 179.820673,40.4854222 C185.670355,44.5022222 191.195992,49.0791111 196.317682,54.2093333 C218.038032,75.956 230.00329,104.871556 230.00329,135.628" id="path14" fill="#FFFFFF"></path>
                        <path d="M230.00329,135.628 C230.00329,166.381333 218.038032,195.296889 196.317682,217.044444 C177.558572,235.828889 153.461594,247.314222 127.449642,250.098222 C126.847273,250.698222 126.169885,251.251556 125.405494,251.744 C116.197283,257.673333 108.510309,253.269333 103.183983,250.677778 C102.801343,250.491111 102.352563,250.268444 101.849183,250.012 C91.8224253,248.864 82.1827464,246.413778 73.1028222,242.846222 C72.0312536,244.454222 70.7901161,245.971111 69.3936144,247.372 C63.8364611,252.935556 56.4473427,256.000007 48.5885807,256.000007 C32.3656793,256.000007 19.1668299,242.783556 19.1668299,226.540444 C19.1668299,219.733778 21.4617358,213.280444 25.6782741,208.061333 C9.62982442,188.264 0,163.053333 0,135.628 C0,104.871556 11.9626835,75.956 33.6831672,54.2093333 C44.2919632,43.588 56.6138043,35.3031111 70.0172904,29.6008889 C69.2679914,23.5151111 70.2561073,19.3862667 71.3658512,17.6934222 C69.6759332,16.2697778 68.9643655,15.3783111 68.6971392,13.7777778 C66.0302028,10.1284889 72.5204287,5.50137778 75.1847017,3.45555556 C80.6615095,-0.747048889 83.5415168,-0.0168402667 87.8060404,0.161805778 C93.0728847,0.381770667 98.027669,6.57066667 100.874828,10.5751556 C106.561599,11.3751556 107.628729,10.4840444 107.806288,9.77377778 C109.584541,10.0404444 112.073031,10.4840444 115.449316,11.9111111 C123.13185,15.1484444 120.95986,19.1173778 120.163064,19.8298667 C119.955764,20.0111111 119.785307,20.2706667 119.622396,20.5823111 C137.855488,21.3 155.332622,26.2498222 170.924523,34.9635556 C171.474956,34.3484444 172.044476,33.6427111 172.605119,32.8213333 C174.29193,30.3298667 175.179725,22.2333333 175.53573,18.0507111 C175.89218,13.8666667 176.603748,11.0173778 178.646564,4.43559111 C180.688937,-2.15243111 181.490616,2.65243111 181.581171,4.43559111 C181.668619,6.21337778 182.025956,12.6204889 181.75873,17.2498222 C181.490616,21.8768889 181.404056,28.5515556 182.290963,31.3982667 C183.180978,34.2458222 181.581171,34.9586667 181.135942,35.4911556 C180.688937,36.0267556 181.135942,36.2045333 179.978701,39.8524444 C179.915224,40.0555556 179.862844,40.2689333 179.820673,40.4854222 C185.670355,44.5022222 191.195992,49.0791111 196.317682,54.2093333 C218.038032,75.956 230.00329,104.871556 230.00329,135.628" id="path16" fill="#061922"></path>
                        <path d="M87.8060404,28.1951556 C92.0758908,28.3737778 98.027669,29.7071111 100.740327,30.8657778 C101.096777,30.7737778 101.673843,30.4196 102.564746,30.0635556 C102.915869,32.9116444 101.096777,38.8302222 100.073593,41.5444444 C99.3953173,43.3458222 98.7396807,44.568 97.9393334,46.4382222 C95.5405111,46.8848889 92.5624025,48.1737778 90.4294749,49.0617778 C90.4294749,47.3711111 90.7402031,42.9666667 91.0984285,40.0307111 C90.2084139,39.9418222 88.9628374,39.8524444 87.4500346,39.8524444 C87.6280375,36.6484444 87.9867067,30.8657778 87.8060404,28.1951556" id="path18" fill="#008348"></path>
                        <path d="M168.248708,37.6276 C167.447473,38.4298667 169.225283,40.9222222 170.026074,45.5466667 C170.822426,50.1751111 170.911206,57.9213333 167.535809,62.28 C165.891613,64.4022222 165.093485,65.7404444 164.816937,66.6942222 C154.290794,59.0284444 142.226991,53.9377778 129.404567,51.7555556 C129.250978,51.4831111 129.100053,51.2475556 128.960225,51.0666667 C127.09186,48.6631111 123.451013,45.192 120.781413,43.7689333 C118.115364,42.3449778 115.00453,41.2768889 113.316388,40.7413333 C112.962158,37.8951556 112.498729,31.5409778 113.228052,29.3524444 C113.497498,28.5515556 116.782784,26.592 117.938693,24.4560889 C118.058989,24.2347111 118.165081,24.0191111 118.271616,23.8022667 C136.408826,24.3276 153.47935,29.1973778 168.468882,37.4151111 C168.392975,37.488 168.31263,37.5640444 168.248708,37.6276" id="path20" fill="#008348"></path>
                        <path d="M194.012078,214.736 C176.490554,232.280444 154.170498,243.272444 130.016701,246.501333 C131.952982,242.667556 132.253057,238.262667 132.427953,235.458667 C135.894349,236.971556 138.558622,237.773778 139.982645,240.085778 C141.404449,242.401778 143.361149,241.955556 144.605394,240.263556 C145.849639,238.575111 145.849639,236.438222 142.562577,234.392444 C139.272409,232.343111 136.87403,231.364889 136.160687,231.008444 C135.448232,230.654667 136.071908,230.031111 136.87403,228.695111 C137.670827,227.361778 139.706097,224.063111 140.07098,217.126222 C140.074088,217.059556 140.078527,216.989778 140.080302,216.923556 C153.146426,212.898222 165.121894,205.716444 175.06298,195.763111 C191.112095,179.695111 199.950539,158.331556 199.950539,135.608889 C199.950539,122.559556 197.026586,109.958667 191.508052,98.5497778 C192.24359,98.1697778 193.239252,95.5857778 193.579721,92.1817778 C193.757281,90.4 193.668057,88.4417778 193.136712,87.1982222 C192.602259,85.9524444 188.407427,79.6484444 186.290924,77.7635556 C185.490577,77.0497778 183.62088,77.1377778 182.823196,78.296 C182.025956,79.4537778 181.936733,78.8315556 181.313057,78.2102222 C180.688937,77.5857778 178.554678,74.4728889 178.02644,73.6706667 C177.491543,72.868 175.712402,72.068 176.868311,68.864 C178.02644,65.6586667 179.355913,63.2586667 178.915566,61.4777778 C178.466342,59.696 178.292334,59.1635556 180.688937,57.1151111 C183.092642,55.0706667 183.004307,52.5786667 181.936733,50.9777778 C181.269111,49.9737778 180.217962,47.2968889 179.81002,44.5386667 C208.19638,64.8457778 226.741975,98.1093333 226.741975,135.628 C226.741975,165.510667 215.116742,193.606222 194.012078,214.736" id="path22" fill="#008348"></path>
                        <path d="M65.6741969,53.0262222 C65.3612492,56.0395556 64.9040347,61.488 67.0107724,65.3751111 C62.7209466,68.3284444 58.664167,71.6897778 54.903911,75.4568889 C38.856793,91.5253333 30.018571,112.886222 30.018571,135.608889 C30.018571,159.939111 40.2750456,181.916 56.684384,197.433778 C56.8384164,197.764 57.0355069,198.08 57.2756555,198.384889 C54.4981886,197.528444 51.5795623,197.082222 48.5885807,197.082222 C40.759693,197.082222 33.3973859,200.126667 27.8490218,205.648889 C11.9202026,185.854667 3.26143507,161.407556 3.26143507,135.628 C3.26143507,105.744444 14.8841064,77.6488889 35.9901915,56.5191111 C46.1071934,46.388 57.8265323,38.4475556 70.5703868,32.9173778 C71.0640008,35.2991111 71.8004269,37.9084889 72.8746589,40.7413333 C73.853453,43.3253333 72.341538,49.2848889 69.8521606,52.4013333 C68.5186924,52.7586667 66.8323256,52.9355556 65.6741969,53.0262222" id="path24" fill="#008348"></path>
                        <path d="M95.3039137,245.776889 C88.2481624,244.530222 81.36997,242.606222 74.7443553,240.049333 C76.8746196,235.920889 78.0109973,231.320444 78.0109973,226.540444 C78.0109973,220.203111 76.0241119,214.173778 72.3477525,209.161778 C78.497509,212.746667 85.1315577,215.590222 92.131378,217.549333 C92.5837096,217.992889 93.0395924,218.421333 93.496363,218.816889 C90.9186499,223.090667 87.4500346,229.943556 90.4743085,239.198667 C91.3265918,241.806222 93.1985077,244 95.3039137,245.776889" id="path26" fill="#008348"></path>
                        <path d="M139.982645,212.054667 C142.471578,210.808889 145.252153,208.099111 144.158833,203.067111 C143.713604,201.019111 142.006818,199.050222 141.850566,198.258667 C141.584671,196.925333 138.783678,194.656889 137.894107,192.877333 C137.010751,191.110667 136.87403,189.609333 137.131047,188.848444 C137.133267,188.839111 137.138149,188.832 137.139037,188.828444 C138.558622,187.491111 141.758679,185.712889 143.536045,185.090667 C144.925444,184.603111 144.828674,184.228 144.247169,183.309778 C145.225963,183.220889 145.729342,182.617778 146.649098,181.529333 C147.625673,180.370667 150.203386,181.083111 151.802305,181.886667 C153.404331,182.686222 155.446703,182.953778 157.050061,180.994222 C158.648092,179.037333 161.050022,175.388444 162.204156,172.007111 C163.360509,168.626222 164.60431,165.866667 164.961203,165.333333 C165.315434,164.799111 163.714739,155.009778 163.267734,151.093333 C162.824724,147.178222 162.47005,145.486222 162.381271,144.864 C162.292491,144.242667 164.870204,147.088444 164.961203,143.707556 C165.027344,141.010222 166.288013,132.359556 167.742665,125.952444 C168.110656,124.323556 168.490189,122.841778 168.869277,121.636444 C169.938626,121.458667 170.822426,119.322222 171.446546,116.031556 C172.068447,112.737778 173.401471,110.690222 173.491582,109.088 C173.58125,107.488 174.025147,107.221333 174.556049,106.953778 C175.091389,106.685778 174.91383,105.884 173.314023,104.019556 C173.669585,103.749778 174.202262,103.213333 174.556049,102.862667 C175.003941,103.306222 176.24641,104.726222 176.24641,104.726222 C176.24641,104.726222 181.135942,102.769778 182.202628,102.415111 C183.270201,102.06 184.538416,104.694222 187.712728,103.306222 C188.580991,102.926222 189.545137,101.719556 190.226963,100.534222 C195.204386,111.196889 197.993395,123.080889 197.993395,135.608889 C197.993395,157.808 189.356924,178.68 173.680239,194.376444 C164.112027,203.955556 152.62174,210.900889 140.080302,214.867111 C140.046122,213.646222 139.982645,212.486667 139.982645,212.054667" id="path28" fill="#FFFFFF"></path>
                        <path d="M165.667888,72.068 C164.426751,72.6911111 163.61575,71.7888889 163.00184,76.6942222 C162.824724,78.1182222 161.672366,79.9888889 160.782796,80.876 C159.892781,81.768 159.78669,83.4342222 160.247011,84.884 C160.95636,87.1093333 161.139689,89.1537778 161.050022,90.9333333 C160.95636,92.7142222 161.314585,94.9373333 163.803075,96.0084444 C162.913504,96.984 162.47005,98.2315556 162.204156,99.2102222 C158.559757,100.413333 157.832653,100.515556 157.091788,102.282222 C155.851094,105.245778 155.085371,109.574667 154.71516,111.931556 C154.530943,113.095111 154.410647,114.171556 154.383569,115.140444 C153.214787,117.349778 150.624644,122.262667 148.618671,125.952444 C147.881358,127.334667 147.215955,128.538222 146.738765,129.380889 C144.960068,132.494667 146.738765,136.588444 147.625673,138.991556 C148.516131,141.392444 149.227255,143.529333 148.42602,145.933333 C147.625673,148.335556 147.625673,148.870222 147.449001,149.847556 C147.271442,150.828444 146.470207,152.074222 145.407073,148.690222 C144.33728,145.310222 142.294019,140.325333 141.138554,135.162667 C140.482474,132.232889 140.025703,129.04 140.177516,125.952444 C140.293373,123.599111 140.762573,121.310222 141.758679,119.235556 C144.06961,114.429333 146.825769,109.979111 146.470207,107.310222 C146.115533,104.641333 145.53092,104.548444 145.491857,104.104889 C145.048847,98.9435556 142.825809,89.0648889 141.670343,86.2182222 C140.514434,83.3715556 135.983572,73.0488889 135.004778,68.6862222 C134.256811,65.3457778 132.201121,58.1942222 130.445062,53.952 C143.746008,56.4711111 155.93943,62.1697778 166.192575,70.2395556 C166.493981,70.9871111 166.440714,71.6822222 165.667888,72.068" id="path30" fill="#FFFFFF"></path>
                        <path d="M66.8860372,188.848444 C67.8674947,187.568444 69.1521341,186.393333 70.8300668,185.532 C75.1847017,183.309778 76.0751602,181.708 76.0751602,177.882222 C76.0751602,174.055556 76.786284,166.221333 78.0318605,164.887556 C78.8295444,165.688 79.7217784,166.845778 79.8975619,167.200444 C81.1395872,164.887556 83.6476083,160.605333 87.6280375,157.946667 C87.8970394,157.766222 87.7758554,156.785333 88.4288287,156.612889 C89.7627408,156.256 98.3836749,154.921333 98.6509012,153.139556 C100.430486,154.921333 103.273206,159.369778 103.807215,160.884444 C104.339892,162.394222 107.451614,167.200444 109.762544,169.870222 C109.762544,170.940889 109.762544,171.562667 109.851768,171.828889 C109.227648,171.294222 108.251517,169.96 106.827494,169.337333 C105.406134,168.714667 100.430486,166.577778 96.8735354,164.799111 C95.6306223,164.176444 93.4071396,163.463556 92.5184567,169.96 C91.628886,176.456444 92.5184567,179.839556 93.1403571,181.350667 C93.7622576,182.863556 94.9177229,184.199556 97.1420934,183.576 C99.3633567,182.953778 102.915869,181.619111 103.895551,181.619111 C104.071778,182.330222 104.696786,183.666222 102.297519,183.933333 C100.587626,184.122667 96.1357777,185.393778 93.6113324,188.848444 C92.590812,190.231556 91.8832393,191.984 91.8073328,194.167111 C86.7415741,193.365778 75.0963661,191.851556 72.5204287,191.230222 C69.9427157,190.606667 67.757852,190.077778 66.9211051,195.946222 C66.5650993,198.439556 65.9427549,201.908889 67.7214524,200.664 C69.1432562,201.731111 71.1114979,202.988 74.5628012,202.440889 C75.1953552,202.343111 75.9837173,201.811556 76.231856,201.319556 C76.4231758,200.454222 76.0534092,199.043111 75.6308187,197.726222 C74.8650955,195.340444 73.3651657,193.633333 78.2094195,194.744444 C83.2796172,195.910667 89.7179071,196.880889 91.4073811,197.236 C91.628886,198.970667 93.0506898,201.643556 94.7406078,203.600889 C96.4349647,205.566222 96.6964203,207.159556 96.7865315,207.783111 C96.8735354,208.404444 96.2902541,208.544 95.4521755,207.783111 C94.4747131,206.893778 91.5405504,205.112889 88.7843906,205.824889 C87.7199243,206.099556 86.3855683,208.139556 85.6753322,209.294222 C86.2590575,210.517778 87.7314656,212.629778 89.545231,214.758222 C80.0813354,211.72 71.2224723,206.977778 63.3463982,200.686667 C63.29535,199.700889 63.425412,197.405333 64.075278,194.877778 C64.5116293,193.182667 65.318635,190.884889 66.8860372,188.848444" id="path32" fill="#FFFFFF"></path>
                        <path d="M73.0544374,67.2635556 C76.6970606,68.6862222 79.5704094,68.6191111 82.3860515,64.86 C83.1863987,63.792 83.8082992,60.676 90.6527553,63.4373333 C87.0083565,67.796 84.8221612,72.964 82.8321685,79.9 C79.6831594,90.8537778 72.5648184,103.306222 75.1847017,109 C73.6763379,110.427111 71.8985282,115.942667 70.0306074,115.318222 C68.7774846,114.899111 67.0098846,114.874667 68.4299129,119.056444 C69.0722326,120.937333 70.1260453,123.216 72.1195892,125.952444 C74.555255,129.287111 78.4002955,133.302667 84.6073147,138.102222 C85.1417674,138.547556 85.2314347,138.899111 84.8758728,139.257778 C84.2521967,139.880444 83.6311841,140.591556 83.0097275,140.947556 C82.3860515,141.303556 81.764151,141.127111 81.2296984,140.591556 C80.6970213,140.057778 79.8074507,139.432889 79.2752175,139.080444 C78.7420966,138.725333 74.4749095,142.906667 72.2532024,145.933333 C70.0306074,148.957778 67.7214524,149.936444 67.0098846,150.293333 C67.8985675,151.272 69.9049844,153.395111 69.1432562,153.139556 C67.809788,152.696444 65.4735552,152.398667 63.0982595,154.921333 C60.1640968,158.034222 61.3208938,159.637778 60.6976616,160.080889 C60.0753173,160.527556 56.8752599,159.814667 54.4773254,163.552889 C52.0758397,167.290667 51.1152455,168.917778 53.0533021,171.562667 C54.0320962,172.897778 54.3872142,173.520889 54.1213196,175.210667 C53.8536494,176.903111 54.1213196,177.969778 56.3443585,180.106667 C58.5660656,182.241333 59.89909,184.199556 60.8756645,184.022222 C61.6529291,183.880444 59.405032,186.708 58.0435982,188.848444 C57.6906997,189.420889 57.3977273,189.934667 57.2308219,190.340444 C56.8810306,191.201778 56.3217197,192.684444 56.1929894,194.278222 C40.5750316,178.592444 31.9745168,157.763111 31.9745168,135.608889 C31.9745168,113.412 40.6095224,92.5404444 56.2879835,76.8435556 C59.9656746,73.1595556 63.9314552,69.872 68.1276186,66.9862222 C69.949818,68.968 72.1138185,68.2013333 73.0544374,67.2635556" id="path34" fill="#FFFFFF"></path>
                        <path d="M25.8209871,242.78 C33.1088525,240.912 38.5687923,235.012444 40.9649956,231.722222 C41.5786395,230.883111 42.2106608,231.008444 42.4778872,231.632 C43.0426136,232.953778 44.0778271,237.239111 44.0778271,240.532 C44.0778271,248.006222 45.0999899,250.963556 46.9683547,254.433333 C38.249408,253.955556 30.5987451,249.466667 25.8209871,242.78" id="path36" fill="#A73832"></path>
                        <path d="M21.4204977,219.881778 C35.1072793,218.636444 39.3650557,226.292 40.2547595,227.450222 C41.1421995,228.606667 40.0775112,229.319111 39.63206,229.943556 C37.2663969,233.258667 31.9686129,239.127556 24.6795046,240.996889 C22.1236314,236.776444 20.6273859,231.844889 20.6273859,226.548889 C20.6273859,224.249778 20.8968317,222.018222 21.4204977,219.881778" id="path38" fill="#A73832"></path>
                        <path d="M75.7298079,220.416444 C69.9524814,222.820444 63.0982595,220.598667 58.209172,216.324889 C53.3218601,212.054667 50.8338144,208.773778 49.1452282,198.626222 C48.9361524,198.622667 48.7292962,198.620444 48.5211082,198.620444 C41.2793638,198.620444 34.7044866,201.382222 29.744775,205.914667 C38.1018564,208.050667 45.1448236,211.876 53.0533021,219.351556 C60.9662196,226.827111 64.876957,235.548444 65.9427549,239.641333 C67.0098846,243.735111 65.4970818,241.332889 64.6980662,239.465778 C63.4609238,236.574222 59.3650812,228.784889 51.2781559,221.220889 C43.1881232,213.655556 36.9707611,209.923556 28.528407,207.074667 C25.7087698,209.973333 23.5392206,213.486222 22.1874194,217.392 C25.0318261,217.214667 33.991454,218.248889 38.4763728,221.932 C44.3743062,226.773778 45.0551563,232.523111 45.8555035,240.710667 C46.6540752,248.897333 47.8543741,251.332444 49.8092989,254.447556 C64.616833,253.773333 76.413854,241.541333 76.413854,226.548889 C76.413854,224.440444 76.1714859,222.389778 75.7298079,220.416444" id="path40" fill="#A73832"></path>
                        <path d="M74.9578701,217.616889 C73.6239579,219.486222 68.871147,220.383111 61.3208938,215.659556 C60.6106577,215.212444 60.1188192,214.904 60.9662196,214.056889 C62.5651386,212.453333 64.9688437,209.424444 66.6587617,205.330667 C70.4332224,208.568 73.3345368,212.799111 74.9578701,217.616889" id="path42" fill="#A73832"></path>
                        <path d="M64.4290643,203.603111 C62.8297015,207.518222 61.4980089,210.364 59.9887573,212.320889 C59.1724297,213.377778 59.010851,213.833333 57.4980482,212.498222 C53.296558,208.786667 51.676332,203.160444 50.7876491,198.711556 C55.8329885,199.117778 60.4996833,200.864889 64.4290643,203.603111" id="path44" fill="#A73832"></path>
                        <path d="M56.7886999,172.362667 C55.6332346,172.719111 54.74322,171.387111 54.2100991,170.316889 C53.6760904,169.247556 53.0533021,168.091556 54.74322,165.688 C56.4322502,163.284 57.4825118,161.854667 60.4322109,162.040889 C61.8540147,162.129333 63.0982595,163.197333 63.5412693,163.818667 C63.9864985,164.442667 64.075278,163.373778 63.3641541,162.306667 C62.6548059,161.240444 62.1221288,158.747556 63.4538214,157.056889 C64.7881774,155.366222 67.5425617,153.941333 71.1860727,156.076 C74.8304715,158.212889 76.3432743,160.794667 76.9633991,161.951556 C77.5866313,163.107556 77.5866313,163.641333 76.9633991,164.352444 C76.3432743,165.065778 74.2973505,168.453333 73.853453,175.122222 C73.5875584,179.128444 74.2986822,181.708 71.8088609,183.131111 C69.3203713,184.555556 63.6264976,187.924444 62.9198127,194.523111 C62.6548059,197.015111 62.8323649,200.841333 60.3434314,198.794222 C57.8536101,196.747556 57.8536101,195.323111 57.5868277,193.812 C57.3196014,192.296 58.5660656,190.251556 59.6323075,188.828444 C60.6976616,187.403556 61.9423503,184.288444 62.9198127,183.487556 C63.8981629,182.686222 64.5196194,182.064 65.3212984,181.973778 C66.1198701,181.886667 69.3203713,181.886667 70.1193869,181.619111 C70.920178,181.350667 71.3658512,180.370667 69.4087069,180.370667 C67.4528944,180.370667 64.4326155,179.839556 63.0982595,179.660889 C61.7665669,179.482222 60.5218782,179.394667 59.89909,176.724444 C59.2763017,174.055556 58.3862871,170.940889 58.2992832,169.96 C58.209172,168.982667 57.6760511,168.448 57.6760511,167.913778 C57.6760511,167.379111 58.742293,164.799111 61.142447,167.379111 C63.5412693,169.96 64.5196194,172.54 64.9652926,173.787111 C65.4083023,175.034222 65.9427549,174.856 65.4970818,172.897778 C65.0540721,170.940889 64.9217906,166.044444 65.8526437,164.352444 C66.8571839,162.536444 68.8849078,160.664444 71.4541868,161.951556 C71.9864199,162.219556 72.8746589,162.664 73.5875584,162.576444 C74.2986822,162.486222 73.4535013,161.240444 72.8298253,160.704444 C72.2092565,160.171111 70.1651083,157.906667 66.5650993,161.149778 C65.6741969,161.951556 64.4414935,163.731556 64.1649453,165.956 C64.075278,166.668 63.0982595,166.936 62.6548059,166.311556 C62.2095766,165.688 59.8094227,163.463556 58.1217242,165.065778 C56.4322502,166.668 55.7322238,167.554667 56.7003643,170.940889 C56.8752599,171.562667 57.2210561,172.229333 56.7886999,172.362667" id="path46" fill="#FAB383"></path>
                        <path d="M58.5660656,177.348 C58.1825382,176.197333 57.8536101,174.678222 57.6760511,174.143556 C57.4980482,173.610222 56.7003643,172.451556 55.9874648,173.964889 C55.2785605,175.477778 55.3127406,176.670667 56.4322502,177.792 C56.7886999,178.147556 57.3196014,178.859556 57.6760511,178.504889 C58.0320569,178.147556 58.6535135,177.614222 58.5660656,177.348" id="path48" fill="#FAB383"></path>
                        <path d="M62.5651386,181.440444 C61.8327076,181.073778 60.2701883,181.076 59.721087,179.839556 C59.3650812,179.037333 57.9432774,179.925333 58.6535135,180.905333 C59.3650812,181.886667 59.89909,181.796444 60.3434314,182.064 C60.7877728,182.330222 60.9662196,183.131111 61.8540147,182.686222 C62.7426976,182.241333 62.9198127,181.619111 62.5651386,181.440444" id="path50" fill="#FAB383"></path>
                        <path d="M121.139194,225.492444 C118.650705,225.226222 116.33933,223.711556 114.028844,222.109333 C111.716581,220.508889 103.363761,213.477778 101.405729,212.054667 C103.449877,210.986222 103.983442,208.850222 103.273206,205.290222 C103.113847,204.5 103.273206,204.221778 103.807215,204.756444 C104.339892,205.290222 106.827494,207.959556 106.741378,210.095111 C106.65171,212.231111 105.673804,213.477778 105.49447,213.744444 C105.318242,214.012889 106.207369,215.08 107.185275,212.855556 C108.16185,210.630222 107.894624,207.514667 104.963124,204.044444 C102.031181,200.573778 99.717587,200.664 98.4737861,200.04 C97.2304291,199.416889 95.9861842,198.439556 97.1420934,196.570222 C98.2966709,194.699556 100.517934,195.412889 101.405729,196.035111 C102.297519,196.66 103.539545,197.371111 106.38404,197.103556 C109.227648,196.837333 110.175369,198.648 108.251517,200.573778 C107.628729,201.197778 106.02759,202.621778 107.984291,202.621778 C109.141532,202.621778 110.560672,200.04 111.361907,199.328 C112.161811,198.616889 113.940064,198.350667 116.33933,198.172 C118.73904,197.994667 122.473106,197.104889 122.473106,194.789333 C122.473106,193.365778 121.706939,192.951556 120.693077,194.075556 C120.295789,194.523111 119.724937,193.820444 119.272605,193.365778 C117.761134,191.851556 113.893899,187.758667 111.139071,187.047556 C108.38513,186.336444 107.360171,187.137333 103.717104,189.094667 C100.073593,191.051556 96.6964203,193.009778 95.7189579,193.633333 C94.7406078,194.255556 92.6951279,195.680444 93.6730342,192.831111 C94.6522721,189.984444 97.0533139,187.047556 101.850959,185.444444 C106.65171,183.844444 107.360171,183.309778 108.428188,182.775111 C109.49443,182.241333 108.874305,181.708 107.451614,181.886667 C106.215359,182.039111 104.873901,183.131111 105.941474,180.728 C107.005941,178.325333 108.607523,175.745333 113.497498,176.366667 C118.381259,176.989778 118.525526,178.026667 121.582648,183.131111 C122.114881,184.022222 122.652441,183.398667 122.295547,181.083111 C124.693926,182.241333 126.025175,182.597333 127.447866,182.953778 C128.871889,183.309778 132.569556,184.565333 135.004778,189.094667 C136.249467,191.406667 136.919308,192.201778 136.69292,194.610667 C136.608136,195.507556 137.936721,197.28 139.272409,198.528 C140.604989,199.772 144.247169,204.490667 142.383243,207.872 C140.514434,211.254667 137.404932,209.561778 135.894349,207.069778 C134.38199,204.576889 132.693847,201.820889 132.604624,197.548444 C131.53927,197.902222 130.449057,197.512 129.939019,196.66 C129.671793,196.214222 125.760168,196.747556 124.425812,196.391556 C123.094119,196.035111 122.652441,196.837333 124.072913,198.704444 C125.495605,200.573778 130.502325,207.345333 130.20447,212.410667 C130.118354,213.923111 130.318552,214.202222 130.560032,215.346222 C130.871204,216.814667 131.007481,216.838222 129.182618,217.839111 C127.996524,218.490222 127.922837,220.343111 127.71598,221.755556 C127.4927,223.266667 127.205054,223.273778 125.495605,222.911556 C124.228277,222.643111 122.114881,223.891556 121.139194,225.492444" id="path52" fill="#FAB383"></path>
                        <path d="M110.740451,197.637333 C110.252163,196.525333 108.908485,195.459111 105.806529,195.812889 C104.252,195.991556 102.731651,196.011556 102.473747,194.789333 C102.297519,193.943556 101.588615,193.990667 100.608045,194.032 C99.583086,194.075556 98.4737861,194.344444 98.4280646,193.987111 C98.3836749,193.633333 102.786251,191.007556 104.252,190.340444 C105.719082,189.672 107.856448,188.082667 109.584541,188.249778 C111.895916,188.471111 113.90766,189.616444 117.318124,193.233333 C118.724836,194.723111 119.851448,195.501778 118.518423,196.125333 C117.611985,196.546222 116.694448,196.66 115.497701,196.66 C114.294738,196.66 111.716581,196.837333 110.740451,197.637333" id="path54" fill="#FAB383"></path>
                        <path d="M94.1622093,197.592444 C92.9623542,197.637333 92.8296289,198.528 93.6295322,199.861778 C94.4281039,201.197778 95.1862809,202.440889 96.2525228,203.243556 C96.429194,202.665778 96.7865315,201.953778 97.317433,201.643556 C96.6089725,200.886222 95.6683536,199.938667 95.8450248,198.068 L94.1622093,197.592444" id="path56" fill="#FAB383"></path>
                        <path d="M121.220428,203.12 C119.69342,203.12 117.426879,203.616889 115.80399,204.727111 C114.162457,205.850222 113.613799,206.391556 113.902777,208.052 C114.081224,209.079556 114.172666,209.632889 114.234812,210.011111 C114.280534,210.288 114.311162,210.470222 114.348006,210.676444 C114.486058,211.459111 114.440781,211.974667 114.208622,212.250667 C114.084775,212.399111 113.909435,212.476889 113.702579,212.476889 C113.361222,212.476889 112.912441,212.260889 112.334043,211.815111 C111.396975,212.521333 110.506961,213.310222 109.849548,213.894222 C109.337291,214.348444 108.967968,214.676 108.737141,214.829778 C108.552924,214.952444 108.329199,215.148444 108.304785,215.392 C108.286585,215.573778 108.383799,215.772889 108.593318,215.983556 C108.721605,216.112889 108.888066,216.137778 109.114454,216.137778 L109.217438,216.137333 L109.323086,216.136 C109.482445,216.136 109.779856,216.136 109.976059,216.362667 C110.166935,216.582667 110.2131,216.951556 110.12654,217.56 C110.130092,217.594667 110.195344,217.660889 110.59796,217.660889 C110.704939,217.660889 110.816357,217.656444 110.925112,217.652444 C111.045408,217.648444 111.154163,217.643556 111.25404,217.643556 C111.483535,217.643556 111.626026,217.666667 111.731674,217.718667 C111.931872,217.818222 111.982032,218.012444 112.018876,218.153778 C112.070368,218.349778 112.091231,218.430222 112.396188,218.430222 C112.568865,218.430222 112.799247,218.394222 113.081566,218.322667 C113.132614,218.310222 113.181443,218.304 113.228052,218.304 C113.519693,218.304 113.659965,218.532444 113.762061,218.698667 L113.815773,218.783556 C113.928523,218.956889 114.036834,219.051111 114.284972,219.051111 C114.343567,219.051111 114.407932,219.044889 114.4794,219.033333 C114.72088,218.992889 114.933507,218.940889 115.121275,218.894667 C115.37918,218.832 115.603348,218.777333 115.799107,218.777333 C116.322018,218.777333 116.48626,219.172444 116.565274,219.470667 C116.723746,220.071111 116.845817,220.254222 117.089961,220.254222 C117.303476,220.254222 117.622638,220.123111 118.03857,219.865778 C118.40301,219.639111 118.711519,219.529333 118.979633,219.529333 C119.388906,219.529333 119.67744,219.787556 119.76977,220.239111 C119.772434,220.250667 119.778205,220.28 119.892286,220.28 C120.156849,220.28 120.623829,220.102222 121.110341,219.816889 L121.350046,219.679556 C122.183241,219.205333 123.91533,218.217778 125.894669,215.907111 C126.345669,215.381778 126.475731,214.977333 126.442882,214.886667 C126.43356,214.888444 126.423795,214.889333 126.412697,214.889333 C126.377185,214.889333 126.332796,214.881778 126.288406,214.875111 C125.987887,214.828 125.533336,214.756889 125.440562,213.996444 C125.387738,213.576889 125.2559,213.333778 125.194198,213.292889 C125.192867,213.305333 125.128058,213.354667 125.035727,213.539111 C124.915875,213.778222 124.756515,214.022667 124.485294,214.022667 C124.428919,214.022667 124.38231,214.011556 124.348574,214.003111 C124.328598,214.035111 124.293974,214.099111 124.248253,214.225333 C124.204751,214.344 124.072025,214.700444 123.74221,214.700444 C123.581963,214.700444 123.452788,214.611556 123.358682,214.547111 C123.34137,214.535111 123.322726,214.521778 123.305858,214.511111 C123.25481,214.641778 123.11587,214.970667 122.796708,214.970667 C122.715031,214.970667 122.64667,214.949778 122.590295,214.932889 C122.569876,214.926222 122.541911,214.917778 122.52593,214.915111 C122.52593,214.923111 122.500184,214.955556 122.463785,215.037778 C122.402971,215.180444 122.270689,215.261778 122.10112,215.261778 C121.977273,215.261778 121.842772,215.220889 121.700725,215.176444 C121.547136,215.129333 121.419738,215.092444 121.325187,215.092444 C121.246174,215.092444 121.22753,215.115111 121.210218,215.147111 C121.087702,215.373333 120.904373,215.407111 120.806271,215.407111 C120.649575,215.407111 120.504865,215.329778 120.365037,215.255111 C120.255838,215.198222 120.130215,215.131111 120.045431,215.131111 C120.021904,215.131111 119.973963,215.131111 119.903828,215.222222 C119.855887,215.284444 119.710288,215.474222 119.49633,215.474222 C119.28459,215.474222 119.157192,215.302222 119.055095,215.163556 L119.01115,215.104889 C118.907721,214.969778 118.838473,214.919556 118.759904,214.919556 C118.726611,214.919556 118.687992,214.927111 118.644934,214.943556 C118.529521,214.986667 118.428756,215.006667 118.335094,215.006667 C118.025697,215.006667 117.886757,214.782667 117.812182,214.661778 C117.738495,214.542667 117.725622,214.537778 117.699876,214.537778 C117.679013,214.537778 117.630184,214.542667 117.542293,214.581333 C117.433538,214.629333 117.332773,214.653778 117.236447,214.653778 C116.881773,214.653778 116.731292,214.343111 116.632303,214.138667 C116.529318,213.927111 116.484041,213.871556 116.419232,213.871556 C116.400144,213.871556 116.378393,213.875111 116.353091,213.881778 C116.207937,213.92 116.093411,213.937778 115.99309,213.937778 C115.490598,213.937778 115.422238,213.511556 115.349883,213.059556 C115.337454,212.982222 115.324137,212.899111 115.308156,212.809333 C115.182533,212.090222 114.85982,209.110222 114.908649,208.345778 C114.953038,207.631556 115.883004,207.631556 116.233683,207.631556 C116.891983,207.631556 117.794426,207.751556 118.906834,207.907556 C121.097912,208.213778 125.120511,209.427111 127.199284,211.164 C127.730629,211.608 128.143898,211.655556 128.296154,211.655556 C128.425772,211.655556 128.488362,211.624 128.500347,211.612889 C128.516771,211.506222 128.266413,210.940889 127.743502,210.497778 C127.692454,210.454222 127.633859,210.403111 127.567275,210.344 C126.91874,209.772 125.401055,208.431111 122.339049,207.835556 C119.40755,207.264 116.701995,206.750667 115.792892,206.750667 C115.672596,206.750667 115.61489,206.76 115.591363,206.765778 C115.537207,206.778222 115.489267,206.784444 115.443989,206.784444 C115.292176,206.784444 115.174099,206.708889 115.128822,206.583556 C115.068452,206.417778 115.159007,206.223111 115.382731,206.036 C115.673484,205.791556 116.083201,205.645778 116.477826,205.645778 C116.596791,205.645778 116.716199,205.658222 116.8325,205.683111 C116.935929,205.682667 117.256423,205.382222 117.491244,205.163111 C118.123354,204.570667 119.078178,203.676444 120.338847,203.676444 C121.926669,203.676444 124.218068,205.384 124.882138,205.907556 C125.18532,206.145778 125.880464,206.501333 126.27864,206.616444 C126.213387,206.532444 126.111735,206.416 125.952375,206.256444 L125.836962,206.140444 C124.376983,204.676444 122.866844,203.162222 121.399762,203.122667 C121.341168,203.120889 121.281685,203.12 121.220428,203.12 L121.220428,203.12" id="path58" fill="#061922"></path>
                        <path d="M139.982645,205.112889 C138.953246,204.383111 138.381063,204.132889 138.294059,202.888444 C138.206611,201.643556 137.958472,199.517333 137.494155,199.328 C136.887347,199.080889 136.97302,200.481778 136.784807,200.04 C136.515361,199.416889 135.759848,199.684444 135.540118,200.261778 C135.441129,200.512444 133.2283,200.486667 135.004778,203.067111 C136.614794,205.403556 137.849273,206.627556 139.004295,207.159556 C140.159316,207.694667 142.11646,206.627556 139.982645,205.112889" id="path60" fill="#061922"></path>
                        <path d="M183.488155,99.3435556 C183.078437,100.388 183.800659,102.147556 186.025029,100.903111 C188.24718,99.6555556 189.935323,98.5862222 188.336404,93.6933333 C186.73349,88.7991111 185.580688,85.9524444 184.957012,83.904 C184.336887,81.8564444 181.936733,79.2768889 182.734861,82.7466667 C183.53654,86.2182222 183.96135,90.4124444 183.62088,92.5373333 C183.004307,96.4524444 184.259205,96.2213333 183.847712,98.0102222 C183.720313,98.56 183.639524,98.9688889 183.488155,99.3435556" id="path62" fill="#FAB383"></path>
                        <path d="M191.892023,95.1173333 C192.531679,93.1933333 193.225047,88.7991111 192.157918,87.0204444 C191.090788,85.2395556 187.801063,80.3457778 186.56037,79.0973333 C185.313018,77.8524444 184.336887,78.3862222 185.133683,79.7222222 C185.934918,81.0568889 187.002936,82.8355556 187.002936,83.4577778 C187.002936,84.0822222 186.9146,84.7928889 187.981286,86.8417778 C189.045308,88.8871111 190.913229,95.7417778 191.090788,96.2746667 C191.267903,96.8071111 191.713576,95.6497778 191.892023,95.1173333" id="path64" fill="#FAB383"></path>
                        <path d="M168.958057,78.6537778 C168.425824,80.2546667 168.156822,82.5688889 167.270802,83.904 C167.979263,85.8626667 170.322598,91.1253333 174.29193,92.7142222 C174.73272,92.8928889 175.003941,93.3386667 174.825494,93.6933333 C174.644384,94.0493333 175.35684,94.3151111 175.712402,93.0697778 C176.069739,91.8271111 176.69164,88.2666667 176.69164,88.2666667 C176.868311,87.464 176.514081,86.8417778 176.336522,85.772 C176.156743,84.7044444 175.712402,82.3031111 175.981404,81.0568889 C176.24641,79.8111111 176.69164,78.9204444 179.178354,79.4537778 C180.425706,79.7222222 180.336038,80.0777778 180.688937,81.1457778 C181.044943,82.2133333 182.025956,85.2395556 182.380187,86.9315556 C182.734861,88.6213333 182.426352,92.76 182.07079,93.8253333 C181.713452,94.8933333 182.202628,98.5 181.936733,99.2102222 C181.668619,99.9235556 181.490616,100.988 179.270684,101.701333 C177.048089,102.415111 176.426189,102.592889 174.91383,101.080889 C173.401471,99.5648889 172.871457,98.9435556 172.159446,98.2315556 C171.446546,97.5204444 169.670956,98.1453333 171.181096,99.5648889 C172.692123,100.988 174.115258,102.415111 174.556049,102.862667 L174.115258,104.019556 L173.314023,104.019556 C170.911206,101.613333 167.713368,100.189778 165.579553,99.7457778 C164.777874,99.5777778 163.267734,99.48 164.334864,98.0537778 C164.60431,97.6973333 164.689094,96.7182222 165.315434,97.0728889 C165.937334,97.4315556 166.912133,99.0324444 167.801704,98.3213333 C168.691718,97.612 167.627252,95.9164444 166.557459,95.1173333 C165.494324,94.3151111 164.334864,93.5164444 163.53718,93.0697778 C162.736389,92.6253333 162.292491,92.1817778 162.381271,90.7564444 C162.47005,89.3346667 162.55883,86.7506667 161.757151,84.7928889 C160.95636,82.8355556 161.402921,82.3031111 162.111825,80.9688889 C162.824724,79.6315556 163.980634,78.4746667 164.334864,76.3395556 C164.689094,74.2053333 164.870204,73.6706667 166.291564,73.8475556 C167.713368,74.0253333 168.248708,74.6497778 168.780942,75.5395556 L168.958057,78.6537778" id="path66" fill="#FAB383"></path>
                        <path d="M169.489846,74.5608889 C168.869277,73.4928889 167.801704,71.8031111 167.801704,70.288 C167.801704,68.7751111 166.291564,67.172 166.469123,66.4608889 C166.646682,65.7515556 168.603383,63.8808889 169.759292,61.9235556 C170.911206,59.9648889 172.421789,57.0302222 172.421789,52.1346667 C172.421789,47.2377778 170.822426,40.5666667 170.647975,39.6760444 C170.467752,38.7848889 170.026074,38.0712 171.358211,36.8276 C172.692123,35.5791556 174.825494,33.2666667 175.625398,28.0182222 C176.426189,22.7657778 176.958422,20.008 177.313984,19.7404444 C177.672209,19.4729333 177.580323,19.0302222 177.580323,18.0507111 C177.580323,17.0706667 178.466342,11.4632 179.093569,10.3951556 C179.711918,9.32675556 179.624471,16.4467111 179.533472,18.4951556 C179.444692,20.5404444 179.624471,30.3298667 179.978701,31.7529333 C180.336038,33.1783111 180.688937,34.7808889 179.444692,36.5595556 C178.203999,38.3413333 176.069739,41.4560889 177.672209,46.6155556 C179.270684,51.78 181.848397,51.688 181.044943,53.7355556 C180.246371,55.784 178.824123,57.2071111 177.760545,58.3608889 C176.69164,59.5195556 177.539928,62.276 177.491543,63.4373333 C177.402763,65.5728889 175.712402,65.9284444 175.53573,68.3315556 C175.35684,70.7346667 175.179725,72.6911111 176.958422,75.0942222 C178.735788,77.4942222 176.336522,77.408 175.53573,78.9204444 C174.73272,80.4324444 174.30791,82.4568889 175.003941,85.5951111 C175.35684,87.1982222 175.179725,87.6417778 174.73272,87.8191111 C174.29193,87.9968889 172.421789,88.3537778 172.421789,88.3537778 L169.670956,82.8355556 C170.115741,81.768 170.291081,80.1657778 170.291081,79.0973333 L169.489846,74.5608889" id="path68" fill="#A73832"></path>
                        <path d="M143.804603,182.863556 C141.614856,179.941333 138.206611,172.54 136.604585,167.913778 C135.004778,163.284 131.360379,152.250667 133.941643,144.952444 C136.515361,137.656889 141.584671,142.283111 142.737473,145.043556 C143.892938,147.800444 145.672967,152.517778 146.204757,153.762667 C146.738765,155.009778 147.005548,155.722222 147.981679,152.785333 C148.959585,149.847556 150.380501,142.818222 150.380501,142.194667 C150.380501,141.571111 149.402151,139.790667 148.339016,137.033333 C147.271442,134.274222 146.649098,132.317333 147.714896,130.624 C148.782026,128.934222 152.959546,121.725333 154.292126,118.611111 C155.092473,116.741333 155.802709,116.386222 157.936081,116.922222 C160.07034,117.453778 165.225322,119.235556 166.735018,119.946667 C168.248708,120.657778 167.535809,121.904444 167.089692,123.415111 C166.415856,125.718222 163.714739,138.547556 163.714739,140.236 C163.714739,141.927111 164.167958,144.143556 161.93471,141.66 C161.139689,140.769778 160.07034,141.66 160.336235,142.906667 C160.604793,144.154222 163.267734,161.507111 163.448844,163.641333 C161.93471,166.936 157.492627,177.348 156.249714,179.216 C155.004138,181.083111 154.560684,181.172889 152.692319,180.193333 C150.827506,179.216 146.6562,177.714222 145.137627,181.261333 C144.871288,181.886667 144.428723,183.309778 145.491857,183.487556 L144.694617,183.756 C144.694617,183.756 144.06961,183.220889 143.804603,182.863556" id="path70" fill="#FFFFFF"></path>
                        <path d="M167.089692,118.878667 C165.436174,117.930222 159.804446,115.499111 157.492627,115.140444 C155.120883,114.774667 155.715261,114.160889 156.159603,112.38 C156.602613,110.603111 157.936081,105.264 158.648092,103.392889 C159.360548,101.524444 160.336235,101.556 162.204156,101.613333 C165.047319,101.701333 169.847627,102.949778 173.314023,106.152889 C172.332566,107.310222 170.624004,112.855556 170.115741,115.229333 C169.578182,117.721333 169.578182,120.301333 167.089692,118.878667" id="path72" fill="#FFFFFF"></path>
                        <path d="M116.159552,170.228444 C115.981105,169.870222 115.36098,168.802667 113.940064,168.802667 C112.518704,168.802667 111.361907,169.247556 110.470561,168.003111 C109.584541,166.758222 104.696786,160.794667 103.628324,157.147111 C104.696786,154.921333 106.119921,150.916 107.185275,148.068 C110.651671,151.004444 121.717593,161.817778 123.805687,163.908444 C124.606922,164.708889 124.693926,165.421778 123.539348,166.221333 C122.383883,167.025333 118.115364,169.693778 117.40646,170.138222 C116.694448,170.584889 116.33933,170.584889 116.159552,170.228444" id="path74" fill="#FFFFFF"></path>
                        <path d="M88.162934,154.564 C87.4788879,151.822222 86.1214493,147.000889 83.8970787,143.262222 C84.7857616,141.838222 85.4959976,140.591556 86.5622395,140.146222 C89.0516169,141.927111 93.7622576,146.291111 95.0952819,147.890222 C96.429194,149.492444 98.1177802,151.894667 98.1177802,152.428889 C98.1177802,152.964 97.494992,153.139556 96.6964203,152.964 C95.8951853,152.785333 92.6050167,154.102222 89.4067349,154.742222 C88.518496,154.921333 88.2526013,154.921333 88.162934,154.564" id="path76" fill="#FFFFFF"></path>
                        <path d="M86.2097849,157.233333 C85.2318786,157.428444 81.8533744,161.060889 80.6970213,163.017778 C79.541556,164.977333 79.3613336,164.799111 78.9205434,163.373778 C78.4753141,161.951556 76.786284,158.836444 75.6308187,157.321778 C74.4749095,155.810667 71.4541868,151.894667 70.6529517,151.004444 C69.8521606,150.114667 70.6529517,149.759111 71.3658512,149.046667 C72.0760872,148.335556 75.720486,143.886667 76.5190577,142.906667 C77.3207367,141.927111 78.2094195,140.146222 80.3401277,142.105778 C82.4752749,144.064 85.052544,147.624444 86.2097849,151.272 C87.3643624,154.921333 87.4500346,156.835556 88.4288287,156.612889 L88.4736623,157.369778 L88.2068799,157.811556 L87.6728711,158.256444 C87.8060404,157.946667 87.8060404,157.680444 87.586755,157.321778 C87.3643624,156.968 86.6523507,157.147111 86.2097849,157.233333" id="path78" fill="#FFFFFF"></path>
                        <path d="M140.604989,239.106222 C138.210162,236.274667 133.402308,233.768889 125.318046,231.722222 C117.228457,229.673778 109.49443,223.979111 106.207369,221.220889 C102.915869,218.461778 94.6278578,211.667556 90.6527553,210.007556 C89.5865134,209.561778 87.3190848,208.055111 90.2084139,207.694667 C92.3408977,207.427111 93.8505932,208.671556 98.4737861,212.054667 C103.096979,215.437333 106.683671,217.874667 110.207774,221.308444 C113.497498,224.513778 119.449276,227.539111 125.849835,229.319111 C132.250394,231.100444 140.656481,233.897778 143.091703,236.529333 C144.247169,237.773778 144.33728,238.397778 143.272813,239.465778 C142.205684,240.532 141.584671,240.263556 140.604989,239.106222" id="path80" fill="#FFFFFF"></path>
                        <path d="M99.8068104,211.12 C99.1098912,210.736444 98.8306797,210.318667 98.027669,207.738222 C97.2304291,205.156444 97.317433,203.645778 97.984611,203.021778 C98.4693471,202.570222 99.1813587,202.532 99.5409157,202.532 C99.8068104,202.532 100.073593,202.440889 100.031423,203.199556 C99.9834816,203.955556 99.9346529,207.182222 102.340134,208.626667 C102.786251,208.894222 102.281095,210.760444 100.697269,210.496444 C100.162816,210.406667 100.697269,211.608444 99.8068104,211.12" id="path82" fill="#FFFFFF"></path>
                        <path d="M72.341538,200.930222 C73.5875584,200.930222 74.3874617,200.930222 74.2986822,199.506667 C74.2103466,198.082222 73.5875584,196.125333 73.4987788,194.789333 C73.4086676,193.454667 73.4086676,192.920889 74.2103466,192.920889 C75.0066988,192.920889 73.0544374,192.121333 71.9864199,191.94 C70.920178,191.762667 69.2786449,191.151111 68.4299129,195.680444 C68.1653499,197.103556 68.2541294,199.328 68.0770143,199.861778 C69.2324796,200.396444 70.8211889,200.930222 72.341538,200.930222" id="path84" fill="#FFFFFF"></path>
                        <path d="M95.9693161,197.129333 C96.2973564,195.333333 96.7865315,195.368 96.429194,195.100444 C96.0731882,194.834222 95.701202,195.779556 94.250101,195.545333 C92.8735747,195.323111 81.6753715,193.586222 80.8754681,193.497333 C78.3869785,193.233333 78.2529215,193.633333 80.5629643,194.122222 C82.8747827,194.610667 91.330143,196.153778 93.8505932,196.66 L95.9693161,197.129333" id="path86" fill="#FFFFFF"></path>
                        <path d="M82.4752749,61.0342222 C83.6311841,60.3204444 86.3855683,59.5195556 91.0984285,61.4777778 C95.8072935,63.4373333 101.052387,62.1022222 101.850959,58.7195556 C102.651306,55.3373333 102.680603,50.9777778 101.229502,49.1071111 C99.9834816,47.5062222 98.8306797,47.6848889 97.4088759,48.1275556 C94.8311629,48.9373333 88.8745018,51.688 87.1859155,52.4902222 C85.4959976,53.292 82.65239,54.1791111 80.6077979,54.1791111 C79.8074507,55.8728889 79.8975619,58.8084444 80.4293511,59.8768889 C80.9638037,60.9448889 80.9638037,62.0133333 81.4072574,61.7457778 C81.8533744,61.4777778 82.4752749,61.0342222 82.4752749,61.0342222" id="path88" fill="#FFFFFF"></path>
                        <path d="M101.141166,45.2831111 C102.297519,45.2831111 104.388277,44.796 105.05146,42.7 C105.581917,41.0102222 109.050089,40.5666667 110.560672,40.6546667 C112.073031,40.7413333 111.806249,39.9418222 111.716581,39.0507111 C111.628246,38.1626667 111.361907,35.4911556 111.361907,34.4236 C111.361907,33.3564444 111.628246,29.6196 111.806249,28.9062667 C111.983808,28.1951556 111.361907,27.8378667 110.560672,27.4831556 C109.762544,27.1276 106.827494,26.2373333 104.963124,27.5712 C103.980335,28.2743111 102.827533,29.2609333 103.983442,29.3524444 C105.139795,29.4396 102.564746,39.4982667 101.850959,41.2768889 C101.141166,43.0560889 99.0939109,45.2831111 101.141166,45.2831111" id="path90" fill="#FFFFFF"></path>
                        <path d="M70.5632844,66.284 C71.0431377,66.1235556 71.2761839,65.6586667 71.6304141,65.0377778 C71.9864199,64.4164444 72.107604,63.8768889 71.5429663,63.2586667 C70.5632844,62.1888889 69.4087069,57.296 69.5871537,53.8244444 C68.9643655,54.0022222 67.6326729,54.268 66.9211051,54.0902222 C66.6538788,56.0497778 66.8323256,62.1888889 67.7214524,64.1484444 C68.6105791,66.1022222 69.4974864,66.6386667 70.5632844,66.284" id="path92" fill="#FFFFFF"></path>
                        <path d="M70.7412873,12 C72.9563361,9.504 77.1409581,5.67777778 80.2517921,4.34270667 C83.3639577,3.00850667 85.4085498,2.56492889 88.162934,2.83072889 C90.3917436,3.04756889 89.9402998,2.12048444 88.162934,1.85156444 C86.3855683,1.58489778 82.297272,1.58489778 79.6334428,3.00850667 C76.9633991,4.43559111 72.7343873,7.06577778 70.0306074,10.9307111 C69.4087069,11.8222222 70.0306074,12.7982667 70.7412873,12" id="path94" fill="#FFFFFF"></path>
                        <path d="M117.048679,18.2276 C115.242459,17.4045333 111.895916,15.7356 108.697634,14.9347111 C109.050089,13.3307111 109.141532,12.6204889 109.141532,12.1768889 C111.094681,12.1768889 114.862483,13.5435556 117.938693,15.4689333 C118.650705,15.9151111 118.918375,16.4467111 118.650705,17.0706667 C118.381259,17.6934222 118.027029,18.6729333 117.048679,18.2276" id="path96" fill="#FFFFFF"></path>
                        <path d="M95.9861842,25.5262222 C95.5405111,25.9680444 98.0720588,26.5031111 98.6047358,26.5031111 C99.2284119,26.1031111 100.36257,25.1008889 100.786492,24.6783111 C101.052387,24.4124889 100.920105,24.2347111 100.651991,24.0538222 C100.386097,23.8786667 98.8306797,23.4760444 98.1177802,23.4333333 C97.317433,24.1444444 96.2072452,25.3013778 95.9861842,25.5262222" id="path98" fill="#FFFFFF"></path>
                        <path d="M100.697269,62.5457778 C99.9834816,63.0808889 100.073593,63.3457778 100.430486,63.8808889 C100.786492,64.4164444 101.141166,64.7711111 101.496728,64.9488889 C101.850959,65.1266667 102.385411,65.2151111 103.007312,64.3275556 C103.628324,63.4373333 107.005941,57.8275556 107.717508,56.3164444 C108.428188,54.8044444 109.318647,55.784 108.962641,56.6728889 C108.607523,57.5626667 107.894624,59.0746667 107.628729,59.5195556 C108.607523,62.5457778 109.584541,67.172 109.584541,70.1991111 C109.584541,73.2266667 108.874305,76.2497778 108.338077,77.3195556 C110.740451,77.2306667 115.981105,77.3195556 118.027029,77.9413333 C120.073396,78.5657778 118.381259,78.7426667 117.583131,78.6537778 C116.782784,78.5657778 111.034755,78.5857778 106.827494,79.0973333 C99.5409157,79.9888889 92.3835118,84.0942222 90.1200783,86.9315556 C89.7627408,87.3746667 87.6280375,87.1982222 89.4067349,85.772 C91.1867641,84.3497778 95.7211774,80.0982222 102.385411,78.9204444 C103.895551,78.6537778 106.293929,78.2102222 106.65171,72.6911111 C107.005941,67.172 106.473264,63.6142222 106.473264,63.0808889 C106.473264,62.5457778 106.119921,62.368 105.673804,62.9911111 C105.228131,63.6142222 103.717104,65.6586667 102.915869,66.1022222 C102.117741,66.5497778 101.586839,66.4608889 100.874828,65.9284444 C100.162816,65.3928889 99.0939109,64.3275556 98.6509012,63.792 L100.697269,62.5457778" id="path100" fill="#FFFFFF"></path>
                        <path d="M86.3855683,45.1484444 C85.7206098,45.1484444 81.7188735,44.8373333 80.8754681,45.1484444 C80.0289555,45.4577778 79.4842933,46.4306667 80.0760087,46.8386667 C80.7853569,47.3284444 82.1645466,46.704 83.5415168,46.704 C84.9193747,46.704 86.3855683,47.06 86.7415741,46.8386667 C87.0958043,46.6155556 87.586755,46.704 87.586755,45.0142222 L86.3855683,45.1484444" id="path102" fill="#FFFFFF"></path>
                        <path d="M76.6970606,20.7213333 C75.5420392,21.4307111 74.2032442,24.7284889 73.9417886,31.3093778 C73.853453,33.5347111 74.7443553,37.2729333 75.4537036,39.0507111 C76.1621641,40.8316 75.0066988,40.1196 74.7443553,39.4982667 C74.4749095,38.8737778 73.5875584,36.3817778 73.3190003,34.5151111 C73.0544374,32.6444444 72.6087643,29.8862667 73.3190003,25.8808889 C74.0314559,21.8768889 74.3874617,20.6324444 74.5628012,19.9191111 L76.6970606,20.7213333" id="path104" fill="#FFFFFF"></path>
                        <path d="M117.360295,233.235111 C118.562369,233.101333 119.895393,233.190222 120.207453,234.036 C120.515518,234.879556 120.249624,235.416 119.851448,235.593333 C119.449276,235.770667 119.272605,235.727111 119.449276,236.529333 C119.629055,237.328889 120.207453,237.239111 120.163064,238.486222 C120.114679,239.731111 119.185157,239.776 118.338645,239.506222 C117.495239,239.242222 117.183623,238.843556 116.381944,237.773778 C115.585592,236.705778 115.938935,238.486222 116.072548,238.798667 C116.197283,239.086222 116.516889,241.137778 115.422238,241.505778 C114.803001,241.196889 114.194417,240.889333 113.608029,240.585333 C113.415377,240.194667 113.266672,239.735556 113.095327,239.286222 C112.649654,238.128889 112.108543,238.997333 111.716581,239.554667 C111.714362,239.556 111.711255,239.558222 111.707259,239.560444 C110.522497,238.904 109.48644,238.289778 108.697634,237.773778 C108.611074,237.718222 108.517412,237.654222 108.429964,237.597778 C108.536055,236.894667 109.381236,236.007111 109.851768,235.682222 C110.429722,235.280889 110.070165,234.526222 109.362593,234.526222 C108.649693,234.526222 107.76323,235.012444 106.873215,233.947556 C105.982757,232.877778 106.561599,231.855556 107.407224,231.855556 C108.251517,231.855556 108.962641,231.543111 109.274701,230.565778 C109.584541,229.586222 109.851768,229.184889 111.008121,229.052444 C112.161811,228.919111 112.828101,229.808444 113.138829,230.343556 C113.451333,230.876 113.851728,231.632 114.337352,231.454222 C115.065344,231.190667 114.974345,230.426222 114.753284,229.614222 C115.587368,230.105778 116.440983,230.568444 117.350973,231.012 C117.204043,231.766667 116.757926,232.46 116.428554,232.788889 C116.02727,233.190222 116.159552,233.367556 117.360295,233.235111" id="path106" fill="#008348"></path>
                        <path d="M127.272971,246.139111 C126.861478,246.043111 126.425126,245.927556 125.986112,245.801778 C126.20007,244.785778 126.6089,243.479556 126.3834,243.290222 C126.117505,243.068889 125.093878,242.890222 124.294418,242.670222 C123.495846,242.445333 121.582648,240.664444 122.561442,239.376889 C123.539348,238.084 123.850521,237.328889 124.028523,236.660444 C124.205195,235.993333 125.805001,235.192444 126.914301,236.529333 C128.026709,237.861333 128.871889,239.329778 129.13956,238.397778 C129.364616,237.612889 129.30469,235.712889 129.148438,234.695111 C129.380596,234.741333 129.612754,234.789778 129.849352,234.837333 C130.293693,239.818222 129.053,243.38 127.272971,246.139111" id="path108" fill="#008348"></path>
                        <path d="M102.872367,222.244444 C102.252686,222.733333 102.072907,223.490222 102.827533,223.711556 C103.584822,223.935111 104.607118,224.113778 106.473264,224.913778 C108.338077,225.716 107.360171,227.094667 106.520317,227.450222 C105.673804,227.806667 105.581917,228.606667 105.673804,229.453778 C105.763915,230.298667 105.540635,231.543111 103.895551,230.920889 C102.252686,230.298667 102.827533,228.695111 102.340134,228.161333 C101.850959,227.626667 101.586839,227.806667 101.673843,228.606667 C101.762623,229.408889 101.052387,229.943556 100.651991,230.120889 C100.3386,230.258222 99.6576608,230.420444 99.0739355,230.467556 C97.3724763,228.930667 95.8157276,227.321333 94.6376235,225.726667 C94.9026304,225.18 95.5227552,224.568444 95.8512394,224.469778 C96.2982442,224.335111 96.9645344,224.022667 96.9161496,223.134222 C96.87975,222.381778 95.1871687,222.330667 94.0752053,222.304889 C94.860904,220.176 95.6590318,218.668444 96.7718829,217.460889 C97.0209094,217.534222 97.3529448,217.647556 97.8079397,217.839111 C99.1831343,218.417778 99.6279197,220.508889 99.8525318,221.132 C100.073593,221.755556 100.651991,221.622222 101.052387,220.82 C101.332042,220.257778 101.432807,219.741778 101.473646,219.236444 C102.257569,220.021333 103.01619,220.754667 103.764157,221.447111 C103.538213,221.671556 103.260777,221.937778 102.872367,222.244444" id="path110" fill="#008348"></path>
                        <path d="M126.471736,169.072444 C126.73763,169.116 126.025175,172.273778 126.606236,172.408 C127.183303,172.54 127.447866,170.672444 128.69433,170.896444 C129.939019,171.117333 130.24886,172.362667 130.071301,173.744 C129.894186,175.122222 130.694089,174.366222 131.318653,175.344 C131.936114,176.323111 130.60309,177.657333 129.09295,176.724444 C127.582367,175.792 127.84915,177.035111 128.650829,177.524 C129.452951,178.015111 128.871889,179.794222 127.183303,179.216 C125.961253,178.795556 125.344236,179.588444 124.759623,179.923556 C124.306847,179.749333 123.862506,179.56 123.415501,179.36 C123.316512,179.013778 123.394194,178.595556 123.495846,178.147556 C123.623689,177.577333 123.895354,176.100444 122.962282,176.724444 C122.149949,177.264889 121.049971,177.568889 120.74013,176.544889 C120.428514,175.520889 121.049971,175.432444 120.95986,174.810667 C120.869749,174.188444 119.272605,174.055556 120.026343,172.764 C120.781413,171.474222 121.894708,172.184444 122.652441,172.675111 C123.406623,173.164 124.117747,172.584889 123.850521,171.918222 C123.640113,171.399556 123.221518,169.646667 123.19222,168.492444 C123.546895,168.259111 123.918881,168.007111 124.306847,167.730222 C124.75252,168.18 125.590155,168.921778 126.471736,169.072444" id="path112" fill="#008348"></path>
                        <path d="M102.252686,172.140444 C102.915869,172.316444 104.207167,170.940889 105.362188,171.740444 C106.520317,172.54 104.873901,173.342667 105.096293,174.011111 C105.318242,174.678222 105.852251,175.966667 105.05146,176.590222 C104.252,177.214222 103.4046,176.634222 102.564746,175.698667 C101.717789,174.766667 102.028074,176.548 102.473747,177.302667 C103.052145,178.281333 102.473747,178.949778 101.496728,179.128444 C100.517934,179.304444 100.20765,177.925778 99.5409157,178.549778 C98.4817762,179.536889 96.8300335,179.128444 97.2304291,177.747556 C97.6312685,176.366667 98.0720588,175.923111 97.2304291,175.745333 C96.3865798,175.567556 95.5853448,177.792 94.6078824,176.010667 C93.6295322,174.233333 95.1862809,173.698667 95.0522238,172.362667 C94.9177229,171.027111 95.4521755,169.604889 96.2525228,169.472444 C97.0533139,169.337333 97.8944998,170.228444 98.3388412,170.760889 C98.785846,171.294222 99.8525318,171.695556 99.717587,170.672444 C99.6257002,169.967111 99.5764275,168.498667 99.5524571,167.654667 C101.189551,168.452 102.940727,169.284889 103.895551,169.604889 C103.935501,169.62 103.97634,169.636 104.014071,169.650222 C103.567066,169.827111 102.935844,170.123556 102.340134,170.539556 C101.452339,171.162222 101.586839,171.961778 102.252686,172.140444" id="path114" fill="#008348"></path>
                        <path d="M82.5636105,131.603556 C84.6073147,132.227556 84.6974259,130.624 84.428424,129.290667 C84.1638611,127.956 84.1638611,125.108 84.2521967,123.684 L87.6280375,123.504444 C87.4500346,124.396889 87.6280375,126.977778 87.7199243,128.488444 C87.8060404,130.003111 89.3179554,132.317333 89.8519642,130.003111 C90.3859729,127.688444 92.6951279,127.599556 94.2971541,128.577778 C95.8951853,129.558222 97.0533139,131.692 98.7396807,134.719111 C100.430486,137.745778 98.2087792,138.547556 96.8735354,138.368 C95.5405111,138.190667 94.2074868,138.013333 97.2304291,140.502667 C100.042076,142.821778 95.3110161,143.985778 93.1368059,144.421778 C89.5549967,140.654222 85.1533087,136.388444 81.2296984,133.029333 C80.7298697,132.6 80.2624456,132.189333 79.814553,131.790667 C80.2841966,131.52 81.2066157,131.191556 82.5636105,131.603556" id="path116" fill="#008348"></path>
                        <path d="M79.0079912,109.176889 C80.6970213,109.713333 81.764151,106.064 84.2521967,108.199111 C86.7415741,110.334667 84.9624328,112.115556 84.8758728,113.894222 C84.7857616,115.676889 86.8299097,116.386222 86.2097849,118.611111 C85.260288,122.002222 82.1183812,118.789778 80.1625687,116.922222 C78.2094195,115.051556 78.1193083,116.566667 80.0760087,119.588 C82.0309334,122.615556 78.8295444,123.596 76.8759513,122.793333 C75.1380925,122.084 73.5422808,122.777778 72.5213165,123.689778 C71.7697979,122.488 71.2180333,121.373778 70.6529517,120.212444 C68.9643655,116.741333 70.1193869,116.656444 71.3658512,116.656444 C72.6087643,116.656444 75.2748129,111.403111 75.6308187,110.427111 C75.7559978,110.079111 76.6682073,108.744444 77.8764964,107.037333 C77.8050289,107.878667 77.9683832,108.849778 79.0079912,109.176889" id="path118" fill="#008348"></path>
                        <path d="M127.627201,144.242667 C126.025175,144.596 123.950841,144.865778 123.716907,141.571111 C123.628572,140.325333 124.869265,139.344 126.025175,138.899111 C127.183303,138.456889 127.003525,137.656889 125.760168,138.102222 C124.517699,138.547556 123.539348,138.813333 122.652441,136.232444 C121.759763,133.651556 123.361345,133.294222 124.163024,133.116889 C124.963372,132.939556 125.581721,132.762222 125.405494,131.692 C125.227491,130.624 124.693926,127.511111 126.73763,127.243556 C128.783554,126.977778 130.560032,129.468 131.183708,130.713778 C131.807384,131.96 132.512737,133.207111 132.693847,131.782222 C132.872294,130.358222 132.604624,129.647111 131.896163,128.045778 C131.183708,126.442667 131.183708,125.729333 132.250394,125.818222 C133.317523,125.910222 135.094001,125.818222 135.62801,127.068 C136.160687,128.312 136.962366,130.713778 137.050702,132.405778 C137.104413,133.463556 138.031715,133.580889 138.714874,133.519111 C138.925725,135.326222 139.188512,137.091556 139.44908,138.635556 C135.962265,138.112889 132.990815,142.379111 131.960085,146.072 C130.772215,144.78 129.028141,143.928889 127.627201,144.242667" id="path120" fill="#008348"></path>
                        <path d="M111.008121,144.864 C110.382225,143.797778 108.607523,140.769778 109.404763,139.790667 C110.207774,138.813333 111.094681,140.769778 111.806249,140.057778 C112.518704,139.344 114.118067,138.547556 114.118067,139.080444 C114.118067,139.614222 114.294738,140.682667 114.561965,142.105778 C114.830523,143.529333 115.449316,144.330222 116.072548,143.173778 C116.694448,142.017333 117.583131,141.037333 119.803063,141.571111 C122.026102,142.105778 121.759763,144.421778 121.316753,146.109778 C120.869749,147.800444 122.473106,148.601333 123.271678,149.046667 C124.072913,149.492444 126.117505,151.093333 124.606922,152.517778 C123.094119,153.941333 121.759763,151.894667 120.428514,151.628889 C119.093715,151.359556 119.629055,152.517778 122.383883,154.653778 C124.763174,156.495556 122.770074,158.340444 121.32208,158.979556 C117.495239,155.123111 110.716924,148.866667 109.227648,147.444444 C108.693639,146.932 108.233761,146.332444 107.804512,145.611556 C111.381883,147.28 111.595841,145.875556 111.008121,144.864" id="path122" fill="#008348"></path>
                        <path d="M133.049409,109.088 C134.204431,108.019556 136.962366,106.508 138.915071,108.288889 C140.872659,110.068 138.471174,112.027556 138.206611,113.449778 C137.936721,114.874667 139.628415,115.765778 138.7384,118.076 C137.192749,122.104889 134.916442,117.276 133.580755,115.942667 C132.250394,114.608 132.469679,116.873778 133.670866,118.076 C134.294542,118.700889 137.050702,120.390222 135.448232,122.259556 C133.848425,124.129333 131.53927,123.061778 130.383361,122.259556 C129.22612,121.458667 128.339212,120.479111 126.561847,121.015111 C124.784037,121.547556 123.271678,121.725333 122.207212,119.144444 C121.139194,116.566667 123.183786,117.276 124.869265,115.409333 C126.561847,113.539556 125.495605,113.449778 124.163024,113.894222 C122.827337,114.337778 122.207212,116.031556 120.249624,115.765778 C118.292923,115.499111 118.292923,112.38 118.918375,111.58 C119.540719,110.781778 120.781413,110.334667 119.895393,108.822222 C119.008042,107.310222 120.338847,105.529333 121.937766,104.817333 C123.539348,104.104889 125.936395,106.953778 126.828629,108.111111 C127.71598,109.268 128.602444,109 128.425772,108.111111 C128.276623,107.345778 127.859359,105.330667 127.800765,103.650667 C129.154208,104.084 130.495223,104.484889 131.782526,104.839556 C131.778974,105.772889 131.577445,107.275111 131.183708,108.730667 C130.650143,110.690222 131.896163,110.155556 133.049409,109.088" id="path124" fill="#008348"></path>
                        <path d="M109.940103,99.5648889 C107.806288,98.9435556 107.451614,99.9235556 106.02759,100.455556 C104.607118,100.988 104.516119,99.7457778 105.49447,98.2315556 C106.473264,96.7182222 107.540393,95.2951111 106.38404,95.2951111 C105.228131,95.2951111 104.339892,95.1173333 104.161445,94.2262222 C103.983442,93.3386667 102.117741,94.404 101.673843,96.2746667 C101.229502,98.1453333 100.786492,101.701333 99.8068104,99.9235556 C98.8306797,98.1453333 97.9393334,95.2062222 95.4521755,96.5404444 C92.9623542,97.8751111 94.6522721,99.6555556 93.4071396,100.903111 C92.1628948,102.147556 91.0083173,103.749778 92.2516743,105.974667 C93.496363,108.199111 94.5630487,106.330222 95.7189579,106.330222 C96.8735354,106.330222 97.0533139,107.399111 95.9861842,108.199111 C94.9177229,109 93.5846986,112.826222 98.4737861,112.56 C100.357243,112.456889 102.385411,113.092889 103.983442,114.249778 C105.581917,115.409333 109.762544,114.785778 108.073958,111.846667 C106.38404,108.911111 106.918493,108.288889 107.894624,109.356444 C108.874305,110.427111 110.117662,112.38 111.983808,111.846667 C113.851728,111.314222 113.050493,109.891111 111.895916,108.288889 C110.740451,106.685778 111.450243,105.616444 112.338038,104.996 C113.228052,104.372 114.864703,101.006222 109.940103,99.5648889" id="path126" fill="#008348"></path>
                        <path d="M119.008042,120.568 C117.40646,120.479111 115.449316,120.926222 115.449316,120.926222 C115.273088,119.235556 113.631555,116.812444 111.983808,114.337778 C111.806249,114.072 110.830118,114.072 110.382225,114.429333 C109.940103,114.785778 108.697634,115.409333 109.671989,116.476889 C110.651671,117.541333 112.250146,119.768889 111.983808,120.747556 C111.716581,121.725333 111.008121,122.615556 109.940103,121.281778 C108.874305,119.946667 107.185275,117.186222 105.318242,117.096889 C103.449877,117.008889 101.586839,118.700889 102.473747,120.390222 C103.363761,122.082222 103.628324,122.971111 102.385411,124.487111 C101.141166,125.999111 101.605483,127.934667 104.252,129.113333 C105.05146,129.468 106.473264,129.113333 107.451614,128.312 C108.428188,127.511111 108.962641,128.312 107.628729,129.113333 C106.293929,129.913778 105.228131,130.892444 105.05146,132.672 C104.882335,134.364 105.941474,136.140889 108.251517,135.162667 C110.560672,134.186667 111.983808,134.988 112.962158,135.786222 C113.940064,136.588444 118.108262,137.587111 117.495239,133.916889 C117.048679,131.248889 115.810204,131.158667 115.449316,129.735556 C115.096417,128.312 116.159552,129.201778 116.782784,130.269333 C117.40646,131.337333 118.828264,135.708 121.759763,132.405778 C122.473106,131.603556 122.207212,130.269333 121.316753,128.755556 C120.428514,127.243556 121.139194,126.353778 121.671428,125.553778 C122.207212,124.751556 123.44391,120.816444 119.008042,120.568" id="path128" fill="#008348"></path>
                        <polyline id="path130" fill="#FFFFFF" points="192.328374 191.344889 195.043696 193.272444 200.924006 184.522667 204.388627 186.981333 198.331645 195.555111 200.963957 197.418222 207.409349 188.368 210.879296 190.830222 201.30709 204.264 185.556717 193.091556 194.242904 180.724444 197.709744 183.184444 192.328374 191.344889"></polyline>
                        <polyline id="path132" fill="#FFFFFF" points="203.708576 160.965333 208.860006 163.350222 205.314153 171.065333 217.374405 176.099556 215.185546 180.931556 198.146983 173.511556 203.708576 160.965333"></polyline>
                        <polyline id="path134" fill="#FFFFFF" points="206.778127 152.805333 207.313911 148.047556 218.750488 149.393333 219.197492 144.430667 224.316519 144.810667 222.891608 161.452444 217.768586 161.072889 218.212928 154.152 206.778127 152.805333"></polyline>
                        <polyline id="path136" fill="#FFFFFF" points="207.355194 136.574222 207.427105 130.902222 224.237505 130.954222 224.166925 136.624 207.355194 136.574222"></polyline>
                        <path d="M215.251687,122.887111 C212.433826,123.428444 209.097048,122.964 206.761259,121.188889 C204.665619,119.595111 203.687268,117.994222 203.134172,115.090222 C202.783049,113.248889 203.065368,110.831556 203.676615,108.716 L208.118698,110.205333 C207.689449,111.230222 207.509226,112.787111 207.974875,114.363556 C208.874655,117.406222 211.34095,118.775111 214.35457,118.331556 C217.552852,117.860889 219.375051,114.923556 218.800204,111.427556 C218.573816,110.036444 217.882224,108.828444 216.296178,107.881778 L219.048343,104.562667 C221.28825,105.936444 222.98527,108.641333 223.349266,110.543556 C223.96584,113.743556 223.203668,115.953778 221.721938,118.555556 C220.278827,121.088889 217.836946,122.390222 215.251687,122.887111" id="path138" fill="#FFFFFF"></path>
                        <path d="M212.167931,99.372 C209.820157,99.9751111 206.622763,97.3928889 205.080219,95.9084444 C204.190648,95.0528889 201.085141,91.9191111 199.652684,92.4022222 C198.367156,92.8346667 198.759118,94.7942222 199.194581,96.0777778 C199.82536,97.9497778 200.789061,99.5213333 202.292542,100.534222 L199.507085,101.768889 C198.156749,100.635556 196.649717,98.8111111 196.029592,96.9737778 C195.313141,94.8506667 195.020169,92.3666667 195.323795,90.7862222 C195.71043,88.7488889 196.419778,87.4537778 198.720055,87.6635556 C200.489431,87.8262222 204.935064,90.7191111 207.498573,93.1404444 C208.799192,94.3675556 209.90938,94.4991111 210.486891,94.1777778 C211.426622,93.6586667 211.366252,92.0568889 211.029334,91.0515556 C210.575227,89.7111111 209.933351,87.6595556 208.867553,86.9 L212.663764,84.3515556 C214.216518,85.9093333 215.021304,88.2568889 215.474524,90.4497778 C216.577609,95.7466667 213.712694,98.972 212.167931,99.372" id="path140" fill="#FFFFFF"></path>
                        <path d="M191.057052,211.092889 C190.728124,213.699111 189.289896,216.697778 187.825922,217.967111 C185.56382,219.932444 182.887561,220.458667 180.040403,220.089778 C177.151961,219.711111 174.464606,217.853778 172.947364,215.695556 C171.295177,213.349333 170.347456,210.112889 171.002205,207.252 C171.58815,204.683111 172.64507,203.132 175.06298,201.430667 C176.594426,200.351556 178.908908,199.618222 181.087557,199.305778 L181.557201,203.972 C180.447901,204.000444 178.955517,204.478667 177.717043,205.550667 C175.315557,207.624889 175.201476,210.904444 176.725376,213.004889 C178.626145,215.624444 181.936733,216.186222 184.882881,214.223556 C186.05699,213.442667 186.521307,212.184889 186.729939,210.342667 L191.057052,211.092889" id="path142" fill="#FFFFFF"></path>
                        <path d="M19.109789,114.122222 C19.2306623,115.392889 19.1581739,117.721333 20.5350996,118.012 C21.8635074,118.292889 22.7377636,117.001333 23.0191947,115.676889 C23.4278911,113.743556 23.9692686,112.242667 23.1941791,110.603111 L26.7734581,110.976889 C27.3610897,112.641778 27.1788253,114.863556 26.7769205,116.759556 C26.3141129,118.952889 25.6144416,120.493778 24.0025609,121.928444 C22.4522043,123.308 21.2833333,123.666667 19.0225632,123.187111 C17.642175,122.896889 15.1828495,120.426222 15.0953129,115.46 C15.0814189,114.519111 14.8560077,112.719111 14.0108712,112.677778 C12.9352631,112.620444 12.1402426,113.904 11.922644,114.940444 C11.6292277,116.324444 12.0277145,119.360889 12.5571067,120.556889 L8.80737106,120.574667 C8.26603801,118.441778 8.05603009,115.452889 8.51937034,113.262667 C9.54033468,108.428444 12.4660634,106.848889 14.8400718,107.110222 C17.3785886,107.388 18.7127227,110.043556 19.109789,114.122222" id="path144" fill="#FFFFFF"></path>
                        <polyline id="path146" fill="#FFFFFF" points="11.6143571 134.509333 24.8875594 134.675556 24.8237713 138.849333 11.5505247 138.684 11.4969462 144.346667 7.24871364 144.300444 7.41743909 128.440889 11.6674029 128.488444 11.6143571 134.509333"></polyline>
                        <polyline id="path148" fill="#FFFFFF" points="35.5860228 176.224 25.3378934 182.140889 25.3671907 182.190222 38.9374492 182.416444 42.1754598 187.421778 25.4535288 197.075111 22.9257542 193.138667 34.3354746 185.964 18.7744244 185.522222 16.6045645 181.318667 33.0592692 171.753333 35.5860228 176.224"></polyline>
                        <path d="M18.9892709,166.512889 C21.9424324,166.512889 24.3403225,164.115556 24.3403225,161.156889 C24.3403225,158.197778 21.9424324,155.799111 18.9892709,155.799111 C16.0326913,155.799111 13.6359997,158.197778 13.6359997,161.156889 C13.6359997,164.115556 16.0326913,166.512889 18.9892709,166.512889 L18.9892709,166.512889 Z M18.9892709,150.869778 C24.6628585,150.869778 29.2623916,155.474667 29.2623916,161.156889 C29.2623916,166.836444 24.6628585,171.443556 18.9892709,171.443556 C13.3134638,171.443556 8.71428575,166.836444 8.71428575,161.156889 C8.71428575,155.474667 13.3134638,150.869778 18.9892709,150.869778" id="path150" fill="#FFFFFF"></path>
                        <path d="M25.6108017,88.1173333 C22.6550655,88.1173333 20.2583739,90.5191111 20.2583739,93.4777778 C20.2583739,96.4382222 22.6550655,98.8337778 25.6108017,98.8337778 C28.5640964,98.8337778 30.9602997,96.4382222 30.9602997,93.4777778 C30.9602997,90.5191111 28.5640964,88.1173333 25.6108017,88.1173333 Z M35.8835673,93.4777778 C35.8835673,99.16 31.2852327,103.764 25.6108017,103.764 C19.9349946,103.764 15.33666,99.16 15.33666,93.4777778 C15.33666,87.796 19.9349946,83.1902222 25.6108017,83.1902222 C31.2852327,83.1902222 35.8835673,87.796 35.8835673,93.4777778" id="path152" fill="#FFFFFF"></path>
                        <path d="M44.9060067,69.4911111 L44.5531081,69.9173333 C43.4196158,71.2777778 39.592198,75.3355556 41.1730503,76.8262222 C42.6150515,78.1857778 46.2545674,73.56 47.283078,72.3253333 L47.7247561,71.7888889 L44.9060067,69.4911111 Z M38.5946271,63.7848889 C37.2390084,65.4142222 33.1917282,68.5982222 34.9217301,70.2275556 C36.5669475,71.7782222 40.6258135,66.8244444 41.1295484,66.2186667 L38.5946271,63.7848889 Z M37.971972,81.7284444 C36.395248,80.3293333 35.6331647,77.0031111 37.1197331,74.7488889 C35.5007056,75.5413333 32.2321549,75.812 30.7336456,74.508 C27.0361567,71.292 31.5207203,66.6457778 35.2019626,62.9626667 L40.3351937,57.8888889 L53.9797163,69.1871111 L48.4549675,75.6191111 C46.5169109,78.0577778 41.1612871,84.5537778 37.971972,81.7284444" id="path154" fill="#FFFFFF"></path>
                        <path d="M98.6957348,28.5515556 C99.2732455,28.8182222 100.073593,29.1751556 100.430486,28.9062667 C100.786492,28.6404444 102.915869,27.1276 104.252,25.9680444 C105.581917,24.8133778 106.02759,24.4560889 104.963124,23.8342222 C103.895551,23.2124889 102.915869,22.588 103.096979,23.1244889 C103.273206,23.6538222 103.539545,24.4560889 102.827533,25.1680444 C102.117741,25.8808889 100.373668,27.2307111 99.6279197,27.8378667 C99.1400763,28.2387111 98.6957348,28.5515556 98.6957348,28.5515556" id="path156" fill="#BB9753"></path>
                        <path d="M93.6730342,27.0817778 C93.2286927,26.6808889 93.1403571,26.0133778 93.6730342,25.4808889 C94.2074868,24.9458222 97.1833759,22.4560889 97.6734388,21.9640444 C98.16217,21.4746667 98.8741816,21.296 99.6727533,21.4746667 C100.474432,21.6546667 98.7396807,20.4973778 98.0720588,20.3626667 C97.4088759,20.2316 96.6524745,20.2316 95.9422384,20.8982667 C95.2284512,21.5640444 91.2311538,25.3484444 90.4294749,26.1031111 C89.6291276,26.8600889 90.6527553,26.8600889 91.3629914,26.9467111 C92.0758908,27.0356 92.6951279,26.9928889 93.6730342,27.0817778" id="path158" fill="#BB9753"></path>
                        <path d="M113.095327,239.286222 C113.262233,239.719111 113.406499,240.192444 113.588497,240.576 C112.933748,240.232444 112.314511,239.897778 111.725459,239.572444 C112.117865,239.016444 112.652761,238.137333 113.095327,239.286222" id="path160" fill="#BB9753"></path>
                        <path d="M129.13956,238.397778 C128.871889,239.329778 128.026709,237.861333 126.914301,236.529333 C125.805001,235.192444 124.205195,235.993333 124.028523,236.660444 C123.850521,237.328889 123.539348,238.084 122.561442,239.376889 C121.582648,240.664444 123.495846,242.445333 124.294418,242.670222 C125.093878,242.890222 126.117505,243.068889 126.3834,243.290222 C126.6089,243.479556 126.207173,244.790222 125.991882,245.803111 C122.795376,244.890667 118.898843,243.219111 115.45775,241.521333 C116.506236,241.121333 116.197283,239.084889 116.072548,238.798667 C115.938935,238.486222 115.585592,236.705778 116.381944,237.773778 C117.183623,238.843556 117.495239,239.242222 118.338645,239.506222 C119.185157,239.776 120.114679,239.731111 120.163064,238.486222 C120.207453,237.239111 119.629055,237.328889 119.449276,236.529333 C119.272605,235.727111 119.449276,235.770667 119.851448,235.593333 C120.249624,235.416 120.515518,234.879556 120.207453,234.036 C119.895393,233.190222 118.562369,233.101333 117.360295,233.235111 C116.159552,233.367556 116.02727,233.190222 116.428554,232.788889 C116.752599,232.463556 117.190726,231.752444 117.34609,231.007111 C120.23897,232.409333 123.736883,233.580889 129.154208,234.695111 C129.30469,235.720889 129.359289,237.621333 129.13956,238.397778" id="path162" fill="#BB9753"></path>
                        <path d="M101.052387,220.82 C100.651991,221.622222 100.073593,221.755556 99.8525318,221.132 C99.6279197,220.508889 99.1831343,218.417778 97.8079397,217.839111 C97.3653739,217.652444 97.0129193,217.541333 96.7647805,217.468889 C97.2419704,216.951556 97.7733157,216.490667 98.3836749,216.059556 C99.4725555,217.207556 100.489969,218.258222 101.466543,219.234222 C101.429256,219.728889 101.326272,220.269778 101.052387,220.82" id="path164" fill="#BB9753"></path>
                        <path d="M114.337352,231.454222 C113.851728,231.632 113.451333,230.876 113.138829,230.343556 C112.828101,229.808444 112.161811,228.919111 111.008121,229.052444 C109.851768,229.184889 109.584541,229.586222 109.274701,230.565778 C108.962641,231.543111 108.251517,231.855556 107.407224,231.855556 C106.561599,231.855556 105.982757,232.877778 106.873215,233.947556 C107.76323,235.012444 108.649693,234.526222 109.362593,234.526222 C110.070165,234.526222 110.429722,235.280889 109.851768,235.682222 C109.39189,235.999111 108.58444,236.908889 108.4455,237.608444 C105.910845,235.938667 102.276212,233.356889 99.10634,230.496 C99.6798557,230.446222 100.348365,230.256 100.651991,230.120889 C101.052387,229.943556 101.762623,229.408889 101.673843,228.606667 C101.586839,227.806667 101.850959,227.626667 102.340134,228.161333 C102.827533,228.695111 102.252686,230.298667 103.895551,230.920889 C105.540635,231.543111 105.763915,230.298667 105.673804,229.453778 C105.581917,228.606667 105.673804,227.806667 106.520317,227.450222 C107.360171,227.094667 108.338077,225.716 106.473264,224.913778 C104.607118,224.113778 103.584822,223.935111 102.827533,223.711556 C102.072907,223.490222 102.252686,222.733333 102.872367,222.244444 C103.252343,221.944889 103.524896,221.653778 103.746401,221.431556 C106.09817,223.616889 108.318546,225.402222 110.830118,227.094667 C112.203537,228.017333 113.458435,228.851556 114.762606,229.619556 C114.975677,230.419111 115.053359,231.195556 114.337352,231.454222" id="path166" fill="#BB9753"></path>
                        <path d="M96.9161496,223.134222 C96.9645344,224.022667 96.2982442,224.335111 95.8512394,224.469778 C95.5263064,224.568444 94.9168351,225.2 94.648721,225.740444 C94.2074868,225.148889 93.816857,224.56 93.496363,223.979111 C93.6903462,223.379111 93.8834416,222.825333 94.0738737,222.304889 C95.1871687,222.330667 96.87975,222.387556 96.9161496,223.134222" id="path168" fill="#BB9753"></path>
                        <path d="M134.472101,181.619111 C131.562796,181.803556 128.099064,181.213333 124.78892,179.935556 C125.365987,179.589778 125.98256,178.805333 127.183303,179.216 C128.871889,179.794222 129.452951,178.015111 128.650829,177.524 C127.84915,177.035111 127.582367,175.792 129.09295,176.724444 C130.60309,177.657333 131.936114,176.323111 131.318653,175.344 C130.694089,174.366222 129.894186,175.122222 130.071301,173.744 C130.24886,172.362667 129.939019,171.117333 128.69433,170.896444 C127.447866,170.672444 127.183303,172.54 126.606236,172.408 C126.025175,172.273778 126.73763,169.116 126.471736,169.072444 C125.601696,168.925333 124.773384,168.170667 124.326823,167.716889 C124.362334,167.692444 124.393407,167.671556 124.425812,167.647111 C129.321558,164.129778 130.560032,166.044444 131.272043,167.736889 C131.984499,169.425778 133.562111,174.436889 134.026428,177.08 C134.294542,178.592444 134.64966,180.193333 134.472101,181.619111" id="path170" fill="#BB9753"></path>
                        <path d="M123.850521,171.918222 C124.117747,172.584889 123.406623,173.164 122.652441,172.675111 C121.894708,172.184444 120.781413,171.474222 120.026343,172.764 C119.272605,174.055556 120.869749,174.188444 120.95986,174.810667 C121.049971,175.432444 120.428514,175.520889 120.74013,176.544889 C121.049971,177.568889 122.149949,177.264889 122.962282,176.724444 C123.895354,176.100444 123.623689,177.577333 123.495846,178.147556 C123.397745,178.581333 123.327165,179.018222 123.408399,179.358222 C122.448248,178.921333 121.504522,178.431556 120.604742,177.882222 C116.038812,175.083111 115.894989,172.719111 116.959455,171.828889 C117.916942,171.034222 119.870091,170.658667 123.19222,168.489778 C123.228176,169.644 123.645884,171.403556 123.850521,171.918222" id="path172" fill="#BB9753"></path>
                        <path d="M109.318647,174.589778 C107.428975,175.533333 105.581917,177.614222 104.339892,180.017778 C104.339892,180.017778 104.428228,180.370667 103.895551,180.370667 C103.363761,180.370667 101.405729,180.552 98.1177802,181.708 C94.8289434,182.863556 94.3859336,182.151556 93.9420361,180.728 C93.496363,179.304444 93.1403571,176.724444 93.0506898,172.451556 C92.9623542,168.18 94.8289434,165.510667 95.9861842,165.956 C96.5472707,166.174667 98.0005913,166.896444 99.5560083,167.654667 C99.5773153,168.504 99.6257002,169.974222 99.717587,170.672444 C99.8525318,171.695556 98.785846,171.294222 98.3388412,170.760889 C97.8944998,170.228444 97.0533139,169.337333 96.2525228,169.472444 C95.4521755,169.604889 94.9177229,171.027111 95.0522238,172.362667 C95.1862809,173.698667 93.6295322,174.233333 94.6078824,176.010667 C95.5853448,177.792 96.3865798,175.567556 97.2304291,175.745333 C98.0720588,175.923111 97.6312685,176.366667 97.2304291,177.747556 C96.8300335,179.128444 98.4817762,179.536889 99.5409157,178.549778 C100.20765,177.925778 100.517934,179.304444 101.496728,179.128444 C102.473747,178.949778 103.052145,178.281333 102.473747,177.302667 C102.028074,176.548 101.717789,174.766667 102.564746,175.698667 C103.4046,176.634222 104.252,177.214222 105.05146,176.590222 C105.852251,175.966667 105.318242,174.678222 105.096293,174.011111 C104.873901,173.342667 106.520317,172.54 105.362188,171.740444 C104.207167,170.940889 102.915869,172.316444 102.252686,172.140444 C101.586839,171.961778 101.452339,171.162222 102.340134,170.539556 C102.921639,170.132444 103.529335,169.812889 103.97634,169.634222 C105.826505,170.264889 107.994944,171.48 108.697634,171.918222 L109.851768,171.828889 C109.940103,173.342667 109.851768,174.321333 109.318647,174.589778" id="path174" fill="#BB9753"></path>
                        <path d="M102.739641,155.009778 C102.031181,156.612889 101.782598,155.381333 99.8068104,152.250667 C98.8093726,150.666222 96.2867029,147.734222 93.1297036,144.416889 C95.3176746,143.973778 100.031423,142.814667 97.2304291,140.502667 C94.2074868,138.013333 95.5405111,138.190667 96.8735354,138.368 C98.2087792,138.547556 100.430486,137.745778 98.7396807,134.719111 C97.0533139,131.692 95.8951853,129.558222 94.2971541,128.577778 C92.6951279,127.599556 90.3859729,127.688444 89.8519642,130.003111 C89.3179554,132.317333 87.8060404,130.003111 87.7199243,128.488444 C87.6280375,126.977778 87.4500346,124.396889 87.6280375,123.504444 L84.2521967,123.684 C84.1638611,125.108 84.1638611,127.956 84.428424,129.290667 C84.6974259,130.624 84.6073147,132.227556 82.5636105,131.603556 C81.2279228,131.196889 80.3143817,131.542222 79.8385235,131.813333 C75.8660844,128.274222 73.8570042,125.830667 72.5106629,123.672889 C73.5316273,122.768889 75.148746,122.087111 76.8759513,122.793333 C78.8295444,123.596 82.0309334,122.615556 80.0760087,119.588 C78.1193083,116.566667 78.2094195,115.051556 80.1625687,116.922222 C82.1183812,118.789778 85.260288,122.002222 86.2097849,118.611111 C86.8299097,116.386222 84.7857616,115.676889 84.8758728,113.894222 C84.9624328,112.115556 86.7415741,110.334667 84.2521967,108.199111 C81.764151,106.064 80.6970213,109.713333 79.0079912,109.176889 C77.9896902,108.853778 77.7837218,107.915111 77.8405407,107.083111 C80.0524821,103.948889 83.2738465,99.5191111 84.428424,97.612 C86.2097849,94.672 86.2097849,91.1111111 86.9182453,91.6457778 C87.6280375,92.1817778 89.3179554,93.7848889 89.8519642,94.2262222 C90.3859729,94.672 90.9186499,95.2062222 90.6527553,96.1857778 C90.3859729,97.164 89.363233,102.412 89.6744051,106.064 C90.0299671,110.245778 91.9857796,114.829333 93.4071396,117.453778 C94.7747879,119.978667 98.9172397,128.045778 99.895146,130.181333 C100.874828,132.317333 102.651306,134.808889 103.096979,136.766222 C103.539545,138.725333 105.228131,143.262222 105.941474,145.399111 C105.763915,147.178222 104.61644,150.78 102.739641,155.009778" id="path176" fill="#BB9753"></path>
                        <path d="M116.072548,174.856 C115.538095,173.431111 114.830523,171.650667 114.473185,170.760889 C114.118067,169.870222 112.480085,170.215556 112.606152,170.851556 C112.872934,172.184444 110.973941,171.301333 111.183904,172.362667 C111.361907,173.253778 111.008121,174.678222 111.983808,174.678222 C112.962158,174.678222 114.830523,174.856 116.072548,174.856" id="path178" fill="#BB9753"></path>
                        <path d="M113.095327,239.286222 C113.262233,239.719111 113.406499,240.192444 113.588497,240.576 C112.933748,240.232444 112.314511,239.897778 111.725459,239.572444 C112.117865,239.016444 112.652761,238.137333 113.095327,239.286222" id="path180" fill="#BB9753"></path>
                        <path d="M119.008042,120.568 C117.40646,120.479111 115.449316,120.926222 115.449316,120.926222 C115.273088,119.235556 113.631555,116.812444 111.983808,114.337778 C111.806249,114.072 110.830118,114.072 110.382225,114.429333 C109.940103,114.785778 108.697634,115.409333 109.671989,116.476889 C110.651671,117.541333 112.250146,119.768889 111.983808,120.747556 C111.716581,121.725333 111.008121,122.615556 109.940103,121.281778 C108.874305,119.946667 107.185275,117.186222 105.318242,117.096889 C103.449877,117.008889 101.586839,118.700889 102.473747,120.390222 C103.363761,122.082222 103.628324,122.971111 102.385411,124.487111 C101.141166,125.999111 101.605483,127.934667 104.252,129.113333 C105.05146,129.468 106.473264,129.113333 107.451614,128.312 C108.428188,127.511111 108.962641,128.312 107.628729,129.113333 C106.293929,129.913778 105.228131,130.892444 105.05146,132.672 C104.882335,134.364 105.941474,136.140889 108.251517,135.162667 C110.560672,134.186667 111.983808,134.988 112.962158,135.786222 C113.940064,136.588444 118.108262,137.587111 117.495239,133.916889 C117.048679,131.248889 115.810204,131.158667 115.449316,129.735556 C115.096417,128.312 116.159552,129.201778 116.782784,130.269333 C117.40646,131.337333 118.828264,135.708 121.759763,132.405778 C122.473106,131.603556 122.207212,130.269333 121.316753,128.755556 C120.428514,127.243556 121.139194,126.353778 121.671428,125.553778 C122.207212,124.751556 123.44391,120.816444 119.008042,120.568 L119.008042,120.568 Z M109.940103,99.5648889 C107.806288,98.9435556 107.451614,99.9235556 106.02759,100.455556 C104.607118,100.988 104.516119,99.7457778 105.49447,98.2315556 C106.473264,96.7182222 107.540393,95.2951111 106.38404,95.2951111 C105.228131,95.2951111 104.339892,95.1173333 104.161445,94.2262222 C103.983442,93.3386667 102.117741,94.404 101.673843,96.2746667 C101.229502,98.1453333 100.786492,101.701333 99.8068104,99.9235556 C98.8306797,98.1453333 97.9393334,95.2062222 95.4521755,96.5404444 C92.9623542,97.8751111 94.6522721,99.6555556 93.4071396,100.903111 C92.1628948,102.147556 91.0083173,103.749778 92.2516743,105.974667 C93.496363,108.199111 94.5630487,106.330222 95.7189579,106.330222 C96.8735354,106.330222 97.0533139,107.399111 95.9861842,108.199111 C94.9177229,109 93.5846986,112.826222 98.4737861,112.56 C100.357243,112.456889 102.385411,113.092889 103.983442,114.249778 C105.581917,115.409333 109.762544,114.785778 108.073958,111.846667 C106.38404,108.911111 106.918493,108.288889 107.894624,109.356444 C108.874305,110.427111 110.117662,112.38 111.983808,111.846667 C113.851728,111.314222 113.050493,109.891111 111.895916,108.288889 C110.740451,106.685778 111.450243,105.616444 112.338038,104.996 C113.228052,104.372 114.864703,101.006222 109.940103,99.5648889 L109.940103,99.5648889 Z M141.492784,115.499111 C139.182742,119.322222 138.7384,120.837333 138.381063,124.751556 C138.159114,127.222222 138.358868,130.434667 138.714874,133.521333 C138.032603,133.574667 137.104413,133.447111 137.050702,132.405778 C136.962366,130.713778 136.160687,128.312 135.62801,127.068 C135.094001,125.818222 133.317523,125.910222 132.250394,125.818222 C131.183708,125.729333 131.183708,126.442667 131.896163,128.045778 C132.604624,129.647111 132.872294,130.358222 132.693847,131.782222 C132.512737,133.207111 131.807384,131.96 131.183708,130.713778 C130.560032,129.468 128.783554,126.977778 126.73763,127.243556 C124.693926,127.511111 125.227491,130.624 125.405494,131.692 C125.581721,132.762222 124.963372,132.939556 124.163024,133.116889 C123.361345,133.294222 121.759763,133.651556 122.652441,136.232444 C123.539348,138.813333 124.517699,138.547556 125.760168,138.102222 C127.003525,137.656889 127.183303,138.456889 126.025175,138.899111 C124.869265,139.344 123.628572,140.325333 123.716907,141.571111 C123.950841,144.865778 126.025175,144.596 127.627201,144.242667 C129.021039,143.933778 130.775766,144.770222 131.966299,146.047111 C131.942329,146.127556 131.913919,146.208 131.896163,146.291111 C129.524419,155.349333 134.026428,166.491111 135.270673,169.604889 C136.515361,172.719111 141.315225,181.484444 142.96031,184.111111 C142.070739,184.555556 139.71675,185.755556 138.425896,186.425333 C137.139037,187.091111 136.427026,187.403556 136.071908,186.912444 C135.715014,186.425333 135.270673,186.157778 134.64966,185.268 C133.402308,183.484 134.472101,183.756 134.826331,183.756 C135.182337,183.756 136.69292,181.796444 136.962366,181.350667 C137.228261,180.905333 136.962366,180.552 136.338246,179.128444 C135.522362,177.264889 135.004778,172.986222 134.294542,170.404444 C132.140307,162.590667 128.783554,163.373778 127.272971,164.352444 C125.760168,165.333333 125.318046,163.818667 123.805687,161.684444 C123.44391,161.176889 122.539247,160.205333 121.345607,159.002667 C122.791825,158.352889 124.75252,156.487556 122.383883,154.653778 C119.629055,152.517778 119.093715,151.359556 120.428514,151.628889 C121.759763,151.894667 123.094119,153.941333 124.606922,152.517778 C126.117505,151.093333 124.072913,149.492444 123.271678,149.046667 C122.473106,148.601333 120.869749,147.800444 121.316753,146.109778 C121.759763,144.421778 122.026102,142.105778 119.803063,141.571111 C117.583131,141.037333 116.694448,142.017333 116.072548,143.173778 C115.449316,144.330222 114.830523,143.529333 114.561965,142.105778 C114.294738,140.682667 114.118067,139.614222 114.118067,139.080444 C114.118067,138.547556 112.518704,139.344 111.806249,140.057778 C111.094681,140.769778 110.207774,138.813333 109.404763,139.790667 C108.607523,140.769778 110.382225,143.797778 111.008121,144.864 C111.594066,145.872 111.349034,147.266667 107.814278,145.630222 C106.671242,143.714222 105.763915,140.933333 104.339892,136.588444 C102.385411,130.624 97.9553137,122.501333 96.1180218,119.545778 C91.330143,111.840444 90.4743085,104.549778 91.1867641,100.011556 C91.8934489,95.4973333 92.5184567,95.8306667 93.496363,95.8306667 C94.4747131,95.8306667 96.8735354,92.8053333 98.4737861,90.9333333 C100.073593,89.0648889 100.697269,89.8675556 101.496728,90.4911111 C104.066007,92.4902222 109.227648,95.8306667 116.516889,99.3008889 C119.62506,100.778667 123.765292,102.354667 127.804316,103.650667 C127.866462,105.326222 128.276623,107.348889 128.425772,108.111111 C128.602444,109 127.71598,109.268 126.828629,108.111111 C125.936395,106.953778 123.539348,104.104889 121.937766,104.817333 C120.338847,105.529333 119.008042,107.310222 119.895393,108.822222 C120.781413,110.334667 119.540719,110.781778 118.918375,111.58 C118.292923,112.38 118.292923,115.499111 120.249624,115.765778 C122.207212,116.031556 122.827337,114.337778 124.163024,113.894222 C125.495605,113.449778 126.561847,113.539556 124.869265,115.409333 C123.183786,117.276 121.139194,116.566667 122.207212,119.144444 C123.271678,121.725333 124.784037,121.547556 126.561847,121.015111 C128.339212,120.479111 129.22612,121.458667 130.383361,122.259556 C131.53927,123.061778 133.848425,124.129333 135.448232,122.259556 C137.050702,120.390222 134.294542,118.700889 133.670866,118.076 C132.469679,116.873778 132.250394,114.608 133.580755,115.942667 C134.916442,117.276 137.192749,122.104889 138.7384,118.076 C139.628415,115.765778 137.936721,114.874667 138.206611,113.449778 C138.471174,112.027556 140.872659,110.068 138.915071,108.288889 C136.962366,106.508 134.204431,108.019556 133.049409,109.088 C131.896163,110.155556 130.650143,110.690222 131.183708,108.730667 C131.574338,107.289778 131.775423,105.772889 131.780306,104.839556 C135.667961,105.915111 139.057119,106.571111 140.780773,106.419111 C143.318535,106.192 145.225963,105.439556 145.137627,107.753778 C145.048847,110.068 143.804603,111.670667 141.492784,115.499111" id="path182" fill="#BB9753"></path>
                        <path d="M88.8221219,44.4848889 C88.431492,44.4848889 87.5836477,44.6226667 87.5836477,44.9857778 L86.5578005,45.0986667 C87.1774815,44.9733333 87.743007,44.2626667 87.0895898,43.8147556 C86.3797976,43.3199556 84.112369,43.0507111 81.7170979,43.1885333 C79.3182756,43.3199556 78.7327747,44.6226667 78.69238,45.5684444 C78.6613072,46.1946667 78.7327747,46.7395556 78.7327747,47.6413333 C78.7327747,48.5368889 78.5174844,49.348 79.0492737,49.7075556 C79.5775117,50.0648889 79.4496692,49.1724444 79.7999044,49.1724444 C81.3167023,49.1724444 86.5578005,48.6746667 87.8060404,48.4928889 C89.0569437,48.3177778 88.9663886,49.0626667 88.6907282,49.896 C88.6063877,50.1653333 88.2530452,50.0648889 88.1216516,49.7075556 C87.9840433,49.348 86.8303536,49.4826667 86.8303536,49.4826667 C86.8303536,49.4826667 84.5158719,49.7075556 83.0146104,49.8017778 C81.4978125,49.896 80.334357,50.0648889 79.4088307,50.2466667 C78.4704313,50.4342222 77.310527,50.384 77.4072967,49.9333333 C77.4823154,49.4826667 77.7575318,43.8618222 77.8076923,43.0507111 C77.8485308,42.2430667 77.8951401,41.9236 78.2919845,41.9236 C79.3182756,41.9236 86.2137799,41.8324444 87.8060404,41.8324444 C89.4071788,41.8324444 89.3228383,42.0173778 89.3601257,42.9128444 C89.4071788,43.8147556 89.2318393,44.4848889 88.8221219,44.4848889" id="path184" fill="#BB9753"></path>
                    </g>
                </g>
            </g>
        </g>
    </g>
</svg>