<?xml version="1.0" encoding="UTF-8"?>
<svg width="256px" height="256px" viewBox="0 0 256 256" version="1.1" xmlns="http://www.w3.org/2000/svg" xmlns:xlink="http://www.w3.org/1999/xlink">
    <!-- Generator: Sketch 63.1 (92452) - https://sketch.com -->
    <title>Teams/Defualt/LAClippers/256</title>
    <desc>Created with Sketch.</desc>
    <defs>
        <polygon id="path-1" points="0 4.44444444e-05 256 4.44444444e-05 256 256 0 256"></polygon>
        <polygon id="path-3" points="0 256 256 256 256 0 0 0"></polygon>
    </defs>
    <g id="Teams/Defualt/LAClippers/256" stroke="none" stroke-width="1" fill="none" fill-rule="evenodd">
        <g id="Teams/Defualt/LAClippers/base">
            <g id="Group-12">
                <g id="Group-3">
                    <mask id="mask-2" fill="white">
                        <use xlink:href="#path-1"></use>
                    </mask>
                    <g id="Clip-2"></g>
                    <path d="M0,128.000044 C0,57.3076 57.3075556,4.44444444e-05 128,4.44444444e-05 C198.692444,4.44444444e-05 256,57.3076 256,128.000044 C256,198.692933 198.692444,256.000044 128,256.000044 C57.3075556,256.000044 0,198.692933 0,128.000044" id="Fill-1" fill="#FFFFFF" mask="url(#mask-2)"></path>
                </g>
                <path d="M212.8852,193.245689 C199.430533,175.795022 191.786533,155.047467 190.743422,133.147467 L234.992756,133.147467 C233.950533,155.0688 226.318533,175.815467 212.8852,193.245689 M133.147867,234.9928 L133.147867,204.307467 L122.852311,204.307467 L122.852311,234.9928 C94.9785333,233.667911 69.1287556,221.712356 49.9327556,201.267467 C65.6207556,181.679911 74.4696444,158.150133 75.5527556,133.147467 L75.5527556,122.852356 C74.4696444,97.8492444 65.6207556,74.3194667 49.9327556,54.7314667 C69.1287556,34.2870222 94.9785333,22.3314667 122.852311,21.0074667 L122.852311,51.4154667 L133.147867,51.4154667 L133.147867,21.0074667 C161.0212,22.3314667 186.871422,34.2861333 206.068311,54.7314667 C190.379867,74.3190222 181.530089,97.8483556 180.447422,122.852356 L180.447422,133.147467 C181.530089,158.151022 190.379867,181.6808 206.068311,201.267467 C186.871422,221.713244 161.0212,233.667911 133.147867,234.9928 M43.1149778,193.245689 C29.6816444,175.815467 22.0492,155.0688 21.0074222,133.147467 L65.2567556,133.147467 C64.2123111,155.049244 56.5687556,175.795911 43.1149778,193.245689 M43.1149778,62.7541333 C56.5700889,80.2056889 64.2132,100.952356 65.2567556,122.852356 L21.0074222,122.852356 C22.0492,100.931911 29.6816444,80.1848 43.1149778,62.7541333 M212.8852,62.7541333 C226.318533,80.1830222 233.950533,100.930133 234.992756,122.852356 L190.743422,122.852356 C191.786533,100.951911 199.430533,80.2043556 212.8852,62.7541333 M127.999867,10.5688 C63.2478667,10.5688 10.5687556,63.2479111 10.5687556,127.999911 C10.5687556,192.751911 63.2478667,245.431022 127.999867,245.431022 C192.751422,245.431022 245.431422,192.751911 245.431422,127.999911 C245.431422,63.2479111 192.751422,10.5688 127.999867,10.5688" id="Fill-4" fill="#061922"></path>
                <polygon id="Fill-6" fill="#C8102E" points="101.8396 78.816 101.8396 176.787111 154.182267 176.787111 154.182267 163.318667 115.848933 163.318667 115.848933 78.816"></polygon>
                <path d="M171.978089,111.638489 L171.978089,71.2691556 C171.978089,65.2216 169.542978,62.7536 163.572311,62.7536 L92.3234222,62.7536 C86.4269778,62.7536 84.0220889,65.2216 84.0220889,71.2691556 L84.0220889,184.730489 C84.0220889,190.778489 86.4269778,193.246489 92.3234222,193.246489 L163.572311,193.246489 C169.542978,193.246489 171.978089,190.778489 171.978089,184.730489 L171.978089,144.316711 L157.8612,144.316711 L157.8612,180.856267 L98.0327556,180.856267 L98.0327556,75.1433778 L157.8612,75.1433778 L157.8612,111.638489 L171.978089,111.638489 Z" id="Fill-8" fill="#1D428A"></path>
                <mask id="mask-4" fill="white">
                    <use xlink:href="#path-3"></use>
                </mask>
                <g id="Clip-11"></g>
                <path d="M133.685778,120.944444 L140.509778,120.944444 L140.509778,92.2844444 L133.685778,92.2844444 L133.685778,120.944444 Z M154.16,159.525778 L154.182222,78.816 L120.172,78.816 L119.842222,159.525778 L133.462222,159.525778 L133.680444,134.367556 L140.605333,134.367556 L140.505333,159.525778 L154.16,159.525778 Z" id="Fill-10" fill="#C8102E" mask="url(#mask-4)"></path>
            </g>
        </g>
    </g>
</svg>