<?xml version="1.0" encoding="UTF-8"?>
<svg width="256px" height="256px" viewBox="0 0 256 256" version="1.1" xmlns="http://www.w3.org/2000/svg" xmlns:xlink="http://www.w3.org/1999/xlink">
    <!-- Generator: Sketch 63.1 (92452) - https://sketch.com -->
    <title>Teams/Defualt/MGrizzlies/256</title>
    <desc>Created with Sketch.</desc>
    <defs>
        <polygon id="path-1" points="0.000177777778 0.4259219 256 0.4259219 256 241.333289 0.000177777778 241.333289"></polygon>
    </defs>
    <g id="Teams/Defualt/MGrizzlies/256" stroke="none" stroke-width="1" fill="none" fill-rule="evenodd">
        <g id="Teams/Defualt/MGrizzlies/base">
            <g id="Group-20" transform="translate(0.000000, -0.000000)">
                <g id="Group-3" transform="translate(0.000000, 0.018667)">
                    <mask id="mask-2" fill="white">
                        <use xlink:href="#path-1"></use>
                    </mask>
                    <g id="Clip-2"></g>
                    <path d="M237.067289,55.7461778 C240.174844,49.8848444 241.654844,44.0097333 241.654844,38.3906222 C241.654844,25.5808444 234.512178,14.1226222 224.471289,7.28973333 C210.509067,-2.21337778 189.5304,-3.52448889 174.699733,14.2097333 C153.053067,11.2497333 134.900622,17.2061778 128.000622,20.0426222 C121.101067,17.2061778 102.946844,11.2497333 81.3010667,14.2097333 C66.4699556,-3.52448889 45.4926222,-2.21337778 31.5295111,7.28973333 C21.4886222,14.1226222 14.3455111,25.5808444 14.3455111,38.3906222 C14.3455111,44.0097333 15.8259556,49.8848444 18.9335111,55.7461778 C7.74284444,71.8959556 0.000177777778,91.0488444 0.000177777778,110.5524 C0.000177777778,134.045733 10.0290667,146.137289 13.8126222,151.3364 C13.8126222,151.3364 15.4384,149.7124 16.8397333,148.311067 C27.4624,175.349289 45.6521778,189.899067 67.6090667,203.157289 C67.6090667,203.157289 68.0944,200.485733 68.5290667,198.0924 C92.1668444,218.580844 103.431289,213.542178 128.000622,241.333289 C152.479733,213.644844 164.040178,218.402622 187.472622,198.0924 C187.907289,200.485733 188.392178,203.157289 188.392178,203.157289 C198.164622,197.2564 225.741956,182.466622 239.161956,148.311067 C240.561956,149.7124 242.187289,151.3364 242.187289,151.3364 C244.504178,148.154178 256.000178,135.325733 256.000178,110.5524 C256.000178,91.0519556 248.259733,71.8990667 237.067289,55.7461778" id="Fill-1" fill="#707271" mask="url(#mask-2)"></path>
                </g>
                <path d="M230.305111,56.0992444 C252.853111,21.4881333 201.717556,-14.5492 176.941111,20.3143556 C151.913556,15.8796889 130.826889,25.0014667 127.999778,26.3188 C125.174889,25.0014667 104.087333,15.8796889 79.0606667,20.3143556 C54.2833333,-14.5492 3.14777778,21.4881333 25.6957778,56.0992444 C0.00333333333,91.3788 2.59311111,126.165022 14.5051111,142.5308 L19.4322222,137.601911 C19.4322222,137.601911 26.4353333,171.605911 63.4384444,193.941022 L64.7708889,186.606356 C87.5491111,210.937911 108.362,210.387689 127.999778,232.609911 C147.639333,210.387689 168.451333,210.937911 191.229556,186.606356 L192.562,193.941022 C229.565111,171.605911 236.569111,137.601911 236.569111,137.601911 L241.496667,142.5308 C253.442444,126.117467 256.018,91.4081333 230.305111,56.0992444" id="Fill-4" fill="#12173F"></path>
                <path d="M128.229156,185.512889 C128.229156,185.512889 110.4616,185.783111 107.835822,187.424 C107.835822,187.424 104.782933,192.708 128.229156,192.610222 C150.531378,192.509333 147.240711,188.443111 147.403822,187.841333 C147.403822,187.841333 139.857156,185.512889 128.229156,185.512889" id="Fill-6" fill="#5D76A9"></path>
                <path d="M112.823778,164.867511 C112.823778,164.867511 115.595333,156.840844 118.553556,159.378178 C122.661111,162.896844 128.000667,170.0524 128.000667,170.816844 L128.000667,180.371956 L121.524222,180.710178 C117.803333,180.817733 105.804222,183.684844 105.804222,183.684844 C89.282,142.771511 98.442,111.811511 102.854889,100.765733 C86.4766667,104.315067 83.8322222,84.6577333 83.8322222,84.6577333 C85.5348889,84.3084 88.0411111,85.0528444 90.8664444,86.4057333 C95.2451111,88.5012889 100.393111,92.0532889 104.498889,95.2421778 L104.501556,95.2421778 C105.716667,96.1866222 106.841111,97.0999556 107.828667,97.9319556 C118.965111,107.300844 128.000667,105.4004 128.000667,105.4004 L128.000667,145.442622 C128.000667,145.442622 95.5073333,142.927067 112.823778,164.867511" id="Fill-8" fill="#5D76A9"></path>
                <path d="M143.276044,164.874 C163.952044,143.894889 130.212489,145.119778 128.076044,145.449111 C131.541378,145.642889 157.696933,145.788667 143.276044,164.874" id="Fill-10" fill="#5D76A9"></path>
                <path d="M157.016489,101.401556 C175.628044,151.519333 152.033378,183.763333 151.900489,183.943333 C166.550711,145.591333 157.135156,113.694889 150.723156,101.847778 C147.434267,102.176667 143.484489,101.985111 143.484489,101.985111 C143.484489,101.985111 148.428933,98.93 151.633822,96.0175556 C151.857378,95.8144444 152.107156,95.5882222 152.384044,95.3428889 C155.044489,92.9811111 160.126711,88.8255556 166.293822,86.4206667 L166.294711,86.4206667 C168.550267,85.5406667 170.9516,84.8948889 173.432044,84.6575556 C173.432044,84.6575556 171.656044,101.174 157.016489,101.401556" id="Fill-12" fill="#5D76A9"></path>
                <path d="M41.852,52.5829778 C41.1808889,46.2500889 49.1844444,39.9705333 49.1844444,39.9705333 C45.8848889,36.5607556 40.124,39.5158667 40.124,39.5158667 C45.3528889,29.2896444 57.064,34.2883111 57.064,34.2883111 C52.6253333,28.8509778 43.2231111,29.1940889 43.2231111,29.1940889 C54.8551111,17.6629778 68.8991111,35.2865333 68.8991111,35.2865333 C56.3933333,38.1194222 41.852,52.5829778 41.852,52.5829778 M186.480444,36.5523111 C186.480444,36.5523111 194.073778,17.5692 217.338222,22.1532 C217.338222,22.1532 195.978667,8.09764444 181.116,33.5074222 C181.116,33.5074222 159.794667,23.5052 128,37.2514222 C128,37.2514222 98.1204444,26.7483111 75.4097778,32.6940889 C75.4097778,32.6940889 62.1653333,9.71542222 43.5133333,19.1803111 C24.8635556,28.6412 34.5933333,50.5358667 37.8404444,56.2114222 C37.8404444,56.2114222 6.93511111,87.6972 18.5537778,126.629644 L24.7728889,118.872756 C24.7728889,118.872756 33.6497778,161.271422 56.5573333,174.631422 L57.9324444,164.2092 C57.9324444,164.2092 81.8457778,193.064756 109.967111,205.317644 C112.643111,206.573644 127.540889,213.976756 128,217.630978 L128,197.439422 C128,197.439422 108.493333,199.064311 103.346667,190.060311 C99.8497778,183.936311 77.42,143.923867 88.5022222,102.019422 C88.5022222,102.019422 77.712,100.408311 75.6786667,82.2034222 C75.6786667,82.2034222 67.6328889,78.2860889 57.6333333,79.0998667 C57.6333333,79.0998667 75.5195556,73.4834222 92.2822222,79.9758667 C109.041333,86.4629778 113.528889,102.980311 124.886667,95.6803111 L128,49.1452 L131.426222,95.6803111 C142.780889,102.980311 147.274222,86.4629778 164.033778,79.9758667 C180.794222,73.4834222 198.686222,79.0998667 198.686222,79.0998667 C198.686222,79.0998667 191.530667,74.0532 180.032444,71.7563111 C170.433778,69.8340889 156.328889,76.0016444 156.328889,76.0016444 C156.328889,76.0016444 158.277778,62.7994222 164.681333,55.7620889 C170.180444,49.7096444 182.633333,48.3732 186.480444,36.5523111" id="Fill-14" fill="#5D76A9"></path>
                <path d="M104.498489,95.2424889 C102.702489,94.6811556 99.7362667,96.5362667 98.0811556,99.7562667 C92.5300444,98.1518222 90.6296,92.1553778 90.8633778,86.4091556 L90.8664889,86.4060444 C95.2456,88.5016 100.393156,92.0536 104.498489,95.2424889" id="Fill-16" fill="#FFBB22"></path>
                <path d="M159.0764,99.7574667 C157.335067,96.3699111 154.137289,94.4814667 152.383956,95.3423556 C155.045289,92.9805778 160.126622,88.8250222 166.293733,86.4210222 L166.294622,86.4210222 C166.543956,92.1708 164.595511,98.1632444 159.0764,99.7574667" id="Fill-18" fill="#FFBB22"></path>
            </g>
        </g>
    </g>
</svg>