<?xml version="1.0" encoding="UTF-8"?>
<svg width="256px" height="256px" viewBox="0 0 256 256" version="1.1" xmlns="http://www.w3.org/2000/svg" xmlns:xlink="http://www.w3.org/1999/xlink">
    <!-- Generator: Sketch 63.1 (92452) - https://sketch.com -->
    <title>Teams/Defualt/AHawks/256</title>
    <desc>Created with Sketch.</desc>
    <defs>
        <polygon id="path-1" points="1.28525417e-05 0.400815251 256 0.400815251 256 256 1.28525417e-05 256"></polygon>
    </defs>
    <g id="Teams/Defualt/AHawks/256" stroke="none" stroke-width="1" fill="none" fill-rule="evenodd">
        <g id="Teams/Defualt/AHawks/base">
            <g id="Group-8">
                <g id="Group-3">
                    <mask id="mask-2" fill="white">
                        <use xlink:href="#path-1"></use>
                    </mask>
                    <g id="Clip-2"></g>
                    <path d="M222.017378,40.6345206 C198.049378,15.0655778 163.149822,0.400815251 126.257822,0.400815251 C123.108933,0.400815251 119.9356,0.50374766 116.802267,0.71937331 C57.2804889,4.75458995 28.5058222,46.9706315 25.5227111,51.6194496 C21.1364889,57.1906662 -16.6492889,108.112482 8.66048889,178.483644 L9.13426667,180.003228 C9.37248889,180.764129 34.0156,256.000177 122.098267,256.000177 L122.114267,256.000177 C126.828044,256.000177 131.7356,255.782777 136.679156,255.342209 C202.464044,249.579768 251.394267,201.056898 255.687156,137.370132 C258.133378,100.782098 246.1756,66.4275189 222.017378,40.6345206" id="Fill-1" fill="#FFFFFF" mask="url(#mask-2)"></path>
                </g>
                <path d="M196.531071,157.325127 C205.482101,137.713256 200.978312,116.384176 185.900081,99.5560572 C181.708863,94.8851058 176.484201,91.7081132 171.42562,88.6274334 C168.141394,86.6217294 164.735612,84.5547757 161.694052,82.0999075 C160.26032,80.9454848 159.081721,79.3867257 157.834552,77.7343167 C156.291731,75.6828973 154.537413,73.3514162 152.023039,71.54322 C138.042815,61.4649899 121.595859,57.7749206 105.355504,52.9890151 C97.6845915,50.7360933 90.2211699,49.0672623 83.1900941,46.5742241 C91.8606114,40.5668764 103.018787,36.6832936 115.188145,35.5009091 C119.012025,35.1267537 122.831006,34.939454 126.560491,34.939454 C162.434962,34.939454 193.765125,52.9490697 210.374155,83.1109706 C227.007229,113.334565 225.913674,150.006238 207.494669,178.828636 C188.581427,208.437958 155.028088,224.184444 117.051997,221.062043 C94.3313504,219.205025 70.1253215,207.190774 62.6774839,194.468156 C67.2899159,191.640464 108.773753,169.723299 137.15497,178.549906 C145.292067,178.576536 132.278945,198.216369 132.278945,198.216369 C132.278945,198.216369 179.642864,194.318583 196.531071,157.325127 M216.193682,46.5174128 C191.469373,20.1845026 154.857554,6.66031404 117.493693,9.18930312 C58.1777023,13.2104757 31.8691632,57.17352 31.8691632,57.17352 C31.8691632,57.17352 78.8644086,71.3758931 85.3406923,73.3718327 C89.7385097,74.7388538 119.07258,81.9623177 132.303879,89.2212887 C135.057802,90.7352202 137.766755,93.7608641 140.436079,96.5929945 C142.416588,98.68791 144.279104,100.670091 146.219541,102.255036 C149.694337,105.090717 153.096112,107.545586 156.38479,109.916568 C164.533019,115.788545 171.567657,120.858951 174.839861,128.574187 C177.678829,135.269484 177.788808,142.215105 175.155995,148.67428 C172.863804,154.294157 168.56617,159.301538 163.224405,162.72708 C163.767175,159.880747 164.496508,155.817409 160.641461,153.286201 C158.996676,152.209006 150.123566,150.123411 144.190053,149.531331 C141.35064,149.243281 109.599707,147.75953 65.511999,171.48933 C78.7397362,153.912901 88.2081565,150.989783 88.2081565,150.989783 C87.8515046,148.867794 16.8888889,177.51887 16.8888889,177.51887 C16.8888889,177.51887 41.362518,255.68496 136.110839,247.382526 C197.746181,241.973472 243.672806,197.03931 247.70284,137.051494 C250.010614,102.787642 238.817263,70.6329082 216.193682,46.5174128" id="Fill-4" fill="#E13A3E"></path>
                <path d="M126.222222,97.7556599 C111.028525,98.3547338 97.0576249,80.1244392 85.3333333,92.0633488 C87.6034824,92.6415815 92.2255076,90.8709655 92.9406201,93.0127325 C86.9212384,116.57483 125.963716,122.64583 126.222222,97.7556599" id="Fill-6" fill="#E13A3E"></path>
            </g>
        </g>
    </g>
</svg>