<?xml version="1.0" encoding="UTF-8"?>
<svg width="256px" height="256px" viewBox="0 0 256 256" version="1.1" xmlns="http://www.w3.org/2000/svg" xmlns:xlink="http://www.w3.org/1999/xlink">
    <!-- Generator: Sketch 63.1 (92452) - https://sketch.com -->
    <title>Teams/Defualt/MHeat/256</title>
    <desc>Created with Sketch.</desc>
    <defs>
        <polygon id="path-1" points="0 2.20141312e-05 243.737008 2.20141312e-05 243.737008 255.703957 0 255.703957"></polygon>
    </defs>
    <g id="Teams/Defualt/MHeat/256" stroke="none" stroke-width="1" fill="none" fill-rule="evenodd">
        <g id="Teams/Defualt/MHeat/base" transform="translate(4.000000, 0.000000)">
            <g id="Group-30" transform="translate(0.000000, 0.000000)">
                <g id="Group-3">
                    <mask id="mask-2" fill="white">
                        <use xlink:href="#path-1"></use>
                    </mask>
                    <g id="Clip-2"></g>
                    <path d="M25.7551242,98.0522025 C26.5066987,89.537169 57.1849692,78.2959575 106.775573,76.5393239 C102.174232,79.9904407 96.7205438,86.0203505 95.3763218,95.7171274 L94.8666895,99.387102 C94.5404005,101.645821 94.1386432,103.95648 93.2663195,106.237396 C91.3551982,111.247153 85.9752028,115.377483 80.2098756,118.52584 C60.2423195,116.012304 43.5567427,111.806505 33.8093577,106.53039 L33.7964837,106.526394 C28.463545,103.637738 25.5336028,100.551088 25.7551242,98.0522025 M216.254195,95.4929424 C218.149778,97.58208 218.027254,98.9289655 217.987744,99.3728962 C217.777321,101.779444 214.764363,104.678755 209.718204,107.334792 L209.703554,107.340563 C199.101603,112.913225 180.866264,117.12657 159.160276,119.350663 C160.115614,118.733599 161.153968,118.195999 162.279776,117.739638 L162.634033,117.596249 C168.87037,115.063181 175.943073,112.191837 176.276021,101.880216 C176.330181,100.238117 176.411864,95.2061632 177.31837,93.4069124 C178.481469,91.0971413 181.461131,87.5221679 184.084317,86.5699366 C184.126491,86.5552869 179.699614,85.6922858 179.699614,85.6922858 C179.465663,85.6683135 179.24059,85.6594349 179.013298,85.652776 C180.499133,84.5749124 181.561903,83.2901771 182.334787,81.9348569 C199.963272,85.6043875 211.821547,90.6003829 216.254195,95.4929424 M237.907355,82.5430418 C228.592803,72.2687112 208.037926,63.930806 181.564567,58.8864222 C181.681765,55.8454973 183.534287,54.5558788 186.831804,52.276295 C188.552479,51.086117 190.501335,49.7370118 192.459069,47.8787182 C200.998074,39.7636661 190.976784,27.335828 190.543064,26.811102 L185.025894,20.0824453 L186.347032,28.6880407 C187.255758,34.5843274 185.091596,36.673465 178.683901,41.1434025 C177.8684,41.7089702 177.165214,42.337576 176.554366,43.0056916 C176.824276,39.0680268 177.01117,34.6815482 175.681154,29.1834673 C174.351138,23.6822788 171.650708,21.4572985 171.650708,21.4572985 L170.950629,29.4342881 C170.947966,29.4822326 170.332234,35.6675182 162.070685,43.1406465 C162.784081,42.3433471 163.446426,41.5158603 164.043957,40.647532 C168.087721,34.7601239 166.916632,28.0629864 165.563531,20.3075182 L165.280747,18.6747413 C163.891688,10.586769 166.055406,5.54549272 167.444465,4.71623029 C168.801117,3.06525225 171.488673,0.321760925 171.488673,0.321760925 C171.488673,0.321760925 170.060105,-0.314391676 166.088701,0.202343584 C160.923568,0.915296185 152.24428,4.00416555 152.476456,11.0715413 C152.579448,14.1794997 153.57696,17.1267551 154.465265,19.7286326 C155.409506,22.5174049 156.303582,25.1516892 155.50717,26.5087852 C154.874569,27.5773262 152.959452,28.4318927 149.960257,28.9774835 C137.798777,31.1931413 128.479785,36.884332 123.71641,45.006043 C122.144451,47.6913794 121.093224,50.5707135 120.563614,53.5921054 C90.3856536,53.6813355 61.8116143,57.4458673 39.657256,64.2988245 C14.8255519,71.9832638 1.13428717,82.4436014 0.0648582659,94.548258 C-0.500709364,100.917775 2.37684902,110.101812 18.3201739,118.937807 L18.2100791,119.051009 L22.7324005,121.214727 C22.7381716,121.219167 22.7457184,121.219167 22.747938,121.22405 L25.1296259,122.364064 L25.1580375,122.332989 C32.5064213,125.615412 41.1302178,128.452129 50.7275542,130.793863 C47.3061808,132.723629 44.1596005,134.939731 41.3295427,137.459037 C25.8865276,150.137696 16.9888259,168.934607 16.9888259,188.968309 C16.9888259,206.793456 23.9283496,223.552725 36.5328721,236.157692 C49.1378386,248.763102 65.8948883,255.703957 83.7204791,255.703957 C115.26841,255.703957 142.726851,233.338288 149.077723,202.495763 C154.463046,186.380193 153.838435,169.089095 153.605815,162.569974 C153.065996,147.756452 160.340243,139.558385 164.968664,135.863994 C186.046935,133.195971 204.703563,128.578205 218.596817,122.388036 L218.619013,122.412452 L220.861751,121.346131 C220.867966,121.343023 220.872849,121.341248 220.879952,121.336364 L225.685945,119.046126 L225.556317,118.92227 C236.738042,112.678385 242.979707,105.340212 243.670019,97.5190418 C244.133483,92.3117355 242.192174,87.2740106 237.907355,82.5430418" id="Fill-1" fill="#061922" mask="url(#mask-2)"></path>
                </g>
                <path d="M19.5602497,193.686936 C21.312,202.466997 26.3319676,212.985489 36.3119723,220.002257 C39.3271491,222.119362 42.6153434,223.836042 46.0953156,225.163838 C43.9373688,221.482321 41.4300486,217.779496 38.873896,214.009193 C34.1007538,206.971561 29.1660208,199.687991 26.0327584,191.858386 C22.7947283,183.764199 21.9081988,175.293114 23.3225618,166.773642 C20.7770636,173.690969 19.3706913,181.162321 19.3706913,188.968398 C19.3706913,190.559001 19.4479353,192.130072 19.5602497,193.686936" id="Fill-4" fill="#98002E"></path>
                <path d="M30.3127824,190.141129 C33.2622576,197.513929 38.0562645,204.584412 42.6926761,211.422276 C46.2756402,216.70727 49.7747015,221.873291 52.4378414,227.098355 C55.3748865,227.782452 58.4087084,228.223275 61.5060125,228.41017 C58.309268,223.843455 55.5293743,218.651243 53.1414714,212.711007 C43.8775269,189.690096 45.2195292,161.236806 56.7071223,144.767423 C62.6349281,136.269703 69.7298275,130.497273 78.8694714,125.517259 C86.7328148,121.224893 91.646683,119.942822 96.6422345,116.960052 C102.080385,113.717138 104.986799,108.300741 101.410493,96.1423686 C100.365037,92.5842645 100.177254,89.7795108 100.397,87.5998113 C99.153994,90.0023639 98.1866691,92.7969073 97.7356356,96.0429281 L97.7636032,96.0122969 C97.2033628,99.4500957 96.9640842,103.233717 95.4946738,107.086147 C90.6882368,119.6738 67.4151732,126.663488 64.3436171,127.593522 C55.5116171,130.262877 48.4313674,134.328394 42.9150853,139.240486 C26.9801951,153.419187 24.1354876,174.693675 30.3127824,190.141129" id="Fill-6" fill="#98002E"></path>
                <path d="M127.414396,76.3683218 C127.648348,77.1469762 127.837906,77.916308 127.940898,78.6683265 C128.549971,83.0676791 127.215515,86.6182363 121.819095,87.4883403 C116.26641,88.3806409 114.372602,83.5466802 113.941989,79.6072398 C113.897596,78.2386016 113.995705,77.1460883 114.113791,76.3505646 C113.178429,76.3665461 112.255941,76.3860791 111.330789,76.4096074 C109.551515,77.4284282 107.234197,79.0079334 105.002114,81.2795265 C103.896727,83.6594386 102.562715,86.9578432 104.616782,94.6738016 C108.240588,108.289154 106.7037,116.514745 95.761698,121.219078 C81.8258275,127.215249 72.9152518,130.732955 60.9628634,145.768886 C55.2769998,152.918389 52.1721489,164.774 51.6554136,176.702861 C51.1608749,188.277464 53.5421188,200.645372 57.6205096,210.783859 C60.3480194,217.561792 63.5327778,223.459855 67.2862113,228.468724 C71.0161165,228.327998 74.7979616,227.842782 78.5758113,227.015295 C74.4223963,222.152479 72.0344934,216.229113 71.6061003,209.594569 C70.1824148,187.508132 82.072209,178.220215 100.380352,163.546532 L108.566877,156.676706 C141.241504,128.921718 131.712089,100.694833 135.303044,76.5933947 C132.718923,76.4926224 130.090861,76.418486 127.414396,76.3683218" id="Fill-8" fill="#98002E"></path>
                <path d="M140.504268,76.832185 C139.506756,81.6452809 139.055723,86.6696879 138.737868,91.8676717 C137.442923,112.861151 138.072416,136.627422 111.500504,160.238317 L103.465803,166.737017 C85.6757272,180.998289 75.5101595,189.907089 76.2089064,209.299311 C76.4375306,215.698127 79.135741,221.301864 83.6447445,225.700772 C88.614104,224.204282 93.5319676,222.115145 98.2616046,219.43114 C121.373965,206.311214 135.914025,186.700578 141.475588,161.545692 C144.991519,145.64099 144.918271,132.69908 144.860116,122.300005 C144.832148,117.045642 145.515801,106.730469 145.515801,106.730469 C146.249175,100.222002 147.305286,91.0939006 154.855658,79.1352971 C155.102039,78.7490775 155.362183,78.3570867 155.614335,77.9668717 C150.803903,77.4927538 145.764402,77.1105295 140.504268,76.832185" id="Fill-10" fill="#98002E"></path>
                <path d="M148.28433,144.321317 C148.28655,144.294681 148.289213,144.268933 148.289213,144.241853 C148.28655,144.27648 148.279447,144.321317 148.275008,144.355056 C147.555396,148.121807 147.366282,152.349803 146.906813,156.570695 C146.688843,158.183939 146.466434,159.745243 146.237366,161.263486 C146.157902,161.690547 146.074,162.118052 145.975003,162.542894 C140.137759,189.031347 125.037458,209.650149 100.742467,223.439967 C96.567299,225.810556 92.3361961,227.753641 88.0802331,229.267444 C95.1995487,233.99353 103.504603,235.446071 109.214439,234.588841 C131.032742,231.314852 141.665324,217.079772 146.777186,201.859167 C152.031105,186.232808 151.471752,169.562325 151.220931,162.657872 C150.389449,139.598783 168.223919,131.093516 168.223919,131.093516 C154.356857,130.342385 149.810564,136.385169 148.28433,144.321317" id="Fill-12" fill="#98002E"></path>
                <path d="M133.716968,229.37048 C124.796626,236.829847 115.178869,238.461736 110.808372,239.131627 C102.219646,240.447882 92.0483071,238.412016 83.0524966,231.314897 C82.9059995,231.197255 82.768825,231.070735 82.6241036,230.953981 C78.7703417,231.9839 74.9121406,232.671549 71.0601545,232.986739 C79.8686261,242.443794 91.4569914,247.810915 106.999003,248.86525 C107.064261,248.870134 107.133958,248.875017 107.200991,248.876793 L107.219193,248.876793 C117.796728,244.724709 127.013616,237.862874 133.99842,229.12765 C133.903863,229.211109 133.811082,229.291017 133.716968,229.37048" id="Fill-14" fill="#98002E"></path>
                <path d="M52.5338192,245.249657 C52.7109475,240.386841 51.3427533,235.609704 49.1053429,230.831678 C43.7675209,229.291239 38.5437891,227.001001 33.5096157,223.942319 C30.6768943,222.218092 28.1265128,219.590023 25.8686816,217.135086 C25.8589151,217.12532 25.8500365,217.121768 25.8402701,217.109782 C31.6384481,229.015114 40.9965059,238.853949 52.5338192,245.254541 L52.5338192,245.249657 Z" id="Fill-16" fill="#98002E"></path>
                <path d="M97.0192203,251.872614 C88.3243949,249.863384 80.8779024,246.77851 74.3507903,241.829571 C71.0159834,239.295171 67.9759464,236.433594 65.2075949,233.197784 C61.6863371,233.155611 58.185944,232.812896 54.7223972,232.164314 C56.6495001,237.127014 57.6172689,242.186492 56.9988735,247.497678 L56.9988735,247.507 C65.1396735,251.225807 74.1838724,253.319384 83.7203903,253.319384 C88.317292,253.319384 92.7969961,252.826177 97.1164412,251.909904 C97.0858099,251.900138 97.0498516,251.8846 97.0192203,251.872614" id="Fill-18" fill="#98002E"></path>
                <path d="M171.781002,93.8396116 C170.282736,98.8520324 165.346227,98.2602728 163.914995,95.5589549 C161.650505,91.2821272 162.507735,87.9757318 164.871221,85.7187884 C167.230269,83.462289 171.100456,82.2574613 174.85167,80.5585387 C174.873422,80.5487723 174.887184,80.5416694 174.904054,80.5336786 C170.570403,79.788763 165.954856,79.1250867 161.069399,78.5519723 C161.004585,78.6296601 160.933113,78.7033526 160.864747,78.7783769 C160.434578,79.2733595 159.999083,79.7652347 159.581788,80.2775306 C151.824988,91.9435838 150.851448,100.593128 150.096322,107.248092 L149.857487,109.294613 C149.421991,112.78302 149.44552,117.181928 149.473487,122.274257 C149.478814,122.973891 149.48281,123.696166 149.48281,124.430428 C149.429538,126.209258 149.361173,127.958788 149.282153,129.675468 C149.321219,129.685235 149.352738,129.694557 149.390028,129.702548 C149.44552,128.992259 149.478814,128.71791 149.473487,129.082377 C151.6705,122.090913 155.698726,117.838946 161.380595,115.529175 C167.533917,113.034284 173.606,110.737387 173.893668,101.802395 C174.017968,98.0698266 174.287434,94.3350382 175.142444,92.4296879 C176.692206,88.979459 179.470324,88.064074 179.470324,88.064074 C176.488886,87.7741873 173.222,89.0247399 171.781002,93.8396116" id="Fill-20" fill="#98002E"></path>
                <path d="M179.226828,58.4459098 C179.67653,52.4706035 185.339753,51.3527861 190.815194,46.1490312 C197.848387,39.4696509 188.705635,28.3229965 188.705635,28.3229965 C189.854972,35.8187653 186.388761,38.6781225 180.044105,43.0992277 C178.030435,44.499385 176.568572,46.4699931 176.365251,48.9524532 C176.140622,51.731459 175.964826,54.7297665 175.355753,57.7760185 C176.662685,57.9917688 177.947864,58.2163977 179.226828,58.4459098" id="Fill-22" fill="#F9A01B"></path>
                <path d="M159.865548,48.0310751 C158.174172,49.2922821 156.58934,50.5863399 155.111495,51.9061457 C154.05716,52.9147561 153.030792,53.9180393 152.080781,54.880037 C158.263403,55.4154173 164.270672,56.1097249 170.060415,56.9549688 C173.755694,50.2169896 175.519874,42.5831584 173.32952,29.574659 C173.32952,29.574659 172.815449,38.3840185 159.865548,48.0310751" id="Fill-24" fill="#F9A01B"></path>
                <path d="M125.336934,53.6016943 C132.402534,53.6696157 139.337175,53.9515117 146.092023,54.4163071 C146.321979,54.1916782 146.534622,53.962166 146.766798,53.7424203 C151.305545,48.8729452 158.326751,44.7603718 162.078853,39.2986932 C165.830955,33.8383464 164.317595,27.1625175 162.931644,19.0789845 C160.537526,5.14488971 166.411616,2.56165734 166.411616,2.56165734 C166.411616,2.56165734 154.635024,4.18511168 154.860985,10.9941198 C155.161082,20.1377591 164.581734,28.7384712 150.389716,31.3225914 C134.813077,34.1557568 125.130506,42.583336 122.999195,53.5968111 C123.779625,53.5990308 124.554284,53.5945914 125.336934,53.6016943" id="Fill-26" fill="#F9A01B"></path>
                <path d="M125.299644,57.2515588 C60.0374012,56.6060837 5.59374798,73.4528074 3.69905202,94.8715727 C2.94126243,103.404807 10.6452347,111.376914 24.3111954,117.924003 C32.7538682,121.967767 43.4747931,125.462833 55.878215,128.212539 C58.3633387,127.108928 60.9590012,126.124733 63.6900624,125.299466 C65.8515607,124.647332 69.843385,123.339069 74.2351908,121.431499 C55.9612301,118.761256 41.1667977,114.665108 32.0715468,109.741029 C25.3531006,106.106125 21.7386173,102.018412 22.1190659,97.7313739 C23.392259,83.3475773 69.0816,72.1272305 124.175612,72.6701577 C179.264296,73.212197 222.896462,85.3124143 221.626377,99.6935473 C221.279667,103.612123 217.635884,107.294972 211.401766,110.569848 C199.898192,116.617515 179.569276,121.266357 154.879186,123.43407 C154.026395,124.600276 153.27704,125.897885 152.654206,127.365963 C163.886539,123.108225 176.824009,129.405825 176.824009,129.405825 C176.824009,129.405825 177.692782,129.739661 178.300079,130.149409 C194.681563,127.230121 208.755052,123.070491 219.308615,118.043864 C231.783954,112.100965 239.351639,104.949242 240.037956,97.199545 C241.932208,75.7794479 190.562775,57.8921508 125.299644,57.2515588" id="Fill-28" fill="#FFFFFF"></path>
            </g>
        </g>
    </g>
</svg>