<?xml version="1.0" encoding="UTF-8"?>
<svg width="256px" height="256px" viewBox="0 0 256 256" version="1.1" xmlns="http://www.w3.org/2000/svg" xmlns:xlink="http://www.w3.org/1999/xlink">
    <!-- Generator: Sketch 63.1 (92452) - https://sketch.com -->
    <title>Teams/Defualt/CHornets/256</title>
    <desc>Created with Sketch.</desc>
    <defs>
        <polygon id="path-1" points="0 246.58194 255.738863 246.58194 255.738863 0 0 0"></polygon>
    </defs>
    <g id="Teams/Defualt/CHornets/256" stroke="none" stroke-width="1" fill="none" fill-rule="evenodd">
        <g id="Teams/Defualt/CHornets/base" transform="translate(0.000000, 4.000000)">
            <g id="Group-53">
                <path d="M62.3051773,112.539098 L44.1818328,112.539098 L44.1818328,132.211714 L33.2838528,137.547045 L44.1831171,143.236837 L44.1831171,160.718041 L56.2181137,168.087245 C60.6523077,167.502898 66.3082809,166.824797 72.8632508,166.153975 L119.385472,192.970617 L127.868575,231.979794 C127.922515,231.88861 136.435157,192.970617 136.435157,192.970617 L182.878609,166.153975 C189.430582,166.824797 195.091264,167.502898 199.520321,168.087245 L211.544615,160.718041 L211.544615,143.236837 L222.465712,137.669052 L211.544615,132.211714 L211.544615,112.539098 L193.435398,112.539098 C193.435398,112.539098 196.238983,109.830122 199.790876,103.713948 C201.275505,101.158657 202.679652,97.9689311 204.399732,94.1944294 C217.603853,90.1724896 227.348977,81.7450381 231.523746,73.5213592 C242.835692,52.8157538 251.347906,27.4948709 251.347906,27.4948709 C251.347906,27.4948709 246.46293,29.8408241 240.570649,32.7492923 C245.353739,18.1607171 248.225819,5.77639599 248.225819,5.77639599 C248.225819,5.77639599 196.057043,40.2948709 155.422395,72.7135465 L151.901324,70.6021886 C151.915023,70.2661351 152.009632,67.3007304 152.009632,67.0567171 C152.009632,67.0567171 152.408187,63.609707 146.33996,61.5514328 C145.967518,61.4260013 145.612201,61.3069913 145.262876,61.1896936 C148.20602,58.9820147 152.77592,55.6064963 156.111197,53.3221886 C161.430689,49.6739746 160.803104,45.6593124 160.803104,45.6593124 L141.526047,60.0085833 C126.626247,55.1762622 114.212816,60.0085833 114.212816,60.0085833 L94.9417525,45.6593124 C94.9417525,45.6593124 94.3115987,49.6739746 99.6259532,53.3221886 C102.96594,55.6064963 107.532843,58.9820147 110.48198,61.1896936 C110.129659,61.3069913 109.771344,61.4260013 109.403612,61.5514328 C103.333672,63.609707 103.735224,67.0567171 103.735224,67.0567171 C103.735224,67.3007304 103.823411,70.2661351 103.841819,70.6021886 L100.317753,72.7135465 C59.6835318,40.2948709 7.52374582,5.77639599 7.52374582,5.77639599 C7.52374582,5.77639599 10.3851237,18.1607171 15.168214,32.7492923 C8.86025418,29.6323425 4.39052843,27.4948709 4.39052843,27.4948709 C4.39052843,27.4948709 12.9048829,52.8157538 24.2215385,73.5213592 C28.3924548,81.7450381 38.1362943,90.1724896 51.3408428,94.1944294 C51.3408428,94.1944294 53.5746355,99.3058676 55.4997726,102.978483 C57.8791171,107.520557 62.3051773,112.539098 62.3051773,112.539098" id="Fill-1" fill="#1D1160"></path>
                <path d="M149.747885,83.0566314 C149.573223,83.6281365 149.373731,84.1812334 149.181089,84.7287652 C167.444848,72.796511 199.360086,51.9744642 235.115751,28.7465311 C235.115751,28.7465311 235.157276,29.5243773 238.324313,20.3349191 C200.546333,43.1518823 167.092527,69.0130194 149.747885,83.0566314" id="Fill-3" fill="#00788C"></path>
                <path d="M105.990978,83.0589431 C88.6476201,69.014903 55.1955264,43.1520535 17.4175465,20.3350903 C20.5798742,29.5296856 20.6218274,28.7462742 20.6218274,28.7462742 C56.3804896,51.9720669 88.2893057,72.7928294 106.561199,84.7259398 C106.363419,84.178408 106.168637,83.6283077 105.990978,83.0589431" id="Fill-5" fill="#00788C"></path>
                <path d="M72.824594,113.555607 C72.8104669,113.551754 63.8487545,107.148757 58.7938247,95.4249846 L62.3748281,96.4905097 C74.063497,99.5834863 96.4155505,102.667045 96.4155505,102.667045 C85.651992,102.907205 76.5464401,103.753118 71.3536642,104.328476 C70.2722997,102.992396 69.0316843,101.285159 68.5573565,100.014577 C68.5573565,100.014577 68.9576241,104.111433 69.8767411,106.675286 C71.0445806,110.427098 72.8104669,113.544048 72.824594,113.555607 M127.854748,101.503058 C124.730948,100.307393 116.859591,96.3770649 112.139858,86.114804 C116.005116,89.4479411 120.964153,90.5156067 124.924019,86.6794595 C120.088273,84.5976401 119.488942,75.9702689 118.552701,73.7052254 C116.663096,69.122911 113.667724,66.8047839 111.297798,65.8330114 C112.466066,65.4374528 113.561129,65.0842756 114.585129,64.7679144 C116.847176,65.9944027 120.624674,68.8223893 121.806213,74.4445431 C121.806213,74.4445431 122.302373,68.0235666 119.121209,63.5213057 C125.291751,62.0349645 131.516233,62.2374528 136.59428,63.5131719 C133.404126,68.0171452 133.895577,74.4445431 133.895577,74.4445431 C135.084821,68.8155398 138.873022,65.9858408 141.138066,64.7653458 C142.159069,65.0791385 143.255845,65.4361686 144.434815,65.8330114 C142.063176,66.8047839 139.070801,69.122911 137.184193,73.7052254 C136.254373,75.9702689 135.650333,84.5976401 130.821009,86.6794595 C131.930199,93.245988 130.565865,99.3780013 127.854748,101.503058" id="Fill-7" fill="#00788C"></path>
                <path d="M185.833996,106.675371 L185.833996,106.675371 C186.753113,104.111518 187.153381,100.014234 187.153381,100.014234 C186.679481,101.285244 185.436725,102.992054 184.355361,104.328562 C179.163013,103.753204 170.057033,102.907291 159.293902,102.66713 C159.293902,102.66713 181.645956,99.5835719 193.335909,96.4901672 L196.91734,95.4250702 C191.860698,107.148843 182.898986,113.551839 182.886143,113.555692 C182.898986,113.544134 184.664444,110.427184 185.833996,106.675371" id="Fill-9" fill="#00788C"></path>
                <path d="M100.033841,169.035944 L77.2695331,155.896894 C75.6320749,156.051007 74.0220147,156.205549 72.4753124,156.36694 L104.084463,174.610579 C102.539473,172.910619 101.184557,171.041563 100.033841,169.035944" id="Fill-11" fill="#00788C"></path>
                <path d="M155.698986,169.035944 L178.462009,155.896894 C180.099468,156.051007 181.7091,156.205549 183.255374,156.36694 L151.647936,174.610579 C153.191641,172.910619 154.546558,171.041563 155.698986,169.035944" id="Fill-13" fill="#00788C"></path>
                <path d="M117.74476,172.103663 C107.691837,169.92381 103.532907,164.969054 103.532907,164.969054 C105.59375,169.157522 108.700854,172.741522 112.51688,175.375155 C112.51688,175.375155 116.754579,174.148238 117.74476,172.103663" id="Fill-15" fill="#00788C"></path>
                <path d="M111.591299,161.367074 C110.885373,160.676559 110.16061,159.958218 109.448262,159.215904 C106.242697,160.328947 104.416878,161.573843 103.454095,162.422325 C105.678898,164.540532 109.917881,167.355248 117.532811,168.941763 C116.6077,166.329536 114.243767,163.987435 111.591299,161.367074" id="Fill-17" fill="#00788C"></path>
                <path d="M127.669298,185.08068 C124.333592,185.134191 121.957672,186.423609 121.163559,186.71985 C120.329204,185.14575 119.357431,183.550673 118.438314,182.142673 C121.305686,182.491569 123.820736,181.956024 123.820736,181.956024 C122.622074,181.561322 119.527385,180.511636 115.458355,177.832626 C115.451933,177.832626 115.450649,177.826205 115.450649,177.826205 C115.799545,177.678512 116.156575,177.517549 116.518314,177.33775 C116.518314,177.33775 116.52602,177.335181 116.529017,177.330472 C117.600963,176.794927 118.676334,176.097134 119.527385,175.220399 C120.542823,174.173282 121.242328,172.874445 121.242328,171.260104 C121.242328,166.265536 117.882221,164.581415 114.106435,160.855716 C113.347853,160.108693 112.533619,159.337696 111.705686,158.526887 C115.172388,157.596211 119.876709,156.870165 126.214207,156.756292 L127.731371,177.935797 L127.952268,177.935797 L129.51695,156.756292 C135.855732,156.870165 140.558341,157.596211 144.025472,158.526887 C143.198823,159.337696 142.384589,160.108693 141.626435,160.855716 C137.850221,164.581415 134.488829,166.265536 134.488829,171.260104 C134.488829,172.874445 135.188334,174.173282 136.204629,175.220399 C137.054823,176.097134 138.128482,176.794927 139.201712,177.330472 C139.205137,177.335181 139.214555,177.33775 139.214555,177.33775 C139.575866,177.517549 139.932896,177.678512 140.280508,177.826205 C140.280508,177.826205 140.278796,177.832626 140.274087,177.832626 C136.204629,180.511636 133.110796,181.561322 131.911706,181.956024 C131.911706,181.956024 134.426756,182.491569 137.294127,182.142673 C136.37501,183.550673 135.401525,185.14575 134.567171,186.71985 C133.774769,186.423609 131.397137,185.134191 128.063144,185.08068 L127.669298,185.08068 Z" id="Fill-19" fill="#00788C"></path>
                <path d="M143.21569,175.374983 C147.031716,172.741779 150.137108,169.157779 152.199663,164.968883 C152.199663,164.968883 148.040733,169.924067 137.98781,172.103492 C138.976706,174.148495 143.21569,175.374983 143.21569,175.374983" id="Fill-21" fill="#00788C"></path>
                <path d="M138.199374,168.941892 C145.813019,167.355377 150.053287,164.540661 152.275093,162.422454 C151.316163,161.573972 149.489916,160.329076 146.282638,159.215604 C145.57029,159.958346 144.845528,160.67626 144.141314,161.367203 C141.487133,163.987564 139.1232,166.329236 138.199374,168.941892" id="Fill-23" fill="#00788C"></path>
                <path d="M121.053924,87.2548174 C121.053924,87.2548174 117.369322,84.8215331 116.775984,79.6433124 C116.775984,79.6433124 111.997603,87.6435264 121.053924,87.2548174" id="Fill-25" fill="#FFFFFF"></path>
                <path d="M134.946033,87.2548174 C134.946033,87.2548174 138.633632,84.8215331 139.221833,79.6433124 C139.221833,79.6433124 144.003639,87.6435264 134.946033,87.2548174" id="Fill-27" fill="#FFFFFF"></path>
                <path d="M132.237442,192.827334 C131.576466,192.141956 130.615395,191.345702 127.678673,191.342249 C124.902486,191.33714 123.935422,192.043922 123.130606,192.705755 L127.868746,211.438277 L132.237442,192.827334 Z" id="Fill-29" fill="#FFFFFF"></path>
                <polygon id="Fill-31" fill="#FFFFFF" points="163.565592 110.526116 163.565592 117.384605 161.258595 117.384605 161.258595 110.526116 159.352294 110.526116 159.352294 108.566304 165.470181 108.566304 165.470181 110.526116"></polygon>
                <polygon id="Fill-33" fill="#FFFFFF" points="152.837779 110.526116 152.837779 117.384605 150.526502 117.384605 150.526502 110.526116 148.617204 110.526116 148.617204 108.566304 154.745365 108.566304 154.745365 110.526116"></polygon>
                <mask id="mask-2" fill="white">
                    <use xlink:href="#path-1"></use>
                </mask>
                <g id="Clip-36"></g>
                <path d="M116.624696,112.274836 L119.085806,112.274836 L119.085806,110.52907 L116.624696,110.52907 L116.624696,112.274836 Z M120.422314,114.260763 L121.250247,114.260763 L121.250247,109.512348 L120.286181,108.566261 L114.453833,108.566261 L114.453833,117.38499 L116.624696,117.38499 L116.624696,114.260763 L118.257873,114.260763 L119.516896,117.38499 L121.67192,117.38499 L120.422314,114.260763 Z" id="Fill-35" fill="#FFFFFF" mask="url(#mask-2)"></path>
                <polygon id="Fill-37" fill="#FFFFFF" mask="url(#mask-2)" points="176.845699 110.528428 176.845699 108.566475 170.372495 108.566475 170.372495 117.384776 176.845699 117.384776 176.845699 115.405699 172.62812 115.405699 172.62812 113.955746 176.845699 113.955746 176.845699 111.975813 172.62812 111.975813 172.62812 110.528428"></polygon>
                <polygon id="Fill-38" fill="#FFFFFF" mask="url(#mask-2)" points="129.055165 115.405742 129.055165 108.566946 126.793118 108.566946 126.793118 117.384819 132.310389 117.384819 132.310389 115.405742"></polygon>
                <path d="M138.764843,115.405913 L141.264482,115.405913 L141.264482,110.528642 L138.764843,110.528642 L138.764843,115.405913 Z M142.457151,108.566261 L136.602114,108.566261 L136.602114,116.393097 L137.587585,117.38499 L143.428923,117.38499 L143.428923,109.544455 L142.457151,108.566261 Z" id="Fill-39" fill="#FFFFFF" mask="url(#mask-2)"></path>
                <path d="M104.507933,112.532548 L107.015278,112.532548 L107.015278,110.528642 L104.507933,110.528642 L104.507933,112.532548 Z M109.249498,117.38499 L109.24008,109.552589 L108.264883,108.566261 L102.289124,108.566261 L102.289124,117.38499 L104.507933,117.38499 L104.507933,114.517191 L107.015278,114.517191 L107.015278,117.38499 L109.249498,117.38499 Z" id="Fill-40" fill="#FFFFFF" mask="url(#mask-2)"></path>
                <polygon id="Fill-41" fill="#FFFFFF" mask="url(#mask-2)" points="95.2506221 108.566261 95.2506221 112.53212 92.763398 112.53212 92.763398 108.566261 90.541592 108.566261 90.541592 117.38499 92.763398 117.38499 92.763398 114.517191 95.2506221 114.517191 95.2506221 117.38499 97.46301 117.38499 97.46301 108.566261"></polygon>
                <path d="M227.597785,45.963002 C231.887711,35.8792562 235.115965,28.7463599 235.115965,28.7463599 C199.359872,51.9695839 167.444634,72.7967679 149.180875,84.7290221 C148.483938,86.6687144 147.690253,88.4367411 146.818654,90.058788 L218.848835,50.818012 L162.623015,91.4239786 L165.216835,90.9573565 L194.927818,88.0882729 C194.927818,88.0882729 215.006694,86.1464401 226.17951,71.1259184 C231.435644,63.0606341 240.390079,39.4868013 240.390079,39.4868013 L227.597785,45.963002 Z" id="Fill-42" fill="#FFFFFF" mask="url(#mask-2)"></path>
                <path d="M55.5043532,139.929771 L62.4287679,136.946387 L62.4287679,152.666413 C64.4125538,152.397142 66.4579853,152.142427 68.5235371,151.897557 L68.5218247,117.385386 L62.438186,117.385386 C62.4227746,117.34141 62.4227746,129.753557 62.4287679,129.81349 L55.5043532,132.734801 L55.5107746,117.385386 L49.3864669,117.385386 L49.3864669,135.249423 C49.3864669,135.249423 44.3409552,137.671149 44.3686666,137.718239 L49.3864669,140.225584 L49.3864669,154.711417 C51.3501324,154.355243 53.4263866,154.015336 55.5043532,153.686561 L55.5043532,139.929771 Z" id="Fill-43" fill="#FFFFFF" mask="url(#mask-2)"></path>
                <path d="M103.001429,128.364565 L109.901442,128.364565 C109.901442,130.061528 109.890312,132.240096 109.890312,133.774384 C107.583743,133.806491 105.307997,133.846732 103.00785,133.886544 L103.001429,128.364565 Z M103.00785,139.827628 C104.531007,139.783106 106.015636,139.738157 107.54179,139.705621 C108.665108,142.627789 109.820961,145.939521 110.945563,148.870678 C112.961456,148.811601 114.993188,148.762799 117.038619,148.725983 C115.920011,145.784979 114.78171,142.489086 113.661389,139.581474 C114.434098,139.567775 115.209375,139.552792 115.991074,139.543374 L115.988078,125.430411 L113.285951,122.770237 L94.5881043,122.770237 L96.8976696,125.523307 L96.8976696,149.473006 C98.9182716,149.360845 100.945295,149.258959 103.00785,149.166919 L103.00785,139.827628 Z" id="Fill-44" fill="#FFFFFF" mask="url(#mask-2)"></path>
                <path d="M126.814994,128.364565 L133.807047,128.364565 L133.807047,148.647641 C135.91284,148.667762 138.094405,148.698157 140.17066,148.740538 L140.17066,125.53615 L137.386767,122.770237 L118.271529,122.770237 L120.570392,125.523307 L120.572104,148.671187 C122.645362,148.644645 124.715195,148.628377 126.814994,148.623668 L126.814994,128.364565 Z" id="Fill-45" fill="#FFFFFF" mask="url(#mask-2)"></path>
                <path d="M162.995371,143.788051 C159.042355,143.577429 155.153552,143.402767 151.203104,143.264492 C151.189405,141.817108 151.187692,140.371864 151.184696,138.9309 C155.144134,139.043917 159.044923,139.177054 162.995371,139.345295 L162.995371,133.254379 C159.035933,133.149068 155.120589,133.059168 151.172281,132.990673 C151.167572,131.817268 151.167572,129.838191 151.167572,128.364693 L162.993659,128.364693 L162.993659,122.770365 L142.478555,122.770365 L144.753017,125.511021 L144.753017,148.861817 C150.997619,149.041188 157.10309,149.316024 162.995371,149.685041 L162.995371,143.788051 Z" id="Fill-46" fill="#FFFFFF" mask="url(#mask-2)"></path>
                <path d="M178.362863,128.364565 L183.616856,128.364565 L183.616856,122.770237 L166.382234,122.770237 L166.382234,128.364565 L171.744535,128.364565 L171.744535,150.321488 C173.944508,150.500003 176.233525,150.68922 178.362863,150.891708 L178.362863,128.364565 Z" id="Fill-47" fill="#FFFFFF" mask="url(#mask-2)"></path>
                <path d="M86.2514515,144.087802 C83.9046421,144.235494 81.604495,144.385327 79.259398,144.554424 L79.259398,128.364351 L86.2561605,128.364351 L86.2514515,144.087802 Z M92.3834649,125.525662 L89.622689,122.770451 L70.8610569,122.770451 L73.0824348,125.439615 L73.0858595,148.228324 L75.5097258,151.115815 C80.8874381,150.572565 86.5729498,150.109795 92.3787559,149.73607 L92.3834649,125.525662 Z" id="Fill-48" fill="#FFFFFF" mask="url(#mask-2)"></path>
                <path d="M205.70773,140.103663 C207.590914,139.259034 209.489937,138.398138 211.382539,137.506847 C205.301897,134.689991 199.213121,132.129563 193.121777,129.763489 L193.113643,122.841215 L199.566726,122.841215 L199.566726,125.354981 L205.70773,125.354981 L205.70773,117.384733 L184.693897,117.384733 L187.026579,120.09371 L187.026579,134.35779 L199.568439,139.80785 L199.568439,147.784091 C199.568439,147.784091 196.657402,147.415502 193.118352,146.956158 L193.118352,144.396158 L187.030004,143.673108 L187.030004,151.813308 C193.691569,152.592011 199.943877,153.498713 205.704733,154.518432 C205.701736,150.180987 205.70773,143.334914 205.70773,140.103663" id="Fill-49" fill="#FFFFFF" mask="url(#mask-2)"></path>
                <polygon id="Fill-50" fill="#FFFFFF" mask="url(#mask-2)" points="83.3687117 114.645704 83.3687117 115.405571 81.3943438 115.405571 81.3943438 110.5283 83.3687117 110.5283 83.3687117 111.254346 85.5823839 111.254346 85.5823839 108.566346 79.2221967 108.566346 79.2221967 116.393183 80.211093 117.384647 85.5840963 117.384647 85.5823839 114.645704"></polygon>
                <path d="M28.1439893,45.963002 C23.8549191,35.8792562 20.6279492,28.7463599 20.6279492,28.7463599 C56.3819023,51.9695839 88.2971398,72.7967679 106.560899,84.7290221 C107.259548,86.6687144 108.053662,88.4367411 108.92312,90.058788 L36.8942234,50.818012 L93.1200428,91.4239786 L90.524511,90.9573565 L60.8130997,88.0882729 C60.8130997,88.0882729 40.7350796,86.1464401 29.5622635,71.1259184 C24.3061298,63.0606341 15.3504107,39.4868013 15.3504107,39.4868013 L28.1439893,45.963002 Z" id="Fill-51" fill="#FFFFFF" mask="url(#mask-2)"></path>
                <path d="M62.3051773,112.539098 L44.1818328,112.539098 L44.1818328,132.211714 L33.2838528,137.547045 L44.1831171,143.236837 L44.1831171,160.718041 L56.2181137,168.087245 C60.6523077,167.502898 66.3082809,166.824797 72.8632508,166.153975 L119.385472,192.970617 L127.868575,231.979794 C127.922515,231.88861 136.435157,192.970617 136.435157,192.970617 L182.878609,166.153975 C189.430582,166.824797 195.091264,167.502898 199.520321,168.087245 L211.544615,160.718041 L211.544615,143.236837 L222.465712,137.669052 L211.544615,132.211714 L211.544615,112.539098 L193.435398,112.539098 C193.435398,112.539098 196.238983,109.830122 199.790876,103.713948 C201.275505,101.158657 202.679652,97.9689311 204.399732,94.1944294 C217.603853,90.1724896 227.348977,81.7450381 231.523746,73.5213592 C242.835692,52.8157538 251.347906,27.4948709 251.347906,27.4948709 C251.347906,27.4948709 246.46293,29.8408241 240.570649,32.7492923 C245.353739,18.1607171 248.225819,5.77639599 248.225819,5.77639599 C248.225819,5.77639599 196.057043,40.2948709 155.422395,72.7135465 L151.901324,70.6021886 C151.915023,70.2661351 152.009632,67.3007304 152.009632,67.0567171 C152.009632,67.0567171 152.408187,63.609707 146.33996,61.5514328 C145.967518,61.4260013 145.612201,61.3069913 145.262876,61.1896936 C148.20602,58.9820147 152.77592,55.6064963 156.111197,53.3221886 C161.430689,49.6739746 160.803104,45.6593124 160.803104,45.6593124 L141.526047,60.0085833 C126.626247,55.1762622 114.212816,60.0085833 114.212816,60.0085833 L94.9417525,45.6593124 C94.9417525,45.6593124 94.3115987,49.6739746 99.6259532,53.3221886 C102.96594,55.6064963 107.532843,58.9820147 110.48198,61.1896936 C110.129659,61.3069913 109.771344,61.4260013 109.403612,61.5514328 C103.333672,63.609707 103.735224,67.0567171 103.735224,67.0567171 C103.735224,67.3007304 103.823411,70.2661351 103.841819,70.6021886 L100.317753,72.7135465 C59.6835318,40.2948709 7.52374582,5.77639599 7.52374582,5.77639599 C7.52374582,5.77639599 10.3851237,18.1607171 15.168214,32.7492923 C8.86025418,29.6323425 4.39052843,27.4948709 4.39052843,27.4948709 C4.39052843,27.4948709 12.9048829,52.8157538 24.2215385,73.5213592 C28.3924548,81.7450381 38.1362943,90.1724896 51.3408428,94.1944294 C51.3408428,94.1944294 53.5746355,99.3058676 55.4997726,102.978483 C57.8791171,107.520557 62.3051773,112.539098 62.3051773,112.539098 M249.957886,38.9891853 C244.244548,54.2661351 236.658729,69.9780281 232.86796,76.4743492 C226.479518,87.4070047 213.752294,93.9251585 206.287197,96.3314729 C206.287197,96.3314729 202.664669,105.077854 198.931692,109.890911 L214.164548,109.890911 L214.164548,130.599941 L228.634542,137.531205 L214.14614,144.832771 L214.127732,162.203098 L200.082836,170.785092 C200.082836,170.785092 188.892896,169.396784 183.44412,168.833413 L138.914676,194.543433 C129.985498,234.849734 127.870288,246.582068 127.870288,246.582068 C127.870288,246.582068 125.775197,235.511567 116.827184,194.543433 L72.2964548,168.833413 C66.8442542,169.396784 55.657311,170.785092 55.657311,170.785092 L41.6094181,162.203098 L41.5875853,144.832771 L27.1073177,137.531205 L41.5755987,130.599941 L41.5755987,109.890911 L56.8101672,109.890911 C53.1422609,105.301747 49.4499532,96.3314729 49.4499532,96.3314729 C44.9678127,94.8613993 40.7365351,92.8322355 36.9252174,90.398095 C30.912214,86.567513 25.9797191,81.7343358 22.8713311,76.4743492 C16.8056722,65.7844227 9.67277592,49.6855331 5.77969231,38.9891853 C3.20556522,32.468891 0,22.5127171 0,22.5127171 C0,22.5127171 8.28532441,26.476008 10.8346221,27.7204763 C6.86105686,15.8331719 3.50694314,0.000128428094 3.50694314,0.000128428094 L3.50694314,0.000128428094 C3.50694314,0.000128428094 60.5315853,37.488289 100.529659,69.552503 L101.161525,69.1676468 C101.141405,68.4993926 101.127706,67.824289 101.127706,67.1307773 C101.110582,66.7322221 101.138408,65.9393926 101.468896,64.9701886 C101.933806,63.6490916 102.970649,61.9983625 105.289632,60.5800883 C102.354194,58.4233525 97.0599599,54.7661485 96.5933378,54.2545766 C92.7246555,50.8957538 92.0743813,47.1152589 92.3663411,45.2513391 L93.0290301,40.9883826 L114.727385,57.1472054 C126.527786,53.7678341 134.864054,55.4412522 141.014475,57.1472054 L162.711117,40.9883826 L163.372522,45.2513391 C163.664482,47.1152589 163.014207,50.8957538 159.147237,54.2545766 C158.696027,54.7348977 153.382957,58.4233525 150.450515,60.5800883 C152.766502,61.9983625 153.806341,63.6490916 154.266542,64.9701886 C154.60388,65.9393926 154.631278,66.7322221 154.608161,67.1307773 C154.608161,67.824289 154.599171,68.4993926 154.575625,69.1676468 L155.212201,69.552503 C196.160642,36.7515398 252.231492,0.000128428094 252.231492,0.000128428094 L252.231492,0.000128428094 C252.231492,0.000128428094 249.438609,13.0347237 244.907237,27.7204763 C247.062261,26.6699344 255.738863,22.5127171 255.738863,22.5127171 C253.279465,30.4264562 249.957886,38.9891853 249.957886,38.9891853" id="Fill-52" fill="#A1A1A4" mask="url(#mask-2)"></path>
            </g>
        </g>
    </g>
</svg>