<?xml version="1.0" encoding="UTF-8"?>
<svg width="256px" height="256px" viewBox="0 0 256 256" version="1.1" xmlns="http://www.w3.org/2000/svg" xmlns:xlink="http://www.w3.org/1999/xlink">
    <!-- Generator: Sketch 63.1 (92452) - https://sketch.com -->
    <title>Teams/Defualt/UJazz/256</title>
    <desc>Created with Sketch.</desc>
    <defs>
        <polygon id="path-1" points="0 0.358936326 255.999911 0.358936326 255.999911 171.177454 0 171.177454"></polygon>
    </defs>
    <g id="Teams/Defualt/UJazz/256" stroke="none" stroke-width="1" fill="none" fill-rule="evenodd">
        <g id="Teams/Defualt/UJazz/base" transform="translate(0.000000, 40.000000)">
            <g id="Group-22" transform="translate(0.000000, 0.000000)">
                <g id="Group-3" transform="translate(0.000000, 0.088047)">
                    <mask id="mask-2" fill="white">
                        <use xlink:href="#path-1"></use>
                    </mask>
                    <g id="Clip-2"></g>
                    <path d="M92.7528,93.414218 L133.178133,0.358936326 L255.999911,0.358936326 L233.7408,51.6084827 L130.002578,51.6084827 C125.5008,61.9595788 103.197244,113.33829 100.6128,119.291958 L100.6128,121.688443 C100.6128,143.250992 82.4914667,171.177498 50.2972444,171.177498 C22.5670222,171.177498 -8.88888889e-05,148.477491 -8.88888889e-05,120.597913 C-8.88888889e-05,92.7000103 22.5670222,70.0187742 50.2972444,70.0187742 C67.8021333,70.0187742 84.2012444,79.5130892 92.7528,93.414218" id="Fill-1" fill="#FFFFFF" mask="url(#mask-2)"></path>
                </g>
                <path d="M3.01151111,122.936921 C3.59595556,135.476228 8.99773333,146.712262 17.3666222,154.894813 C26.2768444,146.984448 32.1061778,135.646512 32.7284,122.936921 L3.01151111,122.936921 Z" id="Fill-4" fill="#002B5C"></path>
                <path d="M36.8971556,122.936921 C36.2744889,136.718717 30.0624889,149.045281 20.5047111,157.692648 C28.1256,163.920736 37.7211556,167.835024 48.2344889,168.296711 L48.2344889,122.936921 L36.8971556,122.936921 Z" id="Fill-6" fill="#F9A01B"></path>
                <path d="M2.99284444,118.770426 L32.7408444,118.770426 C32.2061778,105.917815 26.3715111,94.4288132 17.3666222,86.4742014 C8.92217778,94.7197701 3.50217778,106.104635 2.99284444,118.770426" id="Fill-8" fill="#002B5C"></path>
                <path d="M20.5045778,83.6764109 C30.1508,92.3867958 36.3690222,104.843419 36.8970222,118.770471 L48.2348,118.770471 L48.2348,73.0531292 C37.7214667,73.5148167 28.1383556,77.4286573 20.5045778,83.6764109" id="Fill-10" fill="#F9A01B"></path>
                <path d="M97.6013333,122.936921 L67.8902222,122.936921 C68.5133333,135.646512 74.3355556,146.984448 83.2457778,154.894813 C91.6275556,146.712262 97.016,135.476228 97.6013333,122.936921" id="Fill-12" fill="#002B5C"></path>
                <path d="M63.7278667,122.936921 L52.3847556,122.936921 L52.3847556,168.296711 C62.8914222,167.835024 72.4807556,163.920736 80.1207556,157.692648 C70.5567556,149.045281 64.3438667,136.718717 63.7278667,122.936921" id="Fill-14" fill="#00471B"></path>
                <path d="M80.1206667,83.6764109 C72.4806667,77.4286573 62.8913333,73.5148167 52.3846667,73.0531292 L52.3846667,118.770471 L63.7153333,118.770471 C64.2433333,104.843419 70.4753333,92.3867958 80.1206667,83.6764109" id="Fill-16" fill="#00471B"></path>
                <path d="M135.134133,3.45353865 L93.0736889,100.322547 C90.6216889,95.1210762 87.2950222,90.4291157 83.2456889,86.4741567 C74.2541333,94.4287685 68.4128,105.91777 67.8843556,118.770381 L97.6199111,118.770381 L128.027911,48.6872925 L216.8768,48.6872925 L236.514133,3.45353865 L135.134133,3.45353865 Z" id="Fill-18" fill="#002B5C"></path>
                <polygon id="Fill-20" fill="#00471B" points="231.7856 48.687069 251.422933 3.45331518 243.0536 3.45331518 223.416267 48.687069"></polygon>
            </g>
        </g>
    </g>
</svg>