<?xml version="1.0" encoding="UTF-8"?>
<svg width="256px" height="256px" viewBox="0 0 256 256" version="1.1" xmlns="http://www.w3.org/2000/svg" xmlns:xlink="http://www.w3.org/1999/xlink">
    <!-- Generator: Sketch 63.1 (92452) - https://sketch.com -->
    <title>Teams/Defualt/SKings/256</title>
    <desc>Created with Sketch.</desc>
    <g id="Teams/Defualt/SKings/256" stroke="none" stroke-width="1" fill="none" fill-rule="evenodd">
        <g id="SKings" transform="translate(15.725714, 0.000000)" fill-rule="nonzero">
            <g id="g10" transform="translate(112.222219, 128.000003) scale(-1, 1) rotate(-180.000000) translate(-112.222219, -128.000003) translate(0.000000, 0.000006)">
                <g id="g12">
                    <path d="M224.395106,256 L192.28044,223.75955 L165.44044,250.564883 L138.478663,223.755994 L111.683997,250.564883 L84.899109,223.75955 L58.0968874,250.564883 L31.3166659,223.745772 L0,255.357327 C0,255.357327 0,123.676441 0,112.602219 C0,50.5155543 49.8079988,0 111.857331,0 C173.919996,0 224.395106,50.5155543 224.395106,112.602219 C224.395106,123.676441 224.395106,256 224.395106,256" id="path14" fill="#FFFFFF"></path>
                    <path d="M10.0163109,93.049331 C12.6692886,79.603998 17.9105773,66.9719983 25.6383549,55.4653319 C30.3051992,63.6488873 39.6413323,73.8151093 57.9773319,78.1351092 C56.5693319,82.8422202 55.3146653,87.8488867 54.2497764,93.049331 L10.0163109,93.049331" id="path16" fill="#63717A"></path>
                    <path d="M32.955377,45.7919989 C52.7711098,22.5683994 81.303998,9.18088866 111.384886,8.98404422 C108.548442,10.4329775 105.772886,12.0275997 103.102664,13.745333 C90.3515533,21.987155 72.8213315,38.027599 61.5022207,67.7644428 C43.6862656,63.8799984 36.1454658,53.7822209 32.955377,45.7919989" id="path18" fill="#63717A"></path>
                    <path d="M72.4782204,69.3239983 C80.5124424,49.1266654 92.6511088,33.6065769 108.582664,23.1888883 C119.116441,16.2906218 129.211552,13.1551997 135.867552,11.733333 C152.523552,15.6208441 168.080885,23.6480883 180.957773,34.9946213 C170.798662,36.1065769 160.380885,41.9538212 149.383996,48.1204432 C132.214663,57.7559986 110.834219,69.7488871 81.9675535,69.7488871 C78.8488869,69.7488871 75.6653314,69.5991094 72.4782204,69.3239983" id="path20" fill="#63717A"></path>
                    <path d="M115.883997,145.582663 C115.707553,145.582663 78.7626647,145.582663 78.7626647,145.582663 L78.7626647,101.387109 L94.1839976,101.387109 L94.1839976,136.838663 L105.768886,136.838663 L105.768886,101.387109 L120.465775,101.387109 L120.465775,139.392885 C120.465775,142.759996 118.407997,145.582663 115.883997,145.582663" id="path22" fill="#5B2B82"></path>
                    <path d="M126.963108,145.582663 L126.963108,107.669775 C126.963108,104.295553 129.003997,101.387109 131.520886,101.387109 C131.530663,101.387109 155.829329,101.387109 155.829329,101.387109 L168.604885,101.387109 L168.604885,128.219997 L153.799107,128.236886 L153.799107,110.142219 L142.217774,110.142219 L142.217774,137.05333 L168.604885,137.05333 L168.604885,145.582663 L126.963108,145.582663" id="path24" fill="#5B2B82"></path>
                    <polyline id="path26" fill="#5B2B82" points="37.7213324 145.582663 29.3338659 127.735108 24.4904438 127.735108 24.4904438 145.582663 9.14079977 145.582663 9.14079977 101.387109 24.4904438 101.387109 24.4904438 119.171108 29.3338659 119.171108 37.7213324 101.387109 53.0577765 101.387109 42.2416878 123.45333 53.0577765 145.582663 37.7213324 145.582663"></polyline>
                    <polyline id="path28" fill="#5B2B82" points="57.1422208 101.387109 73.0328871 101.387109 73.0328871 145.582663 57.1422208 145.582663 57.1422208 101.387109"></polyline>
                    <path d="M215.296439,133.630663 L215.296439,145.582663 L174.55244,145.582663 L174.55244,125.392886 C174.55244,122.025775 176.596884,119.290664 179.107107,119.290664 L199.868439,119.290664 L199.868439,109.658219 L174.55244,109.658219 L174.55244,101.387109 L215.316884,101.387109 L215.316884,121.675553 C215.316884,124.814664 213.583106,127.763552 211.249328,127.763552 L189.844884,127.763552 L189.844884,137.018663 L200.551995,137.018663 L200.551995,133.630663 L215.296439,133.630663" id="path30" fill="#5B2B82"></path>
                    <polyline id="path32" fill="#5B2B82" points="171.950662 190.406217 158.94044 190.406217 185.772884 217.251995 165.44044 237.550661 138.478663 210.745328 111.683997 237.550661 64.5755539 190.406217 51.5657765 190.406217 78.3542203 217.292883 58.0968874 237.550661 31.3166659 210.745328 9.14199977 232.758661 9.14199977 188.773329 9.14199977 153.692885 215.292439 153.692885 215.292439 187.715551 215.292439 233.778661 171.950662 190.406217"></polyline>
                    <path d="M54.1764431,162.187996 C54.1764431,161.041329 55.1115542,160.105774 56.2511097,160.105774 L67.8359983,160.105774 L67.8359983,163.218218 L58.3937763,163.218218 L58.3937763,173.313329 L67.8359983,173.313329 L67.8359983,176.418662 L54.1764431,176.418662 L54.1764431,162.187996" id="path34" fill="#FFFFFF"></path>
                    <path d="M44.73111,167.475996 L39.5032879,167.475996 L39.5032879,173.309329 L44.73111,173.309329 L44.73111,167.475996 Z M35.2892436,176.418662 L35.2892436,160.105774 L39.5032879,160.105774 L39.5032879,164.374218 L44.73111,164.374218 L44.73111,160.105774 L48.9484432,160.105774 L48.9484432,174.339996 C48.9484432,175.560884 47.9675544,176.418662 46.6324433,176.418662 L35.2892436,176.418662" id="path36" fill="#FFFFFF"></path>
                    <path d="M203.400439,163.241329 L198.192884,163.241329 L198.192884,173.315996 L203.400439,173.315996 L203.400439,163.241329 Z M205.567106,176.418662 L196.009328,176.418662 C194.873328,176.418662 193.940884,175.492885 193.940884,174.353329 L193.940884,162.187107 C193.940884,161.047552 194.873328,160.105774 196.009328,160.105774 L205.567106,160.105774 C206.706217,160.105774 207.634661,161.054663 207.634661,162.194218 L207.634661,174.353329 C207.634661,175.492885 206.706217,176.418662 205.567106,176.418662" id="path38" fill="#FFFFFF"></path>
                    <path d="M16.3873329,168.786218 C16.3873329,167.643107 17.3227551,166.711107 18.465644,166.711107 L25.8289771,166.711107 L25.8289771,163.218218 L16.3873329,163.218218 L16.3873329,160.105774 L30.0467104,160.105774 L30.0467104,167.745329 C30.0467104,168.806218 29.254177,169.694218 28.193066,169.806218 L28.0772437,169.81644 L20.5979106,169.81644 L20.5979106,173.313329 L30.0467104,173.313329 L30.0467104,176.418662 L16.3873329,176.418662 L16.3873329,168.786218" id="path40" fill="#FFFFFF"></path>
                    <path d="M101.052886,167.475996 L95.8248865,167.475996 L95.8248865,173.309329 L101.052886,173.309329 L101.052886,167.475996 Z M103.185331,176.418662 L91.6071088,176.418662 L91.6071088,160.105774 L95.8248865,160.105774 L95.8248865,164.374218 L101.052886,164.374218 L101.052886,160.105774 L105.273331,160.105774 L105.273331,174.339996 C105.273331,175.482662 104.335109,176.418662 103.185331,176.418662" id="path42" fill="#FFFFFF"></path>
                    <polyline id="path44" fill="#FFFFFF" points="175.566218 173.316885 180.296884 173.316885 180.296884 160.105774 184.50444 160.105774 184.50444 173.316885 189.22844 173.316885 189.22844 176.418662 175.566218 176.418662 175.566218 173.316885"></polyline>
                    <path d="M131.84133,176.418662 L110.868442,176.418662 L110.868442,160.105774 L115.086219,160.105774 L115.086219,173.311996 L120.255997,173.311996 L120.255997,160.105774 L124.531552,160.105774 L124.531552,173.311996 L129.697775,173.311996 L129.697775,160.105774 L133.915997,160.105774 L133.915997,174.342662 C133.915997,175.481773 132.980441,176.418662 131.84133,176.418662" id="path46" fill="#FFFFFF"></path>
                    <path d="M169.215107,176.418662 L157.637329,176.418662 L157.637329,160.105774 L161.851107,160.105774 L161.851107,173.311996 L167.078662,173.311996 L167.078662,160.105774 L171.29644,160.105774 L171.29644,174.342662 C171.29644,175.481773 170.361329,176.418662 169.215107,176.418662" id="path48" fill="#FFFFFF"></path>
                    <path d="M139.658219,162.187996 C139.658219,161.041329 140.586663,160.105774 141.732885,160.105774 L153.307552,160.105774 L153.307552,163.218218 L143.875552,163.218218 L143.875552,166.714662 L153.307552,166.714662 L153.307552,169.813329 L143.875552,169.813329 L143.875552,173.313329 L153.307552,173.313329 L153.307552,176.418662 L139.658219,176.418662 L139.658219,162.187996" id="path50" fill="#FFFFFF"></path>
                    <path d="M82.1315535,169.142662 L76.9035536,169.142662 L76.9035536,173.312885 L82.1315535,173.312885 L82.1315535,169.142662 Z M84.0942201,166.040885 L86.3488867,166.040885 L86.3488867,174.343107 C86.3488867,175.560884 85.3479979,176.418662 84.0328868,176.418662 L72.6893315,176.418662 L72.6893315,160.105774 L76.9035536,160.105774 L76.9035536,166.040885 L79.9613313,166.040885 L82.4853313,160.105774 L86.5937756,160.105774 L84.0942201,166.040885" id="path52" fill="#FFFFFF"></path>
                    <path d="M79.7164425,80.5342202 C101.680442,80.9808869 123.400886,75.4813314 151.116441,59.688443 C171.601329,48.0155544 180.603551,44.4746656 186.745773,45.9862211 C192.404884,47.3786655 197.655551,50.7213321 206.918217,70.2995538 C210.453773,77.7719981 212.993772,86.6284423 214.227995,93.0439977 L65.2231095,93.045331 C66.2595539,88.5311089 67.278665,84.0417757 68.6413316,79.911998 C72.2479982,80.3168869 75.976887,80.5342202 79.7164425,80.5342202" id="path54" fill="#63717A"></path>
                </g>
            </g>
        </g>
    </g>
</svg>