<?xml version="1.0" encoding="UTF-8"?>
<svg width="256px" height="256px" viewBox="0 0 256 256" version="1.1" xmlns="http://www.w3.org/2000/svg" xmlns:xlink="http://www.w3.org/1999/xlink">
    <!-- Generator: Sketch 63.1 (92452) - https://sketch.com -->
    <title>Teams/Defualt/NYKnicks/256</title>
    <desc>Created with Sketch.</desc>
    <g id="Teams/Defualt/NYKnicks/256" stroke="none" stroke-width="1" fill="none" fill-rule="evenodd">
        <g id="NYKnicks" transform="translate(-10.240000, 16.091429)" fill-rule="nonzero">
            <g id="g10" transform="translate(137.874286, 111.908571) scale(-1, 1) rotate(-180.000000) translate(-137.874286, -111.908571) translate(0.000000, -0.000000)">
                <g id="g12">
                    <path d="M137.415183,0 L119.140617,23.7620478 C95.8901295,31.4398385 79.705699,52.4786499 78.2087098,76.9499632 L66.8709435,91.686429 C56.0899403,87.0337163 45.2948146,79.6654834 45.2948146,79.6654834 L11.2957817,113.831865 L25.6255158,145.281768 L0,178.598412 L40.7698571,178.598412 L48.6614844,195.807889 L68.848099,203.963077 L71.0880775,210.059817 L87.4482019,202.578957 L91.3388419,216.189148 L94.0091987,217.078186 C106.952626,221.394454 121.863634,223.718414 137.127467,223.805161 C137.56742,223.832 142.416477,223.746212 142.535203,223.746212 C143.103455,223.746212 145.484659,223.617289 145.484659,223.617289 C158.398405,222.994723 170.531821,220.84234 181.549796,217.21909 L184.257493,216.326697 L187.835523,203.345303 L193.726776,207.802475 L226.794583,196.030269 L234.775015,178.593619 L275.748571,178.593619 L249.84927,145.139426 L263.963192,114.142429 L229.43095,78.546877 C229.43095,78.546877 216.769016,87.790477 208.089159,91.2354398 L197.681087,77.8030564 C196.493357,52.7398498 179.46349,30.7673806 155.528897,23.3915274 L137.415183,0 L137.415183,0" id="path14" fill="#FFFFFF"></path>
                    <polygon id="path16" fill="#BEBFBF" points="137.446301 16.4667113 255.245995 168.524723 20.4275595 168.529037"></polygon>
                    <path d="M255.245995,168.524723 L137.446301,16.4667113 L20.4275595,168.529037 L255.245995,168.524723 Z M10.7469176,173.299649 L137.433854,8.673753 L264.964217,173.294377 L10.7469176,173.299649" id="path18" fill="#3067BA"></path>
                    <path d="M238.2415,157.947326 L238.197935,158.047014 L238.104583,158.105005 L230.568891,163.1742 L233.376165,168.546769 L233.459943,168.70972 L233.385261,168.879859 L223.011178,191.641152 L222.94272,191.784932 L222.793356,191.83813 L194.830249,201.808297 L194.637799,201.876353 L194.473116,201.751265 L187.055192,196.085384 L186.974287,196.024997 L186.936946,195.930581 L185.665917,192.813916 C185.665917,192.813916 174.072988,195.728331 157.04312,197.434038 C155.311553,197.607532 150.676488,197.989507 143.277713,198.572294 L142.559618,198.62741 L141.816629,198.682526 L141.642371,198.695945 L141.521252,198.574212 L135.99144,193.062655 L136.001015,198.719908 C136.001015,198.719908 120.323081,197.836142 110.056712,196.438124 C99.7917803,195.039626 89.69584,192.494725 89.69584,192.494725 L87.8398032,196.475986 L87.7809194,196.601553 L87.6545346,196.660503 L74.4612102,202.706921 L74.0863644,202.875143 L73.9465752,202.49221 L72.4122451,198.30774 L72.0642083,199.145496 L71.9196317,199.490089 L71.5730311,199.35206 L52.6885625,191.771033 L52.5492521,191.712083 L52.485581,191.573576 L17.6516905,114.957661 L46.2505515,86.2807897 L47.5857778,87.0399467 C48.444141,87.5350284 49.6658603,88.2539271 51.0441244,89.0662827 C54.5029498,91.1074759 59.2423784,93.8996786 61.5072508,94.9933632 L61.9668317,95.2143048 C64.897139,96.6353279 66.3673194,97.349434 80.2701219,103.304791 L81.4310425,103.740444 C81.4482768,103.741882 82.9945752,104.347194 85.8564241,105.29662 C93.4916914,107.83625 113.320695,113.746556 132.546977,113.746556 L132.762884,113.746556 C133.529331,113.746556 134.293863,113.73074 135.063661,113.713007 C148.114803,113.351162 163.375763,110.574775 173.877187,108.309285 C183.980309,106.127667 191.584937,104.031358 193.745446,103.422691 L195.197435,102.975056 C204.76007,99.2775205 216.451618,93.1692775 227.280015,86.2266326 L228.653971,85.3404701 L257.605656,115.188667 L238.2415,157.947326" id="path20" fill="#3067BA"></path>
                    <path d="M235.129275,155.291714 L207.305957,173.884832 L202.468389,187.486397 L211.083138,184.419575 L214.568293,175.917399 L227.665393,171.715196 L220.020551,188.622257 L195.302756,197.410554 L190.763915,193.895139 L198.983712,167.160253 L225.439298,148.441568 L232.222904,131.520129 L221.220728,136.489637 L217.443547,147.021024 L203.945271,151.002285 L211.160692,127.201465 C213.386787,126.382879 215.597084,125.536495 217.78536,124.648416 C223.791509,122.214704 229.676538,119.518834 235.42513,116.571828 C239.41008,114.532073 243.327529,112.365791 247.178913,110.087841 L252.929898,115.998147 L235.129275,155.291714" id="path22" fill="#F4731A"></path>
                    <path d="M47.4850051,142.686544 L56.7534603,150.976405 L58.9671086,148.394121 L49.811873,122.038813 C54.8169968,124.24775 59.9121219,126.267855 65.0867162,128.101047 L71.7209587,149.832877 L65.9958248,159.298856 L77.8544495,170.580774 L84.7855048,193.696244 L76.267459,197.527016 L68.6163937,175.738633 L56.3527632,165.166028 L67.533506,193.412998 L55.5149854,188.615547 L22.4002629,115.882164 L27.5808413,110.678296 C30.6540495,112.472188 33.7704871,114.193711 36.9259891,115.839989 L47.4850051,142.686544" id="path24" fill="#F4731A"></path>
                    <path d="M131.404726,194.551733 L121.246551,194.017831 L116.476005,139.458688 C120.791279,139.869899 125.140063,140.147393 129.519008,140.295966 L131.404726,194.551733" id="path26" fill="#F4731A"></path>
                    <path d="M161.538396,150.782781 L149.743921,151.487782 L147.850543,184.900757 L157.842121,184.413823 L156.673062,193.619082 L143.243244,194.578572 L137.227043,188.571454 L137.211723,146.785225 L143.520429,140.31945 C150.033074,140.120075 156.47774,139.632662 162.8415,138.860565 L161.538396,150.782781" id="path28" fill="#F4731A"></path>
                    <path d="M94.7177194,173.017361 L98.9736305,152.276653 L96.2223683,136.558172 C100.341363,137.351357 104.49674,138.03479 108.690417,138.584987 L108.71531,138.590259 L115.281095,193.301808 L105.850589,191.925357 L102.754163,174.012796 L99.2489003,190.872889 L88.162946,188.091709 L72.7358667,130.654575 C77.1827911,132.043967 81.6847695,133.291496 86.2370146,134.395245 L94.7177194,173.017361" id="path30" fill="#F4731A"></path>
                    <path d="M176.675365,153.801677 L179.995359,158.288084 L184.841544,154.291007 L189.30283,133.950486 C193.984811,132.77293 198.610302,131.443447 203.177388,129.962036 L194.855143,159.800647 L186.274862,166.826205 L191.16174,173.351409 L187.098757,188.493813 L176.740472,190.801958 L180.815902,175.551719 L174.365492,166.919662 L169.599733,192.00156 L160.005981,193.218416 C160.005981,193.218416 164.818177,156.433326 167.087836,138.309888 C171.433749,137.695949 175.736575,136.943981 180.001582,136.070279 L176.675365,153.801677" id="path32" fill="#F4731A"></path>
                    <path d="M117.963898,129.09792 C117.963898,129.09792 121.960338,131.442009 129.954174,132.328651 L129.697575,138.631476 C125.314321,138.4853 120.958834,138.207805 116.637816,137.798991 C117.014098,135.33844 117.576606,131.660554 117.963898,129.09792" id="path34" fill="#BEBFBF"></path>
                    <path d="M143.371065,132.710146 C146.61925,132.328651 150.095309,131.264201 153.151044,130.401523 C155.914753,129.734385 158.889582,128.550598 161.327276,127.46602 L162.666763,137.169236 C156.241247,137.960983 150.16664,138.442645 143.588409,138.647291 C143.495057,136.760422 143.495057,134.105768 143.371065,132.710146" id="path36" fill="#BEBFBF"></path>
                    <path d="M101.305525,117.329068 C105.025258,120.099224 107.263322,122.948939 111.180292,125.337121 C110.437303,128.863559 109.445853,133.42569 108.725843,136.909473 C104.464187,136.344419 100.242265,135.643253 96.0576851,134.82946 C97.6619098,129.607859 99.7027365,122.602909 101.305525,117.329068" id="path38" fill="#BEBFBF"></path>
                    <path d="M164.569716,125.509177 C168.197533,123.406638 171.026828,121.025645 174.268789,117.870638 L174.912681,117.380829 L180.023604,134.32 C175.618329,135.232522 171.340396,136.02379 166.84512,136.659297 L164.569716,125.509177" id="path40" fill="#BEBFBF"></path>
                    <path d="M180.701007,110.794278 L192.890913,107.921559 L203.143398,128.221822 C198.417853,129.766016 193.857469,131.037029 189.007454,132.254844 L180.701007,110.794278" id="path42" fill="#BEBFBF"></path>
                    <path d="M82.6498895,107.921559 C85.8315302,109.09624 90.2707949,110.70178 94.4209067,111.810322 L86.5074971,132.756156 C81.7249829,131.59825 77.5557219,130.378039 72.8928902,128.902379 C75.8428254,121.886407 79.1446273,114.653806 82.6498895,107.921559" id="path44" fill="#BEBFBF"></path>
                    <path d="M64.265694,100.382228 C64.9684698,100.986103 71.8885143,103.976722 76.6245917,105.982929 C73.0264559,112.504778 68.699214,119.69712 65.0900673,126.333514 C59.9293562,124.489779 55.230141,122.579425 50.239379,120.357549 L64.265694,100.382228" id="path46" fill="#BEBFBF"></path>
                    <path d="M47.0062749,91.2167485 C49.208673,92.5423977 51.5420038,93.8963237 54.1113486,95.3868405 L37.9376895,114.486063 C34.8633323,112.888191 31.828997,111.216032 28.8352579,109.476297 L47.0062749,91.2167485" id="path48" fill="#BEBFBF"></path>
                    <path d="M199.344196,105.408768 C209.049971,101.638384 222.622928,94.0209328 228.025877,90.3904942 C230.516231,92.7743624 244.023603,106.971175 245.876288,108.91939 C234.647672,115.515526 222.849846,121.123895 210.579035,125.63762 L199.344196,105.408768" id="path50" fill="#BEBFBF"></path>
                    <polyline id="path52" fill="#BEBFBF" points="141.502582 133.02742 136.867995 133.189412 136.789004 144.465579 141.607902 139.456771 141.502582 133.02742"></polyline>
                    <path d="M137.925031,135.25984 C107.796627,135.257444 83.3756444,110.807219 83.3742083,80.6427064 C83.3756444,50.4863419 107.796627,26.0370748 137.925031,26.0370748 C168.051041,26.0370748 192.476811,50.4863419 192.476811,80.6427064 C192.476811,110.807219 168.051041,135.257444 137.925031,135.25984" id="path54" fill="#3067BA"></path>
                    <path d="M141.278536,131.171703 C137.092041,129.709942 133.060175,127.581043 129.068044,125.725326 C126.341676,127.358664 124.782931,127.770833 122.940777,128.96037 C128.675007,131.050449 134.850626,131.365326 141.278536,131.171703" id="path56" fill="#F4731A"></path>
                    <path d="M180.359194,107.985301 C167.504331,120.951359 148.223953,120.014874 131.867658,124.600968 C131.867658,124.600968 141.493486,129.18898 146.461269,130.459993 C159.828851,128.178688 172.76414,120.170156 180.359194,107.985301" id="path58" fill="#F4731A"></path>
                    <path d="M108.104451,106.037565 C95.7560851,87.071099 94.0853168,63.7078483 103.918434,43.2322222 C91.2129359,53.9145303 83.6384673,74.6063533 89.3430159,94.6995733 C94.013986,101.231967 100.020135,107.008558 108.104451,106.037565" id="path60" fill="#F4731A"></path>
                    <path d="M121.322669,92.5328124 C127.978455,72.7237971 129.45055,50.794989 146.681963,30.8456447 C133.247837,28.1190535 119.939618,32.1491998 109.32617,38.8779962 C96.1792825,58.0807882 97.4177575,86.730341 110.563209,105.349339 C116.965746,103.503687 120.453774,95.1194101 121.322669,92.5328124" id="path62" fill="#F4731A"></path>
                    <path d="M112.086528,107.44421 C114.08379,110.263731 116.339567,112.932283 118.873007,115.411525 C146.818401,107.515621 173.466916,78.5061394 178.027299,49.9984492 C176.696908,47.8445807 173.504257,44.8444724 171.362418,42.7001412 C164.414128,36.4506107 156.76019,33.2121635 149.417427,31.4585778 C136.367722,45.009244 132.071597,62.6055369 127.462862,79.9487295 C123.924568,93.2584209 121.469161,103.301436 112.095624,107.3728 L112.086528,107.44421" id="path64" fill="#F4731A"></path>
                    <path d="M177.381013,107.56834 C163.886089,119.489598 145.08109,117.965054 129.305973,123.520224 C126.256462,121.64917 123.278282,119.440234 120.733831,117.155574 C148.677789,108.382613 174.035647,81.0275569 180.075785,52.7556656 C184.459517,59.0920391 187.10498,66.4521245 188.171591,74.2550515 C188.855218,86.245324 188.736971,97.1534143 177.381013,107.56834" id="path66" fill="#F4731A"></path>
                    <path d="M116.567921,116.289061 C113.870756,113.692399 111.85195,111.138391 109.747453,108.159754 L109.686654,108.178445 C102.286443,109.837185 96.4526375,106.005933 91.7649117,101.231967 C94.0029752,106.885386 98.6878286,113.594149 103.654175,117.977994 C108.231793,117.781495 111.559446,117.851468 116.567921,116.289061" id="path68" fill="#F4731A"></path>
                    <path d="M118.549864,118.023524 C121.192455,120.377199 123.753661,122.43948 126.93578,124.347437 L119.768232,127.904548 C114.997686,125.954894 109.890593,123.411431 106.386767,120.195557 C111.803599,119.565322 114.125919,119.230795 118.549864,118.023524" id="path70" fill="#F4731A"></path>
                    <path d="M130.198326,202.207047 L127.990902,200.007696 L124.209412,199.781961 L122.802424,201.006486 L121.02442,199.496319 L116.906862,199.11051 L115.097741,200.834908 L117.472721,216.971789 L120.590691,217.399773 L118.908912,203.149283 L121.140752,203.398501 L122.880457,217.675831 L125.956298,217.974892 L124.674259,203.800126 L126.863971,204.001418 L127.983242,218.112442 C129.294963,218.252387 129.971408,218.239926 131.118446,218.305107 L130.198326,202.207047" id="path72" fill="#3067BA"></path>
                    <path d="M140.305756,218.522214 L140.333523,208.36705 L142.323125,208.380949 L142.202006,218.477642 C142.202006,218.477642 144.287834,218.411504 145.229975,218.332425 L145.630672,206.942672 L143.712879,205.027526 L143.084785,204.996374 L143.175265,200.123678 L139.792557,200.223845 L139.755217,205.099416 L139.077335,205.153573 L137.02837,207.247485 L137.157148,218.572071 C138.252961,218.573016 140.305756,218.522214 140.305756,218.522214" id="path74" fill="#3067BA"></path>
                    <path d="M115.206413,216.641096 L114.677895,213.305405 L110.90981,212.594175 L110.225704,208.697264 C111.606362,208.946003 112.453236,209.080677 114.094801,209.298743 C113.865011,207.846568 113.797989,207.34861 113.54474,205.975993 L109.761336,205.43634 L109.049464,201.70238 L112.929093,202.265517 C112.929093,202.265517 112.543716,199.752726 112.347915,198.629806 C109.632079,198.29432 106.902838,197.904677 104.299025,197.450812 C104.299025,197.450812 107.21497,210.986238 107.939768,215.161123 L115.206413,216.641096" id="path76" fill="#3067BA"></path>
                    <path d="M101.002489,196.85173 L97.0730717,196.079154 L98.8745333,203.457451 L97.6556863,206.105395 L94.5673981,195.483905 L90.7294184,194.607328 C92.3255048,200.356122 93.960847,206.106833 95.5588483,211.858502 C96.8787073,212.300864 97.8610616,212.601364 99.0267695,212.950749 C99.4557117,211.980715 100.487854,210.025789 100.487854,210.025789 L101.42042,213.628431 C101.42042,213.628431 103.854763,214.272564 105.077919,214.549579 L101.002489,196.85173" id="path78" fill="#3067BA"></path>
                    <path d="M151.077663,214.613322 L152.063369,203.594521 L154.012279,203.440677 L152.976786,214.402445 L151.077663,214.613322 Z M156.253694,215.395484 C156.645295,210.772006 157.406955,206.345507 157.873238,202.033552 L156.154118,199.407655 L150.601806,199.778127 L148.599756,201.96358 C148.242623,206.677159 147.999907,211.434352 147.707882,216.172853 C148.217251,216.844304 148.997581,217.371017 149.613228,218.030487 L154.239197,217.579498 L156.253694,215.395484" id="path80" fill="#3067BA"></path>
                    <path d="M174.203681,213.742975 C174.89401,211.094073 176.246423,205.640986 176.246423,205.640986 L177.564367,205.371639 L178.201557,206.251092 L176.559991,213.033662 C176.559991,213.033662 178.18911,212.576442 179.936475,212.04877 L181.68001,205.480432 L180.859467,204.297125 L182.386137,202.618257 L184.689308,194.617872 L180.893457,195.469528 L179.401733,201.081251 L177.038721,201.611319 L178.331771,196.025476 L174.480387,196.785112 C173.13707,202.799898 170.706557,214.645912 170.706557,214.645912 C170.706557,214.645912 172.661691,214.239974 174.203681,213.742975" id="path82" fill="#3067BA"></path>
                    <path d="M162.853468,212.866877 L163.513158,208.274552 L165.598507,208.037315 L164.718601,212.527557 L162.853468,212.866877 Z M168.19466,213.097883 L169.462817,206.503185 L168.729402,205.487142 L170.022452,203.940072 L171.141723,197.390904 L167.442097,198.0336 L166.431976,203.490041 L164.208753,203.737822 L164.995785,198.415575 L161.305255,198.878066 L158.849369,216.985208 L165.90633,215.736721 L168.19466,213.097883" id="path84" fill="#3067BA"></path>
                </g>
            </g>
        </g>
    </g>
</svg>