<?xml version="1.0" encoding="UTF-8"?>
<svg width="256px" height="256px" viewBox="0 0 256 256" version="1.1" xmlns="http://www.w3.org/2000/svg" xmlns:xlink="http://www.w3.org/1999/xlink">
    <!-- Generator: Sketch 63.1 (92452) - https://sketch.com -->
    <title>Teams/Defualt/LALakers/256</title>
    <desc>Created with Sketch.</desc>
    <defs>
        <path d="M76.0857778,0.0225264634 C118.086711,0.0225264634 152.133422,34.5665404 152.133422,77.1812341 C152.133422,119.792898 118.086711,154.339013 76.0857778,154.339013 C34.0892444,154.339013 0.0410666667,119.792898 0.0410666667,77.1812341 C0.0410666667,34.5665404 34.0892444,0.0225264634 76.0857778,0.0225264634 Z" id="path-1"></path>
        <path d="M76.0857778,0.0225264634 C118.086711,0.0225264634 152.133422,34.5665404 152.133422,77.1812341 C152.133422,119.792898 118.086711,154.339013 76.0857778,154.339013 C34.0892444,154.339013 0.0410666667,119.792898 0.0410666667,77.1812341 C0.0410666667,34.5665404 34.0892444,0.0225264634 76.0857778,0.0225264634 Z" id="path-3"></path>
    </defs>
    <g id="Teams/Defualt/LALakers/256" stroke="none" stroke-width="1" fill="none" fill-rule="evenodd">
        <g id="LALakers" transform="translate(-14.262857, 40.960000)">
            <g id="g10" transform="translate(140.800000, 87.222857) scale(-1, 1) rotate(-180.000000) translate(-140.800000, -87.222857) ">
                <g id="g12">
                    <path d="M61.2680444,135.024403 C61.2680444,135.024403 85.2412,174.199927 134.330533,174.199927 C183.419867,174.199927 206.252444,136.164897 206.252444,136.164897 L272.848889,136.164897 L270.184444,119.810001 C270.184444,119.810001 268.280222,113.345248 265.236889,112.583941 L269.802133,112.583941 C269.802133,112.583941 271.325511,106.878052 262.193067,87.1002076 L281.599967,87.1002076 C281.599967,87.1002076 282.362178,52.4886143 240.502533,36.1342064 C240.502533,36.1342064 218.812489,29.2882627 207.774356,41.0777145 C207.774356,41.0777145 185.704444,0 134.330533,0 C82.9580889,0 59.7456444,42.2193811 59.7456444,42.2193811 L0,42.2193811 L9.51421778,59.3345091 L3.04447733,59.3345091 L10.65548,73.406952 L23.5944133,73.406952 L25.8767422,78.7326771 L19.7879733,78.7326771 L34.6299556,106.117722 L43.0013956,106.117722 L46.4261111,114.485742 L39.19608,114.485742 L50.2318667,135.024403 L61.2680444,135.024403" id="path14" fill="#FFFFFF" fill-rule="nonzero"></path>
                    <path d="M135.045778,9.16015912 C177.046711,9.16015912 211.093422,43.7041731 211.093422,86.3188667 C211.093422,128.930531 177.046711,163.476646 135.045778,163.476646 C93.0492444,163.476646 59.0010667,128.930531 59.0010667,86.3188667 C59.0010667,43.7041731 93.0492444,9.16015912 135.045778,9.16015912" id="path16" fill="#FDB927" fill-rule="nonzero"></path>
                    <path d="M143.437067,86.7024519 L140.118978,86.7303045 C139.886756,86.7303045 139.697067,86.5411995 139.697067,86.3086052 C139.697067,86.0769882 139.886756,85.8873946 140.118978,85.8873946 L143.485467,85.921111 C144.620178,85.921111 145.667867,85.7759839 145.379911,85.2721925 L136.660578,68.6309509 C135.578667,66.6451039 133.282356,67.1523158 132.920578,68.7369865 L128.601733,91.0362307 L143.783689,102.811072 C145.293867,104.10842 148.1964,106.218872 149.684089,106.192973 L152.991422,106.208852 C155.007111,106.226201 155.722356,105.281165 155.250089,104.066397 L154.664889,102.938608 C154.286489,102.307281 153.091156,102.232518 152.080133,102.232518 L150.170044,102.223234 C149.936844,102.223234 149.747644,102.03364 149.747644,101.800557 C149.747644,101.566497 149.936844,101.378369 150.170044,101.378369 L152.054711,101.377392 C152.867244,101.377392 153.8944,101.359801 153.515511,100.747042 L146.470622,87.3235177 C146.145511,86.8001806 144.682756,86.7024519 143.437067,86.7024519 L143.437067,86.7024519 Z M169.710933,78.4204339 C162.604444,69.8090703 158.580889,66.8625502 151.363422,66.8625502 C148.909689,66.8625502 147.627822,67.4108082 148.313733,68.6001663 L156.875644,85.8013933 L160.139956,85.8013933 C163.785111,85.8013933 163.279111,82.734667 162.291067,78.579243 C162.110178,78.0002005 162.554578,77.9640409 162.987733,78.4707642 L171.1248,92.7616307 C171.521289,93.6626893 170.498044,93.8434873 169.991067,93.1574319 C165.914711,87.625988 161.627644,88.0369371 159.818267,88.0369371 L158.345244,88.0369371 L167.481111,105.473202 L171.1688,105.473202 C175.810311,105.183925 177.9712,101.245458 176.630178,91.7506274 L178.558844,91.7506274 L185.279111,104.991399 C185.8208,106.109904 184.6724,107.131169 183.406667,107.131169 L137.800667,107.115044 C135.166533,107.115044 135.047244,105.092548 137.573822,105.092548 C139.627156,105.092548 139.520578,102.148472 137.677956,100.728474 L118.319422,85.3665006 L122.226133,67.2270782 C122.516044,65.856922 123.392622,65.2021397 124.908178,65.2021397 L162.620089,65.2021397 C164.1728,65.2021397 164.815689,65.8373762 165.318267,66.4862947 L172.151956,78.2757954 C173.091111,79.968945 170.903333,79.863398 169.710933,78.4204339" id="path18" fill="#552583" fill-rule="nonzero"></path>
                    <path d="M86.2791111,83.3699035 L74.2764,83.3699035 L89.4554222,103.373501 L86.2791111,83.3699035 Z M83.4978222,70.9422344 C83.1365333,68.887 81.0704889,67.5251507 78.4730222,66.8430045 L75.7914667,66.172097 L77.9919556,70.1349954 C78.5693333,71.218318 77.3016444,71.8564863 75.9161333,70.2439629 C66.5896,59.3926577 63.6191111,54.1954459 49.2394222,54.156843 L45.3748044,54.1480474 C44.2090978,54.1480474 42.9227333,54.6078609 43.71488,55.7273431 L48.8060222,65.1967647 L68.1276444,65.1943214 C70.7617778,65.1943214 70.0861333,67.1767479 68.5363556,67.2329419 C67.5136,67.2661697 66.3955111,67.8510759 65.604,69.1015145 C65.384,69.4499173 64.9044,70.8225168 65.6597333,71.8838504 L73.0551556,81.7099817 L85.3565778,81.7099817 L83.4978222,70.9422344 Z M112.1296,67.2329419 C111.1088,67.2661697 110.450267,67.9654185 110.222933,68.6397465 C109.899289,69.6141015 109.926178,71.3351038 110.322178,72.0925011 L127.915822,103.28017 C128.201822,103.855303 128.914622,105.062252 129.789244,105.058832 C131.339511,105.057366 132.014178,107.097941 129.381511,107.097941 L115.292711,107.097941 C112.659067,107.097941 112.630222,105.094992 115.155333,105.094992 C116.1864,105.094992 116.5912,104.08692 116.303244,103.473673 L112.407778,96.4196157 C111.921333,95.6446271 110.842356,95.5859899 109.7052,95.5859899 L106.349956,95.5957628 C106.116267,95.5957628 105.928533,95.4061691 105.928533,95.1716203 C105.928533,94.9395146 106.116267,94.7504096 106.349956,94.7504096 L109.677333,94.7489437 C110.579822,94.7489437 111.298,94.475792 110.774889,93.430095 L97.7895111,69.7836608 C96.8518222,68.4858238 94.9906222,68.1965468 95.0981778,70.6866739 L99.7167111,105.317324 C99.8961333,106.400647 99.6111111,107.131169 98.4568444,107.131169 L91.4916444,107.123839 C90.6610222,107.123839 90.1476889,106.719242 89.7487556,106.178803 L87.2554222,103.050507 C86.9308,102.727025 86.2297333,102.728003 85.4538667,102.728003 L79.6087111,102.73631 C79.3764889,102.73631 79.1872889,102.547205 79.1872889,102.315099 C79.1872889,102.081039 79.3764889,101.892422 79.6087111,101.892422 L84.3812444,101.892422 C85.2284889,101.892422 86.2199556,101.693056 85.8596444,101.295789 L79.1623556,92.8745074 C78.9614222,92.6404472 78.3092444,92.5730144 77.9108,92.5730144 L76.0188,92.5837645 C75.7860889,92.5837645 75.5954222,92.3946595 75.5954222,92.1615766 C75.5954222,91.9275164 75.7860889,91.7384113 76.0188,91.7384113 L77.5969333,91.7369454 C78.0833778,91.7369454 78.0887556,91.4945782 77.8892889,91.2785978 L71.5968,83.3699035 C71.2716889,83.063524 70.6400444,82.9995117 70.0250222,82.9995117 L64.4697778,83.0053755 C64.2360889,83.0053755 64.0488444,82.818225 64.0488444,82.5846534 C64.0488444,82.3535251 64.2360889,82.1639314 64.4697778,82.1639314 L69.2413333,82.1605109 C69.9634222,82.1605109 70.5246667,82.0300431 70.1448,81.5428656 L61.1917778,70.3211686 C59.5114667,68.1794443 51.4076444,67.0931899 49.8285333,67.0931899 L80.1005333,123.707421 C80.3904444,124.357317 81.5129333,125.348774 82.6799111,125.348774 L89.1053778,125.348774 C92.1369778,125.348774 92.048,127.367849 89.4138667,127.367849 L57.1012444,127.367849 C54.4680889,127.367849 54.3610222,125.348774 57.3926222,125.348774 L63.3746667,125.348774 C65.0706222,125.348774 65.6206222,124.323112 65.1820889,123.487531 L64.3270222,121.927781 C64.0380889,121.421547 63.6381778,121.218271 61.9969778,121.218271 L51.4242667,121.227067 C51.1910667,121.227067 51.0028444,121.036984 51.0028444,120.804879 C51.0028444,120.572284 51.1910667,120.383668 51.4242667,120.383668 L61.9705778,120.382202 C62.5469778,120.382202 63.4025333,120.232677 62.8618222,119.204571 L61.3814667,116.454975 C61.1287111,116.040116 60.4804444,115.84417 59.7412444,115.84417 L54.9437778,115.853455 C54.7096,115.853455 54.5199111,115.663861 54.5199111,115.430778 C54.5199111,115.196229 54.7096,115.009567 54.9437778,115.009567 L59.7148444,115.007124 C60.4002667,115.007124 60.4154222,114.556595 60.0189333,113.926245 L56.6148,107.602221 C56.3248889,107.061293 55.7724444,106.988974 54.6880889,106.988974 L52.7775111,106.997769 C52.5438222,106.997769 52.3551111,106.809153 52.3551111,106.57607 C52.3551111,106.34201 52.5438222,106.153393 52.7775111,106.153393 L54.6631556,106.152905 C55.3832889,106.152905 55.5724889,105.750751 55.2493333,105.065673 L52.4524,99.8723703 C52.0373333,99.1325641 51.4418667,98.8369348 49.5821333,98.8369348 L39.0103022,98.8452418 C38.7771022,98.8452418 38.5878533,98.6561368 38.5878533,98.4240311 C38.5878533,98.1909482 38.7771022,98.0013545 39.0103022,98.0013545 L49.5547556,98.0008659 C50.7461778,97.9818088 51.1856889,97.4560284 50.7158667,96.6062775 L45.2586933,86.3530718 C44.9346089,85.9015652 44.0419956,85.8346211 42.5278089,85.8346211 L31.9546089,85.842928 C31.7216533,85.842928 31.5322089,85.6533344 31.5322089,85.4192741 C31.5322089,85.1886344 31.7216533,84.9990408 31.9546089,84.9990408 L42.4998933,84.9961089 C43.7631822,84.9961089 44.5339644,84.9462673 44.1550756,84.2773144 L41.0101511,78.3681491 C40.4324311,77.4622041 38.8105422,77.4651359 38.1789956,77.4651359 L34.8230178,77.4739315 C34.5907956,77.4739315 34.4015467,77.2872697 34.4015467,77.0532095 C34.4015467,76.8191493 34.5907956,76.6295556 34.8230178,76.6295556 L38.1512756,76.6295556 C39.3232889,76.6295556 39.9456444,76.42628 39.6381822,75.7939753 L35.43892,67.9038494 C35.0598356,67.1992255 33.4161422,67.1689297 32.1518756,67.1689297 L15.8050444,67.1767479 C15.5728222,67.1767479 15.3835733,66.9876429 15.3835733,66.7535827 C15.3835733,66.5224544 15.5728222,66.3333493 15.8050444,66.3333493 L32.1247911,66.3304175 C33.2079733,66.3304175 34.5758844,66.1965292 34.0715467,65.330653 L31.3900889,60.2922503 C31.1365022,59.877392 30.2215467,59.8412324 28.9044311,59.8412324 L25.5495778,59.8495393 C25.3164267,59.8495393 25.1269822,59.6604343 25.1269822,59.4258854 C25.1269822,59.1947571 25.3164267,59.0056521 25.5495778,59.0056521 L28.8776889,59.0056521 C29.6904667,59.0056521 30.6768,58.9137871 30.3330622,58.2976077 L28.6565156,55.0789132 C28.1159022,54.2824244 27.5754356,53.5694936 26.2768,53.5694936 L18.0753467,53.5694936 C15.0436489,53.5694936 15.14964,51.5494415 17.7835289,51.5494415 L65.9511111,51.5245207 C67.3566667,51.5245207 67.4031111,51.7141144 68.068,52.7471067 L75.2101778,65.1967647 L111.721867,65.1943214 C114.355022,65.1943214 113.680356,67.1767479 112.1296,67.2329419" id="path20" fill="#552583" fill-rule="nonzero"></path>
                    <path d="M205.362667,90.061387 C204.038756,88.9751326 201.952178,87.724694 201.548844,88.123427 C200.985644,88.6799919 199.234444,89.8888958 198.293333,90.3228112 L206.157111,104.691861 C206.480756,105.197118 206.853778,105.473202 207.720089,105.473202 C210.781511,105.473202 211.784711,102.153358 210.347867,98.0204116 C209.340267,95.1217786 207.705422,91.9861536 205.362667,90.061387 L205.362667,90.061387 Z M268.863467,77.1783022 C268.665467,78.1643847 268.305156,77.5653079 267.654444,76.3231762 C267.454489,75.9449661 266.823822,75.9361706 266.192667,75.9361706 L264.262533,75.9283523 C264.030311,75.9283523 263.839156,75.7387586 263.839156,75.5071416 C263.839156,75.2730814 264.030311,75.0839764 264.262533,75.0839764 L266.160889,75.0869082 C266.883467,75.0869082 266.893244,74.6051058 266.555422,73.8809362 C265.228578,71.0482701 263.859689,69.1513562 262.044444,66.8850278 C261.756489,66.5224544 261.024622,66.2165636 260.4448,66.2165636 L258.507822,66.207768 C258.273156,66.207768 258.083467,66.018663 258.083467,65.7846027 C258.083467,65.5505425 258.273156,65.3633921 258.507822,65.3633921 L260.405689,65.3633921 C261.360978,65.3633921 260.394444,64.7731108 260.232133,64.5590849 C256.862711,60.0694289 254.542444,58.0640361 252.066711,56.0532683 C251.7768,55.8192081 250.380044,55.9003229 249.403244,55.905698 L247.492178,55.8969024 C247.258978,55.8969024 247.069289,55.7077974 247.069289,55.4737371 C247.069289,55.2430974 247.258978,55.0535038 247.492178,55.0535038 L249.376844,55.0505719 C250.819067,55.0505719 249.738133,54.2237872 249.521067,54.0425005 C244.275778,49.672562 236.452578,48.2632654 232.879778,48.7114492 C221.260356,50.1656033 218.8692,58.9748675 218.0112,62.4979868 C217.831289,63.2333952 217.2764,64.739883 217.092089,65.6756352 C216.732267,67.5168438 221.972178,68.0406696 223.419289,67.0716896 C225.614889,65.603316 230.729156,64.0997601 234.755156,64.0851008 C238.478044,64.0714188 246.098844,66.7731285 248.304711,73.1675167 C250.559956,79.7070321 244.892267,86.9643648 242.382311,89.470617 C239.182533,92.6668339 236.167067,97.7565442 237.438667,101.48978 C238.396889,104.302412 240.0024,105.580703 243.441244,105.580703 C247.881333,105.580703 251.115822,102.72898 251.115822,98.6756825 C251.115822,98.3150636 250.891422,97.8840801 250.602,97.8840801 L249.033156,97.8767504 C248.800933,97.8767504 248.611244,97.6871568 248.611244,97.4530966 C248.611244,97.2209909 248.800933,97.0323745 249.033156,97.0323745 L250.507156,97.0323745 C250.922222,97.0323745 251.182311,96.7176882 251.074756,96.2129195 C250.785333,94.8564452 250.69,93.9040791 250.394711,92.544673 C250.2236,91.7564911 251.377867,91.2106764 251.7768,91.7872757 L258.758133,104.245729 C259.263644,105.183925 258.141156,105.435087 257.311511,105.148254 C255.403378,104.484187 252.294044,104.02584 251.193067,104.815976 C248.581911,106.687481 246.205911,107.891987 242.557333,107.891987 C236.354311,107.891987 232.005644,106.365465 229.218978,101.257675 C229.001422,100.861873 228.390311,100.867737 227.868667,100.867737 L226.676756,100.87018 C226.444044,100.87018 226.254356,100.681075 226.254356,100.447015 C226.254356,100.215887 226.444044,100.025316 226.676756,100.025316 L227.6912,100.035089 C228.124844,100.035089 228.416711,99.9143937 228.199156,99.408159 C228.004578,98.9512774 227.834933,98.4660545 227.6736,97.9627517 C226.967644,95.7560378 227.195467,92.6531519 228.301333,89.8888958 C228.374178,89.7095637 228.141467,89.6230738 227.713689,89.6240511 L225.810933,89.6157442 C225.578711,89.6157442 225.389022,89.4266391 225.389022,89.1940448 C225.389022,88.9614506 225.578711,88.7718569 225.810933,88.7718569 L227.7088,88.7718569 C228.5712,88.7679478 228.7736,88.6829238 229.131956,88.1786437 C230.1112,86.8001806 231.117822,85.7789157 232.378178,84.1746993 C232.774178,83.6704192 231.080178,83.5287126 230.176711,83.5370195 L222.6532,83.5399514 C222.419022,83.5399514 222.230311,83.3503577 222.230311,83.1162975 C222.230311,82.882726 222.419022,82.6955755 222.6532,82.6955755 L230.273022,82.7043711 C231.498178,82.7043711 233.598933,82.7239168 233.8336,82.453697 C235.676711,80.328098 237.906533,77.0532095 238.282489,74.2957945 C238.391022,73.5022375 238.089867,73.1675167 237.115511,73.1675167 L236.096667,73.1675167 C235.862489,73.1675167 235.673289,72.9813436 235.673289,72.747772 C235.673289,72.5132231 235.862489,72.3241181 236.096667,72.3241181 L236.993289,72.3241181 C237.768667,72.3241181 238.192044,72.1990254 238.014089,71.6219375 C237.026533,68.4667667 235.544222,66.1799153 229.514267,66.213143 C223.190489,66.2468594 221.905689,72.4409039 223.755644,78.9022364 C224.123289,80.1917664 223.739022,80.7434449 223.161156,79.7324416 L218.762133,72.8196026 C218.652622,72.6578616 218.227778,72.2649923 217.559956,72.2649923 L216.934667,72.2684128 C216.7,72.2684128 216.510311,72.0788191 216.510311,71.8447589 C216.510311,71.6111873 216.707333,71.4245255 216.940044,71.4245255 C217.498844,71.4245255 217.715422,71.1259644 217.501778,70.8195849 L215.882578,68.3020938 C213.227911,74.3793525 208.769244,81.8687908 206.395689,84.5954213 L206.436756,84.7258891 C212.299022,85.0796669 220.948933,90.5681103 222.364267,95.4745792 C224.8224,103.988703 216.549422,107.131169 212.042844,107.131169 L192.223289,107.128237 C189.589156,107.128237 189.398978,105.134572 191.9236,105.134572 C193.289067,105.134572 194.481956,103.93935 193.878178,102.730935 L189.487467,94.8237061 C189.126178,94.1747876 187.764622,94.2138791 185.998756,94.2138791 L184.075467,94.2138791 C183.842267,94.2138791 183.6516,94.0267286 183.6516,93.7931571 C183.6516,93.5595855 183.842267,93.3719464 184.075467,93.3719464 L185.965511,93.3719464 C187.227822,93.3719464 188.6192,93.2952294 188.151333,92.3922163 L182.961289,83.0273644 C182.708533,82.5954036 182.036311,82.5533803 180.268978,82.5533803 L178.354489,82.5480052 C178.122267,82.5480052 177.934533,82.3589002 177.934533,82.1243513 C177.934533,81.8907797 178.122267,81.7016747 178.354489,81.7016747 L180.225956,81.7041179 C181.617822,81.7041179 182.137511,81.5179448 181.741022,80.7957297 L174.808089,68.2659342 C173.977956,67.3634097 172.992844,67.1962937 171.297867,67.1962937 C168.772267,67.1962937 168.800133,65.1943214 171.434267,65.1943214 L188.408,65.1943214 C191.042622,65.1943214 190.369911,67.2329419 188.818667,67.2329419 C187.905911,67.2300101 186.935956,68.9094776 187.543644,69.9146172 L196.208711,86.3188667 L197.088711,86.3188667 C200.942133,86.3188667 201.872978,80.0002182 202.600933,73.1005726 C202.652267,72.60802 201.710178,72.5801673 199.791289,72.5801673 L194.973289,72.5747922 C194.741067,72.5747922 194.551378,72.3856872 194.551378,72.1511383 C194.551378,71.9175668 194.741067,71.7304163 194.973289,71.7304163 L199.741422,71.7304163 C201.006667,71.7304163 202.772044,71.7196662 202.816533,71.310183 C203.147022,68.28548 203.397822,65.6204185 203.9752,63.1947924 C204.156578,62.4364178 202.803333,62.5532036 201.361111,62.5532036 L195.227022,62.5453853 C194.993333,62.5453853 194.804622,62.3557916 194.804622,62.1246632 C194.804622,61.8910917 194.993333,61.701498 195.227022,61.701498 L201.355733,61.6931911 C203.281956,61.6931911 204.276356,61.6961229 204.384889,61.3008104 C207.025378,51.6246926 218.346578,44.0073275 229.355378,44.4280007 C238.799244,44.7875934 246.777911,49.9232361 250.863556,53.1986132 C256.297067,57.5548696 264.281111,66.6812635 267.5288,73.3185076 C268.124756,74.5352298 269.081022,76.0949797 268.863467,77.1783022" id="path22" fill="#552583" fill-rule="nonzero"></path>
                    <path d="M109.788311,119.902843 C108.198444,117.845165 106.086444,117.32134 103.718756,117.32134 L103.050933,117.32134 L107.227022,125.582834 C107.425511,125.961045 107.866,126.256674 108.408178,126.256674 C108.932267,126.256674 108.8692,127.301394 108.183778,127.301394 L101.602844,127.301394 C101.043556,127.301394 100.844578,126.256674 101.367689,126.256674 C101.929911,126.256674 102.032089,125.636585 101.761244,125.113248 L98.0241778,117.747437 C97.7714222,117.349681 97.3573333,117.241691 96.8992444,117.123439 C96.3443556,116.980755 95.9620444,115.988809 96.5936889,115.988809 L107.1004,115.988809 C107.910978,115.988809 108.100178,116.288836 108.317733,116.578113 L110.427289,119.847138 C110.734311,120.245382 110.095333,120.299621 109.788311,119.902843" id="path24" fill="#552583" fill-rule="nonzero"></path>
                    <path d="M141.437511,127.008696 C141.119244,126.835228 140.365867,126.742874 140.041244,127.013583 C139.2028,127.710877 137.555244,128.245453 136.693822,128.245453 C134.215156,128.245453 132.420933,127.756809 131.343422,125.419139 C130.423822,123.428894 131.3664,121.761643 133.552222,120.749662 C134.498222,120.312815 135.755156,119.741591 135.273111,118.600608 C134.922089,117.769426 133.951644,117.686356 133.077511,117.693686 C131.904178,117.705413 130.141733,118.583506 129.866489,120.23903 C129.775556,120.781424 129.145867,120.654865 128.965467,120.366077 L127.469956,117.389261 C127.236267,116.991505 127.8508,116.55026 128.096222,116.811684 C128.601733,117.352613 129.701244,117.481126 130.241956,117.120507 C130.986533,116.625023 132.900044,115.756703 134.044533,115.764951 C136.554,115.784067 138.208889,116.427611 139.581689,118.580085 C140.8396,120.543455 140.066667,122.491676 137.776222,123.569135 C136.566222,124.138404 135.530756,125.146476 136.070978,126.256674 C136.422,126.980843 137.502444,126.823012 138.038756,126.732124 C139.062,126.560121 140.371244,125.59896 140.523778,124.750186 C140.5888,124.390544 141.047867,124.318225 141.247822,124.643173 L142.035911,126.479495 C142.215822,126.839625 141.636489,127.116198 141.437511,127.008696" id="path26" fill="#552583" fill-rule="nonzero"></path>
                    <path d="M214.345022,124.04996 L215.258756,125.735291 C215.656711,126.475097 215.002578,127.315076 213.9544,127.315076 L201.686711,127.315076 C200.802311,127.315076 201.062889,126.392028 201.424667,126.392028 C202.211289,126.392028 202.444489,125.434287 201.966844,124.624605 L198.2772,117.839302 C197.7272,117.19136 197.3752,116.911856 196.588089,116.911856 C195.954978,116.911856 195.731067,115.988809 196.616444,115.988809 L209.048889,115.988809 C209.553422,115.988809 209.775378,116.169118 209.9548,116.422724 L211.645378,118.666575 C212.058978,119.206526 211.166756,119.206526 210.895422,118.936795 C208.7492,116.790184 206.453378,116.853219 204.785778,116.853219 L203.336711,116.853219 L205.038044,120.651933 L205.402267,120.651933 C206.494444,120.651933 207.755778,120.664149 208.085289,119.834433 C208.173778,119.636532 208.715467,119.473814 208.931556,119.834433 L210.382089,122.735509 C210.616756,123.166981 209.963111,123.24321 209.785644,122.93341 C209.212178,121.909213 206.691467,122.183831 206.031956,122.183831 L205.6692,122.183831 L207.789022,126.366619 L210.152311,126.366619 C211.619956,126.366619 212.884711,125.32874 213.2988,124.194598 C213.397067,123.922913 214.182222,123.707421 214.345022,124.04996" id="path28" fill="#552583" fill-rule="nonzero"></path>
                    <path d="M153.687111,121.897974 L157.777644,125.240295 L157.795244,121.897974 L153.687111,121.897974 Z M182.955911,127.315076 L178.590133,127.315076 C177.705733,127.315076 177.965822,126.392028 178.326622,126.392028 C179.260889,126.392028 180.109111,125.298444 179.596756,124.29135 L177.789822,120.986165 L173.8044,126.814705 C173.533556,127.175812 172.905333,127.351235 172.366089,127.351235 L168.070222,127.351235 C167.186311,127.351235 167.391156,126.436983 167.752444,126.436983 C168.664711,126.436983 168.428578,125.754348 168.202222,125.267171 L164.781956,118.678302 C164.5644,118.154965 163.630133,118.079714 163.341689,118.747201 L160.691422,127.373224 C160.581911,127.715763 159.034578,127.698661 158.638089,127.373224 L151.998978,121.904327 L148.562089,121.897974 C147.876667,121.897974 147.6068,121.616516 147.6068,121.255408 C147.6068,120.894301 147.865422,120.565443 148.588489,120.565443 L150.384667,120.568375 L148.588489,119.088763 C147.586756,118.343093 146.563511,117.32134 145.883467,117.32134 L145.465467,117.32134 C144.815244,117.32134 144.451022,117.216281 144.451022,116.692455 C144.451022,116.169118 144.7248,115.988809 145.338844,115.988809 L150.692667,115.988809 C151.7032,115.988809 151.506667,117.304237 151.001156,117.304237 C150.447733,117.304237 149.533511,118.009838 150.382222,119.001296 L152.0156,120.565443 L155.236889,120.565443 C157.148933,120.565443 158.484578,118.3514 157.347422,117.664856 L156.462044,117.177678 C156.048933,116.961698 155.866089,115.988809 156.463511,115.988809 L166.928178,115.988809 C167.703556,115.988809 167.546622,117.015449 167.184356,117.015449 C166.113689,117.015449 166.6192,118.556142 166.825511,118.967091 L169.574533,124.172121 L173.436756,116.692455 C173.689022,116.223846 173.916844,115.988809 174.368089,115.988809 L175.846,115.988809 C176.315822,115.988809 176.474222,116.260006 176.691289,116.620136 L181.088844,124.559615 C181.796756,125.978636 182.338933,126.386653 183.228711,126.386653 C183.590489,126.386653 183.841289,127.315076 182.955911,127.315076" id="path30" fill="#552583" fill-rule="nonzero"></path>
                    <path d="M122.015911,120.73598 C120.848933,118.408083 118.894844,117.027665 117.651111,117.650685 C116.407867,118.273706 116.346267,120.666104 117.511289,122.992536 C118.677289,125.32141 120.631867,126.701828 121.876578,126.078808 C123.119333,125.455787 123.184356,123.0629 122.015911,120.73598 L122.015911,120.73598 Z M120.975556,127.813003 C117.294711,127.813003 113.503867,126.001602 112.747067,122.14083 C112.089511,118.782383 114.4132,115.296401 118.521822,115.296401 C122.4344,115.296401 126.045333,117.858847 126.773778,121.563253 C127.501733,125.286717 124.727778,127.813003 120.975556,127.813003" id="path32" fill="#552583" fill-rule="nonzero"></path>
                    <path d="M195.398622,122.181387 L190.670089,122.181387 C189.783733,122.181387 190.045778,121.25834 190.407556,121.25834 C190.780089,121.25834 191.127689,121.061905 191.127689,120.466737 C191.129156,118.557119 190.312222,117.821222 188.673467,117.821222 C186.873378,117.821222 186.223156,120.003015 187.436578,122.679804 C188.210978,124.390544 190.256978,125.990363 192.687733,125.990363 C194.1764,125.990363 195.426,125.668836 195.617644,124.273759 C195.663111,123.929265 196.176933,123.930242 196.357333,124.254213 L197.478844,126.262049 C197.604978,126.479495 197.407956,126.734567 197.066711,126.756067 C196.778756,126.775125 196.131956,126.40229 195.706622,126.718442 C194.757689,127.4216 192.698978,128.10228 191.144311,128.10228 C188.608933,128.10228 185.062533,127.52959 182.671378,123.375143 C180.507556,119.618941 183.657956,115.644804 186.580044,115.638935 C188.2056,115.636008 190.088311,116.837583 191.168267,117.29251 L192.375822,116.475498 C192.555733,116.260006 192.935111,115.988809 193.295422,115.988809 L193.746667,115.988809 C194.161244,115.988809 194.324533,116.556124 194.485867,116.917231 L196.340222,121.403956 C196.576356,121.853508 196.443867,122.181387 195.398622,122.181387" id="path34" fill="#552583" fill-rule="nonzero"></path>
                    <path d="M260.166622,127.008696 C259.848844,126.835228 259.095467,126.742874 258.771822,127.013583 C257.933378,127.710877 256.286311,128.245453 255.422444,128.245453 C252.947689,128.245453 251.149067,127.756809 250.072044,125.419139 C249.153422,123.428894 250.094533,121.761643 252.282311,120.749662 C253.227822,120.312815 254.485733,119.741591 254.002222,118.600608 C253.6512,117.769426 252.679778,117.686356 251.806622,117.693686 C250.635733,117.705413 248.871822,118.583506 248.594622,120.23903 C248.505644,120.781424 247.876933,120.654865 247.697022,120.366077 L246.198578,117.389261 C245.9644,116.991505 246.583333,116.55026 246.825822,116.811684 C247.331333,117.352613 248.433289,117.481126 248.972044,117.120507 C249.716622,116.625023 251.632089,115.756703 252.774622,115.764951 C255.283111,115.784067 256.937511,116.427611 258.313733,118.580085 C259.5692,120.543455 258.796756,122.491676 256.5068,123.569135 C255.294844,124.138404 254.258889,125.146476 254.801067,126.256674 C255.154533,126.980843 256.231556,126.823012 256.7708,126.732124 C257.791111,126.560121 259.101333,125.59896 259.2524,124.750186 C259.317911,124.390544 259.777956,124.318225 259.976933,124.643173 L260.766489,126.479495 C260.945422,126.839625 260.364622,127.116198 260.166622,127.008696" id="path36" fill="#552583" fill-rule="nonzero"></path>
                    <path d="M227.291289,119.902843 C225.701422,117.845165 223.588933,117.32134 221.222222,117.32134 L220.553422,117.32134 L224.730978,125.582834 C224.928,125.961045 225.368,126.256674 225.913111,126.256674 C226.434756,126.256674 226.3712,127.301394 225.685778,127.301394 L219.106311,127.301394 C218.545556,127.301394 218.348044,126.256674 218.871644,126.256674 C219.431911,126.256674 219.533111,125.636585 219.264711,125.113248 L215.526178,117.747437 C215.273422,117.349681 214.859333,117.241691 214.402222,117.123439 C213.847822,116.980755 213.464533,115.988809 214.097644,115.988809 L224.6024,115.988809 C225.414444,115.988809 225.604133,116.288836 225.819244,116.578113 L227.931244,119.847138 C228.237778,120.245382 227.597822,120.299621 227.291289,119.902843" id="path38" fill="#552583" fill-rule="nonzero"></path>
                    <path d="M243.136667,126.366619 C244.6048,126.366619 245.870044,125.32874 246.284133,124.194598 C246.3824,123.922913 247.166089,123.707421 247.329378,124.04996 L248.2436,125.735291 C248.640089,126.475097 247.987911,127.315076 246.940222,127.315076 L234.669111,127.315076 C233.787644,127.315076 234.047244,126.392028 234.406578,126.392028 C235.195644,126.392028 235.429333,125.434287 234.953156,124.624605 L231.263511,117.839302 C230.712533,117.19136 230.360044,116.911856 229.57,116.911856 C228.939822,116.911856 228.715911,115.988809 229.602267,115.988809 L242.031289,115.988809 C242.537778,115.988809 242.759733,116.169118 242.940133,116.422724 L244.628756,118.666575 C245.0448,119.206526 244.152578,119.206526 243.882222,118.936795 C241.734533,116.790184 239.438711,116.853219 237.770622,116.853219 L236.321067,116.853219 L238.023378,120.651933 L238.384667,120.651933 C239.4788,120.651933 240.737689,120.664149 241.067689,119.834433 C241.160089,119.636532 241.698844,119.473814 241.914444,119.834433 L243.366933,122.735509 C243.601111,123.166981 242.945511,123.24321 242.771467,122.93341 C242.197022,121.909213 239.677778,122.183831 239.0168,122.183831 L238.654533,122.183831 L240.7724,126.366619 L243.136667,126.366619" id="path40" fill="#552583" fill-rule="nonzero"></path>
                    <g id="g42" transform="translate(58.960000, 9.137633)">
                        <g id="g44-Clipped">
                            <mask id="mask-2" fill="white">
                                <use xlink:href="#path-1"></use>
                            </mask>
                            <g id="path46"></g>
                            <g id="g44" mask="url(#mask-2)" fill="#552583" fill-rule="nonzero">
                                <g transform="translate(-43.608889, 35.231193)">
                                    <path d="M128.085956,42.3336259 L124.767867,42.3614786 C124.535644,42.3614786 124.345956,42.1723736 124.345956,41.9397793 C124.345956,41.7081623 124.535644,41.5185686 124.767867,41.5185686 L128.134356,41.552285 C129.269067,41.552285 130.316756,41.4071579 130.0288,40.9033665 L121.309467,24.2621249 C120.227556,22.2762779 117.931244,22.7834898 117.569467,24.3681606 L113.250622,46.6674048 L128.432578,58.4422461 C129.942756,59.7395945 132.845289,61.8500456 134.332978,61.8241475 L137.640311,61.8400257 C139.656,61.8573753 140.371244,60.9123388 139.898978,59.6975712 L139.313778,58.5697821 C138.935378,57.9384547 137.740044,57.8636923 136.729022,57.8636923 L134.818933,57.8544081 C134.585733,57.8544081 134.396533,57.6648144 134.396533,57.4317315 C134.396533,57.1976713 134.585733,57.0095435 134.818933,57.0095435 L136.7036,57.0085662 C137.516133,57.0085662 138.543289,56.9909751 138.1644,56.3782162 L131.119511,42.9546918 C130.7944,42.4313546 129.331644,42.3336259 128.085956,42.3336259 L128.085956,42.3336259 Z M154.359822,34.051608 C147.253333,25.4402443 143.229778,22.4937243 136.012311,22.4937243 C133.558578,22.4937243 132.276711,23.0419822 132.962622,24.2313404 L141.524533,41.4325674 L144.788844,41.4325674 C148.434,41.4325674 147.928,38.3658411 146.939956,34.2104171 C146.759067,33.6313746 147.203467,33.595215 147.636622,34.1019382 L155.773689,48.3928048 C156.170178,49.2938633 155.146933,49.4746614 154.639956,48.788606 C150.5636,43.2571621 146.276533,43.6681112 144.467156,43.6681112 L142.994133,43.6681112 L152.13,61.1043757 L155.817689,61.1043757 C160.4592,60.8150988 162.620089,56.8766325 161.279067,47.3818015 L163.207733,47.3818015 L169.928,60.6225733 C170.469689,61.7410781 169.321289,62.762343 168.055556,62.762343 L122.449556,62.7462177 C119.815422,62.7462177 119.696133,60.7237224 122.222711,60.7237224 C124.276044,60.7237224 124.169467,57.7796456 122.326844,56.3596477 L102.968311,40.9976747 L106.875022,22.8582523 C107.164933,21.488096 108.041511,20.8333138 109.557067,20.8333138 L147.268978,20.8333138 C148.821689,20.8333138 149.464578,21.4685503 149.967156,22.1174688 L156.800844,33.9069695 C157.74,35.6001191 155.552222,35.4945721 154.359822,34.051608" id="path50"></path>
                                    <path d="M70.928,39.0010776 L58.9252889,39.0010776 L74.1043111,59.0046748 L70.928,39.0010776 Z M68.1467111,26.5734085 C67.7854222,24.5181741 65.7193778,23.1563248 63.1219111,22.4741785 L60.4403556,21.8032711 L62.6408444,25.7661695 C63.2182222,26.8494921 61.9505333,27.4876604 60.5650222,25.875137 C51.2384889,15.0238317 48.268,9.82661993 33.8883111,9.78801709 L30.0236933,9.77922151 C28.8579867,9.77922151 27.5716222,10.239035 28.3637689,11.3585172 L33.4549111,20.8279387 L52.7765333,20.8254955 C55.4106667,20.8254955 54.7350222,22.807922 53.1852444,22.864116 C52.1624889,22.8973438 51.0444,23.48225 50.2528889,24.7326886 C50.0328889,25.0810914 49.5532889,26.4536909 50.3086222,27.5150244 L57.7040444,37.3411557 L70.0054667,37.3411557 L68.1467111,26.5734085 Z M96.7784889,22.864116 C95.7576889,22.8973438 95.0991556,23.5965926 94.8718222,24.2709205 C94.5481778,25.2452756 94.5750667,26.9662778 94.9710667,27.7236752 L112.564711,58.9113439 C112.850711,59.4864772 113.563511,60.6934266 114.438133,60.6900061 C115.9884,60.6885401 116.663067,62.7291152 114.0304,62.7291152 L99.9416,62.7291152 C97.3079556,62.7291152 97.2791111,60.7261657 99.8042222,60.7261657 C100.835289,60.7261657 101.240089,59.7180942 100.952133,59.1048467 L97.0566667,52.0507897 C96.5702222,51.2758012 95.4912444,51.217164 94.3540889,51.217164 L90.9988444,51.2269369 C90.7651556,51.2269369 90.5774222,51.0373432 90.5774222,50.8027943 C90.5774222,50.5706887 90.7651556,50.3815837 90.9988444,50.3815837 L94.3262222,50.3801177 C95.2287111,50.3801177 95.9468889,50.1069661 95.4237778,49.0612691 L82.4384,25.4148349 C81.5007111,24.1169978 79.6395111,23.8277209 79.7470667,26.317848 L84.3656,60.9484984 C84.5450222,62.031821 84.26,62.762343 83.1057333,62.762343 L76.1405333,62.7550133 C75.3099111,62.7550133 74.7965778,62.3504165 74.3976444,61.8099769 L71.9043111,58.6816814 C71.5796889,58.3581995 70.8786222,58.3591768 70.1027556,58.3591768 L64.2576,58.3674837 C64.0253778,58.3674837 63.8361778,58.1783787 63.8361778,57.946273 C63.8361778,57.7122128 64.0253778,57.5235964 64.2576,57.5235964 L69.0301333,57.5235964 C69.8773778,57.5235964 70.8688444,57.3242299 70.5085333,56.9269628 L63.8112444,48.5056814 C63.6103111,48.2716212 62.9581333,48.2041884 62.5596889,48.2041884 L60.6676889,48.2149386 C60.4349778,48.2149386 60.2443111,48.0258336 60.2443111,47.7927506 C60.2443111,47.5586904 60.4349778,47.3695854 60.6676889,47.3695854 L62.2458222,47.3681195 C62.7322667,47.3681195 62.7376444,47.1257523 62.5381778,46.9097719 L56.2456889,39.0010776 C55.9205778,38.6946981 55.2889333,38.6306858 54.6739111,38.6306858 L49.1186667,38.6365495 C48.8849778,38.6365495 48.6977333,38.4493991 48.6977333,38.2158275 C48.6977333,37.9846992 48.8849778,37.7951055 49.1186667,37.7951055 L53.8902222,37.791685 C54.6123111,37.791685 55.1735556,37.6612172 54.7936889,37.1740397 L45.8406667,25.9523427 C44.1603556,23.8106184 36.0565333,22.724364 34.4774222,22.724364 L64.7494222,79.338595 C65.0393333,79.9884908 66.1618222,80.9799483 67.3288,80.9799483 L73.7542667,80.9799483 C76.7858667,80.9799483 76.6968889,82.9990231 74.0627556,82.9990231 L41.7501333,82.9990231 C39.1169778,82.9990231 39.0099111,80.9799483 42.0415111,80.9799483 L48.0235556,80.9799483 C49.7195111,80.9799483 50.2695111,79.9542857 49.8309778,79.1187054 L48.9759111,77.5589555 C48.6869778,77.0527209 48.2870667,76.8494452 46.6458667,76.8494452 L36.0731556,76.8582408 C35.8399556,76.8582408 35.6517333,76.6681585 35.6517333,76.4360528 C35.6517333,76.2034585 35.8399556,76.0148422 36.0731556,76.0148422 L46.6194667,76.0133762 C47.1958667,76.0133762 48.0514222,75.8638513 47.5107111,74.8357455 L46.0303556,72.0861488 C45.7776,71.6712905 45.1293333,71.4753444 44.3901333,71.4753444 L39.5926667,71.4846287 C39.3584889,71.4846287 39.1688,71.295035 39.1688,71.0619521 C39.1688,70.8274032 39.3584889,70.6407414 39.5926667,70.6407414 L44.3637333,70.6382982 C45.0491556,70.6382982 45.0643111,70.1877689 44.6678222,69.5574189 L41.2636889,63.2333952 C40.9737778,62.6924669 40.4213333,62.6201477 39.3369778,62.6201477 L37.4264,62.6289433 C37.1927111,62.6289433 37.004,62.4403269 37.004,62.207244 C37.004,61.9731838 37.1927111,61.7845674 37.4264,61.7845674 L39.3120444,61.7840788 C40.0321778,61.7840788 40.2213778,61.3819252 39.8982222,60.6968471 L37.1012889,55.5035444 C36.6862222,54.7637382 36.0907556,54.4681089 34.2310222,54.4681089 L23.6591911,54.4764158 C23.4259911,54.4764158 23.2367422,54.2873108 23.2367422,54.0552052 C23.2367422,53.8221223 23.4259911,53.6325286 23.6591911,53.6325286 L34.2036444,53.63204 C35.3950667,53.6129829 35.8345778,53.0872025 35.3647556,52.2374515 L29.9075822,41.9842459 C29.5834978,41.5327393 28.6908844,41.4657952 27.1766978,41.4657952 L16.6034978,41.4741021 C16.3705422,41.4741021 16.1810978,41.2845084 16.1810978,41.0504482 C16.1810978,40.8198085 16.3705422,40.6302148 16.6034978,40.6302148 L27.1487822,40.627283 C28.4120711,40.627283 29.1828533,40.5774413 28.8039644,39.9084885 L25.65904,33.9993231 C25.08132,33.0933782 23.4594311,33.09631 22.8278844,33.09631 L19.4719067,33.1051056 C19.2396844,33.1051056 19.0504356,32.9184438 19.0504356,32.6843836 C19.0504356,32.4503234 19.2396844,32.2607297 19.4719067,32.2607297 L22.8001644,32.2607297 C23.9721778,32.2607297 24.5945333,32.057454 24.2870711,31.4251494 L20.0878089,23.5350235 C19.7087244,22.8303996 18.0650311,22.8001037 16.8007644,22.8001037 L0.453933333,22.807922 C0.221711111,22.807922 0.0324622222,22.618817 0.0324622222,22.3847568 C0.0324622222,22.1536284 0.221711111,21.9645234 0.453933333,21.9645234 L16.77368,21.9615915 C17.8568622,21.9615915 19.2247733,21.8277032 18.7204356,20.961827 L16.0389778,15.9234243 C15.7853911,15.5085661 14.8704356,15.4724064 13.55332,15.4724064 L10.1984667,15.4807134 C9.96531556,15.4807134 9.77587111,15.2916084 9.77587111,15.0570595 C9.77587111,14.8259311 9.96531556,14.6368261 10.1984667,14.6368261 L13.5265778,14.6368261 C14.3393556,14.6368261 15.3256889,14.5449612 14.9819511,13.9287818 L13.3054044,10.7100873 C12.7647911,9.91359846 12.2243244,9.20066766 10.9256889,9.20066766 L2.72423556,9.20066766 C-0.307462222,9.20066766 -0.201471111,7.18061561 2.43241778,7.18061561 L50.6,7.15569479 C52.0055556,7.15569479 52.052,7.34528845 52.7168889,8.37828072 L59.8590667,20.8279387 L96.3707556,20.8254955 C99.0039111,20.8254955 98.3292444,22.807922 96.7784889,22.864116" id="path52"></path>
                                    <path d="M190.011556,45.6925611 C188.687644,44.6063067 186.601067,43.355868 186.197733,43.7546011 C185.634533,44.311166 183.883333,45.5200699 182.942222,45.9539853 L190.806,60.3230348 C191.129644,60.8282921 191.502667,61.1043757 192.368978,61.1043757 C195.4304,61.1043757 196.4336,57.7845321 194.996756,53.6515857 C193.989156,50.7529527 192.354311,47.6173276 190.011556,45.6925611 L190.011556,45.6925611 Z M253.512356,32.8094763 C253.314356,33.7955588 252.954044,33.1964819 252.303333,31.9543503 C252.103378,31.5761402 251.472711,31.5673446 250.841556,31.5673446 L248.911422,31.5595263 C248.6792,31.5595263 248.488044,31.3699327 248.488044,31.1383157 C248.488044,30.9042555 248.6792,30.7151504 248.911422,30.7151504 L250.809778,30.7180823 C251.532356,30.7180823 251.542133,30.2362799 251.204311,29.5121103 C249.877467,26.6794441 248.508578,24.7825302 246.693333,22.5162019 C246.405378,22.1536284 245.673511,21.8477376 245.093689,21.8477376 L243.156711,21.838942 C242.922044,21.838942 242.732356,21.649837 242.732356,21.4157768 C242.732356,21.1817166 242.922044,20.9945661 243.156711,20.9945661 L245.054578,20.9945661 C246.009867,20.9945661 245.043333,20.4042848 244.881022,20.190259 C241.5116,15.7006029 239.191333,13.6952102 236.7156,11.6844424 C236.425689,11.4503821 235.028933,11.531497 234.052133,11.536872 L232.141067,11.5280764 C231.907867,11.5280764 231.718178,11.3389714 231.718178,11.1049112 C231.718178,10.8742715 231.907867,10.6846778 232.141067,10.6846778 L234.025733,10.681746 C235.467956,10.681746 234.387022,9.85496125 234.169956,9.67367453 C228.924667,5.30373609 221.101467,3.89443949 217.528667,4.34262327 C205.909244,5.79677733 203.518089,14.6060416 202.660089,18.1291609 C202.480178,18.8645693 201.925289,20.3710571 201.740978,21.3068093 C201.381156,23.1480179 206.621067,23.6718436 208.068178,22.7028637 C210.263778,21.2344901 215.378044,19.7309342 219.404044,19.7162749 C223.126933,19.7025928 230.747733,22.4043025 232.9536,28.7986908 C235.208844,35.3382062 229.541156,42.5955388 227.0312,45.1017911 C223.831422,48.298008 220.815956,53.3877182 222.087556,57.1209542 C223.045778,59.933586 224.651289,61.2118773 228.090133,61.2118773 C232.530222,61.2118773 235.764711,58.360154 235.764711,54.3068566 C235.764711,53.9462377 235.540311,53.5152542 235.250889,53.5152542 L233.682044,53.5079245 C233.449822,53.5079245 233.260133,53.3183309 233.260133,53.0842706 C233.260133,52.852165 233.449822,52.6635486 233.682044,52.6635486 L235.156044,52.6635486 C235.571111,52.6635486 235.8312,52.3488622 235.723644,51.8440935 C235.434222,50.4876193 235.338889,49.5352532 235.0436,48.1758471 C234.872489,47.3876652 236.026756,46.8418505 236.425689,47.4184497 L243.407022,59.8769033 C243.912533,60.8150988 242.790044,61.0662615 241.9604,60.7794278 C240.052267,60.1153613 236.942933,59.6570138 235.841956,60.4471503 C233.2308,62.3186547 230.8548,63.5231608 227.206222,63.5231608 C221.0032,63.5231608 216.654533,61.9966387 213.867867,56.8888486 C213.650311,56.4930474 213.0392,56.4989111 212.517556,56.4989111 L211.325644,56.5013543 C211.092933,56.5013543 210.903244,56.3122493 210.903244,56.0781891 C210.903244,55.8470607 211.092933,55.6564898 211.325644,55.6564898 L212.340089,55.6662627 C212.773733,55.6662627 213.0656,55.5455677 212.848044,55.0393331 C212.653467,54.5824515 212.483822,54.0972285 212.322489,53.5939258 C211.616533,51.3872119 211.844356,48.284326 212.950222,45.5200699 C213.023067,45.3407378 212.790356,45.2542479 212.362578,45.2552252 L210.459822,45.2469182 C210.2276,45.2469182 210.037911,45.0578132 210.037911,44.8252189 C210.037911,44.5926246 210.2276,44.403031 210.459822,44.403031 L212.357689,44.403031 C213.220089,44.3991218 213.422489,44.3140979 213.780844,43.8098178 C214.760089,42.4313546 215.766711,41.4100898 217.027067,39.8058733 C217.423067,39.3015933 215.729067,39.1598867 214.8256,39.1681936 L207.302089,39.1711255 C207.067911,39.1711255 206.8792,38.9815318 206.8792,38.7474716 C206.8792,38.5139 207.067911,38.3267496 207.302089,38.3267496 L214.921911,38.3355452 C216.147067,38.3355452 218.247822,38.3550909 218.482489,38.0848711 C220.3256,35.959272 222.555422,32.6843836 222.931378,29.9269685 C223.039911,29.1334116 222.738756,28.7986908 221.7644,28.7986908 L220.745556,28.7986908 C220.511378,28.7986908 220.322178,28.6125176 220.322178,28.3789461 C220.322178,28.1443972 220.511378,27.9552922 220.745556,27.9552922 L221.642178,27.9552922 C222.417556,27.9552922 222.840933,27.8301995 222.662978,27.2531115 C221.675422,24.0979407 220.193111,21.8110894 214.163156,21.8443171 C207.839378,21.8780335 206.554578,28.072078 208.404533,34.5334104 C208.772178,35.8229405 208.387911,36.374619 207.810044,35.3636157 L203.411022,28.4507767 C203.301511,28.2890357 202.876667,27.8961663 202.208844,27.8961663 L201.583556,27.8995868 C201.348889,27.8995868 201.1592,27.7099932 201.1592,27.475933 C201.1592,27.2423614 201.356222,27.0556996 201.588933,27.0556996 C202.147733,27.0556996 202.364311,26.7571384 202.150667,26.450759 L200.531467,23.9332679 C197.8768,30.0105266 193.418133,37.4999648 191.044578,40.2265953 L191.085644,40.3570631 C196.947911,40.710841 205.597822,46.1992843 207.013156,51.1057533 C209.471289,59.6198769 201.198311,62.762343 196.691733,62.762343 L176.872178,62.7594111 C174.238044,62.7594111 174.047867,60.7657458 176.572489,60.7657458 C177.937956,60.7657458 179.130844,59.5705239 178.527067,58.3621086 L174.136356,50.4548802 C173.775067,49.8059617 172.413511,49.8450532 170.647644,49.8450532 L168.724356,49.8450532 C168.491156,49.8450532 168.300489,49.6579027 168.300489,49.4243311 C168.300489,49.1907596 168.491156,49.0031205 168.724356,49.0031205 L170.6144,49.0031205 C171.876711,49.0031205 173.268089,48.9264035 172.800222,48.0233903 L167.610178,38.6585385 C167.357422,38.2265777 166.6852,38.1845543 164.917867,38.1845543 L163.003378,38.1791793 C162.771156,38.1791793 162.583422,37.9900742 162.583422,37.7555254 C162.583422,37.5219538 162.771156,37.3328488 163.003378,37.3328488 L164.874844,37.335292 C166.266711,37.335292 166.7864,37.1491188 166.389911,36.4269038 L159.456978,23.8971083 C158.626844,22.9945838 157.641733,22.8274678 155.946756,22.8274678 C153.421156,22.8274678 153.449022,20.8254955 156.083156,20.8254955 L173.056889,20.8254955 C175.691511,20.8254955 175.0188,22.864116 173.467556,22.864116 C172.5548,22.8611842 171.584844,24.5406517 172.192533,25.5457913 L180.8576,41.9500408 L181.7376,41.9500408 C185.591022,41.9500408 186.521867,35.6313923 187.249822,28.7317467 C187.301156,28.239194 186.359067,28.2113414 184.440178,28.2113414 L179.622178,28.2059663 C179.389956,28.2059663 179.200267,28.0168613 179.200267,27.7823124 C179.200267,27.5487408 179.389956,27.3615904 179.622178,27.3615904 L184.390311,27.3615904 C185.655556,27.3615904 187.420933,27.3508402 187.465422,26.941357 C187.795911,23.916654 188.046711,21.2515926 188.624089,18.8259665 C188.805467,18.0675918 187.452222,18.1843776 186.01,18.1843776 L179.875911,18.1765593 C179.642222,18.1765593 179.453511,17.9869657 179.453511,17.7558373 C179.453511,17.5222657 179.642222,17.3326721 179.875911,17.3326721 L186.004622,17.3243651 C187.930844,17.3243651 188.925244,17.327297 189.033778,16.9319844 C191.674267,7.2558667 202.995467,-0.36149843 214.004267,0.0591747227 C223.448133,0.418767443 231.4268,5.55441018 235.512444,8.82978727 C240.945956,13.1860437 248.93,22.3124376 252.177689,28.9496816 C252.773644,30.1664038 253.729911,31.7261538 253.512356,32.8094763" id="path54"></path>
                                    <path d="M94.4372,75.534017 C92.8473333,73.4763394 90.7353333,72.9525136 88.3676444,72.9525136 L87.6998222,72.9525136 L91.8759111,81.2140085 C92.0744,81.5922186 92.5148889,81.8878479 93.0570667,81.8878479 C93.5811556,81.8878479 93.5180889,82.9325676 92.8326667,82.9325676 L86.2517333,82.9325676 C85.6924444,82.9325676 85.4934667,81.8878479 86.0165778,81.8878479 C86.5788,81.8878479 86.6809778,81.2677593 86.4101333,80.7444222 L82.6730667,73.3786107 C82.4203111,72.9808549 82.0062222,72.8728647 81.5481333,72.754613 C80.9932444,72.6119291 80.6109333,71.6199829 81.2425778,71.6199829 L91.7492889,71.6199829 C92.5598667,71.6199829 92.7490667,71.92001 92.9666222,72.2092869 L95.0761778,75.4783116 C95.3832,75.8765561 94.7442222,75.9307955 94.4372,75.534017" id="path56"></path>
                                    <path d="M126.0864,82.6398702 C125.768133,82.4664017 125.014756,82.3740481 124.690133,82.6447566 C123.851689,83.3420508 122.204133,83.8766267 121.342711,83.8766267 C118.864044,83.8766267 117.069822,83.3879833 115.992311,81.050313 C115.072711,79.0600682 116.015289,77.3928167 118.201111,76.3808361 C119.147111,75.9439889 120.404044,75.3727647 119.922,74.2317822 C119.570978,73.4005997 118.600533,73.3175303 117.7264,73.3248599 C116.553067,73.3365874 114.790622,74.2146797 114.515378,75.8702037 C114.424444,76.4125979 113.794756,76.2860393 113.614356,75.997251 L112.118844,73.0204351 C111.885156,72.6226793 112.499689,72.1814342 112.745111,72.4428585 C113.250622,72.9837868 114.350133,73.1123 114.890844,72.7516812 C115.635422,72.2561967 117.548933,71.3878773 118.693422,71.396125 C121.202889,71.4152413 122.857778,72.0587847 124.230578,74.2112592 C125.488489,76.1746286 124.715556,78.12285 122.425111,79.2003089 C121.215111,79.7695785 120.179644,80.7776499 120.719867,81.8878479 C121.070889,82.6120175 122.151333,82.4541856 122.687644,82.363298 C123.710889,82.1912955 125.020133,81.2301338 125.172667,80.3813601 C125.237689,80.0217185 125.696756,79.9493993 125.896711,80.2743472 L126.6848,82.1106693 C126.864711,82.4707995 126.285378,82.7473717 126.0864,82.6398702" id="path58"></path>
                                    <path d="M198.993911,79.681134 L199.907644,81.3664653 C200.3056,82.1062715 199.651467,82.9462496 198.603289,82.9462496 L186.3356,82.9462496 C185.4512,82.9462496 185.711778,82.0232021 186.073556,82.0232021 C186.860178,82.0232021 187.093378,81.0654609 186.615733,80.2557787 L182.926089,73.4704757 C182.376089,72.8225345 182.024089,72.5430304 181.236978,72.5430304 C180.603867,72.5430304 180.379956,71.6199829 181.265333,71.6199829 L193.697778,71.6199829 C194.202311,71.6199829 194.424267,71.8002923 194.603689,72.0538983 L196.294267,74.2977491 C196.707867,74.8377001 195.815644,74.8377001 195.544311,74.5679689 C193.398089,72.4213582 191.102267,72.4843932 189.434667,72.4843932 L187.9856,72.4843932 L189.686933,76.2831074 L190.051156,76.2831074 C191.143333,76.2831074 192.404667,76.2953235 192.734178,75.4656069 C192.822667,75.2677063 193.364356,75.104988 193.580444,75.4656069 L195.030978,78.3666831 C195.265644,78.7981553 194.612,78.8743837 194.434533,78.5645837 C193.861067,77.540387 191.340356,77.8150047 190.680844,77.8150047 L190.318089,77.8150047 L192.437911,81.9977927 L194.8012,81.9977927 C196.268844,81.9977927 197.5336,80.9599139 197.947689,79.8257725 C198.045956,79.5540867 198.831111,79.338595 198.993911,79.681134" id="path60"></path>
                                    <path d="M138.336,77.5291482 L142.426533,80.8714695 L142.444133,77.5291482 L138.336,77.5291482 Z M167.6048,82.9462496 L163.239022,82.9462496 C162.354622,82.9462496 162.614711,82.0232021 162.975511,82.0232021 C163.909778,82.0232021 164.758,80.9296181 164.245644,79.9225239 L162.438711,76.6173395 L158.453289,82.4458787 C158.182444,82.8069862 157.554222,82.9824092 157.014978,82.9824092 L152.719111,82.9824092 C151.8352,82.9824092 152.040044,82.0681573 152.401333,82.0681573 C153.3136,82.0681573 153.077467,81.3855224 152.851111,80.8983449 L149.430844,74.3094765 C149.213289,73.7861394 148.279022,73.7108883 147.990578,74.3783752 L145.340311,83.0043982 C145.2308,83.3469372 143.683467,83.3298347 143.286978,83.0043982 L136.647867,77.5355006 L133.210978,77.5291482 C132.525556,77.5291482 132.255689,77.2476896 132.255689,76.8865821 C132.255689,76.5254746 132.514311,76.1966175 133.237378,76.1966175 L135.033556,76.1995494 L133.237378,74.719937 C132.235644,73.9742671 131.2124,72.9525136 130.532356,72.9525136 L130.114356,72.9525136 C129.464133,72.9525136 129.099911,72.8474553 129.099911,72.3236295 C129.099911,71.8002923 129.373689,71.6199829 129.987733,71.6199829 L135.341556,71.6199829 C136.352089,71.6199829 136.155556,72.9354111 135.650044,72.9354111 C135.096622,72.9354111 134.1824,73.6410122 135.031111,74.6324698 L136.664489,76.1966175 L139.885778,76.1966175 C141.797822,76.1966175 143.133467,73.982574 141.996311,73.29603 L141.110933,72.8088524 C140.697822,72.592872 140.514978,71.6199829 141.1124,71.6199829 L151.577067,71.6199829 C152.352444,71.6199829 152.195511,72.6466228 151.833244,72.6466228 C150.762578,72.6466228 151.268089,74.1873156 151.4744,74.5982648 L154.223422,79.8032949 L158.085644,72.3236295 C158.337911,71.8550204 158.565733,71.6199829 159.016978,71.6199829 L160.494889,71.6199829 C160.964711,71.6199829 161.123111,71.89118 161.340178,72.2513103 L165.737733,80.1907891 C166.445644,81.6098097 166.987822,82.017827 167.8776,82.017827 C168.239378,82.017827 168.490178,82.9462496 167.6048,82.9462496" id="path62"></path>
                                    <path d="M106.6648,76.3671541 C105.497822,74.0392567 103.543733,72.6588389 102.3,73.2818593 C101.056756,73.9048797 100.995156,76.2972781 102.160178,78.6237096 C103.326178,80.9525843 105.280756,82.3330021 106.525467,81.7099817 C107.768222,81.0869612 107.833244,78.6940742 106.6648,76.3671541 L106.6648,76.3671541 Z M105.624444,83.4441773 C101.9436,83.4441773 98.1527556,81.632776 97.3959556,77.772004 C96.7384,74.4135576 99.0620889,70.9275751 103.170711,70.9275751 C107.083289,70.9275751 110.694222,73.4900214 111.422667,77.1944275 C112.150622,80.9178906 109.376667,83.4441773 105.624444,83.4441773" id="path64"></path>
                                    <path d="M180.047511,77.8125614 L175.318978,77.8125614 C174.432622,77.8125614 174.694667,76.8895139 175.056444,76.8895139 C175.428978,76.8895139 175.776578,76.6930793 175.776578,76.0979115 C175.778044,74.1882929 174.961111,73.4523959 173.322356,73.4523959 C171.522267,73.4523959 170.872044,75.6341889 172.085467,78.3109778 C172.859867,80.0217185 174.905867,81.6215372 177.336622,81.6215372 C178.825289,81.6215372 180.074889,81.3000098 180.266533,79.9049327 C180.312,79.5604391 180.825822,79.5614164 181.006222,79.885387 L182.127733,81.893223 C182.253867,82.1106693 182.056844,82.3657412 181.7156,82.3872415 C181.427644,82.4062986 180.780844,82.0334636 180.355511,82.3496159 C179.406578,83.0527739 177.347867,83.7334542 175.7932,83.7334542 C173.257822,83.7334542 169.711422,83.1607641 167.320267,79.0063174 C165.156444,75.2501152 168.306844,71.2759779 171.228933,71.2701088 C172.854489,71.2671823 174.7372,72.4687566 175.817156,72.9236836 L177.024711,72.1066718 C177.204622,71.89118 177.584,71.6199829 177.944311,71.6199829 L178.395556,71.6199829 C178.810133,71.6199829 178.973422,72.187298 179.134756,72.5484055 L180.989111,77.0351297 C181.225244,77.4846817 181.092756,77.8125614 180.047511,77.8125614" id="path66"></path>
                                </g>
                            </g>
                        </g>
                    </g>
                    <path d="M148.257511,155.620236 C142.4676,156.032652 137.737111,156.197813 133.604044,155.764875 C134.800356,158.780782 137.194933,161.599766 139.043422,162.836034 C142.987289,162.674782 147.0612,162.101115 150.287867,161.464412 C160.612711,159.427746 176.664889,153.136462 183.5812,143.862009 C174.363689,150.012075 159.0468,154.852578 148.257511,155.620236 Z M130.919556,155.405233 C127.438667,155.188764 121.128089,153.818119 118.878222,153.168712 C118.297911,154.68253 116.704133,159.373507 116.193733,160.887813 C122.603067,162.705567 130.048356,163.339826 135.7796,162.836034 C134.185333,161.609051 131.500356,156.775878 130.919556,155.405233 L130.919556,155.405233 Z M101.759778,146.819768 C101.045022,148.022808 97.6516444,151.118364 95.8124444,151.725748 C100.0912,154.898999 110.030311,159.445337 113.801111,160.237917 C114.453289,159.155572 116.193733,154.538868 116.775022,152.592113 C113.438356,151.870875 104.589467,148.695181 101.759778,146.819768 L101.759778,146.819768 Z M194.826622,136.288035 C193.882578,137.370381 192.576756,139.677266 183.219911,147.829305 C169.463067,159.814263 151.229956,165.287559 134.112978,165.287559 C121.490356,165.287559 110.442933,162.45587 98.2050667,155.722363 C82.6129333,147.141295 76.1556889,137.281936 74.5599556,135.277521 C73.3836889,133.803772 73.2150222,132.940828 73.9781778,132.501049 C74.5237778,132.185874 75.5719556,133.33272 76.5541333,134.629091 C81.1897778,140.751305 87.2886667,146.819768 93.7087556,150.389797 C95.7039111,150.102963 98.4959556,147.325514 99.5832444,145.84639 C95.4746222,143.608403 88.6678222,138.428782 86.0923556,136.431208 C83.8679111,134.706785 83.0979111,133.743669 83.6982667,133.041 C84.1964444,132.458048 85.8987556,133.605871 87.3258222,134.772752 C89.7912889,136.792804 97.1168,141.986107 100.743378,143.934328 C103.2108,141.0484 102.412933,135.711436 101.541733,134.555794 C101.073867,133.935217 101.009333,133.272617 101.541733,132.96868 C102.050667,132.680869 102.602133,133.413346 103.319333,134.447804 C105.000133,136.875385 104.3284,142.75572 102.883733,144.872524 C107.308667,147.613813 113.6564,149.453556 117.500533,150.318944 C117.826622,149.705696 122.487689,136.091112 123.375511,133.619065 C123.862444,132.264545 124.343511,130.645181 125.335467,130.949117 C125.993511,131.152393 125.558889,132.635425 125.007911,134.123833 C124.327867,135.965531 120.801022,147.397833 119.713244,150.788041 C120.983378,151.473119 128.640356,153.027494 130.558267,152.951266 C129.613733,147.974432 133.1396,145.93288 137.122578,143.321081 C139.240444,141.932356 152.699067,134.203482 155.510178,132.463423 C157.114711,131.470499 158.361867,130.841127 158.702133,131.308759 C159.094222,131.845289 158.004978,132.96868 156.524622,133.835045 C155.346889,134.524521 142.825467,141.786252 137.5924,145.088993 C133.847511,147.453538 131.834756,149.986666 132.732844,153.313351 C133.966311,153.672992 137.739556,153.705243 141.655556,153.672992 C168.348889,153.456035 189.749022,138.163449 192.142133,135.711436 C193.355556,134.466861 195.043689,133.402596 195.695867,133.906387 C196.108978,134.226937 195.395689,135.633253 194.826622,136.288035" id="path68" fill="#061922" fill-rule="nonzero"></path>
                    <path d="M200.6004,44.9488946 C201.587956,46.7646937 202.390222,47.7981257 201.543467,48.2657575 C200.771022,48.6948353 200.018622,47.0128268 199.078,45.3808554 C195.957911,39.9725496 192.553289,35.5049313 184.862089,28.5001297 C176.338311,20.7438921 166.5444,16.2370846 163.135867,15.0815405 C160.234311,23.2334816 149.172222,57.9526254 148.881333,58.9445716 C148.446711,60.4232067 148.075644,60.8522357 147.575511,60.6738808 C147.015244,60.473537 147.357956,59.6653207 147.647867,58.3645518 C147.937778,57.0672035 161.104533,15.9839673 161.539156,14.5411497 C158.926533,13.243215 148.313733,10.2771492 140.902667,10.031899 C134.302178,9.81484362 126.540089,10.031899 122.6236,10.9349122 C118.030978,14.6388784 107.586356,29.3806652 103.622933,37.2287189 C98.9516,46.474977 95.8549778,54.9836278 95.0571111,58.5903051 C94.6748,60.3171711 94.1849333,61.5622346 93.3186222,61.3975618 C92.3824,61.2167637 92.9182222,59.8519825 93.4633333,58.0058875 C94.8679111,53.2484548 97.1603111,46.5144594 102.025733,36.9053835 C107.1796,26.7316801 116.385378,14.7999842 119.067911,11.5470847 C110.658044,13.3126512 100.437333,17.2481368 90.7255556,24.4839202 C82.3572444,30.7200369 75.1705778,38.6570237 71.5572,44.4421224 C70.9363111,45.4360232 70.2098222,46.8398959 69.3088,46.2466827 C68.9030222,45.9794436 69.4046222,44.8515568 70.0333333,43.7203961 C75.2796,34.2983729 88.0850667,20.9574781 104.488756,13.6384787 C123.608711,5.10783892 144.455911,5.56173983 163.098222,12.7751434 C179.4056,19.0834327 193.592667,32.0647348 200.6004,44.9488946" id="path70" fill="#061922" fill-rule="nonzero"></path>
                    <g id="g72" transform="translate(58.960000, 9.137633)">
                        <g id="g74-Clipped">
                            <mask id="mask-4" fill="white">
                                <use xlink:href="#path-3"></use>
                            </mask>
                            <g id="path76"></g>
                            <g id="g74" mask="url(#mask-4)" fill="#061922" fill-rule="nonzero">
                                <g transform="translate(10.168889, -1.856845)">
                                    <path d="M79.1286222,148.339449 C73.3387111,148.751864 68.6082222,148.917025 64.4751556,148.484087 C65.6714667,151.499995 68.0660444,154.318979 69.9145333,155.555247 C73.8584,155.393995 77.9323111,154.820327 81.1589778,154.183625 C91.4838222,152.146959 107.536,145.855674 114.452311,136.581221 C105.2348,142.731288 89.9179111,147.57179 79.1286222,148.339449 Z M61.7906667,148.124446 C58.3097778,147.907977 51.9992,146.537332 49.7493333,145.887925 C49.1690222,147.401742 47.5752444,152.092719 47.0648444,153.607025 C53.4741778,155.424779 60.9194667,156.059038 66.6507111,155.555247 C65.0564444,154.328263 62.3714667,149.495091 61.7906667,148.124446 L61.7906667,148.124446 Z M32.6308889,139.53898 C31.9161333,140.74202 28.5227556,143.837577 26.6835556,144.444961 C30.9623111,147.618211 40.9014222,152.16455 44.6722222,152.95713 C45.3244,151.874784 47.0648444,147.258081 47.6461333,145.311325 C44.3094667,144.590088 35.4605778,141.414394 32.6308889,139.53898 L32.6308889,139.53898 Z M125.697733,129.007248 C124.753689,130.089593 123.447867,132.396479 114.091022,140.548518 C100.334178,152.533476 82.1010667,158.006771 64.9840889,158.006771 C52.3614667,158.006771 41.3140444,155.175082 29.0761778,148.441575 C13.4840444,139.860508 7.0268,130.001149 5.43106667,127.996733 C4.2548,126.522984 4.08613333,125.66004 4.84928889,125.220261 C5.39488889,124.905086 6.44306667,126.051932 7.42524444,127.348303 C12.0608889,133.470517 18.1597778,139.53898 24.5798667,143.109009 C26.5750222,142.822176 29.3670667,140.044726 30.4543556,138.565602 C26.3457333,136.327615 19.5389333,131.147995 16.9634667,129.15042 C14.7390222,127.425998 13.9690222,126.462881 14.5693778,125.760212 C15.0675556,125.17726 16.7698667,126.325084 18.1969333,127.491964 C20.6624,129.512017 27.9879111,134.705319 31.6144889,136.653541 C34.0819111,133.767612 33.2840444,128.430649 32.4128444,127.275007 C31.9449778,126.65443 31.8804444,125.991829 32.4128444,125.687893 C32.9217778,125.400082 33.4732444,126.132558 34.1904444,127.167017 C35.8712444,129.594597 35.1995111,135.474933 33.7548444,137.591736 C38.1797778,140.333026 44.5275111,142.172768 48.3716444,143.038156 C48.6977333,142.424909 53.3588,128.810325 54.2466222,126.338277 C54.7335556,124.983758 55.2146222,123.364393 56.2065778,123.668329 C56.8646222,123.871605 56.43,125.354638 55.8790222,126.843046 C55.1989778,128.684743 51.6721333,140.117045 50.5843556,143.507254 C51.8544889,144.192332 59.5114667,145.746707 61.4293778,145.670478 C60.4848444,140.693645 64.0107111,138.652092 67.9936889,136.040293 C70.1115556,134.651568 83.5701778,126.922695 86.3812889,125.182635 C87.9858222,124.189712 89.2329778,123.560339 89.5732444,124.027971 C89.9653333,124.564502 88.8760889,125.687893 87.3957333,126.554258 C86.218,127.243734 73.6965778,134.505464 68.4635111,137.808205 C64.7186222,140.172751 62.7058667,142.705879 63.6039556,146.032563 C64.8374222,146.392205 68.6106667,146.424455 72.5266667,146.392205 C99.22,146.175247 120.620133,130.882661 123.013244,128.430649 C124.226667,127.186074 125.9148,126.121808 126.566978,126.6256 C126.980089,126.94615 126.2668,128.352466 125.697733,129.007248" id="path80"></path>
                                    <path d="M131.471511,37.6681071 C132.459067,39.4839062 133.261333,40.5173382 132.414578,40.98497 C131.642133,41.4140478 130.889733,39.7320393 129.949111,38.1000679 C126.829022,32.6917621 123.4244,28.2241438 115.7332,21.2193421 C107.209422,13.4631045 97.4155111,8.95629707 94.0069778,7.80075302 C91.1054222,15.9526941 80.0433333,50.6718379 79.7524444,51.6637841 C79.3178222,53.1424192 78.9467556,53.5714482 78.4466222,53.3930933 C77.8863556,53.1927495 78.2290667,52.3845332 78.5189778,51.0837643 C78.8088889,49.7864159 91.9756444,8.70317976 92.4102667,7.26036222 C89.7976444,5.96242747 79.1848444,2.99636168 71.7737778,2.75111153 C65.1732889,2.53405611 57.4112,2.75111153 53.4947111,3.65412464 C48.9020889,7.35809091 38.4574667,22.0998776 34.4940444,29.9479314 C29.8227111,39.1941894 26.7260889,47.7028402 25.9282222,51.3095176 C25.5459111,53.0363836 25.0560444,54.2814471 24.1897333,54.1167743 C23.2535111,53.9359762 23.7893333,52.571195 24.3344444,50.7251 C25.7390222,45.9676673 28.0314222,39.2336718 32.8968444,29.624596 C38.0507111,19.4508926 47.2564889,7.51919666 49.9390222,4.26629716 C41.5291556,6.0318637 31.3084444,9.96734924 21.5966667,17.2031327 C13.2283556,23.4392494 6.04168889,31.3762362 2.42831111,37.1613349 C1.80742222,38.1552357 1.08093333,39.5591084 0.179911111,38.9658952 C-0.225866667,38.6986561 0.275733333,37.5707693 0.904444444,36.4396085 C6.15071111,27.0175854 18.9561778,13.6766906 35.3598667,6.35769116 C54.4798222,-2.17294859 75.3270222,-1.71904768 93.9693333,5.4943559 C110.276711,11.8026452 124.463778,24.7839473 131.471511,37.6681071" id="path82"></path>
                                </g>
                            </g>
                        </g>
                    </g>
                </g>
            </g>
        </g>
    </g>
</svg>