<?xml version="1.0" encoding="UTF-8"?>
<svg width="256px" height="256px" viewBox="0 0 256 256" version="1.1" xmlns="http://www.w3.org/2000/svg" xmlns:xlink="http://www.w3.org/1999/xlink">
    <!-- Generator: Sketch 63.1 (92452) - https://sketch.com -->
    <title>Teams/Defualt/OMagic/256</title>
    <desc>Created with Sketch.</desc>
    <defs>
        <polygon id="path-1" points="0.000311111111 0.108044444 256 0.108044444 256 145.333333 0.000311111111 145.333333"></polygon>
    </defs>
    <g id="Teams/Defualt/OMagic/256" stroke="none" stroke-width="1" fill="none" fill-rule="evenodd">
        <g id="Teams/Defualt/OMagic/base" transform="translate(0.000000, 52.000000)">
            <g id="Group-68" transform="translate(0.000000, -0.000000)">
                <g id="Group-3" transform="translate(0.000000, 0.336444)">
                    <mask id="mask-2" fill="white">
                        <use xlink:href="#path-1"></use>
                    </mask>
                    <g id="Clip-2"></g>
                    <path d="M96.3620889,67.2600444 C115.379422,64.3422667 134.360311,65.1982667 150.974533,72.2138222 L153.002089,67.7582667 C126.115422,59.1080444 92.3252,59.5516 67.1554222,73.3333778 L74.3238667,56.6693778 C42.6843111,65.2209333 21.3998667,83.0622667 0.000311111111,101.442711 C15.6029778,64.5853778 49.5247556,34.2831556 87.8887556,23.2898222 L85.9385333,29.4062667 C119.532311,18.4422667 156.404756,16.3636 186.2612,21.2947111 L179.266533,12.1978222 L196.395422,16.5609333 L207.408311,0.108044444 L211.762978,20.4578222 L228.606978,25.9182667 C228.606978,25.9182667 216.336311,31.0529333 216.927867,31.2960444 C280.710089,57.5711556 260.2932,144.868933 199.642089,145.3316 C168.962978,145.586267 145.160756,117.865822 146.199867,88.8653778 C130.6052,78.6000444 114.954978,73.6587111 96.3620889,67.2600444" id="Fill-1" fill="#C4CED3" mask="url(#mask-2)"></path>
                </g>
                <path d="M210.616622,31.6570222 C214.124622,30.1281333 220.677956,27.2681333 220.677956,27.2681333 L221.1664,27.0552444 L220.656622,26.8881333 C220.656622,26.8881333 210.119289,23.4205778 207.853956,22.6836889 C207.513511,20.3001333 205.848178,8.84057778 205.848178,8.84057778 L205.766844,8.28368889 L201.933067,14.5183556 C201.933067,14.5183556 199.7384,18.0596889 198.553067,19.9863556 C196.0544,19.3508 185.163733,16.5788 185.163733,16.5788 L184.589511,16.4343556 L184.953956,16.9014667 C184.960178,16.9112444 189.385511,22.6063556 192.069067,26.0748 C181.109067,23.6948 168.459289,22.3641333 153.961956,22.3641333 C149.204178,22.3641333 144.245511,22.5063556 139.089511,22.8032444 C119.3224,23.9316889 99.8810667,27.6143556 81.2241778,34.3539111 L83.3584,28.0076889 L82.9770667,28.1263556 C53.7828444,37.2472444 21.8544,64.6179111 7.74062222,91.6770222 L8.06017778,91.9214667 C28.0135111,73.2005778 55.0241778,58.2561333 79.2308444,52.8139111 L72.8726222,67.6370222 L73.3637333,67.3992444 C84.6312889,61.9614667 99.4224,59.5548 114.344178,59.5556889 C129.613067,59.5548 145.025511,62.0739111 156.932178,66.4121333 L152.367289,76.3654667 C141.509067,71.3863556 125.802844,68.0325778 112.773511,68.0290222 C110.452178,68.0290222 108.217511,68.1365778 106.106844,68.3614667 L106.072178,68.7601333 C121.461067,73.1050222 137.396622,78.0143556 150.023289,88.1361333 C149.945956,89.2108 149.907289,90.2836889 149.907289,91.3525778 C149.915733,117.994356 172.9144,142.105022 199.903733,142.113022 C200.083733,142.113022 200.268178,142.1108 200.449956,142.1108 C230.192622,141.758356 252.235733,114.483244 252.239735,86.0516889 C252.244178,65.1063556 240.256178,43.5263556 210.616622,31.6570222" id="Fill-4" fill="#061922"></path>
                <path d="M194.391822,80.4563111 C183.408711,80.4563111 172.419378,76.4287556 161.381156,72.3740889 C158.470933,78.5247556 156.990044,84.9727556 156.990044,91.5336444 C156.990044,95.0220889 157.410044,98.5456444 158.256267,102.070978 C159.167378,102.092311 160.082489,102.102978 160.999378,102.102978 C182.311378,102.102978 204.924267,96.1807556 223.191378,85.3500889 C221.085156,81.4314222 218.474933,77.7758667 215.766489,74.2527556 C208.655822,78.7518667 201.523822,80.4589778 194.391822,80.4563111" id="Fill-6" fill="#C4CED3"></path>
                <path d="M160.232533,106.240133 L159.512533,106.240133 C166.1792,123.473911 181.460978,134.896578 200.100533,135.1548 C206.066756,120.459689 212.684533,104.402356 227.817867,96.8948 C227.025422,94.2468 226.056533,91.6708 224.984978,89.1294667 C205.500978,100.515244 182.7552,106.240133 160.232533,106.240133" id="Fill-8" fill="#C4CED3"></path>
                <path d="M206.294133,52.1496444 C199.667911,49.6212 195.446133,48.8354222 195.049689,48.7647556 C193.195911,49.0167556 190.679911,49.2674222 188.648356,49.6700889 C199.910133,54.1554222 208.227022,59.5976444 216.582133,68.9123111 C220.875022,65.5176444 224.646578,61.6732 227.265689,56.9532 C219.601689,49.5029778 205.173244,40.3718667 169.187911,37.5385333 C184.383911,41.1558667 198.356356,46.0269778 206.482578,51.7940889 L206.294133,52.1496444 Z" id="Fill-10" fill="#C4CED3"></path>
                <path d="M105.401556,47.1574667 C107.632222,47.1085778 110.042889,47.0783556 112.589111,47.0783556 C138.155333,47.0890222 177.614,50.0956889 192.913111,68.2628 L192.655778,68.5725778 C187.362889,65.6228 176.774,60.7356889 170.171778,60.7410222 C169.957111,60.7410222 169.747333,60.7472444 169.546,60.7570222 C167.274,63.2645778 165.268222,66.0370222 163.470444,68.9099111 C173.697111,72.6819111 184.049556,76.4232444 194.31,76.4201353 C200.756222,76.4201353 207.159778,74.9490222 213.502889,71.0810222 C195.771778,51.7574667 165.758889,43.3290222 137.445556,43.331244 C126.199333,43.331244 115.225111,44.6588 105.401556,47.1574667" id="Fill-12" fill="#C4CED3"></path>
                <path d="M226.380533,83.3269778 C231.324089,79.9616444 235.597422,76.4452 239.478311,71.9274222 C237.037867,67.2887556 232.816089,62.0767556 229.789867,59.3940889 C226.971644,64.3616444 223.364978,68.4656444 218.976089,72.0718667 C221.560533,75.5180889 224.288533,79.5349778 226.380533,83.3269778" id="Fill-14" fill="#C4CED3"></path>
                <path d="M204.436089,134.976711 C213.417422,133.8816 221.676533,130.814933 228.619644,124.9176 C229.686756,120.944267 230.143644,116.830933 230.143644,112.7056 C230.143644,108.766489 229.725422,104.816267 229.018756,100.970489 C215.470311,107.482044 209.844978,121.778044 204.436089,134.976711" id="Fill-16" fill="#C4CED3"></path>
                <path d="M234.144444,115.355156 C234.144444,116.712933 234.110222,118.072489 234.045778,119.436933 C239.313333,112.308044 242.137778,106.116933 243.704444,97.0036 C239.857778,97.3462667 236.047111,97.9907111 232.421333,99.1929333 C233.604444,104.560933 234.144444,109.938711 234.144444,115.355156" id="Fill-18" fill="#C4CED3"></path>
                <path d="M228.246844,87.0964889 C229.4344,89.8160444 230.488622,92.5742667 231.409956,95.4000444 C235.635733,94.0249333 239.712178,93.3164889 244.115733,93.0489333 C244.1224,92.7342667 244.1224,92.4249333 244.1224,92.1164889 C244.1224,86.2844889 243.260622,81.8000444 241.361956,76.2196 C237.324622,80.3556 233.055733,83.8756 228.246844,87.0964889" id="Fill-20" fill="#C4CED3"></path>
                <path d="M244.115778,93.0487556 C239.712222,93.3167556 235.635778,94.0247556 231.41,95.3998667 C230.488667,92.5745333 229.434444,89.8163111 228.246889,87.0963111 C233.055778,83.8754222 237.324667,80.3554222 241.362,76.2198667 C243.260667,81.7998667 244.122444,86.2843111 244.122444,92.1163111 C244.122444,92.4252 244.122444,92.7340889 244.115778,93.0487556" id="Fill-22" fill="#C4CED3"></path>
                <path d="M244.115778,93.0487556 C239.712222,93.3167556 235.635778,94.0247556 231.41,95.3998667 C230.488667,92.5745333 229.434444,89.8163111 228.246889,87.0963111 C233.055778,83.8754222 237.324667,80.3554222 241.362,76.2198667 C243.260667,81.7998667 244.122444,86.2843111 244.122444,92.1163111 C244.122444,92.4252 244.122444,92.7340889 244.115778,93.0487556" id="Fill-24" fill="#C4CED3"></path>
                <path d="M229.789822,59.394 C232.816044,62.0771111 237.037822,67.2886667 239.478267,71.9273333 C235.597378,76.4451111 231.324044,79.9615556 226.380489,83.3268889 C224.288489,79.5348889 221.560489,75.518 218.976044,72.0717778 C223.364933,68.4655556 226.9716,64.3615556 229.789822,59.394" id="Fill-26" fill="#C4CED3"></path>
                <path d="M229.789822,59.394 C232.816044,62.0771111 237.037822,67.2886667 239.478267,71.9273333 C235.597378,76.4451111 231.324044,79.9615556 226.380489,83.3268889 C224.288489,79.5348889 221.560489,75.518 218.976044,72.0717778 C223.364933,68.4655556 226.9716,64.3615556 229.789822,59.394" id="Fill-28" fill="#C4CED3"></path>
                <path d="M169.187822,37.5385333 C205.173156,40.3718667 219.602044,49.5029778 227.2656,56.9532 C224.646489,61.6732 220.874933,65.5176444 216.582489,68.9123111 C208.226933,59.5976444 199.910044,54.1554222 188.648267,49.6700889 C190.679822,49.2674222 193.196267,49.0167556 195.0496,48.7647556 C195.446044,48.8354222 199.667822,49.6212 206.294044,52.1496444 L206.482489,51.7940889 C198.356267,46.0269778 184.383822,41.1558667 169.187822,37.5385333" id="Fill-30" fill="#C4CED3"></path>
                <path d="M169.187822,37.5385333 C205.173156,40.3718667 219.602044,49.5029778 227.2656,56.9532 C224.646489,61.6732 220.874933,65.5176444 216.582489,68.9123111 C208.226933,59.5976444 199.910044,54.1554222 188.648267,49.6700889 C190.679822,49.2674222 193.196267,49.0167556 195.0496,48.7647556 C195.446044,48.8354222 199.667822,49.6212 206.294044,52.1496444 L206.482489,51.7940889 C198.356267,46.0269778 184.383822,41.1558667 169.187822,37.5385333" id="Fill-32" fill="#C4CED3"></path>
                <path d="M160.999422,102.102978 C160.082533,102.102978 159.167422,102.092311 158.256311,102.070978 C157.410089,98.5456444 156.990089,95.0220889 156.990089,91.5336444 C156.990089,84.9727556 158.470978,78.5247556 161.380756,72.3740889 C172.419422,76.4287556 183.408756,80.4563111 194.391867,80.4563111 C201.523867,80.4589778 208.655867,78.7518667 215.766533,74.2527556 C218.474533,77.7758667 221.084756,81.4314222 223.191422,85.3500889 C204.924311,96.1807556 182.311422,102.102978 160.999422,102.102978" id="Fill-34" fill="#C4CED3"></path>
                <path d="M160.999422,102.102978 C160.082533,102.102978 159.167422,102.092311 158.256311,102.070978 C157.410089,98.5456444 156.990089,95.0220889 156.990089,91.5336444 C156.990089,84.9727556 158.470978,78.5247556 161.380756,72.3740889 C172.419422,76.4287556 183.408756,80.4563111 194.391867,80.4563111 C201.523867,80.4589778 208.655867,78.7518667 215.766533,74.2527556 C218.474533,77.7758667 221.084756,81.4314222 223.191422,85.3500889 C204.924311,96.1807556 182.311422,102.102978 160.999422,102.102978" id="Fill-36" fill="#C4CED3"></path>
                <path d="M200.100578,135.154667 C181.461022,134.896444 166.179244,123.474222 159.512578,106.24 L160.232578,106.24 C182.755244,106.24 205.501022,100.515556 224.985022,89.1293333 C226.056578,91.6706667 227.025467,94.2466667 227.817911,96.8946667 C212.684133,104.402667 206.0668,120.46 200.100578,135.154667" id="Fill-38" fill="#C4CED3"></path>
                <path d="M200.100578,135.154667 C181.461022,134.896444 166.179244,123.474222 159.512578,106.24 L160.232578,106.24 C182.755244,106.24 205.501022,100.515556 224.985022,89.1293333 C226.056578,91.6706667 227.025467,94.2466667 227.817911,96.8946667 C212.684133,104.402667 206.0668,120.46 200.100578,135.154667" id="Fill-40" fill="#C4CED3"></path>
                <path d="M234.045911,119.436756 C234.110356,118.072756 234.144578,116.712756 234.144578,115.354978 C234.144578,109.938978 233.604578,104.560756 232.421467,99.1927556 C236.047244,97.9905333 239.857911,97.3465333 243.704133,97.0034222 C242.137911,106.116756 239.313467,112.307867 234.045911,119.436756" id="Fill-42" fill="#C4CED3"></path>
                <path d="M234.045911,119.436756 C234.110356,118.072756 234.144578,116.712756 234.144578,115.354978 C234.144578,109.938978 233.604578,104.560756 232.421467,99.1927556 C236.047244,97.9905333 239.857911,97.3465333 243.704133,97.0034222 C242.137911,106.116756 239.313467,112.307867 234.045911,119.436756" id="Fill-44" fill="#C4CED3"></path>
                <path d="M213.502933,71.0808444 C207.159822,74.9488444 200.756267,76.4204019 194.310044,76.4204019 C184.049156,76.4235111 173.697156,72.6817333 163.470489,68.9101778 C165.268267,66.0372889 167.274044,63.2644 169.546044,60.7568444 C169.747378,60.7475111 169.957156,60.7408444 170.171822,60.7408444 C176.774044,60.7355111 187.362933,65.6226222 192.655822,68.5724 L192.913156,68.2630667 C177.614044,50.0955111 138.155378,47.0892889 112.589156,47.0781778 C110.042933,47.0781778 107.632267,47.1084 105.4016,47.1572889 C115.225156,44.6586222 126.199378,43.3310664 137.4456,43.3310664 C165.758933,43.3292889 195.771822,51.7572889 213.502933,71.0808444" id="Fill-46" fill="#C4CED3"></path>
                <path d="M213.502933,71.0808444 C207.159822,74.9488444 200.756267,76.4204019 194.310044,76.4204019 C184.049156,76.4235111 173.697156,72.6817333 163.470489,68.9101778 C165.268267,66.0372889 167.274044,63.2644 169.546044,60.7568444 C169.747378,60.7475111 169.957156,60.7408444 170.171822,60.7408444 C176.774044,60.7355111 187.362933,65.6226222 192.655822,68.5724 L192.913156,68.2630667 C177.614044,50.0955111 138.155378,47.0892889 112.589156,47.0781778 C110.042933,47.0781778 107.632267,47.1084 105.4016,47.1572889 C115.225156,44.6586222 126.199378,43.3310664 137.4456,43.3310664 C165.758933,43.3292889 195.771822,51.7572889 213.502933,71.0808444" id="Fill-48" fill="#C4CED3"></path>
                <path d="M228.619689,124.917689 C221.676578,130.815022 213.417467,133.881689 204.436133,134.9768 C209.845022,121.778133 215.470356,107.482133 229.018356,100.970578 C229.725467,104.815911 230.143689,108.766578 230.143689,112.705244 C230.143689,116.831022 229.6868,120.944356 228.619689,124.917689" id="Fill-50" fill="#C4CED3"></path>
                <path d="M228.619689,124.917689 C221.676578,130.815022 213.417467,133.881689 204.436133,134.9768 C209.845022,121.778133 215.470356,107.482133 229.018356,100.970578 C229.725467,104.815911 230.143689,108.766578 230.143689,112.705244 C230.143689,116.831022 229.6868,120.944356 228.619689,124.917689" id="Fill-52" fill="#C4CED3"></path>
                <polygon id="Fill-54" fill="#C4CED3" points="193.067156 35.5051111 200.893378 32.7695556 206.834267 39.51 206.1396 30.71 213.717378 27.4077778 205.472933 24.6997778 204.193822 15.9188889 199.792489 23.05 191.440933 20.9175556 196.978267 28.0353333"></polygon>
                <polygon id="Fill-56" fill="#FFFFFF" points="151.377467 41.8417333 156.812133 39.1586222 161.342356 43.1875111 160.459689 37.1990667 165.692578 34.1559556 159.716133 33.1346222 158.427689 27.2288444 155.625022 32.5959556 149.592133 31.9808444 153.829022 36.3097333"></polygon>
                <polygon id="Fill-58" fill="#FFFFFF" points="90.2676889 53.8619111 93.8463556 52.0939111 96.8210222 54.7468 96.2401333 50.8081333 99.6796889 48.8023556 95.7494667 48.1250222 94.9005778 44.2419111 93.0534667 47.7605778 89.0890222 47.3708 91.8770222 50.2165778"></polygon>
                <path d="M225.566267,107.909422 L225.559156,107.179644 L220.517378,115.629422 L221.964044,108.188089 L221.608044,108.019644 C214.214267,116.984089 211.390267,123.428089 209.092933,131.372089 L208.981378,131.7472 L209.353822,131.620978 C217.6516,128.740533 221.933378,125.416978 223.690711,124.020533 L223.729378,123.990756 L223.748933,123.946756 C224.983156,121.265867 225.568489,115.844089 225.572489,109.199644 C225.572489,108.771644 225.568489,108.343644 225.566267,107.909422" id="Fill-60" fill="#007DC5"></path>
                <path d="M208.698667,88.3417333 C200.623556,89.9817333 191.203111,90.9439556 182.571111,90.9439556 C181.274667,90.9439556 179.997333,90.9239556 178.744,90.8799556 L197.263556,85.4008444 L197.216,85.0026222 C184.988,84.4284 175.548444,84.1981778 163.600889,78.5955111 L163.427556,78.5150667 L163.335556,78.6804 C161.556889,81.8706222 160.547556,86.3426222 160.547556,90.8688444 C160.547556,93.4412889 160.873333,96.0332889 161.578222,98.4168444 L161.618667,98.5564 L161.764444,98.5626222 C161.771111,98.5626222 162.192889,98.5755111 162.98,98.5755111 C168.32,98.5732889 190.264444,97.9861778 208.831556,88.7239556 L208.698667,88.3417333 Z" id="Fill-62" fill="#007DC5"></path>
                <path d="M212.782844,103.362978 C203.443733,110.302089 196.412622,115.912311 182.643733,118.504311 C195.394844,111.8772 203.947289,107.319867 211.9904,99.1803111 L211.741511,98.8616444 C197.484178,107.161644 178.914844,110.718089 165.812622,111.210533 L165.458844,111.223867 L165.649956,111.523422 C176.433511,128.590533 190.080178,130.120756 194.517956,130.120756 L194.544178,130.120756 C195.463289,130.120756 195.981511,130.057644 195.9904,130.057644 L196.084622,130.043422 L196.136178,129.963422 C201.921956,120.811422 205.604178,112.000756 213.057067,103.662978 L212.782844,103.362978 Z" id="Fill-64" fill="#007DC5"></path>
                <path d="M203.2208,46.4920889 C202.543911,46.1365333 201.853689,45.8000889 201.137689,45.4783111 C212.165689,48.7507556 219.599911,53.0058667 223.757244,56.2427556 C223.1168,57.1912 222.4048,58.1049778 221.672356,58.9943111 C216.567467,53.7023111 210.335911,49.3903111 203.2208,46.4920889 M237.195911,108.248089 L237.157244,107.528978 C237.753244,104.560978 238.089689,101.582311 238.1928,98.6427556 C238.972356,98.4365333 239.769689,98.2752 240.573244,98.1254222 C239.718133,101.776978 238.653244,105.093422 237.195911,108.248089 M241.801689,88.9009778 C240.363022,89.0916444 239.030133,89.2983111 237.712356,89.5836444 C237.418578,87.4503111 236.990133,85.3383111 236.450578,83.2640889 C237.877689,82.0605333 239.249244,80.8400889 240.637689,79.5307556 C241.434578,82.6009778 241.769244,85.4774222 241.801689,88.9009778 M236.883022,70.7894222 C235.657244,72.1085333 234.474133,73.2765333 233.270133,74.3672 C231.9328,71.4912 230.3728,68.7365333 228.563911,66.1307556 C229.502578,64.9925333 230.417689,63.8214222 231.268356,62.5903111 C233.574578,65.1436444 235.575911,68.1258667 236.883022,70.7894222" id="Fill-66" fill="#FFFFFF"></path>
            </g>
        </g>
    </g>
</svg>