<?xml version="1.0" encoding="UTF-8"?>
<svg width="256px" height="256px" viewBox="0 0 256 256" version="1.1" xmlns="http://www.w3.org/2000/svg" xmlns:xlink="http://www.w3.org/1999/xlink">
    <!-- Generator: Sketch 63.1 (92452) - https://sketch.com -->
    <title>Teams/Defualt/DMavericks/256</title>
    <desc>Created with Sketch.</desc>
    <defs>
        <polygon id="path-1" points="0 0.208137703 255.999867 0.208137703 255.999867 255.179487 0 255.179487"></polygon>
    </defs>
    <g id="Teams/Defualt/DMavericks/256" stroke="none" stroke-width="1" fill="none" fill-rule="evenodd">
        <g id="Teams/Defualt/DMavericks/base">
            <g id="Group-48" transform="translate(0.000000, -0.000000)">
                <g id="Group-3">
                    <mask id="mask-2" fill="white">
                        <use xlink:href="#path-1"></use>
                    </mask>
                    <g id="Clip-2"></g>
                    <path d="M8.87675556,171.23946 C6.83053333,168.198608 -0.000133333333,156.643637 -0.000133333333,138.008434 C-0.000133333333,131.010746 0.967866667,123.025625 3.4892,114.151592 C3.51008889,114.096562 3.51675556,114.037982 3.52742222,113.97452 L4.62608889,109.673303 L4.89808889,109.941353 C5.06697778,109.432769 5.24608889,108.902883 5.42164444,108.368116 C6.30697778,105.708924 7.23008889,102.925026 7.44386667,102.266441 C7.58875556,101.697058 8.39808889,98.5101993 9.03497778,96.291691 C9.22831111,95.6175734 9.39008889,95.0694922 9.55897778,94.5941927 L9.59986667,94.2795453 C9.80697778,92.6268698 10.0687556,91.0416504 10.3785333,89.507467 C10.4887556,88.683792 10.6300889,87.8871882 10.7438667,87.2152895 L10.7923111,86.9210565 L10.9127556,86.6490129 C10.9852,86.4652837 11.0536444,86.3188329 11.1020889,86.2069977 C14.2847556,73.2105955 20.2505333,65.5250331 23.6060889,62.0408346 L23.6469778,61.9977869 L23.6883111,61.955183 C24.3429778,61.3476339 26.1892,59.6283899 28.3114222,58.309001 C29.2829778,57.0344349 32.4514222,52.9329239 35.3585333,49.6843781 C36.3509778,48.5891034 37.2949778,47.5914625 38.1869778,46.7850953 C38.6656444,45.6840513 39.8229778,43.3399504 41.9932,40.6314975 C44.8660889,37.0390141 49.5678667,32.8030346 56.7363111,30.1802333 C62.2403111,26.4470683 68.0692,23.1501494 74.1247556,20.2983522 C75.2820889,19.1032246 79.6736444,14.7647295 86.4976444,10.4013822 C94.4305333,5.34394663 105.704756,0.215060834 119.035422,0.207960187 C119.541644,0.207960187 120.054533,0.216835996 120.564756,0.23236866 L125.421644,0.375269173 L119.406978,8.44426645 C122.607422,8.20373205 125.842089,8.07991452 129.107422,8.07991452 C146.344311,8.07991452 162.802533,11.4420707 177.779867,17.5144549 L177.851867,17.5433013 L177.917644,17.5743666 C178.506533,17.8548421 179.536311,18.3674201 180.607867,19.0277802 C181.514089,19.6055953 182.436756,20.1905111 183.250089,21.0882991 C184.276311,21.205016 186.474089,21.5609359 188.926089,22.6602047 L189.002089,22.6908263 L189.064311,22.7254419 C205.281644,31.2142649 219.404311,43.0270781 230.426978,57.2443478 L230.526978,57.3699405 L230.606089,57.5092907 C230.778533,57.7946479 231.212311,58.6684712 231.584756,60.5119766 C231.770533,60.6304686 232.032311,60.7942273 232.3252,60.9903827 C232.9212,61.3893502 233.5892,61.8397975 234.236756,62.4912818 L234.381644,62.6426144 L234.505644,62.8165802 C248.066978,82.4787144 255.999867,106.163365 255.999867,131.633384 C255.999867,155.771589 248.872756,178.316142 236.565644,197.343656 L236.516756,197.412887 L236.472311,197.47413 C236.275867,197.727534 236.186533,197.811411 236.007422,197.981826 C235.848756,198.136265 235.648756,198.3089 235.394533,198.501061 C235.022089,198.788193 234.5332,199.118373 233.912756,199.486276 C233.8652,199.722372 233.795422,200.03702 233.706089,200.386283 C233.502978,201.156703 233.272311,202.055822 232.659422,203.043256 L232.624756,203.097842 L232.576311,203.167073 C209.587422,234.661104 171.7932,255.179753 129.107422,255.179753 C73.2807556,255.176647 25.8483111,220.084364 8.87675556,171.23946" id="Fill-1" fill="#FFFFFF" mask="url(#mask-2)"></path>
                </g>
                <path d="M232.483062,64.0617438 C231.751984,63.3076113 230.035908,62.3055084 230.035908,62.3055084 C229.405331,62.0642038 229.281261,61.4904943 229.281261,61.4904943 C228.936623,59.3587481 228.485258,58.5939503 228.485258,58.5939503 C217.673399,44.6471664 203.828277,33.0521025 187.926444,24.7188724 C185.086179,23.4425799 182.528741,23.3070405 182.528741,23.3070405 C181.949748,23.3239274 181.681153,22.8675373 181.681153,22.8675373 C180.743292,21.5468057 177.917258,20.1087546 176.85933,19.6043703 C162.159505,13.6437466 146.02643,10.3445839 129.107136,10.3445839 C123.972247,10.3445839 118.926298,10.6561023 113.963062,11.2453655 L120.484063,2.48329761 C94.3867165,1.70472364 75.658404,22.0787423 75.658404,22.0787423 L75.668632,22.1062946 C69.4095557,25.0183923 63.4164068,28.4108773 57.7776795,32.2686402 L57.791465,32.2357552 C44.1842554,37.1178406 40.2553787,48.0809798 40.2553787,48.0809798 C36.808551,50.9619701 29.9780422,60.0253355 29.9780422,60.0253355 C28.0236095,61.1514236 25.9869083,63.0134241 25.3732297,63.6004653 C22.2439139,66.8551889 16.5015728,74.2014254 13.4447422,86.8536968 C13.3651418,87.063894 13.2655303,87.2620926 13.1721444,87.4758449 C13.0551897,88.1797611 12.9173344,88.9769995 12.8070501,89.7657945 C12.5104389,91.2696155 12.2485137,92.826319 12.0417308,94.4514588 L12.1729157,94.2741466 C12.1248887,94.6136618 12.0866449,94.8154155 12.0866449,94.8154155 C11.7664648,95.0358337 9.80847456,102.83135 9.80847456,102.83135 C9.49185201,103.820121 5.93785289,114.49885 5.93785289,114.49885 L5.91383938,114.476186 C5.90672427,114.49885 5.90672427,114.526402 5.90672427,114.545511 C-3.44653694,147.206511 8.97778507,167.001932 11.0940866,170.04868 C27.6202715,218.096737 74.2109231,252.717949 129.107136,252.717949 C170.993363,252.717949 208.047095,232.569681 230.587329,201.67336 C231.228579,200.669035 231.552317,198.614613 231.552317,198.614613 C231.576775,197.944915 232.083727,197.635174 232.083727,197.635174 C233.820704,196.701063 234.419707,196.062916 234.49575,195.961151 C246.56565,177.298484 253.538462,155.207336 253.538462,131.534155 C253.538462,106.554907 245.773205,83.3474476 232.483062,64.0617438" id="Fill-4" fill="#061922"></path>
                <path d="M76.9206581,40.3331037 C77.2441924,39.9956536 77.5402108,39.6902146 77.7940677,39.4047825 C78.2139079,38.9699654 78.375897,38.8637064 78.4273785,38.8948283 C78.4890674,38.8410319 78.5165834,38.8081316 78.5165834,38.8081316 C78.6266472,32.5917586 80.0299609,27.59892 80.0299609,27.59892 C91.3190468,11.7965638 109.944685,7.60978189 109.944685,7.60978189 C112.259575,6.94332909 110.766613,7.9685727 110.766613,7.9685727 C99.0377157,21.1317936 100.258181,32.0080011 100.258181,32.0080011 L111.454956,72.9234905 C111.454956,72.9234905 102.380904,69.7254952 95.391408,55.3498548 C92.1578396,84.0295553 119.159867,107.286935 119.159867,107.286935 C120.335952,108.292617 118.485726,107.200239 118.485726,107.200239 C111.723014,103.818624 103.939106,96.6890464 101.81017,94.6870204 C102.380904,96.897563 115.523766,163.082684 115.561934,163.277418 C115.624067,163.585969 115.802476,164.225302 115.940056,164.650782 L120.49439,153.317528 L124.256975,186.736646 C107.141608,202.693722 88.9114008,196.374203 87.7863533,195.959392 C88.2235019,196.676085 88.5674514,197.199822 88.5674514,197.199822 C88.5674514,197.199822 103.378579,226.32501 163.675355,223.237719 C163.675355,223.237719 165.120386,223.229272 164.900259,223.416892 C164.923077,223.46402 164.845227,223.534266 164.576724,223.628966 C163.438363,224.04422 161.667134,224.328319 161.667134,224.328319 C88.863026,243.811059 51.1368776,181.662446 49.5063354,178.888597 C49.0456651,178.2546 45.5165221,173.265318 43.5420305,168.243136 C43.4834481,168.096419 43.3977936,167.603804 43.7346422,167.986159 C43.7346422,167.986159 51.4670691,176.052505 73.3227252,178.04964 C73.4878209,178.034079 73.5774696,178.011405 73.5774696,178.011405 C56.6746853,159.135541 49.4930213,145.464144 48.433657,143.370975 C48.433657,143.366085 48.4261123,143.366085 48.4127982,143.366085 C48.4127982,143.366085 46.3832746,140.304581 43.9756287,131.634915 C43.9756287,131.634915 44.0373177,131.200542 44.2436873,131.634915 C45.0660593,133.357289 50.6620055,141.620592 57.4659909,143.467453 L57.4793051,143.467453 C51.7080556,134.133113 48.1167798,119.364003 47.6561094,117.207256 C55.5292228,128.243964 69.4633907,129.038461 69.4633907,129.038461 C69.4425318,129.00067 69.4252234,128.973105 69.3914942,128.929979 C69.4252234,128.977996 69.4358747,129.009118 69.4358747,129.009118 C46.5070964,106.094523 51.446654,81.1485585 60.7541474,63.137438 C66.2333727,52.5017583 73.2366268,44.2838039 76.9206581,40.3331037" id="Fill-6" fill="#FFFFFF"></path>
                <path d="M145.724576,191.668468 L130.461538,207.589744 C130.475046,207.579478 130.485402,207.570551 130.496208,207.558946 L149.333333,193.226629 L139.582711,159.887957 L143.839828,119.794872 L136.400341,158.082079 L145.724576,191.668468 Z" id="Fill-8" fill="#BBC4CA"></path>
                <path d="M148.877783,94.0473305 C147.610893,100.788289 145.539596,107.689181 141.948718,110.769231 C142.214709,110.633023 142.533898,110.456393 142.906285,110.232749 C143.983549,109.577634 145.4199,108.537184 146.859683,107.012976 C149.732386,103.957093 152.615385,98.9560768 152.615385,91.1017311 C152.615385,87.588893 152.040072,83.5039829 150.626888,78.7692308 C150.484025,81.4815197 150.055007,87.6930259 148.877783,94.0473305" id="Fill-10" fill="#BBC4CA"></path>
                <path d="M149.168091,43.6851663 C154.376885,35.6521951 162.93444,34.9580989 166.564103,34.9198381 C163.430095,33.9849238 160.514371,33.6410256 157.91747,33.6410256 C152.418075,33.6396761 148.327593,35.1831625 146.635574,35.9506295 C146.389069,36.0640616 146.194599,36.1599387 146.051282,36.2315089 C147.390963,38.141849 148.709919,42.2096491 149.168091,43.6851663 L149.168091,43.6851663 Z M149.162101,44.5116681 L149.621301,44.3788681 L149.162101,44.5116681 Z" id="Fill-12" fill="#BBC4CA"></path>
                <path d="M135.570404,64.405564 L135.980004,64.182364 L135.570404,64.405564 Z M142.097994,59.8511002 C142.229892,59.8680786 142.327695,59.9775444 142.334424,60.105329 C142.348332,60.8447819 142.355061,61.5855752 142.355061,62.3303897 C142.348332,79.4973139 137.775848,98.2941622 136.02707,104.825028 C142.633663,89.7906771 144.410256,75.7419655 144.410256,64.957123 C144.410256,58.6371464 143.801459,53.4426572 143.18997,49.8276038 C142.870094,47.9443446 142.550217,46.4962679 142.320516,45.5356493 C140.644418,58.4588734 135.710783,64.3213276 135.686108,64.3490291 C135.630477,64.4169426 135.540302,64.4531334 135.460445,64.442857 C135.366231,64.433921 135.289515,64.3838795 135.24824,64.3061364 C127.128851,49.3825916 115.157485,40.2786083 109.684592,36.6671292 C108.73887,36.0402698 107.987407,35.5814068 107.487179,35.2820513 C122.932323,68.7053227 127.452317,94.491453 128.61428,102.993151 C128.648825,102.012873 128.669463,101.017404 128.669463,100.008084 C128.669463,84.7418446 124.747499,66.333265 122.782928,58.0938384 C122.128819,55.3460224 121.69454,53.7321832 121.69454,53.7286088 C121.666725,53.6195898 121.708448,53.503422 121.805802,53.4395297 C121.895977,53.3774245 122.021595,53.3841265 122.118949,53.4515932 C129.058877,58.8274829 133.93419,74.0780848 134.796017,76.9072182 C136.089879,75.3058893 137.793345,71.309716 139.170653,67.6388127 C140.665503,63.6636389 141.809522,60.0396495 141.812662,60.0342879 C141.847656,59.9221413 141.952187,59.849313 142.063449,59.849313 C142.077356,59.849313 142.087675,59.8511002 142.097994,59.8511002 L142.097994,59.8511002 Z" id="Fill-14" fill="#BBC4CA"></path>
                <path d="M13.1282051,128.856914 C13.135318,144.676481 15.8537685,161.232929 29.4633588,182.355629 L29.4842528,182.384535 C42.3354332,209.468979 66.0297414,224.047814 77.0760306,229.640006 C80.752496,231.501106 83.0126109,232.364727 83.0335049,232.374955 C100.584515,240.650511 117.095268,243.692308 131.889596,243.692308 C162.871485,243.692308 186.355964,230.334639 196.154833,223.656916 C199.427643,221.433825 201.164073,219.958287 201.164073,219.955174 L201.33656,220.154848 L201.167629,219.95384 C201.819346,219.417523 202.307911,218.991938 202.666667,218.673083 C202.470174,218.779813 202.273681,218.89855 202.081188,219.013729 C201.378348,219.431309 200.733299,219.849778 200.730187,219.855115 C176.653118,233.989687 154.464516,238.308238 136.355145,238.308238 C107.978345,238.308238 89.6209129,227.725542 89.6035753,227.717093 C29.4460212,196.158005 28.567137,141.457691 28.567137,141.419891 C28.567137,141.297596 28.6431558,141.190422 28.7671865,141.161516 C28.8876608,141.13261 29.0050231,141.187309 29.0637043,141.295818 C36.8260698,156.337148 46.2355095,161.469068 50.4254353,163.099365 C51.0318075,163.33328 51.5243739,163.49382 51.8893531,163.600994 C34.3970242,141.548856 29.38734,122.992116 29.38734,109.000739 C29.38734,90.4680135 38.1592886,79.9764824 38.1801826,79.9506894 C38.2557569,79.8590797 38.3869005,79.8279502 38.4940381,79.8817598 C38.6073995,79.9333458 38.6625242,80.0503038 38.6420747,80.1694853 C37.3879866,86.7008992 36.9118688,92.4651933 36.905645,97.4579205 C36.9118688,109.665577 39.7721322,117.264288 41.1915946,120.288296 C41.2329381,120.376348 41.2742817,120.462622 41.3156252,120.541779 C40.7848272,116.097376 40.5474351,111.806397 40.5474351,107.673733 C40.5474351,66.4226978 64.7103037,41.0085734 69.8093434,36.1025641 C65.9919542,37.7035099 61.3543621,41.8050439 57.577872,45.675775 C53.3955036,49.9529684 50.2391669,53.9268715 50.2324986,53.9335421 C50.1635927,54.0198153 50.0462303,54.0558366 49.9430937,54.0198153 C49.839957,53.9802363 49.7639382,53.8801772 49.7710511,53.768111 C49.8052818,50.4959558 51.6728551,46.3748546 52.6855501,44.3812325 C49.5781144,47.2073464 46.9970313,51.6397426 45.1605768,55.5140313 C43.1276292,59.8050106 42.0046847,63.3929079 42.0046847,63.4018021 L41.9495599,63.4965247 C32.3783024,74.3309251 27.7473786,85.8995369 26.0349548,90.997215 C25.4592568,92.6977752 25.2183082,93.6681262 25.2183082,93.6681262 C24.9978092,94.5473122 24.8737785,94.9777888 24.7568607,95.2001423 C24.701736,95.2624013 24.701736,95.3815829 24.4536746,95.4176041 C24.2536251,95.4051523 24.1985003,95.2655143 24.1776062,95.2192647 C24.1500439,95.1592293 24.1433755,95.1107562 24.1362627,95.0573913 C24.1224815,94.9502169 24.1158132,94.8261436 24.1158132,94.6869503 C24.1158132,94.1835418 24.1776062,93.4924669 24.1776062,93.4924669 C24.3603181,85.7047552 27.5957855,76.9484714 28.8978855,73.7123374 C19.7262824,83.5799444 17.4799487,96.9598485 17.4799487,107.652832 C17.4799487,112.707374 17.9827398,117.157113 18.4859755,120.339882 C18.9887666,123.523096 19.4853339,125.429111 19.4853339,125.434448 L19.4920022,125.499819 C19.5164527,131.788423 20.7527587,139.560126 21.979729,145.757564 C23.2133676,151.951446 24.4261122,156.555943 24.4261122,156.548828 C24.832435,157.749982 24.984028,158.301419 24.9978092,158.602931 C24.9911409,158.658519 24.9911409,158.707881 24.9635785,158.782147 C24.9426845,158.856414 24.8115409,158.971593 24.6879548,158.963143 C24.4843488,158.937795 24.4603429,158.858192 24.3914369,158.80127 C24.3363122,158.737232 24.2745191,158.661632 24.2193944,158.57358 C24.102032,158.401478 23.971333,158.176012 23.8468577,157.953658 C23.6059092,157.524516 23.3854102,157.098931 23.3854102,157.09315 C16.9802695,147.277573 13.8554962,131.08712 13.1384299,127.002485 C13.135318,127.619294 13.1282051,128.236103 13.1282051,128.856914" id="Fill-16" fill="#BBC4CA"></path>
                <path d="M154.268128,51.3827245 L154.137175,51.2625473 L154.199322,51.095807 C157.137546,43.2559078 170.9373,36.2856303 173.617169,34.9783152 C167.197379,31.3778773 161.039049,30.296726 155.926122,30.2949521 C152.0588,30.2949521 148.801406,30.9206718 146.509512,31.5428438 C144.218061,32.1645723 142.910754,32.7800924 142.910754,32.7800924 L142.910754,32.7818663 L142.721649,32.8692275 L142.598243,32.7078087 C140.220674,29.7450638 137.127526,26.7947358 134.630102,24.591635 C132.235221,22.4794431 130.398332,21.0546116 130.239857,20.9362082 C129.88917,20.7078272 129.668992,20.5756766 129.641026,20.2453002 C129.641026,20.0546131 129.779081,19.9242364 129.882067,19.8692476 C129.992156,19.8071634 130.109348,19.7761213 130.239857,19.7504007 C130.494216,19.7025072 130.797405,19.6923077 131.065525,19.6923077 C131.399343,19.6923077 131.678117,19.7113764 131.746923,19.7144806 C186.780359,19.7300016 216.037861,59.0110942 216.04452,59.0212937 C216.42628,59.4612043 216.615385,59.8891416 216.615385,60.2980101 C216.567887,61.4838176 215.22551,62.0474531 214.011423,62.4292707 C212.776472,62.8035495 211.551287,62.9396912 211.551287,62.9396912 C206.239046,63.6784927 201.305902,64 196.750523,64 C168.139794,64 154.302309,51.4119928 154.268128,51.3827245" id="Fill-18" fill="#0064B1"></path>
                <path d="M135.567742,211.051742 C135.475559,211.020706 135.41028,210.943559 135.389991,210.849121 C135.369261,210.754239 135.41028,210.654481 135.482175,210.594626 L153.828912,195.756744 L144.520576,161.103688 L144.517047,161.005703 L147.087602,137.767699 C147.094659,137.686562 147.135678,137.618282 147.204044,137.575275 C147.265353,137.532712 147.347833,137.519854 147.419286,137.542466 C151.59357,138.832678 153.548832,144.5371 154.560646,149.866429 C155.271651,153.682531 155.47322,157.337688 155.534969,159.116939 C160.406144,148.521683 161.995759,140.010274 161.995759,133.410684 C161.995759,124.060415 158.806384,118.54487 157.233529,116.379885 C156.710861,115.658519 156.368591,115.320226 156.368591,115.320226 C156.269792,115.218694 156.269792,115.055533 156.368591,114.950898 C156.468273,114.849365 156.63191,114.844045 156.734238,114.943804 C178.585274,135.750357 182.974359,164.873236 182.974359,184.953102 C182.974359,198.514517 180.971461,207.966317 180.971461,207.977845 L180.964845,208.007108 C180.243696,210.14815 178.038348,210.691281 178.004385,210.701478 C169.109773,212.684237 161.267994,213.333333 154.827052,213.333333 C142.743065,213.333333 135.588031,211.057062 135.567742,211.051742" id="Fill-20" fill="#0064B1"></path>
                <path d="M187.681615,208.885332 C187.336285,208.612548 187.121681,208.149439 187.12882,207.507149 C187.12882,207.211633 187.166744,206.876002 187.259992,206.480644 C187.259992,206.474403 187.979205,203.712243 188.698418,198.94833 C189.410938,194.184417 190.129705,187.436135 190.129705,179.504451 C190.129705,158.474682 185.081829,129.138819 161.629776,106.335954 C161.539651,106.277118 161.211722,106.048907 160.993549,105.810444 C160.917701,105.711938 160.8307,105.62725 160.820513,105.433806 C160.813746,105.309448 160.910563,105.159239 161.017642,105.117786 C161.125167,105.064299 161.214845,105.055385 161.32594,105.055385 C161.560621,105.055385 161.878734,105.1111 162.383789,105.245709 C162.404759,105.255961 168.635856,107.144054 173.013596,112.051491 C172.975226,111.745277 172.923472,111.36017 172.861009,110.904193 C172.667821,109.658837 172.33543,107.902233 171.747389,105.857245 C170.579337,101.768606 168.407421,96.536681 164.437473,91.9662129 C164.43078,91.9630928 163.881109,91.388107 163.579949,90.9869542 C163.490271,90.8331789 163.407285,90.777909 163.379623,90.5537091 C163.379623,90.5033421 163.393454,90.4119684 163.462609,90.342881 C163.538903,90.2702277 163.628581,90.2564103 163.676767,90.2564103 C163.870401,90.2720106 163.950264,90.3357494 164.140329,90.4462893 C164.316563,90.5586121 164.555259,90.7244219 164.876942,90.9660051 C166.280567,91.6452906 225.186429,120.11912 227.25082,177.621262 C227.25082,177.627056 227.282051,177.954664 227.282051,178.473489 C227.274913,179.872175 227.057186,182.675342 225.197137,184.273267 C224.626496,184.983308 210.66966,202.328712 190.129705,208.98874 C190.115874,208.992306 189.507755,209.227649 188.823343,209.230769 C188.439197,209.227649 188.020698,209.158116 187.681615,208.885332" id="Fill-22" fill="#0064B1"></path>
                <path d="M232.08801,168.317324 C231.929218,167.907363 231.846254,167.336886 231.821722,166.571654 C230.484038,111.37852 169.782433,76.6327551 154.60982,68.8301536 C152.445617,67.7158773 151.22212,67.1507357 151.22212,67.1507357 L150.153846,66.6594048 L151.326048,66.6473994 L151.471012,66.6473994 C159.428873,66.6527351 164.303236,71.4410993 165.748417,73.093394 L165.748417,73.0916154 C165.748417,71.6407442 165.461165,70.1160621 165.174359,68.9546537 C164.876848,67.7914667 164.590042,67.0026694 164.590042,67.0026694 L164.392891,66.4615385 L164.929035,66.666519 C171.283369,69.0787092 179.472281,69.8799565 187.499724,69.8781779 C195.257312,69.8781779 202.876626,69.1302878 208.545838,68.3841763 C214.219064,67.6367308 217.935498,66.8901746 217.942189,66.8901746 L217.95557,66.8870621 L217.969843,66.8852836 C218.266908,66.8594943 218.550146,66.8470442 218.812865,66.8470442 C222.04222,66.8403746 223.072134,68.651407 223.210854,68.9648805 C230.795376,77.3975416 240.198418,96.9529561 241.767598,120.435016 C241.961627,123.383001 242.051282,126.245171 242.051282,129.005516 C242.037901,149.606732 237.093955,164.623227 234.186644,168.184376 C233.761565,168.691269 233.377968,169.011857 232.924787,169.025641 C232.530485,169.025641 232.240557,168.724173 232.08801,168.317324" id="Fill-24" fill="#0064B1"></path>
                <path d="M103.280413,13.274003 C103.314849,13.2276128 103.367174,13.184757 103.384615,13.1282051 L103.367174,13.1357159 C102.690978,13.3256949 90.5664141,16.8593048 86.9756898,35.1255668 C86.9756898,35.1255668 86.9479622,35.4595765 87.1456332,35.1516337 C88.2372956,33.3742254 92.0225603,27.7088742 95.5095297,29.3899676 C95.5095297,29.3899676 95.5301017,29.2516806 95.5578293,29.0153113 C95.744767,27.4694123 96.8815987,21.1205784 103.280413,13.274003" id="Fill-26" fill="#061922"></path>
                <path d="M93.2636431,179.132702 C90.6666083,173.874782 73.9877857,137.155098 73.9877857,137.155098 C68.793273,138.825108 62.3589744,134.564103 62.3589744,134.564103 L62.3589744,134.583308 C70.5693983,156.547586 89.8869217,175.757843 92.9679915,179.239897 C92.9954734,179.262676 93.0025655,179.268036 93.0163064,179.289028 C93.5384615,179.866988 93.5384615,179.653938 93.5384615,179.653938 C93.4631081,179.546743 93.3873114,179.364958 93.2636431,179.132702" id="Fill-28" fill="#061922"></path>
                <path d="M76.8534314,60.3399383 C61.9022016,94.7567871 95.5427987,108.946474 95.9863588,109.121556 L96,109.128205 L94.2195993,101.201608 L93.2035475,96.6618655 C92.3507505,96.383506 91.5767207,96.0745624 90.8088513,95.7310454 C90.5496679,95.6189038 90.2979652,95.490362 90.0453824,95.3751176 C89.7347144,95.2221972 89.4178858,95.0728227 89.1243793,94.9185725 C74.4252922,87.0447216 75.8505809,68.1947295 76.7579428,62.0730365 C76.7579428,62.0251657 76.7579428,61.9874897 76.7649835,61.9444947 C76.7988665,61.7676389 76.826149,61.5921128 76.8534314,61.4307707 C76.9423195,60.8572082 77.0171262,60.4671503 77.0650906,60.2592672 C77.0787318,60.1666284 77.091933,60.1045738 77.091933,60.1045738 L77.091933,60.0806384 C77.1332967,59.6218771 76.9216376,60.1457958 76.8534314,60.3399383" id="Fill-30" fill="#061922"></path>
                <path d="M99.2974326,157.469125 L96.8205128,114.051282 L111.589744,162.461538 C111.589744,162.461538 106.743498,151.021129 99.2974326,157.469125" id="Fill-32" fill="#BBC4CA"></path>
                <path d="M100.179866,33.4434966 L103.475972,59.12892 C103.475972,59.12892 105.085034,66.1481642 95.1794872,55.6230402 C102.319842,69.8587701 111.589744,73.025641 111.589744,73.025641 L100.239713,32.8205128 C100.218404,32.8909562 100.140875,32.958758 100.179866,33.4434966" id="Fill-34" fill="#BBC4CA"></path>
                <path d="M84.9919329,80.4996323 C84.0968253,78.3638846 83.7333387,76.4071176 83.7333387,74.6609423 C83.7364116,68.348087 88.3159911,64.7969667 88.3361848,64.7769316 L88.4722728,64.673194 C88.4722728,64.7368613 88.2409232,60.6617104 88.6153846,54.1538462 C84.9339857,59.6523837 77.1286826,72.6872568 86.4717797,82.8717949 C86.3220829,82.6598674 86.186434,82.4679752 86.0600039,82.2818708 C85.580184,81.5744072 85.246988,81.0031826 84.9919329,80.4996323" id="Fill-36" fill="#BBC4CA"></path>
                <path d="M95.0720499,85.5182704 C93.4351041,82.7527497 89.2541153,73.9332877 88.600425,65.0042698 C88.5899986,64.9470913 88.586372,64.8824926 88.586372,64.8205128 L88.4458422,64.9217756 C88.4249894,64.9418535 83.6954809,68.4227607 83.6923077,74.6115735 C83.6923077,76.3238743 84.0681116,78.2417559 84.9924352,80.3355379 C85.2558153,80.8291939 85.5998867,81.3896308 86.0953676,82.0827569 C86.225471,82.2656409 86.3660008,82.4533262 86.5205837,82.6610895 C86.6996458,82.88282 86.906814,83.0875279 87.1316617,83.3210433 C88.7513812,85.024178 91.4989659,86.7866737 96,86.974359 C96,86.974359 95.6273693,86.4654263 95.0720499,85.5182704" id="Fill-38" fill="#061922"></path>
                <path d="M115.278769,188.333128 L115.278769,188.333128 L115.278769,188.370872 C115.278769,188.338872 115.285333,188.30441 115.285333,188.269949 C115.285333,188.259282 115.285333,188.250256 115.278769,188.244513 L115.278769,188.333128 Z" id="Fill-40" fill="#BBC4CA"></path>
                <path d="M107.922411,168.127678 C109.392801,168.145117 110.510974,169.529487 111.427693,171.453118 C112.351344,173.391504 113.086106,175.949191 113.657106,178.501512 C114.368906,181.681628 114.825966,184.857273 115.074208,186.796554 C115.067709,187.671622 115.060778,188.314621 115.03695,188.687096 L115.03695,188.717949 C115.349744,186.614565 118.338179,166.224617 108.298457,163.353479 C108.298457,163.353479 101.314321,161.511677 101.764449,176.533166 C101.808206,176.189757 101.84503,175.890167 101.871458,175.612936 C104.164989,170.295452 106.082041,168.169263 107.922411,168.127678" id="Fill-42" fill="#BBC4CA"></path>
                <polygon id="Fill-44" fill="#061922" points="115.282051 188.296615 115.282051 188.307282 115.282051 188.318769"></polygon>
                <path d="M115.66208,186.767501 C115.619506,186.13484 114.924735,181.681755 114.180597,178.519781 C113.583656,175.98202 112.815061,173.438925 111.8499,171.511597 C110.891534,169.59894 109.722562,168.222467 108.185371,168.205128 C106.261391,168.246476 104.257245,170.360535 101.859517,175.647683 C101.71232,176.03226 101.747195,176.082055 101.747195,176.562664 L105.362809,184.383127 C105.362809,184.383127 107.44078,163.446161 115.605466,188.615691 C115.612712,188.664597 115.612712,188.702388 115.619506,188.717949 L115.619506,188.669488 C115.623129,188.673044 115.623129,188.677935 115.623129,188.683715 L115.623129,188.677935 L115.623129,188.647258 C115.647587,188.276908 115.739075,187.813194 115.66208,186.767501" id="Fill-46" fill="#061922"></path>
            </g>
        </g>
    </g>
</svg>