<?xml version="1.0" encoding="UTF-8"?>
<svg width="256px" height="256px" viewBox="0 0 256 256" version="1.1" xmlns="http://www.w3.org/2000/svg" xmlns:xlink="http://www.w3.org/1999/xlink">
    <!-- Generator: Sketch 63.1 (92452) - https://sketch.com -->
    <title>Teams/Defualt/BklynNets/256</title>
    <desc>Created with Sketch.</desc>
    <defs>
        <polygon id="path-1" points="9.13423484e-05 4.44444444e-05 250.853333 4.44444444e-05 250.853333 256 9.13423484e-05 256"></polygon>
    </defs>
    <g id="Teams/Defualt/BklynNets/256" stroke="none" stroke-width="1" fill="none" fill-rule="evenodd">
        <g id="Teams/Defualt/BklynNets/base">
            <g id="Group-14">
                <g id="Group-3">
                    <mask id="mask-2" fill="white">
                        <use xlink:href="#path-1"></use>
                    </mask>
                    <g id="Clip-2"></g>
                    <path d="M250.801289,34.6987111 C250.822178,32.0333778 250.822178,30.5320444 250.822178,30.5320444 L250.822178,27.2613778 L247.865733,25.7689333 C245.789289,24.7196 196.067956,4.44444444e-05 127.025289,4.44444444e-05 L123.823956,4.44444444e-05 C54.8297333,4.44444444e-05 5.0604,24.7196 2.98395556,25.7689333 L0.0208444444,27.2613778 L0.0208444444,30.5320444 C0.0208444444,30.5320444 0.0208444444,32.0333778 0.0479555556,34.5360444 C-0.508933333,63.9267111 3.09373333,138.545378 48.7372889,196.5196 C85.7515111,243.574711 120.440844,254.4876 124.276844,255.573378 L125.759956,256.000044 L127.238178,255.580933 C128.730622,255.163156 164.073289,244.846711 202.105733,196.5196 C247.789733,138.524933 251.385733,64.0000444 250.801289,34.6987111" id="Fill-1" fill="#061922" mask="url(#mask-2)"></path>
                </g>
                <path d="M125.760089,248.017067 C122.943644,247.212178 89.9178667,237.056622 54.4374222,191.942844 C7.67342222,132.553956 7.47386667,54.7886222 7.82497778,36.4775111 C7.79742222,33.9059556 7.79742222,32.4481778 7.79742222,32.4481778 C7.79742222,32.4481778 7.84542222,32.4255111 7.94142222,32.3748444 L7.94142222,32.2192889 L8.98675556,31.7330667 C11.4694222,30.5984 17.0045333,28.1757333 25.0218667,25.2970667 C44.9485333,18.0086222 80.6352,7.76328889 123.844533,7.76328889 L126.9912,7.76328889 C170.110756,7.76328889 205.708089,17.9512889 225.662311,25.2375111 C233.769422,28.1437333 239.366311,30.5917333 241.855644,31.7330667 L242.900978,32.2117333 L242.900978,32.3748444 C242.996978,32.4255111 243.052089,32.4481778 243.052089,32.4481778 C243.052089,32.4481778 243.052089,33.9059556 243.024978,36.4775111 C243.382311,54.7886222 243.196533,132.553956 196.411644,191.942844 C160.841867,237.143733 128.462756,247.267289 125.760089,248.017067 M198.832089,193.936622 C243.526756,137.181511 247.040533,64.0668444 246.462756,35.2695111 C246.490756,32.5926222 246.490756,31.1095111 246.490756,31.1050667 L246.490756,30.0188444 L245.513867,29.5304 C243.478311,28.4966222 194.788978,4.30417778 127.018756,4.30417778 L123.824089,4.30417778 C56.1018667,4.30417778 7.37831111,28.4966222 5.33564444,29.5304 L4.35253333,30.0188444 L4.35253333,31.1050667 C4.35253333,31.1095111 4.35253333,32.5926222 4.38008889,35.1072889 C3.8232,63.9997333 7.35697778,137.200178 52.0240889,193.936622 C88.1236444,239.825511 121.582311,250.364178 125.272533,251.406844 L125.773867,251.546844 L126.2552,251.413956 C127.692533,251.014844 161.721867,241.065067 198.832089,193.936622" id="Fill-4" fill="#FFFFFF"></path>
                <path d="M211.875956,69.1527111 C195.250178,51.9669333 193.345289,49.1869333 193.345289,42.1158222 C193.345289,35.1184889 196.404844,34.1762667 199.403067,34.1762667 C200.957289,34.1762667 202.882622,34.4998222 205.0964,35.1367111 C217.122622,38.5887111 217.122622,45.1482667 217.122622,50.0140444 L217.122622,56.9913778 C217.122622,57.5478222 217.473289,58.0407111 218.002178,58.2220444 C220.911511,59.2096 222.362178,59.7233778 225.401733,60.8509333 C225.793289,60.9971556 226.247067,60.9398222 226.597289,60.6993778 C226.9484,60.4544889 227.154622,60.0576 227.154622,59.6269333 L227.154622,53.7962667 C227.154622,46.4273778 227.154622,34.1029333 205.659956,27.9376 C190.622622,23.6193778 182.9484,28.2376 182.9484,41.2838222 C182.9484,52.1180444 189.590622,58.6047111 200.5924,69.3500444 L202.813289,71.5224889 C215.870622,84.3233778 218.518178,88.5473778 218.518178,96.6593778 C218.518178,99.5700444 218.078178,101.6056 217.170622,102.879822 C216.249289,104.179378 214.777733,104.779822 212.522622,104.779822 C210.789733,104.779822 208.582178,104.392711 205.976844,103.640711 C200.262178,101.997156 196.115956,99.7553778 193.647511,96.9731556 C190.643067,93.5900444 190.643067,90.7180444 190.643067,84.9998222 L190.643067,78.8020444 C190.643067,78.1922667 190.223067,77.6673778 189.631956,77.5322667 C186.420844,76.8104889 184.880844,76.4869333 181.799956,75.8820444 C181.415067,75.8087111 181.015956,75.9096 180.720844,76.1549333 C180.418178,76.4024889 180.246178,76.7713778 180.246178,77.1611556 L180.246178,88.1193778 C180.246178,98.4287111 188.675956,106.281156 204.6284,110.835378 C209.125733,112.1256 213.017289,112.770044 216.201289,112.770044 C228.695067,112.770044 228.695067,102.703378 228.695067,98.4029333 C228.695067,87.0740444 222.925733,80.5807111 211.875956,69.1527111 M178.410178,22.5469333 C162.547067,19.6358222 146.326622,18.0678222 130.2164,17.8869333 C129.858622,17.8731556 129.5284,18.0131556 129.2804,18.2607111 C129.033289,18.5082667 128.895956,18.8380444 128.895956,19.1842667 L128.895956,24.1696 C128.895956,24.8798222 129.466622,25.4593778 130.181733,25.4709333 C137.738178,25.5562667 141.6164,25.7233778 148.767511,26.2896 L148.767511,98.3758222 C148.767511,99.0562667 149.283511,99.6202667 149.963511,99.6776 C153.113289,99.9322667 154.653289,100.081156 157.823511,100.425156 C157.864844,100.434044 157.919511,100.438933 157.960844,100.438933 C158.283956,100.438933 158.593289,100.3216 158.833733,100.104267 C159.102178,99.8544889 159.267511,99.5033778 159.267511,99.1322667 L159.267511,27.3029333 C166.439511,28.1069333 170.379067,28.6984889 177.942622,30.0878222 C178.327956,30.1607111 178.719511,30.0549333 179.015067,29.8056 C179.303956,29.5602667 179.475956,29.1936 179.475956,28.8038222 L179.475956,23.8282667 C179.475956,23.1927111 179.029289,22.6567111 178.410178,22.5469333 M122.249289,18.0130493 C108.744844,18.2353778 95.1301778,19.4389333 81.7768444,21.5771556 C81.1444,21.6780444 80.6835111,22.2260444 80.6835111,22.8629333 L80.6835111,101.018489 C80.6835111,101.4016 80.8488444,101.761156 81.1444,102.008711 C81.3777333,102.212711 81.6808444,102.315822 81.9835111,102.315822 C82.0519556,102.315822 82.1208444,102.315822 82.1897333,102.306933 C95.3639556,100.190933 108.799956,99.0060444 122.1324,98.7744889 C122.847956,98.7678222 123.418178,98.1856 123.418178,97.4731556 L123.418178,92.6042667 C123.418178,92.2562667 123.274178,91.9193778 123.026178,91.6762667 C122.779067,91.4353778 122.421289,91.3002667 122.091067,91.3051556 C109.597733,91.5158222 102.927511,91.9904889 90.9910667,93.5398222 L90.9910667,62.6158222 C100.899067,61.3278222 106.131956,60.9016 116.501289,60.5184889 C117.202178,60.4913778 117.759511,59.9158222 117.759511,59.2144889 L117.759511,54.4562667 C117.759511,54.0984889 117.614622,53.7620444 117.353733,53.5162667 C117.106178,53.2731556 116.762622,53.1358222 116.404844,53.1544889 C106.262622,53.5300444 100.789289,53.9656 91.1492889,55.2122667 L91.1492889,27.7287111 C103.305733,26.1451556 109.645733,25.6958222 122.297733,25.4896 C123.005733,25.4780444 123.5764,24.8962667 123.5764,24.1900444 L123.5764,19.3193778 C123.5764,18.9664889 123.439067,18.6296 123.1844,18.3887111 C122.936844,18.1438222 122.593289,18.0087111 122.249289,18.0130493 M70.5137333,23.6127111 C67.3990667,24.2429333 65.8932889,24.5682667 62.8399556,25.2740444 C62.2488444,25.4069333 61.8292889,25.9407111 61.8364,26.5580444 L62.4684,83.4118222 C62.4684,87.1887111 62.5652889,90.6518222 62.7230667,93.7598222 C55.0359556,74.1149333 47.0319556,53.7824889 38.8768444,33.1976 C38.6226222,32.5513778 37.9079556,32.2211556 37.2546222,32.4411556 C32.7164,33.9424889 30.5159556,34.7216 26.0532889,36.4038222 C25.5515111,36.5922667 25.2141778,37.0802667 25.2141778,37.6211556 L25.2141778,115.7816 C25.2141778,116.207822 25.4204,116.606489 25.7715111,116.852267 C25.9910667,117.002933 26.2528444,117.081156 26.5141778,117.081156 C26.6652889,117.081156 26.8301778,117.055822 26.9750667,116.996267 C29.7319556,115.955822 31.1208444,115.451378 34.0501778,114.434044 C34.5795111,114.250489 34.9301778,113.755378 34.9230667,113.200711 C34.8204,94.7038222 34.7172889,76.2167111 34.6204,57.7384889 C34.6204,52.8722667 34.5590667,50.1540444 34.4008444,46.7069333 C42.4181778,67.1104889 50.2292889,87.0878222 57.6421778,106.191822 C57.8826222,106.803378 58.5359556,107.1496 59.1684,106.982489 C63.9266222,105.806489 66.2577333,105.286489 71.0226222,104.326044 C71.6275111,104.200267 72.0679556,103.670489 72.0679556,103.046933 L72.0679556,24.8891556 C72.0679556,24.5016 71.8888444,24.1327111 71.5932889,23.8829333 C71.2910667,23.6353778 70.8919556,23.5389333 70.5137333,23.6127111" id="Fill-6" fill="#FFFFFF"></path>
                <path d="M169.230578,200.530933 C168.481244,201.060267 167.7248,201.607822 166.8928,202.181156 C164.699911,203.707378 162.567911,204.9936 160.298578,206.354933 C159.239911,206.998933 158.146578,207.647378 157.018578,208.349156 C149.241689,213.162044 139.931911,218.498489 129.947467,221.5536 C127.046133,222.458933 124.379911,223.102933 121.7888,223.510489 C119.382133,223.863378 117.133244,224.042489 114.885244,224.042489 L114.451911,224.040267 C111.5088,224.019822 108.641689,223.744267 105.898133,223.235378 C116.342578,226.939378 127.947022,227.742044 139.505244,224.878933 C146.134133,223.235378 152.198578,220.517156 157.575467,216.964711 C162.7328,212.935378 166.899911,207.196267 169.567911,200.288267 C169.457689,200.366044 169.347911,200.448267 169.230578,200.530933 L169.230578,200.530933 Z M116.329244,221.1176 C122.9648,220.340711 128.462578,218.662933 134.7128,215.520711 C135.634133,215.071822 136.528356,214.606044 137.422133,214.138489 C138.1848,213.742489 138.941689,213.347822 139.7048,212.958489 C145.013244,210.178044 150.713689,207.159378 157.610133,203.466489 C160.037244,202.160267 162.4648,200.778489 164.809689,199.4376 L167.559911,197.904711 C168.625689,197.3336 169.629244,196.797156 170.633244,196.1856 C170.722578,196.1256 170.846578,196.047822 170.970133,195.971822 C171.851022,192.742933 172.421244,189.240711 172.689244,185.540711 C165.909244,188.930933 155.739911,191.914933 140.805244,194.906489 C121.6928,198.708267 102.989689,197.003378 86.2945778,189.955378 C75.0728,185.231378 69.7643556,178.686044 67.5363556,175.080267 C67.8252444,177.647378 68.2723556,180.214489 68.9252444,182.790489 C72.6043556,197.354489 81.5430222,209.236267 93.2390222,216.937156 L93.1839111,216.840711 L94.8279111,217.812711 C96.1612444,218.601156 97.8190222,219.284267 99.7581333,219.8456 C103.402133,220.934489 106.998578,221.475378 110.752356,221.475378 C112.526578,221.475378 114.355911,221.351822 116.329244,221.1176 L116.329244,221.1176 Z M175.907467,196.618489 C175.859467,196.391822 175.804356,196.382044 175.687467,196.382044 C175.508356,196.382044 175.103022,196.460711 174.284356,196.9896 C174.147467,197.092711 173.982133,197.195822 173.823911,197.299378 C173.686133,197.400267 173.5488,197.484711 173.425244,197.574044 C171.967022,201.420267 170.049244,205.055822 167.8488,208.300267 C171.046133,204.896711 173.810578,201.122044 176.086133,197.078933 L176.003467,197.078933 L175.907467,196.618489 Z M178.135022,182.194489 C177.935911,182.336711 177.736356,182.483378 177.543911,182.632711 C177.2208,182.866489 176.897244,183.106933 176.547022,183.340267 C176.271911,187.033156 175.591022,190.684711 174.539022,194.218489 C176.375022,193.578933 177.000356,194.3216 177.186133,194.7416 C177.206578,194.802933 177.2208,194.865156 177.241244,194.926933 C180.246133,189.020711 182.233689,182.591378 183.051467,175.901156 C182.123467,178.133156 180.617689,180.459822 178.135022,182.194489 L178.135022,182.194489 Z M176.725244,179.022489 C176.870133,178.919378 177.014578,178.816267 177.145244,178.726933 C182.034133,175.322933 183.292356,169.808711 183.471467,168.898933 C183.463911,164.275822 182.900356,159.577156 181.710578,154.887378 C181.662578,154.699822 181.607911,154.516711 181.5528,154.330933 C181.099022,158.632711 178.994578,162.618489 175.247022,166.182933 C176.237689,170.475822 176.7328,174.791378 176.725244,179.022489 L176.725244,179.022489 Z M89.5945778,186.067822 C103.381244,190.608711 111.041689,192.066489 121.1008,192.066489 C124.764356,192.066489 128.9368,191.8536 134.238578,191.413156 C148.953244,190.147822 164.4448,185.286933 172.778578,181.2456 C172.765244,177.202933 172.393689,173.102489 171.679022,169.024711 C169.210133,170.523822 166.418578,171.225156 162.973244,171.225156 C159.515022,171.225156 155.327022,170.564711 148.5408,168.934933 C140.516356,167.035378 129.047022,160.200711 118.928356,154.174489 C113.379022,150.867378 108.1328,147.745156 103.801244,145.604711 C87.2776889,137.430933 77.8985778,138.579378 75.4030222,139.120711 C69.5034667,148.9216 66.5328,160.464267 67.3030222,172.346044 C68.4096889,173.934044 74.0545778,180.947378 89.5945778,186.067822 L89.5945778,186.067822 Z M98.0390222,138.790933 C103.656356,141.1376 111.013689,145.091378 118.8048,149.276711 C131.089244,155.875378 143.796356,162.710489 152.391467,164.848711 C160.051022,166.748711 166.350133,166.577156 170.763911,164.360711 C170.750578,164.275822 170.7368,164.188711 170.716356,164.108711 C170.654133,163.7896 170.591911,163.482933 170.502578,163.170489 C166.769244,147.500711 147.165689,113.221156 113.221244,113.221156 C111.797689,113.221156 110.333244,113.299378 108.882133,113.4256 C95.7488,117.227822 84.9532444,125.286933 77.6376889,135.712267 C78.8754667,135.316267 80.4981333,134.960711 82.7052444,134.960711 C86.8443556,134.960711 92.0083556,136.243822 98.0390222,138.790933 L98.0390222,138.790933 Z M174.112356,161.891822 C174.999467,160.970044 175.707911,159.966489 176.237689,158.903378 C180.335467,151.022933 176.663911,142.187378 175.123467,139.120711 C163.709244,120.285156 142.1528,109.196711 119.677689,111.353156 C142.943467,112.606933 165.483022,133.422933 174.112356,161.891822 L174.112356,161.891822 Z" id="Fill-8" fill="#FFFFFF"></path>
                <path d="M148.334311,180.652044 C148.334311,176.416933 148.334311,170.124933 143.328089,165.2356 C143.871644,164.282267 144.332533,163.253378 144.6832,162.146267 C145.528978,159.623156 145.590756,156.858711 145.549422,155.056933 L145.528978,143.400489 L145.528978,143.220933 C145.3912,138.884489 144.731644,134.305378 141.196533,130.326267 C138.012978,126.744933 133.227644,124.865822 127.355644,124.865822 L111.536533,124.907156 C109.810311,124.907156 108.091644,125.577822 106.840533,126.834267 C105.609422,128.070711 104.893867,129.746267 104.893867,131.516044 L105.045422,208.080933 C105.045422,210.359156 106.207644,212.468044 108.153422,213.645822 C109.232978,214.290267 110.456978,214.649378 111.742756,214.649378 L127.829867,214.620044 C133.646756,214.613378 138.5152,212.953378 142.310756,209.682711 L142.3592,209.652933 C147.667644,204.890267 148.237867,199.2796 148.375644,193.9116 L148.375644,193.847156 L148.334311,180.652044 Z" id="Fill-10" fill="#FFFFFF"></path>
                <path d="M127.018756,161.736267 C125.656978,162.116267 125.004533,162.240711 122.049867,162.336711 L119.114311,162.343822 C118.611644,162.364267 118.474311,162.116267 118.474311,161.736267 C118.474311,161.502489 118.440089,137.129156 118.440089,137.129156 C118.440089,136.730044 118.584533,136.498933 118.996978,136.455378 L123.541867,136.455378 L123.905867,136.455378 C126.083644,136.528267 128.496978,136.592711 130.057422,137.553156 C130.779644,137.992711 131.213422,138.515822 131.474311,139.224267 C131.694756,139.950489 131.893867,141.222933 132.016978,143.388711 L132.044978,152.9136 C132.016978,153.077156 132.016978,153.322044 132.016978,153.640711 C131.948533,156.099822 131.893867,160.278489 127.018756,161.736267 L127.018756,161.736267 Z M132.581422,201.486489 C131.398311,202.332267 129.961422,202.820711 126.275644,202.950933 C126.275644,202.950933 119.952533,202.965156 119.4712,202.965156 C118.900533,202.965156 118.673867,202.621156 118.673867,202.080267 C118.673867,197.415822 118.611644,171.747378 118.611644,171.527378 C118.611644,171.286933 118.673867,170.963822 119.161867,170.963822 C119.636533,170.963822 122.338756,170.936267 122.338756,170.936267 C125.684533,171.097156 129.197867,171.349156 131.474311,172.799822 C132.794756,173.590489 133.681422,174.718044 134.245422,176.217156 C134.754311,177.752711 134.8432,179.455378 134.8432,181.044267 L134.870756,192.366933 C134.870756,197.533156 134.547644,199.9576 132.581422,201.486489 L132.581422,201.486489 Z M144.236089,181.172711 C144.236089,176.890933 144.236089,171.660711 139.773867,167.961156 C138.852089,167.186933 137.731644,166.515378 136.404533,165.981156 C138.473867,164.590044 139.890311,162.675822 140.667644,160.278489 C141.376089,158.130933 141.341867,155.4696 141.327644,154.429156 L141.286756,142.261156 C141.176089,138.898044 140.805422,135.061156 138.082311,131.949156 C135.668978,129.282933 132.016978,127.907822 127.389867,127.926301 L110.8832,127.967822 C110.401867,127.967822 109.934756,128.162489 109.556533,128.522489 C109.184978,128.8776 109.012978,129.342933 109.012978,129.824267 L109.157422,209.7176 C109.157422,210.356711 109.487644,210.9896 110.0512,211.312711 C110.353867,211.505156 110.718311,211.608267 111.096089,211.608267 L127.884978,211.566933 C129.665867,211.566933 135.1392,211.546044 139.6912,207.663822 C143.733867,204.003378 144.146756,199.692267 144.264089,194.844711 L144.236089,181.172711 Z" id="Fill-12" fill="#061922"></path>
            </g>
        </g>
    </g>
</svg>