<?xml version="1.0" encoding="UTF-8"?>
<svg width="256px" height="256px" viewBox="0 0 256 256" version="1.1" xmlns="http://www.w3.org/2000/svg" xmlns:xlink="http://www.w3.org/1999/xlink">
    <!-- Generator: Sketch 63.1 (92452) - https://sketch.com -->
    <title>Teams/Defualt/DNuggets/256</title>
    <desc>Created with Sketch.</desc>
    <defs>
        <polygon id="path-1" points="0 0 255.979556 0 255.979556 256 0 256"></polygon>
    </defs>
    <g id="Teams/Defualt/DNuggets/256" stroke="none" stroke-width="1" fill="none" fill-rule="evenodd">
        <g id="Teams/Defualt/DNuggets/base">
            <g id="Group-34">
                <g id="Group-3">
                    <mask id="mask-2" fill="white">
                        <use xlink:href="#path-1"></use>
                    </mask>
                    <g id="Clip-2"></g>
                    <path d="M128.023511,0 C162.126622,0 194.235956,13.3226667 218.457733,37.5511111 C242.636844,61.7306667 255.979956,93.8933333 255.979956,127.969778 C255.979956,198.585333 198.605733,256 128.023511,256 C93.8395111,256 61.6901778,242.704444 37.4817333,218.464444 C13.3559556,194.276444 -4.44444444e-05,162.133778 -4.44444444e-05,127.969778 C-4.44444444e-05,93.8933333 13.3559556,61.7306667 37.4817333,37.5511111 C61.6901778,13.3226667 93.8395111,0 128.023511,0" id="Fill-1" fill="#FFC627" mask="url(#mask-2)"></path>
                </g>
                <path d="M128.051781,245.76 C192.960758,245.76 245.76,192.958946 245.76,127.965343 C245.76,63.092595 192.960758,10.24 128.051781,10.24 C63.0663551,10.24 10.24,63.092595 10.24,127.965343 C10.24,192.958946 63.0663551,245.76 128.051781,245.76" id="Fill-4" fill="#8B2332"></path>
                <path d="M18.432,128.992585 C18.432,69.1735411 67.1417937,20.48 127.014055,20.48 C186.874811,20.48 235.52,69.1735411 235.52,128.992585 C235.52,188.863397 186.874811,237.568 127.014055,237.568 C67.1417937,237.568 18.432,188.863397 18.432,128.992585" id="Fill-6" fill="#0D2240"></path>
                <path d="M214.506462,81.3501021 L216.940392,79.9820836 L209.100841,67.7553341 L206.904877,69.348747 C193.569856,52.4356731 169.899082,33.5749952 147.368322,30.72 C164.33111,38.5068384 183.413801,58.3947601 195.064819,73.7256013 L182.823555,82.6729524 L184.298058,84.9456788 L128.993304,121.06915 L73.6885501,84.9456788 L75.1723936,82.6729524 L62.858627,73.7256013 C74.5888197,58.3947601 93.6234725,38.5068384 110.606721,30.72 C88.103094,33.5727591 64.4123037,52.390952 51.1826996,69.2879263 L48.8879906,67.6265373 L41.0462154,79.8264542 L43.4934898,81.2508213 L43.4303286,81.3501021 C33.6897139,100.581071 26.5369296,130.312554 33.5055679,152.059979 C33.3236458,133.269066 43.3653882,107.422505 52.3858761,90.2182968 L65.5927956,97.7010318 L66.9601023,95.6018232 L118.315946,128.059952 L50.5764409,172.315956 L50.4728032,172.180451 L41.3944916,174.640559 L41.4910126,174.8664 C41.0462154,176.564013 41.8770966,179.707907 43.8075166,182.710034 C45.7339335,185.795343 48.1674191,187.827023 49.9901982,188.163326 L50.1449876,188.416 L56.1751037,181.089342 L56.1235073,180.953837 L191.053193,95.6018232 L192.370683,97.7010318 L205.616744,90.2182968 C214.623443,107.422505 224.676306,133.269066 224.561548,152.059979 C231.527962,130.312554 224.285329,100.581071 214.506462,81.3501021" id="Fill-8" fill="#FFC627"></path>
                <path d="M206.027136,172.028066 L205.924573,172.165291 L143.970947,131.072 L133.12,137.633042 L200.397641,180.884006 L200.322045,181.020779 L206.301671,188.416 L206.47983,188.16051 C208.291932,187.82106 210.710572,185.770819 212.625237,182.656638 C214.488179,179.624159 215.369694,176.45265 214.92761,174.739602 L215.037247,174.511647 L206.027136,172.028066 Z" id="Fill-10" fill="#FFC627"></path>
                <polygon id="Fill-12" fill="#FFC627" points="140.019033 42.1512751 135.406547 48.2901287 129.024 32.768 129.024 104.448 150.461688 76.4970222 172.032 82.1610498"></polygon>
                <polygon id="Fill-14" fill="#FFFFFF" points="139.264 59.392 139.264 43.008 135.168 48.9939181"></polygon>
                <polygon id="Fill-16" fill="#FFFFFF" points="126.976 32.768 88.064 81.0745231 105.238758 76.6258717 126.976 104.448"></polygon>
                <path d="M105.114431,212.992 C110.546438,207.51233 117.466655,204.166437 124.928,203.432371 L124.928,192.512 L96.256,192.512 C96.9361886,200.461667 100.118607,207.588002 105.114431,212.992" id="Fill-18" fill="#FFC627"></path>
                <path d="M124.928,223.232 L124.928,210.944 C118.828888,211.620463 113.186346,213.957688 108.544,217.791841 C113.372759,220.725336 118.939127,222.644784 124.928,223.232" id="Fill-20" fill="#FFC627"></path>
                <path d="M133.12,157.696 L133.12,169.984 C138.46617,169.312118 143.46477,167.002903 147.456,163.162714 C143.273939,160.196749 138.410043,158.257199 133.12,157.696" id="Fill-22" fill="#FFFFFF"></path>
                <path d="M150.892663,167.936 C145.442391,173.064852 138.534706,176.301415 131.072,176.955942 L131.072,186.368 L159.744,186.368 C158.872753,179.234335 155.647753,172.798145 150.892663,167.936" id="Fill-24" fill="#FFFFFF"></path>
                <path d="M124.928,169.984 L124.928,157.696 C119.662343,158.257199 114.768168,160.196749 110.592,163.164876 C114.604266,167.002903 119.565416,169.311686 124.928,169.984" id="Fill-26" fill="#FFFFFF"></path>
                <path d="M133.12,192.512 L133.12,203.430317 C140.564033,204.166633 147.509092,207.512 152.8968,212.992 C157.900782,207.587669 161.197203,200.461492 161.792,192.512 L133.12,192.512 Z" id="Fill-28" fill="#FFC627"></path>
                <path d="M96.256,186.368 L124.928,186.368 L124.928,176.955723 C117.447934,176.299462 110.564732,173.062824 105.070463,167.936 C100.325845,172.795681 97.0991414,179.234168 96.256,186.368" id="Fill-30" fill="#FFFFFF"></path>
                <path d="M133.12,223.232 C138.410043,222.644784 143.273939,220.725336 147.456,217.791841 C143.46477,213.957688 138.46617,211.620463 133.12,210.944 L133.12,223.232 Z" id="Fill-32" fill="#FFC627"></path>
            </g>
        </g>
    </g>
</svg>