<?xml version="1.0" encoding="UTF-8"?>
<svg width="256px" height="256px" viewBox="0 0 256 256" version="1.1" xmlns="http://www.w3.org/2000/svg" xmlns:xlink="http://www.w3.org/1999/xlink">
    <!-- Generator: Sketch 63.1 (92452) - https://sketch.com -->
    <title>Teams/Defualt/IPacers/256</title>
    <desc>Created with Sketch.</desc>
    <defs>
        <polygon id="path-1" points="0 0.269422222 256 0.269422222 256 238.222222 0 238.222222"></polygon>
    </defs>
    <g id="Teams/Defualt/IPacers/256" stroke="none" stroke-width="1" fill="none" fill-rule="evenodd">
        <g id="Teams/Defualt/IPacers/base" transform="translate(0.000000, 8.000000)">
            <g id="Group-22">
                <g id="Group-3" transform="translate(0.000000, 0.175111)">
                    <mask id="mask-2" fill="white">
                        <use xlink:href="#path-1"></use>
                    </mask>
                    <g id="Clip-2"></g>
                    <path d="M235.951022,33.1120889 C218.480356,12.0392 193.326133,0.314311111 165.129689,0.269422222 L52.3350222,0.276088889 L-8.88888889e-05,238.155644 L96.2919111,238.222311 L110.107467,180.656533 C123.036356,180.656533 157.048356,180.665422 157.0048,180.665422 C189.263467,180.895644 215.725689,169.973867 233.546578,149.072978 C265.9008,113.839644 260.219467,62.3956444 235.951022,33.1120889" id="Fill-1" fill="#BEC0C2" mask="url(#mask-2)"></path>
                </g>
                <path d="M105.178044,174.560667 L91.3624889,232.122 L7.78915556,232.155778 L57.3793778,6.71488889 L165.110933,6.78911111 C191.936711,6.83711111 214.916267,17.7157778 231.127378,37.2873333 C255.0216,66.118 257.358933,114.041556 228.774933,145.188667 C211.242489,165.741556 185.5416,174.776222 157.053156,174.57 L105.178044,174.560667 Z" id="Fill-4" fill="#002D62"></path>
                <path d="M46.2752444,56.7937333 L93.4943556,56.8319556 C98.9165778,56.8319556 104.694356,61.3875111 102.188578,68.2786222 C100.646356,72.5421778 99.4583556,77.4808444 98.9072444,82.1159556 C98.4810222,85.7368444 102.524133,88.0226222 104.837911,88.0226222 L201.077022,88.0892889 C202.888133,88.0892889 203.840578,87.5764 203.840578,86.7119556 C203.840578,85.8546222 203.759689,82.6617333 203.414356,80.4270667 C203.079244,78.2932889 202.725022,77.9266222 201.000133,77.9266222 C189.005467,77.9168444 184.114356,72.5710667 171.543689,64.4626222 C158.969467,56.3550667 140.5308,51.6919556 124.684578,51.6772889 L47.4201333,51.6292889 L46.2752444,56.7937333 Z" id="Fill-6" fill="#FDBB30"></path>
                <path d="M104.574533,119.119022 C102.907422,115.5528 101.369644,111.310578 100.426089,107.4088 C99.2332,102.410133 95.0123111,98.3523556 87.7789778,98.3474667 L37.1300889,98.3168 L38.3856444,92.6328 L202.538089,92.7456889 C204.175867,92.7456889 203.826978,93.4305778 203.7452,95.2408 C203.6492,97.0523556 203.227867,100.415022 202.964311,102.393689 C202.7052,104.371911 201.072311,103.902578 199.510533,103.938133 C195.816756,104.019467 188.947867,104.893689 184.947422,107.897244 C178.140311,113.006578 163.634978,121.981244 155.482089,124.5968 C146.739867,127.379911 114.049644,137.3848 104.474089,118.953689" id="Fill-8" fill="#FDBB30"></path>
                <path d="M28.0528444,139.665244 L113.7724,139.725244 C117.555956,139.725244 120.808844,140.625689 123.333733,142.7288 C130.5764,148.699911 139.970622,153.035022 149.934622,155.921244 C154.413733,157.210133 162.102178,155.543022 168.980844,151.651022 C186.1404,141.952356 197.177733,123.497244 200.803511,111.612356 C201.747511,108.507911 199.941733,108.762133 197.5364,108.932356 C190.3084,109.449689 182.705733,115.988356 172.713289,122.362133 C162.710622,128.723911 142.370178,134.749689 123.074622,134.7288 L29.1497333,134.668356 L28.0528444,139.665244 Z" id="Fill-10" fill="#FDBB30"></path>
                <path d="M153.795689,24.8701333 C155.0028,24.6599111 159.3428,24.3914667 161.752578,25.3394667 C178.0348,31.7519111 193.441022,48.7074667 199.888578,66.7216889 C201.129911,70.1874667 201.431689,72.4079111 199.883689,72.5852444 C192.416133,73.4070222 188.937911,69.7301333 180.157022,63.7781333 C171.376578,57.8283556 163.280578,53.7705778 152.1668,50.2354667 C141.206356,46.7430222 121.245022,46.2479111 118.658356,46.1590222 C116.081022,46.0750222 116.4068,44.9923556 117.532578,43.8741333 C127.099244,34.3265778 139.951689,27.3950222 153.795689,24.8701333" id="Fill-12" fill="#FDBB30"></path>
                <path d="M231.9172,86.6424444 C231.9652,87.33 231.232756,88.1104444 230.365644,88.1104444 C230.283867,88.1104444 211.592311,88.0962222 211.592311,88.0962222 C209.182533,88.0962222 209.139422,86.9757778 209.057644,85.598 C208.962089,84.2211111 208.578533,81.462 208.492311,79.8211111 C208.410533,78.2348889 207.831867,76.4153333 209.958533,75.5237778 C215.184756,73.3131111 220.128311,68.1997778 222.374978,63.8113333 C223.131867,62.3357778 224.267422,59.8904444 225.551422,61.9651111 C229.996756,69.0713333 231.390533,77.8375556 231.9172,86.6424444" id="Fill-14" fill="#FDBB30"></path>
                <path d="M225.196711,120.379244 C224.875378,121.013911 223.673156,121.487689 223.280267,120.455689 C220.545156,113.124133 214.034933,108.0868 209.555822,105.583689 C208.200711,104.829022 208.080267,103.947689 208.252711,102.613911 C208.434933,101.277467 209.000267,97.0090222 209.081156,95.2028 C209.1536,93.7801333 209.733156,92.7499111 210.806044,92.7499111 L230.3656,92.7596889 C231.059822,92.7672444 231.927378,93.3850222 231.927378,93.9050222 C231.927378,103.233911 229.091378,112.443689 225.196711,120.379244" id="Fill-16" fill="#FDBB30"></path>
                <path d="M174.317822,157.094933 C172.938267,157.291378 169.929822,156.817156 174.672489,154.064711 C188.889822,145.804267 201.556044,126.4096 204.938267,115.274489 C206.221378,111.022933 206.365378,110.802933 207.994267,111.270044 C210.168933,111.8856 213.594267,114.850933 216.219156,118.470044 C218.849378,122.084267 219.984489,129.133156 218.465822,131.154933 C208.252933,144.865156 192.008933,154.498489 174.317822,157.094933" id="Fill-18" fill="#FDBB30"></path>
                <path d="M210.485333,69.3182667 C207.175556,71.0978222 206.532889,70.7671556 205.828889,68.2787111 C199.654222,46.6093778 181.431556,30.5662667 173.987556,25.8236 C172.564444,24.9280444 172.928444,24.3289333 173.958222,24.4631556 C191.792889,26.8369333 209.264,36.5591556 218.058667,49.8738222 C223.074222,57.5076 213.676,67.5960444 210.485333,69.3182667" id="Fill-20" fill="#FDBB30"></path>
            </g>
        </g>
    </g>
</svg>