<?xml version="1.0" encoding="UTF-8"?>
<svg width="256px" height="256px" viewBox="0 0 256 256" version="1.1" xmlns="http://www.w3.org/2000/svg" xmlns:xlink="http://www.w3.org/1999/xlink">
    <!-- Generator: Sketch 63.1 (92452) - https://sketch.com -->
    <title>Teams/Defualt/NOPelicans/256</title>
    <desc>Created with Sketch.</desc>
    <defs>
        <polygon id="path-1" points="0 0.113822222 256 0.113822222 256 99.5555556 0 99.5555556"></polygon>
    </defs>
    <g id="Teams/Defualt/NOPelicans/256" stroke="none" stroke-width="1" fill="none" fill-rule="evenodd">
        <g id="Teams/Defualt/NOPelicans/base" transform="translate(0.000000, 76.000000)">
            <g id="Group-100">
                <g id="Group-3" transform="translate(0.000000, 0.330667)">
                    <mask id="mask-2" fill="white">
                        <use xlink:href="#path-1"></use>
                    </mask>
                    <g id="Clip-2"></g>
                    <path d="M256,31.4089333 L253.791556,30.0409333 C219.858222,10.2680444 170.586667,0.496044444 147.969778,0.116044444 L147.670222,0.113822222 C143.948889,0.113822222 141.374222,1.40004444 140.019111,3.93604444 C138.872889,6.08715556 139.004889,8.24626667 139.563556,10.0804889 C139.172,9.62982222 138.607111,9.15737778 137.990222,8.70226667 C136.152889,7.31515556 133.993333,6.22582222 133.993333,6.22582222 C133.993333,6.22582222 134.277333,8.00715556 133.622222,7.79382222 C133.313778,7.69337778 132.934222,7.53115556 132.516,7.33782222 C130.680444,6.46493333 128.021333,4.86715556 128.021333,4.86715556 C128.021333,4.86715556 125.321333,6.46493333 123.486222,7.33782222 C123.068,7.53115556 122.688,7.69337778 122.379556,7.79382222 C121.724889,8.00715556 122.008889,6.22582222 122.008889,6.22582222 C122.008889,6.22582222 119.849778,7.31515556 118.012444,8.70226667 C117.395556,9.15737778 116.829778,9.62982222 116.438667,10.0804889 C116.997778,8.24626667 117.129333,6.08715556 115.982667,3.93604444 C114.628444,1.40004444 112.053778,0.113822222 108.332,0.113822222 L108.032444,0.116044444 C85.4155556,0.496044444 36.1444444,10.2680444 2.21066667,30.0409333 L0,31.4089333 C0,31.4089333 3.33244444,39.8947111 11.5577778,42.3098222 L10.4355556,42.8471556 C10.4355556,42.8471556 15.0848889,50.3893778 22.3111111,51.9556 L20.9297778,52.5271556 C20.9297778,52.5271556 26.0213333,60.7596 35.8982222,62.5004889 L34.4408889,63.2102667 C34.4408889,63.2102667 41.4862222,70.8258222 52.2906667,71.5058222 L50.7217778,72.7004889 C50.7217778,72.7004889 57.8853333,77.4756 68.444,78.6707111 L66.7475556,80.1791556 C66.7475556,80.1791556 85.4715556,87.0284889 101.150222,81.3213778 C105.477778,92.1978222 116.108,99.5556 127.999111,99.5556 L128.000889,99.5556 L128.003556,99.5556 C139.894222,99.5556 150.524889,92.1978222 154.851556,81.3213778 C170.530667,87.0284889 189.254667,80.1791556 189.254667,80.1791556 L187.558222,78.6707111 C198.116889,77.4756 205.280889,72.7004889 205.280889,72.7004889 L203.711556,71.5058222 C214.516,70.8258222 221.556889,63.2102667 221.556889,63.2102667 L220.103556,62.5004889 C229.978667,60.7596 235.070222,52.5271556 235.070222,52.5271556 L233.688889,51.9556 C240.915556,50.3893778 245.566222,42.8471556 245.566222,42.8471556 L244.446667,42.3098222 C252.669778,39.8947111 256,31.4089333 256,31.4089333" id="Fill-1" fill="#B4975A" mask="url(#mask-2)"></path>
                </g>
                <path d="M252.4284,32.7174667 C219.232844,13.3756889 170.466622,3.54057778 147.927511,3.16146667 C145.211956,3.11568889 143.363067,3.77702222 142.415511,5.54502222 C140.846178,8.49213333 143.063956,11.7841333 144.0044,13.1983556 C146.047956,16.2445778 148.751956,21.0032444 148.751956,26.7343556 C148.753733,37.8436889 139.771067,46.0579111 128.709733,46.0565778 C128.472844,46.0565778 128.235956,46.0601333 128.001289,46.0601333 C127.763956,46.0601333 127.527067,46.0565778 127.290178,46.0565778 C116.231067,46.0579111 107.247956,37.8436889 107.250178,26.7343556 C107.250178,21.0032444 109.954622,16.2445778 111.995511,13.1983556 C112.938622,11.7841333 115.155956,8.49213333 113.5844,5.54502222 C112.639067,3.77702222 110.790622,3.11568889 108.072844,3.16146667 C85.5337333,3.54057778 36.7701778,13.3756889 3.57195556,32.7174667 C3.59862222,32.8023556 8.89151111,41.8588 19.4612889,41.0801333 C17.8319556,41.8783556 16.2066222,42.6930222 14.5884,43.5263556 C14.6155111,43.6259111 19.4346222,51.5530222 31.0728444,50.4085778 C29.1346222,51.3245778 27.2061778,52.2583556 25.2835111,53.2241333 C25.3079556,53.3361333 30.8692889,61.1294667 43.1288444,60.9254667 C40.3035111,62.3499111 38.5959556,63.2614667 38.6075111,63.2588 C38.6137333,63.3148 46.7097333,71.1476889 59.7941778,68.9939111 C58.3790667,70.0250222 56.9510667,71.1192444 55.2657333,72.2988 C55.2679556,72.3223556 64.8741778,77.5690222 76.1795111,75.9348 C74.7204,77.0414667 73.2630667,78.1539111 71.8079556,79.2850222 C71.7830667,79.1343556 89.1190667,84.0294667 101.449733,78.5970222 C112.059956,73.9259111 117.958622,62.4716889 119.3044,59.5868 C121.3964,60.0490222 123.224844,60.3183556 124.619511,60.4814667 C124.614622,60.6294667 126.867956,60.8210222 128.001289,60.7774667 C129.131956,60.8210222 131.387067,60.6294667 131.382178,60.4814667 C132.775511,60.3183556 134.605733,60.0490222 136.695956,59.5868 C138.041733,62.4716889 143.939511,73.9259111 154.549733,78.5970222 C166.881289,84.0294667 184.216844,79.1343556 184.1924,79.2850222 C182.739067,78.1539111 181.282178,77.0414667 179.822622,75.9348 C191.125289,77.5690222 200.734178,72.3223556 200.734178,72.2988 C199.051511,71.1192444 197.623067,70.0250222 196.205733,68.9939111 C209.290178,71.1476889 217.385733,63.3148 217.392844,63.2588 C217.403511,63.2614667 215.698178,62.3499111 212.871067,60.9254667 C225.130622,61.1294667 230.694178,53.3361333 230.7164,53.2241333 C228.7964,52.2583556 226.864844,51.3245778 224.927067,50.4085778 C236.565733,51.5530222 241.383956,43.6259111 241.409289,43.5263556 C239.790622,42.6930222 238.1684,41.8783556 236.541289,41.0801333 C247.1084,41.8588 252.401289,32.8023556 252.4284,32.7174667" id="Fill-4" fill="#002B5C"></path>
                <path d="M118.448133,53.7365778 C118.448133,53.7365778 88.7836889,43.8072444 101.671244,12.2134667 C101.671244,12.2134667 70.3081333,13.5143556 27.3179111,30.8601333 C27.3179111,30.8601333 24.3023556,32.1174667 22.5432444,32.7463556 C20.7819111,33.3734667 17.9548,34.5001333 13.9005778,32.5543556 C13.9005778,32.5543556 53.2228,11.9965778 103.741022,7.23035556 C110.401911,6.60102222 111.282356,7.60813333 109.523244,10.1214667 C108.081467,12.1801333 90.0419111,35.1348 118.448133,53.7365778" id="Fill-6" fill="#FFFFFF"></path>
                <path d="M92.0937333,21.1619111 C66.6737333,24.4685778 41.8168444,33.3196889 41.8168444,33.3196889 C46.0479556,40.8490222 57.5297333,37.6894667 57.5297333,37.6894667 C79.0652889,31.5934667 88.6764,29.5268 91.7586222,28.9290222 C91.6381778,26.5272444 91.7381778,23.9436889 92.0937333,21.1619111" id="Fill-8" fill="#B4975A"></path>
                <path d="M92.2814667,33.5377778 C88.0370222,34.3591111 70.2410222,38.0124444 52.2885778,44.7346667 C52.2885778,44.7346667 57.9476889,51.1822222 69.1748,47.9955556 C78.6205778,45.3191111 90.7281333,41.4555556 94.3401333,40.296 C93.4370222,38.256 92.7330222,36.0106667 92.2814667,33.5377778" id="Fill-10" fill="#B4975A"></path>
                <path d="M96.2265778,43.8596444 C92.3914667,45.0978667 73.2114667,51.3120889 65.1159111,54.4218667 C65.1159111,54.4218667 69.7603556,60.6503111 83.1692444,55.3707556 C92.5096889,51.6929778 97.6572444,49.5458667 99.9256889,48.5765333 C98.5759111,47.1774222 97.3239111,45.6120889 96.2265778,43.8596444" id="Fill-12" fill="#B4975A"></path>
                <path d="M102.887156,51.2860444 C99.5369333,52.7402667 87.0893778,58.1789333 79.8920444,61.6464889 C79.8920444,61.6464889 88.9511556,66.0980444 100.345822,59.0589333 L107.433378,54.4082667 C105.888933,53.5069333 104.357822,52.4731556 102.887156,51.2860444" id="Fill-14" fill="#B4975A"></path>
                <path d="M110.877822,56.2196444 C108.600044,57.6440889 99.1591556,63.5778667 94.5502667,66.9849778 C94.5502667,66.9849778 102.3756,70.2160889 110.401822,62.6618667 C113.012489,60.2036444 114.438267,58.8094222 115.224933,58.0120889 C113.839156,57.5143111 112.377822,56.9232 110.877822,56.2196444" id="Fill-16" fill="#B4975A"></path>
                <path d="M137.554267,53.7365778 C137.554267,53.7365778 167.218711,43.8072444 154.328933,12.2134667 C154.328933,12.2134667 185.693822,13.5143556 228.682267,30.8601333 C228.682267,30.8601333 231.697378,32.1174667 233.458711,32.7463556 C235.220044,33.3734667 238.0476,34.5001333 242.097378,32.5543556 C242.097378,32.5543556 202.777378,11.9965778 152.259156,7.23035556 C145.596489,6.60102222 144.717378,7.60813333 146.476489,10.1214667 C147.920489,12.1801333 165.960489,35.1348 137.554267,53.7365778" id="Fill-18" fill="#FFFFFF"></path>
                <path d="M163.905822,21.1619111 C189.326267,24.4685778 214.185378,33.3196889 214.185378,33.3196889 C209.953822,40.8490222 198.472044,37.6894667 198.472044,37.6894667 C176.934711,31.5934667 167.325822,29.5268 164.2436,28.9290222 C164.364489,26.5272444 164.261822,23.9436889 163.905822,21.1619111" id="Fill-20" fill="#B4975A"></path>
                <path d="M163.720489,33.5377778 C167.963156,34.3591111 185.759156,38.0124444 203.713378,44.7346667 C203.713378,44.7346667 198.052044,51.1822222 186.824933,47.9955556 C177.381378,45.3191111 165.273822,41.4555556 161.661822,40.296 C162.563156,38.256 163.266711,36.0106667 163.720489,33.5377778" id="Fill-22" fill="#B4975A"></path>
                <path d="M159.7756,43.8596444 C163.608933,45.0978667 182.790711,51.3120889 190.884044,54.4218667 C190.884044,54.4218667 186.241822,60.6503111 172.833378,55.3707556 C163.490267,51.6929778 158.344933,49.5458667 156.076489,48.5765333 C157.424489,47.1774222 158.676044,45.6120889 159.7756,43.8596444" id="Fill-24" fill="#B4975A"></path>
                <path d="M153.115022,51.2860444 C156.463022,52.7402667 168.910578,58.1789333 176.107467,61.6464889 C176.107467,61.6464889 167.050578,66.0980444 155.654133,59.0589333 L148.5688,54.4082667 C150.110578,53.5069333 151.642578,52.4731556 153.115022,51.2860444" id="Fill-26" fill="#B4975A"></path>
                <path d="M145.124578,56.2196444 C147.401911,57.6440889 156.843244,63.5778667 161.449911,66.9849778 C161.449911,66.9849778 153.624578,70.2160889 145.596578,62.6618667 C142.987244,60.2036444 141.563689,58.8094222 140.777022,58.0120889 C142.163244,57.5143111 143.625022,56.9232 145.124578,56.2196444" id="Fill-28" fill="#B4975A"></path>
                <path d="M152.292533,70.9835556 C152.292533,84.4062222 141.418756,95.2822222 128.000978,95.2822222 C114.5792,95.2822222 103.707644,84.4062222 103.707644,70.9835556 C103.707644,57.5671111 114.5792,46.6893333 128.000978,46.6893333 C141.418756,46.6893333 152.292533,57.5671111 152.292533,70.9835556" id="Fill-30" fill="#FFFFFF"></path>
                <path d="M147.267778,76.0108889 C147.267778,86.6571111 138.642889,95.282 128.001111,95.282 C117.357556,95.282 108.736667,86.6571111 108.736667,76.0108889 C108.736667,65.3704444 117.357556,56.7442222 128.001111,56.7442222 C138.642889,56.7442222 147.267778,65.3704444 147.267778,76.0108889" id="Fill-32" fill="#B4975A"></path>
                <path d="M140.786044,89.3707111 C139.811822,88.6058222 138.423378,87.2502667 138.175378,85.5787111 C138.152711,85.4307111 138.139378,85.2827111 138.122044,85.1356 C143.0616,83.0618222 147.230044,79.4973778 150.050933,74.9191556 C148.988711,80.8813778 145.566933,86.0333778 140.786044,89.3707111 L140.786044,89.3707111 Z M105.947378,74.9009333 C108.767822,79.4880444 112.938489,83.0582667 117.882489,85.1356 C117.864711,85.2836 117.8536,85.4324889 117.829156,85.5813778 C117.578933,87.2582667 116.193156,88.6093778 115.218489,89.3716 C110.430933,86.0307111 107.006933,80.8720444 105.947378,74.9009333 L105.947378,74.9009333 Z M111.110044,56.2893778 C110.106933,61.8227111 112.402489,67.0356 114.5056,71.8062667 C115.967378,75.1253778 117.368711,78.3129333 117.820267,81.5396 C112.0376,78.6573778 107.6416,73.3658222 106.007378,66.7422667 C106.767378,62.7907111 108.566489,59.2089333 111.110044,56.2893778 L111.110044,56.2893778 Z M134.811378,82.8547111 C133.146489,83.3876 131.407378,83.7378222 129.619378,83.8684889 L129.619378,48.6427111 C133.209156,48.9018222 136.568711,50.0040444 139.494489,51.7609333 C143.942489,58.1831556 141.436267,63.9133778 138.533156,70.4991556 C136.791822,74.4507111 135.006044,78.5133778 134.811378,82.8547111 L134.811378,82.8547111 Z M129.619378,87.1084889 C131.471822,86.9973778 133.274044,86.6991556 135.006044,86.2218222 C135.368711,88.3080444 136.655378,89.9649333 137.851378,91.1036 C135.334489,92.3422667 132.554489,93.1173778 129.619378,93.3284889 L129.619378,87.1084889 Z M120.998489,86.2218222 C122.730489,86.6991556 124.530044,86.9973778 126.380711,87.1084889 L126.380711,93.3284889 C123.448267,93.1173778 120.667822,92.3422667 118.150933,91.1036 C119.351378,89.9649333 120.636711,88.3080444 120.998489,86.2218222 L120.998489,86.2218222 Z M116.508267,51.7609333 C119.434044,50.0040444 122.793156,48.9018222 126.380711,48.6427111 L126.380711,83.8711556 C124.590489,83.7458222 122.8536,83.4093778 121.194933,82.8942667 C121.0096,78.5378222 119.217156,74.4640444 117.469156,70.5000444 C114.563822,63.9133778 112.060267,58.1831556 116.508267,51.7609333 L116.508267,51.7609333 Z M149.998933,66.7622667 C148.381156,73.2471556 143.942489,78.5422667 138.193156,81.4644889 C138.655822,78.2622667 140.046489,75.0982667 141.497156,71.8062667 C143.599822,67.0347111 145.893156,61.8218222 144.8896,56.2893778 C147.4376,59.2133778 149.239378,62.8022667 149.998933,66.7622667 L149.998933,66.7622667 Z M128.001156,44.8004889 C113.564267,44.8004889 101.818933,56.5449333 101.818933,70.9836 C101.818933,85.4244889 113.564267,97.1711556 128.001156,97.1711556 C142.438044,97.1711556 154.183822,85.4244889 154.183822,70.9836 C154.183822,56.5449333 142.438044,44.8004889 128.001156,44.8004889 L128.001156,44.8004889 Z" id="Fill-34" fill="#002B5C"></path>
                <path d="M135.779511,10.8042667 C135.779511,10.8042667 135.582622,11.6291556 135.082178,11.6291556 C134.579067,11.6291556 131.436844,10.1216 129.927511,9.30337778 C129.281733,8.95493333 128.379067,8.4296 128.063511,8.24648889 C128.063511,8.24648889 126.718178,8.95493333 126.0724,9.30337778 C124.563511,10.1216 121.423067,11.6291556 120.9204,11.6291556 C120.417289,11.6291556 120.2204,10.8042667 120.2204,10.8042667 C120.2204,10.8042667 111.973289,15.7829333 111.973289,29.5438222 C111.973289,39.7851556 117.303956,44.4318222 117.303956,44.4318222 L118.027956,47.3260444 L127.1004,47.3260444 L128.901733,47.3260444 L137.971956,47.3260444 L138.695956,44.4318222 C138.695956,44.4318222 144.029289,39.7851556 144.029289,29.5438222 C144.029289,15.7829333 135.779511,10.8042667 135.779511,10.8042667" id="Fill-36" fill="#002B5C"></path>
                <path d="M139.708756,26.0666667 C139.708756,21.8137778 137.978533,18.3524444 136.114533,16.2884444 C136.114533,16.2884444 136.054089,17.5017778 134.020311,16.144 C132.268311,14.9426667 130.204756,14.2364444 127.989644,14.2364444 C125.765644,14.2364444 123.698533,14.9448889 121.941644,16.152 C119.981644,17.4862222 119.8852,16.2884444 119.8852,16.2884444 C118.025644,18.3524444 116.293644,21.8137778 116.293644,26.0666667 C116.293644,29.5946667 117.158533,31.3373333 117.458089,31.8337778 C119.208311,36.3315556 123.262533,39.4857778 127.989644,39.4857778 C132.658978,39.4857778 136.673644,36.3964444 138.4572,31.9755556 C138.562089,31.8302222 139.708756,30.136 139.708756,26.0666667" id="Fill-38" fill="#FFFFFF"></path>
                <path d="M132.406667,35.6701778 C132.395556,35.6452889 132.375111,35.6208444 132.363556,35.5972889 C132.363556,35.5972889 131.201778,33.4195111 133.112889,31.9150667 C133.112889,31.9150667 137.431556,32.8168444 137.531556,27.0906222 C137.531556,27.0906222 137.431556,26.4870667 138.034667,25.2835111 C138.034667,25.2835111 136.925778,24.2755111 134.516444,26.0884 C132.104444,27.8928444 130.799556,33.0181778 129.494222,31.8137333 C128.204444,30.6186222 128.678222,23.9457333 128.005778,23.6932889 L127.980889,23.6932889 C127.314667,23.9470667 127.788889,30.6186222 126.496889,31.8137333 C125.191556,33.0181778 123.884,27.8928444 121.472,26.0884 C119.060444,24.2755111 117.958667,25.2835111 117.958667,25.2835111 C118.562222,26.4870667 118.459556,27.0906222 118.459556,27.0906222 C118.562222,32.8168444 122.878222,31.9150667 122.878222,31.9150667 C124.789333,33.4195111 123.636,35.6066222 123.636,35.6066222 C123.624444,35.6297333 123.606667,35.6532889 123.595556,35.6746222 C118.441333,30.1372889 115.446222,30.8892889 116.924,37.0915111 C118.376889,43.1799556 123.952889,69.3390667 124.840889,75.4021778 C124.717778,80.8581778 124.087556,82.8084 123.922222,83.2297333 L123.358667,84.3501778 L123.98,85.5946222 C124.961333,87.0190667 125.640444,88.6208444 125.882222,89.2288444 L128.008,94.6257333 L130.117778,89.2417333 C130.365778,88.6208444 131.047556,87.0190667 132.024444,85.5946222 L132.672889,84.4137333 L132.086667,83.2306222 C131.921333,82.8208444 131.306667,80.9439556 131.165778,75.6852889 C131.900889,70.2444 137.601333,43.2888444 139.078222,37.0915111 C140.553333,30.8915111 137.560889,30.1372889 132.406667,35.6701778" id="Fill-40" fill="#002B5C"></path>
                <path d="M124.505422,62.9362222 C122.654756,53.2037778 121.1952,46.0051111 120.016978,40.7828889 C119.118756,36.7922222 121.516978,38.3882222 122.808978,40.8833333 L124.505422,62.9362222 Z" id="Fill-42" fill="#E31837"></path>
                <path d="M131.496978,62.9362222 C133.349867,53.2037778 134.806756,46.0051111 135.984978,40.7828889 C136.880978,36.7922222 134.485422,38.3882222 133.193422,40.8833333 L131.496978,62.9362222 Z" id="Fill-44" fill="#E31837"></path>
                <path d="M121.579644,29.9728889 C121.2152,29.872 120.998311,29.4933333 121.105867,29.1302222 C121.143644,28.9848889 121.233422,28.8728889 121.340533,28.7862222 C121.098756,28.512 120.8152,28.2382222 120.473422,27.9933333 C120.473422,27.9933333 119.872089,30.8075556 122.384089,30.5071111 C122.384089,30.5071111 122.294756,30.2577778 122.109422,29.9013333 C121.9552,29.9906667 121.7672,30.0217778 121.579644,29.9728889" id="Fill-46" fill="#E31837"></path>
                <path d="M135.526889,27.9935111 C135.184222,28.2370667 134.900667,28.5121778 134.659778,28.7846222 C134.769111,28.8730667 134.858444,28.9846222 134.900667,29.1299556 C134.999333,29.4935111 134.782444,29.8721778 134.418444,29.9730667 C134.230444,30.0219556 134.045111,29.9917333 133.892667,29.9010667 C133.705111,30.2575111 133.618,30.5068444 133.618,30.5068444 C136.13,30.8077333 135.526889,27.9935111 135.526889,27.9935111" id="Fill-48" fill="#E31837"></path>
                <path d="M129.1788,66.5460444 C129.977022,51.5100444 131.175244,40.8620444 131.175244,39.5327111 C131.175244,39.0584889 131.121022,38.4504889 130.924578,37.7811556 L130.0508,40.6398222 L129.782356,35.5873778 C129.341911,35.0220444 128.743244,34.4531556 127.987689,33.9087111 L127.941022,33.9087111 C127.187689,34.4531556 126.657911,35.0193778 126.217467,35.5851556 L125.956133,40.6398222 L125.075689,37.7776 C124.881022,38.4504889 124.827244,39.0571556 124.827244,39.5327111 C124.827244,40.8620444 126.0188,51.5100444 126.818356,66.5460444 C127.616578,81.5816 125.752578,84.3749333 125.752578,84.3749333 C126.832133,85.9398222 127.9988,88.7198222 127.9988,88.7198222 C127.9988,88.7198222 129.168133,85.9398222 130.247244,84.3749333 C130.247244,84.3749333 128.383244,81.5816 129.1788,66.5460444" id="Fill-50" fill="#E31837"></path>
                <path d="M252.4284,32.7174667 C219.232844,13.3756889 170.466622,3.54057778 147.927511,3.16146667 C145.211956,3.11568889 143.363067,3.77702222 142.415511,5.54502222 C140.846178,8.49213333 143.063956,11.7841333 144.0044,13.1983556 C146.047956,16.2445778 148.751956,21.0032444 148.751956,26.7343556 C148.753733,37.8436889 139.771067,46.0579111 128.709733,46.0565778 C128.472844,46.0565778 128.235956,46.0601333 128.001289,46.0601333 C127.763956,46.0601333 127.527067,46.0565778 127.290178,46.0565778 C116.231067,46.0579111 107.247956,37.8436889 107.250178,26.7343556 C107.250178,21.0032444 109.954622,16.2445778 111.995511,13.1983556 C112.938622,11.7841333 115.155956,8.49213333 113.5844,5.54502222 C112.639067,3.77702222 110.790622,3.11568889 108.072844,3.16146667 C85.5337333,3.54057778 36.7701778,13.3756889 3.57195556,32.7174667 C3.59862222,32.8023556 8.89151111,41.8588 19.4612889,41.0801333 C17.8319556,41.8783556 16.2066222,42.6930222 14.5884,43.5263556 C14.6155111,43.6259111 19.4346222,51.5530222 31.0728444,50.4085778 C29.1346222,51.3245778 27.2061778,52.2583556 25.2835111,53.2241333 C25.3079556,53.3361333 30.8692889,61.1294667 43.1288444,60.9254667 C40.3035111,62.3499111 38.5959556,63.2614667 38.6075111,63.2588 C38.6137333,63.3148 46.7097333,71.1476889 59.7941778,68.9939111 C58.3790667,70.0250222 56.9510667,71.1192444 55.2657333,72.2988 C55.2679556,72.3223556 64.8741778,77.5690222 76.1795111,75.9348 C74.7204,77.0414667 73.2630667,78.1539111 71.8079556,79.2850222 C71.7830667,79.1343556 89.1190667,84.0294667 101.449733,78.5970222 C112.059956,73.9259111 117.958622,62.4716889 119.3044,59.5868 C121.3964,60.0490222 123.224844,60.3183556 124.619511,60.4814667 C124.614622,60.6294667 126.867956,60.8210222 128.001289,60.7774667 C129.131956,60.8210222 131.387067,60.6294667 131.382178,60.4814667 C132.775511,60.3183556 134.605733,60.0490222 136.695956,59.5868 C138.041733,62.4716889 143.939511,73.9259111 154.549733,78.5970222 C166.881289,84.0294667 184.216844,79.1343556 184.1924,79.2850222 C182.739067,78.1539111 181.282178,77.0414667 179.822622,75.9348 C191.125289,77.5690222 200.734178,72.3223556 200.734178,72.2988 C199.051511,71.1192444 197.623067,70.0250222 196.205733,68.9939111 C209.290178,71.1476889 217.385733,63.3148 217.392844,63.2588 C217.403511,63.2614667 215.698178,62.3499111 212.871067,60.9254667 C225.130622,61.1294667 230.694178,53.3361333 230.7164,53.2241333 C228.7964,52.2583556 226.864844,51.3245778 224.927067,50.4085778 C236.565733,51.5530222 241.383956,43.6259111 241.409289,43.5263556 C239.790622,42.6930222 238.1684,41.8783556 236.541289,41.0801333 C247.1084,41.8588 252.401289,32.8023556 252.4284,32.7174667" id="Fill-52" fill="#002B5C"></path>
                <path d="M118.448133,53.7365778 C118.448133,53.7365778 88.7836889,43.8072444 101.671244,12.2134667 C101.671244,12.2134667 70.3081333,13.5143556 27.3179111,30.8601333 C27.3179111,30.8601333 24.3023556,32.1174667 22.5432444,32.7463556 C20.7819111,33.3734667 17.9548,34.5001333 13.9005778,32.5543556 C13.9005778,32.5543556 53.2228,11.9965778 103.741022,7.23035556 C110.401911,6.60102222 111.282356,7.60813333 109.523244,10.1214667 C108.081467,12.1801333 90.0419111,35.1348 118.448133,53.7365778" id="Fill-54" fill="#FFFFFF"></path>
                <path d="M92.0937333,21.1619111 C66.6737333,24.4685778 41.8168444,33.3196889 41.8168444,33.3196889 C46.0479556,40.8490222 57.5297333,37.6894667 57.5297333,37.6894667 C79.0652889,31.5934667 88.6764,29.5268 91.7586222,28.9290222 C91.6381778,26.5272444 91.7381778,23.9436889 92.0937333,21.1619111" id="Fill-56" fill="#B4975A"></path>
                <path d="M92.2814667,33.5377778 C88.0370222,34.3591111 70.2410222,38.0124444 52.2885778,44.7346667 C52.2885778,44.7346667 57.9476889,51.1822222 69.1748,47.9955556 C78.6205778,45.3191111 90.7281333,41.4555556 94.3401333,40.296 C93.4370222,38.256 92.7330222,36.0106667 92.2814667,33.5377778" id="Fill-58" fill="#B4975A"></path>
                <path d="M96.2265778,43.8596444 C92.3914667,45.0978667 73.2114667,51.3120889 65.1159111,54.4218667 C65.1159111,54.4218667 69.7603556,60.6503111 83.1692444,55.3707556 C92.5096889,51.6929778 97.6572444,49.5458667 99.9256889,48.5765333 C98.5759111,47.1774222 97.3239111,45.6120889 96.2265778,43.8596444" id="Fill-60" fill="#B4975A"></path>
                <path d="M102.887156,51.2860444 C99.5369333,52.7402667 87.0893778,58.1789333 79.8920444,61.6464889 C79.8920444,61.6464889 88.9511556,66.0980444 100.345822,59.0589333 L107.433378,54.4082667 C105.888933,53.5069333 104.357822,52.4731556 102.887156,51.2860444" id="Fill-62" fill="#B4975A"></path>
                <path d="M110.877822,56.2196444 C108.600044,57.6440889 99.1591556,63.5778667 94.5502667,66.9849778 C94.5502667,66.9849778 102.3756,70.2160889 110.401822,62.6618667 C113.012489,60.2036444 114.438267,58.8094222 115.224933,58.0120889 C113.839156,57.5143111 112.377822,56.9232 110.877822,56.2196444" id="Fill-64" fill="#B4975A"></path>
                <path d="M137.554267,53.7365778 C137.554267,53.7365778 167.218711,43.8072444 154.328933,12.2134667 C154.328933,12.2134667 185.693822,13.5143556 228.682267,30.8601333 C228.682267,30.8601333 231.697378,32.1174667 233.458711,32.7463556 C235.220044,33.3734667 238.0476,34.5001333 242.097378,32.5543556 C242.097378,32.5543556 202.777378,11.9965778 152.259156,7.23035556 C145.596489,6.60102222 144.717378,7.60813333 146.476489,10.1214667 C147.920489,12.1801333 165.960489,35.1348 137.554267,53.7365778" id="Fill-66" fill="#FFFFFF"></path>
                <path d="M163.905822,21.1619111 C189.326267,24.4685778 214.185378,33.3196889 214.185378,33.3196889 C209.953822,40.8490222 198.472044,37.6894667 198.472044,37.6894667 C176.934711,31.5934667 167.325822,29.5268 164.2436,28.9290222 C164.364489,26.5272444 164.261822,23.9436889 163.905822,21.1619111" id="Fill-68" fill="#B4975A"></path>
                <path d="M163.720489,33.5377778 C167.963156,34.3591111 185.759156,38.0124444 203.713378,44.7346667 C203.713378,44.7346667 198.052044,51.1822222 186.824933,47.9955556 C177.381378,45.3191111 165.273822,41.4555556 161.661822,40.296 C162.563156,38.256 163.266711,36.0106667 163.720489,33.5377778" id="Fill-70" fill="#B4975A"></path>
                <path d="M159.7756,43.8596444 C163.608933,45.0978667 182.790711,51.3120889 190.884044,54.4218667 C190.884044,54.4218667 186.241822,60.6503111 172.833378,55.3707556 C163.490267,51.6929778 158.344933,49.5458667 156.076489,48.5765333 C157.424489,47.1774222 158.676044,45.6120889 159.7756,43.8596444" id="Fill-72" fill="#B4975A"></path>
                <path d="M153.115022,51.2860444 C156.463022,52.7402667 168.910578,58.1789333 176.107467,61.6464889 C176.107467,61.6464889 167.050578,66.0980444 155.654133,59.0589333 L148.5688,54.4082667 C150.110578,53.5069333 151.642578,52.4731556 153.115022,51.2860444" id="Fill-74" fill="#B4975A"></path>
                <path d="M145.124578,56.2196444 C147.401911,57.6440889 156.843244,63.5778667 161.449911,66.9849778 C161.449911,66.9849778 153.624578,70.2160889 145.596578,62.6618667 C142.987244,60.2036444 141.563689,58.8094222 140.777022,58.0120889 C142.163244,57.5143111 143.625022,56.9232 145.124578,56.2196444" id="Fill-76" fill="#B4975A"></path>
                <path d="M152.292533,70.9835556 C152.292533,84.4062222 141.418756,95.2822222 128.000978,95.2822222 C114.5792,95.2822222 103.707644,84.4062222 103.707644,70.9835556 C103.707644,57.5671111 114.5792,46.6893333 128.000978,46.6893333 C141.418756,46.6893333 152.292533,57.5671111 152.292533,70.9835556" id="Fill-78" fill="#FFFFFF"></path>
                <path d="M147.267778,76.0108889 C147.267778,86.6571111 138.642889,95.282 128.001111,95.282 C117.357556,95.282 108.736667,86.6571111 108.736667,76.0108889 C108.736667,65.3704444 117.357556,56.7442222 128.001111,56.7442222 C138.642889,56.7442222 147.267778,65.3704444 147.267778,76.0108889" id="Fill-80" fill="#B4975A"></path>
                <path d="M140.786044,89.3707111 C139.811822,88.6058222 138.423378,87.2502667 138.175378,85.5787111 C138.152711,85.4307111 138.139378,85.2827111 138.122044,85.1356 C143.0616,83.0618222 147.230044,79.4973778 150.050933,74.9191556 C148.988711,80.8813778 145.566933,86.0333778 140.786044,89.3707111 L140.786044,89.3707111 Z M105.947378,74.9009333 C108.767822,79.4880444 112.938489,83.0582667 117.882489,85.1356 C117.864711,85.2836 117.8536,85.4324889 117.829156,85.5813778 C117.578933,87.2582667 116.193156,88.6093778 115.218489,89.3716 C110.430933,86.0307111 107.006933,80.8720444 105.947378,74.9009333 L105.947378,74.9009333 Z M111.110044,56.2893778 C110.106933,61.8227111 112.402489,67.0356 114.5056,71.8062667 C115.967378,75.1253778 117.368711,78.3129333 117.820267,81.5396 C112.0376,78.6573778 107.6416,73.3658222 106.007378,66.7422667 C106.767378,62.7907111 108.566489,59.2089333 111.110044,56.2893778 L111.110044,56.2893778 Z M134.811378,82.8547111 C133.146489,83.3876 131.407378,83.7378222 129.619378,83.8684889 L129.619378,48.6427111 C133.209156,48.9018222 136.568711,50.0040444 139.494489,51.7609333 C143.942489,58.1831556 141.436267,63.9133778 138.533156,70.4991556 C136.791822,74.4507111 135.006044,78.5133778 134.811378,82.8547111 L134.811378,82.8547111 Z M129.619378,87.1084889 C131.471822,86.9973778 133.274044,86.6991556 135.006044,86.2218222 C135.368711,88.3080444 136.655378,89.9649333 137.851378,91.1036 C135.334489,92.3422667 132.554489,93.1173778 129.619378,93.3284889 L129.619378,87.1084889 Z M120.998489,86.2218222 C122.730489,86.6991556 124.530044,86.9973778 126.380711,87.1084889 L126.380711,93.3284889 C123.448267,93.1173778 120.667822,92.3422667 118.150933,91.1036 C119.351378,89.9649333 120.636711,88.3080444 120.998489,86.2218222 L120.998489,86.2218222 Z M116.508267,51.7609333 C119.434044,50.0040444 122.793156,48.9018222 126.380711,48.6427111 L126.380711,83.8711556 C124.590489,83.7458222 122.8536,83.4093778 121.194933,82.8942667 C121.0096,78.5378222 119.217156,74.4640444 117.469156,70.5000444 C114.563822,63.9133778 112.060267,58.1831556 116.508267,51.7609333 L116.508267,51.7609333 Z M149.998933,66.7622667 C148.381156,73.2471556 143.942489,78.5422667 138.193156,81.4644889 C138.655822,78.2622667 140.046489,75.0982667 141.497156,71.8062667 C143.599822,67.0347111 145.893156,61.8218222 144.8896,56.2893778 C147.4376,59.2133778 149.239378,62.8022667 149.998933,66.7622667 L149.998933,66.7622667 Z M128.001156,44.8004889 C113.564267,44.8004889 101.818933,56.5449333 101.818933,70.9836 C101.818933,85.4244889 113.564267,97.1711556 128.001156,97.1711556 C142.438044,97.1711556 154.183822,85.4244889 154.183822,70.9836 C154.183822,56.5449333 142.438044,44.8004889 128.001156,44.8004889 L128.001156,44.8004889 Z" id="Fill-82" fill="#002B5C"></path>
                <path d="M135.779511,10.8042667 C135.779511,10.8042667 135.582622,11.6291556 135.082178,11.6291556 C134.579067,11.6291556 131.436844,10.1216 129.927511,9.30337778 C129.281733,8.95493333 128.379067,8.4296 128.063511,8.24648889 C128.063511,8.24648889 126.718178,8.95493333 126.0724,9.30337778 C124.563511,10.1216 121.423067,11.6291556 120.9204,11.6291556 C120.417289,11.6291556 120.2204,10.8042667 120.2204,10.8042667 C120.2204,10.8042667 111.973289,15.7829333 111.973289,29.5438222 C111.973289,39.7851556 117.303956,44.4318222 117.303956,44.4318222 L118.027956,47.3260444 L127.1004,47.3260444 L128.901733,47.3260444 L137.971956,47.3260444 L138.695956,44.4318222 C138.695956,44.4318222 144.029289,39.7851556 144.029289,29.5438222 C144.029289,15.7829333 135.779511,10.8042667 135.779511,10.8042667" id="Fill-84" fill="#002B5C"></path>
                <path d="M139.708756,26.0666667 C139.708756,21.8137778 137.978533,18.3524444 136.114533,16.2884444 C136.114533,16.2884444 136.054089,17.5017778 134.020311,16.144 C132.268311,14.9426667 130.204756,14.2364444 127.989644,14.2364444 C125.765644,14.2364444 123.698533,14.9448889 121.941644,16.152 C119.981644,17.4862222 119.8852,16.2884444 119.8852,16.2884444 C118.025644,18.3524444 116.293644,21.8137778 116.293644,26.0666667 C116.293644,29.5946667 117.158533,31.3373333 117.458089,31.8337778 C119.208311,36.3315556 123.262533,39.4857778 127.989644,39.4857778 C132.658978,39.4857778 136.673644,36.3964444 138.4572,31.9755556 C138.562089,31.8302222 139.708756,30.136 139.708756,26.0666667" id="Fill-86" fill="#FFFFFF"></path>
                <path d="M132.406667,35.6701778 C132.395556,35.6452889 132.375111,35.6208444 132.363556,35.5972889 C132.363556,35.5972889 131.201778,33.4195111 133.112889,31.9150667 C133.112889,31.9150667 137.431556,32.8168444 137.531556,27.0906222 C137.531556,27.0906222 137.431556,26.4870667 138.034667,25.2835111 C138.034667,25.2835111 136.925778,24.2755111 134.516444,26.0884 C132.104444,27.8928444 130.799556,33.0181778 129.494222,31.8137333 C128.204444,30.6186222 128.678222,23.9457333 128.005778,23.6932889 L127.980889,23.6932889 C127.314667,23.9470667 127.788889,30.6186222 126.496889,31.8137333 C125.191556,33.0181778 123.884,27.8928444 121.472,26.0884 C119.060444,24.2755111 117.958667,25.2835111 117.958667,25.2835111 C118.562222,26.4870667 118.459556,27.0906222 118.459556,27.0906222 C118.562222,32.8168444 122.878222,31.9150667 122.878222,31.9150667 C124.789333,33.4195111 123.636,35.6066222 123.636,35.6066222 C123.624444,35.6297333 123.606667,35.6532889 123.595556,35.6746222 C118.441333,30.1372889 115.446222,30.8892889 116.924,37.0915111 C118.376889,43.1799556 123.952889,69.3390667 124.840889,75.4021778 C124.717778,80.8581778 124.087556,82.8084 123.922222,83.2297333 L123.358667,84.3501778 L123.98,85.5946222 C124.961333,87.0190667 125.640444,88.6208444 125.882222,89.2288444 L128.008,94.6257333 L130.117778,89.2417333 C130.365778,88.6208444 131.047556,87.0190667 132.024444,85.5946222 L132.672889,84.4137333 L132.086667,83.2306222 C131.921333,82.8208444 131.306667,80.9439556 131.165778,75.6852889 C131.900889,70.2444 137.601333,43.2888444 139.078222,37.0915111 C140.553333,30.8915111 137.560889,30.1372889 132.406667,35.6701778" id="Fill-88" fill="#002B5C"></path>
                <path d="M124.505422,62.9362222 C122.654756,53.2037778 121.1952,46.0051111 120.016978,40.7828889 C119.118756,36.7922222 121.516978,38.3882222 122.808978,40.8833333 L124.505422,62.9362222 Z" id="Fill-90" fill="#E31837"></path>
                <path d="M131.496978,62.9362222 C133.349867,53.2037778 134.806756,46.0051111 135.984978,40.7828889 C136.880978,36.7922222 134.485422,38.3882222 133.193422,40.8833333 L131.496978,62.9362222 Z" id="Fill-92" fill="#E31837"></path>
                <path d="M121.579644,29.9728889 C121.2152,29.872 120.998311,29.4933333 121.105867,29.1302222 C121.143644,28.9848889 121.233422,28.8728889 121.340533,28.7862222 C121.098756,28.512 120.8152,28.2382222 120.473422,27.9933333 C120.473422,27.9933333 119.872089,30.8075556 122.384089,30.5071111 C122.384089,30.5071111 122.294756,30.2577778 122.109422,29.9013333 C121.9552,29.9906667 121.7672,30.0217778 121.579644,29.9728889" id="Fill-94" fill="#E31837"></path>
                <path d="M135.526889,27.9935111 C135.184222,28.2370667 134.900667,28.5121778 134.659778,28.7846222 C134.769111,28.8730667 134.858444,28.9846222 134.900667,29.1299556 C134.999333,29.4935111 134.782444,29.8721778 134.418444,29.9730667 C134.230444,30.0219556 134.045111,29.9917333 133.892667,29.9010667 C133.705111,30.2575111 133.618,30.5068444 133.618,30.5068444 C136.13,30.8077333 135.526889,27.9935111 135.526889,27.9935111" id="Fill-96" fill="#E31837"></path>
                <path d="M129.1788,66.5460444 C129.977022,51.5100444 131.175244,40.8620444 131.175244,39.5327111 C131.175244,39.0584889 131.121022,38.4504889 130.924578,37.7811556 L130.0508,40.6398222 L129.782356,35.5873778 C129.341911,35.0220444 128.743244,34.4531556 127.987689,33.9087111 L127.941022,33.9087111 C127.187689,34.4531556 126.657911,35.0193778 126.217467,35.5851556 L125.956133,40.6398222 L125.075689,37.7776 C124.881022,38.4504889 124.827244,39.0571556 124.827244,39.5327111 C124.827244,40.8620444 126.0188,51.5100444 126.818356,66.5460444 C127.616578,81.5816 125.752578,84.3749333 125.752578,84.3749333 C126.832133,85.9398222 127.9988,88.7198222 127.9988,88.7198222 C127.9988,88.7198222 129.168133,85.9398222 130.247244,84.3749333 C130.247244,84.3749333 128.383244,81.5816 129.1788,66.5460444" id="Fill-98" fill="#E31837"></path>
            </g>
        </g>
    </g>
</svg>