<?xml version="1.0" encoding="UTF-8"?>
<svg width="256px" height="256px" viewBox="0 0 256 256" version="1.1" xmlns="http://www.w3.org/2000/svg" xmlns:xlink="http://www.w3.org/1999/xlink">
    <!-- Generator: Sketch 63.1 (92452) - https://sketch.com -->
    <title>Teams/Defualt/DPistons/256</title>
    <desc>Created with Sketch.</desc>
    <defs>
        <polygon id="path-1" points="8.88888889e-05 8.88888889e-05 256 8.88888889e-05 256 256 8.88888889e-05 256"></polygon>
    </defs>
    <g id="Teams/Defualt/DPistons/256" stroke="none" stroke-width="1" fill="none" fill-rule="evenodd">
        <g id="Teams/Defualt/DPistons/base">
            <g id="Group-38">
                <g id="Group-3">
                    <mask id="mask-2" fill="white">
                        <use xlink:href="#path-1"></use>
                    </mask>
                    <g id="Clip-2"></g>
                    <path d="M256.000089,128.000089 C256.000089,198.692089 198.690311,256.000089 128.000089,256.000089 C57.3058667,256.000089 8.88888889e-05,198.692089 8.88888889e-05,128.000089 C8.88888889e-05,57.3076444 57.3058667,8.88888889e-05 128.000089,8.88888889e-05 C198.690311,8.88888889e-05 256.000089,57.3076444 256.000089,128.000089" id="Fill-1" fill="#B5B3B3" mask="url(#mask-2)"></path>
                </g>
                <path d="M252.324756,128.000089 C252.324756,196.662311 196.6612,252.326311 128.000756,252.326311 C59.3345333,252.326311 3.67275556,196.662311 3.67275556,128.000089 C3.67275556,59.3338667 59.3345333,3.67208889 128.000756,3.67208889 C196.6612,3.67208889 252.324756,59.3338667 252.324756,128.000089" id="Fill-4" fill="#1D428A"></path>
                <path d="M234.018356,128.000089 C234.018356,186.548978 186.553911,234.013422 127.999244,234.013422 C69.4441333,234.013422 21.9814667,186.548978 21.9814667,128.000089 C21.9814667,69.4472 69.4441333,21.9845333 127.999244,21.9845333 C186.553911,21.9845333 234.018356,69.4472 234.018356,128.000089" id="Fill-6" fill="#C8102E"></path>
                <path d="M127.999689,227.933911 C85.6556889,227.933911 49.4050222,201.452133 34.8743556,164.190356 C52.6414667,188.509022 87.7156889,205.099689 127.999689,205.099689 C168.285911,205.099689 203.357911,188.509022 221.1268,164.190356 C206.596578,201.452133 170.343689,227.933911 127.999689,227.933911 M127.999689,28.0632444 C170.343689,28.0632444 206.5988,54.5468 221.129022,91.8103556 C203.357911,67.4939111 168.287244,50.9014667 127.999689,50.9014667 C87.7139111,50.9014667 52.6414667,67.4939111 34.8725778,91.8103556 C49.4028,54.5468 85.6556889,28.0632444 127.999689,28.0632444 M28.1405778,131.119244 L47.6525778,131.119244 L47.6525778,124.881467 L28.1405778,124.881467 C28.2148,122.521022 28.3401333,120.171689 28.5756889,117.857022 C35.4903556,83.0450222 77.4276889,56.1832444 127.999689,56.1832444 C178.567689,56.1832444 220.509022,83.0450222 227.425467,117.8588 C227.659244,120.173911 227.788578,122.521022 227.859244,124.881467 L208.347244,124.881467 L208.347244,131.119244 L227.859244,131.119244 C227.788578,133.480133 227.659244,135.827244 227.425467,138.144133 C220.509022,172.954356 178.567689,199.817467 127.999689,199.817467 C77.4276889,199.817467 35.4903556,172.956133 28.5756889,138.144133 C28.3401333,135.827244 28.2148,133.480133 28.1405778,131.119244 M127.999689,21.9810222 C69.5419111,21.9810222 21.9823556,69.5410222 21.9823556,128.000578 C21.9823556,186.458356 69.5419111,234.016133 127.999689,234.016133 C186.459244,234.016133 234.0188,186.458356 234.0188,128.000578 C234.0188,69.5410222 186.459244,21.9810222 127.999689,21.9810222" id="Fill-8" fill="#FFFFFF"></path>
                <polygon id="Fill-10" fill="#FFFFFF" points="83.2008444 164.449511 90.7008444 164.449511 90.7008444 130.768622 83.2044 130.768622"></polygon>
                <path d="M111.934356,130.785467 L111.708133,130.783689 C109.600578,130.768578 101.946356,130.739689 100.475244,130.770356 L100.093467,130.791244 C97.8316889,130.791244 96.3930222,131.865022 96.0410222,133.813022 C95.9783556,134.130356 95.9765778,134.373467 95.9783556,134.373467 C95.9708,134.444133 95.4596889,140.757911 96.0810222,142.537022 C97.0863556,145.435689 99.4245778,146.509467 101.577911,147.1748 C101.648133,147.195689 101.722356,147.218356 101.800133,147.237467 C101.937022,147.273467 102.079689,147.311689 102.216133,147.368578 C102.453911,147.465022 102.619244,147.592578 102.718356,147.754356 L102.750356,159.882356 L96.5619111,159.901467 L96.5845778,164.3868 L104.725022,164.396133 L104.729022,164.396133 C107.555244,164.273022 109.503244,163.035689 110.225467,160.899244 C110.429022,159.253022 110.457467,147.961467 110.293911,145.6028 C110.2428,144.713467 109.836133,143.998356 109.013022,143.350356 C108.693467,143.103689 108.298356,142.849022 107.7948,142.565911 C107.349911,142.335689 106.869022,142.097911 106.407244,141.883244 C104.647244,141.024133 102.653467,140.049022 102.653467,137.806356 L102.661022,135.890356 L108.547244,135.888578 C109.754356,135.888578 110.719689,135.299244 111.345022,134.183689 C111.818356,133.328578 111.947689,132.475244 111.945467,132.427244 C111.997022,131.872578 111.968578,131.353467 111.947689,131.011689 L111.934356,130.785467 Z" id="Fill-12" fill="#FFFFFF"></path>
                <path d="M143.7336,138.351422 C143.770044,137.462089 143.843822,136.796756 143.9656,136.268311 L144.100711,136.138978 C144.434933,136.087867 144.762044,136.0652 145.159378,136.0652 L145.3096,136.066978 C147.852711,136.097644 147.924711,136.8612 147.924711,141.4612 L147.924711,155.523867 C147.924711,155.943867 147.924711,156.339422 147.896267,156.7572 C147.877156,157.158089 147.8336,157.540311 147.759378,157.894089 L147.622489,158.027422 C147.1776,158.093644 146.748267,158.127867 146.284267,158.127867 C145.353156,158.127867 144.703378,157.924311 144.299822,157.508311 C143.703378,156.894533 143.686489,155.866089 143.722489,154.678089 L143.722489,140.474533 C143.722489,140.474533 143.709156,138.8972 143.7336,138.351422 M146.206489,130.756756 C144.518933,130.756756 142.758933,130.811867 141.340711,131.212756 C137.668711,132.098533 135.884267,134.550089 135.884267,138.712756 L135.884267,158.749644 C135.884267,163.880756 139.556267,164.934089 145.068267,164.934089 C151.746489,164.934089 155.578489,162.5732 155.578489,158.464311 L155.590044,137.582089 C155.590044,130.756756 151.2416,130.756756 146.206489,130.756756" id="Fill-14" fill="#FFFFFF"></path>
                <path d="M172.964533,145.081911 C169.383644,132.113467 163.636533,130.667244 161.256533,130.667244 C160.637422,130.667244 160.264533,130.766356 160.249422,130.770356 L160.070756,130.817467 L160.068533,164.473911 L167.659644,164.483244 L167.659644,150.943244 L172.949422,164.483244 L180.665867,164.483244 L180.665867,130.802356 L172.964533,130.802356 L172.964533,145.081911 Z" id="Fill-16" fill="#FFFFFF"></path>
                <path d="M71.0460889,145.712533 L66.8265333,145.716533 L66.8265333,135.935644 C66.8265333,135.935644 69.1207556,135.892089 69.4629778,135.935644 C70.2936444,136.044089 71.0652,136.365422 71.0652,137.3672 C71.0652,137.692089 71.0460889,145.712533 71.0460889,145.712533 M74.0758667,130.756978 L55.1532,130.7832 L54.9212,130.784978 L54.9096444,131.013422 C54.9078667,131.053422 54.7483111,135.021422 59.1749778,135.943644 L59.1749778,164.458756 L66.9349778,164.458756 L66.9349778,150.128089 L73.4620889,150.128089 C76.9074222,150.128089 78.8843111,147.860533 78.8843111,143.910756 L78.9016444,142.703644 C78.9016444,133.162756 78.5158667,131.250756 74.0758667,130.756978" id="Fill-18" fill="#FFFFFF"></path>
                <path d="M133.556089,130.810622 L116.003644,130.810622 L116.003644,136.106178 L121.005867,136.106178 L121.005867,164.508844 L128.718756,164.503511 L128.726311,136.075511 C128.821422,136.079067 128.914756,136.081289 129.005867,136.081289 C130.383644,136.081289 131.482311,135.661289 132.268978,134.830622 C133.669867,133.355956 133.5712,131.135511 133.5672,131.040844 L133.556089,130.810622 Z" id="Fill-20" fill="#FFFFFF"></path>
                <path d="M201.103822,130.785467 L200.8776,130.783689 C198.770044,130.768578 191.115822,130.739689 189.645156,130.770356 L189.262933,130.791244 C187.0016,130.791244 185.562489,131.865022 185.212711,133.813022 C185.148267,134.130356 185.148267,134.373467 185.148267,134.373467 C185.142489,134.444133 184.6296,140.757911 185.250933,142.537022 C186.256267,145.435689 188.594044,146.509467 190.7456,147.1748 C190.8176,147.195689 190.891822,147.218356 190.9696,147.237467 C191.106933,147.273467 191.249156,147.311689 191.386044,147.368578 C191.623822,147.465022 191.790933,147.592578 191.890044,147.754356 L191.920267,159.882356 L185.731822,159.901467 L185.754489,164.3868 L193.894933,164.396133 L193.900711,164.396133 C196.724711,164.273022 198.672711,163.035689 199.397156,160.899244 C199.598489,159.253022 199.627378,147.961467 199.4656,145.6028 C199.412267,144.713467 199.0056,143.998356 198.182933,143.350356 C197.863378,143.103689 197.467822,142.849022 196.966044,142.565911 C196.519822,142.335689 196.040711,142.097911 195.578489,141.883244 C193.816711,141.024133 191.825156,140.049022 191.825156,137.806356 L191.830933,135.890356 L197.717156,135.888578 C198.924267,135.888578 199.8896,135.299244 200.514933,134.183689 C200.987822,133.328578 201.117156,132.475244 201.115378,132.427244 C201.166933,131.872578 201.140267,131.353467 201.117156,131.011689 L201.103822,130.785467 Z" id="Fill-22" fill="#FFFFFF"></path>
                <path d="M132.260533,96.2394667 L133.537422,96.2359111 L133.740978,96.2394667 C135.702311,96.2719111 136.434311,96.2812444 136.382756,99.7403556 C136.388533,102.494578 136.382756,102.669244 136.329422,104.030133 L136.324089,104.286578 C136.329422,104.683911 136.160533,105.123022 135.905867,105.383467 C135.7272,105.565689 135.516089,105.657244 135.278756,105.657244 L132.260533,105.657244 L132.260533,96.2394667 Z M132.239644,109.987022 L133.541422,109.987022 C134.793867,110.013244 136.896089,110.397244 136.896089,112.647467 C136.896089,113.723467 136.992978,117.089689 137.028978,118.355467 L137.044533,118.8608 C137.053867,119.049244 137.135644,120.6968 137.216978,121.008356 C137.752978,122.970133 139.279644,124.146578 141.662756,124.403022 L143.858311,124.403022 L143.858311,112.415911 C143.858311,111.387467 143.297422,109.947022 142.491644,108.9168 L142.331644,108.699911 C143.534756,107.347022 144.002756,105.983911 144.002756,103.903022 L144.012089,102.731911 C144.012089,93.4225778 143.639644,91.5563556 139.315644,91.0772444 L124.745422,91.0772444 L124.745422,123.9488 L132.239644,123.9488 L132.239644,109.987022 Z" id="Fill-24" fill="#FFFFFF"></path>
                <polygon id="Fill-26" fill="#FFFFFF" points="178.766178 91.0766667 171.4564 91.0766667 171.431511 123.930889 178.766178 123.934889"></polygon>
                <path d="M108.580178,123.979911 L116.102844,123.968356 L116.112178,96.2003556 C116.207289,96.2039111 116.296622,96.2056889 116.387733,96.2056889 C117.737511,96.2056889 118.813067,95.7954667 119.580622,94.9839111 C120.943733,93.5470222 120.845067,91.3861333 120.839289,91.2963556 L120.827733,91.0763556 L103.699289,91.0763556 L103.699289,96.2363556 L108.580178,96.2363556 L108.580178,123.979911 Z" id="Fill-28" fill="#FFFFFF"></path>
                <path d="M187.495333,123.979911 L195.023778,123.968356 L195.023778,96.2003556 C195.118889,96.2039111 195.211778,96.2056889 195.299778,96.2056889 C196.654444,96.2056889 197.73,95.7936889 198.500222,94.9816889 C199.862889,93.5448 199.766,91.3861333 199.760222,91.2963556 L199.748667,91.0763556 L182.618444,91.0763556 L182.618444,96.2363556 L187.495333,96.2363556 L187.495333,123.979911 Z" id="Fill-30" fill="#FFFFFF"></path>
                <polygon id="Fill-32" fill="#FFFFFF" points="99.7616 118.664356 91.8833778 118.664356 91.8833778 110.678133 97.2851556 110.678133 97.2851556 103.523911 91.8833778 103.523911 91.8833778 96.1248 99.7616 96.1248 99.7616 91.0768 84.5736 91.0768 84.5487111 123.931022 99.7616 123.931022"></polygon>
                <path d="M72.4202222,118.664356 L68.2575556,118.664356 L68.2575556,96.2310222 C70.8366667,96.1230222 71.3824444,96.3510222 71.426,96.3696889 C72.3953333,96.7519111 72.3784444,98.5536889 72.3784444,98.5994667 C72.65,101.197689 72.4486667,116.598578 72.4202222,118.664356 M75.0162222,91.0768 L56.282,91.0768 L56.2553333,91.2781333 C56.242,91.3581333 56.0157778,93.2452444 57.2322222,94.6839111 C58.0037778,95.6003556 59.1802222,96.1132444 60.7428889,96.2119111 L60.7428889,123.891022 L74.6931111,123.891022 C77.8748889,123.891022 80.0113333,121.188356 80.0113333,117.1648 L80.0171111,101.917689 C80.0224444,93.5056889 80.0246667,91.2439111 75.0162222,91.0768" id="Fill-34" fill="#FFFFFF"></path>
                <path d="M155.673733,98.5111556 C155.709733,97.6409333 155.783956,96.9907111 155.903956,96.4716 L156.038622,96.3462667 C156.367511,96.2951556 156.694622,96.2720444 157.086178,96.2720444 L157.2364,96.2742667 C159.759956,96.3044889 159.831956,97.0533778 159.831956,101.553822 L159.831956,115.316489 C159.831956,115.728933 159.831956,116.116489 159.805733,116.5236 C159.784844,116.916933 159.740844,117.289378 159.668844,117.637378 L159.5324,117.766267 C159.092844,117.832933 158.665289,117.865378 158.203511,117.865378 C157.281733,117.865378 156.637289,117.665822 156.2364,117.259156 C155.643511,116.656489 155.626622,115.650711 155.662622,114.489822 L155.662622,100.588489 C155.662622,100.588489 155.648844,99.0453778 155.673733,98.5111556 M158.127511,91.0778222 C156.453289,91.0778222 154.706178,91.1311556 153.299956,91.5244889 C149.654622,92.3911556 147.883067,94.7916 147.883067,98.8627111 L147.883067,118.473822 C147.883067,123.496933 151.5284,124.524933 156.998178,124.524933 C163.626178,124.524933 167.427067,122.2156 167.427067,118.196044 L167.438622,97.7564889 C167.438622,91.0778222 163.122622,91.0778222 158.127511,91.0778222" id="Fill-36" fill="#FFFFFF"></path>
            </g>
        </g>
    </g>
</svg>