<?xml version="1.0" encoding="UTF-8"?>
<svg width="256px" height="256px" viewBox="0 0 256 256" version="1.1" xmlns="http://www.w3.org/2000/svg" xmlns:xlink="http://www.w3.org/1999/xlink">
    <!-- Generator: Sketch 63.1 (92452) - https://sketch.com -->
    <title>Teams/Defualt/TRaptors/WhiteBG/256</title>
    <desc>Created with Sketch.</desc>
    <defs>
        <polygon id="path-1" points="0.084747805 0.0988652437 153.146515 0.0988652437 153.146515 54.166003 0.084747805 54.166003"></polygon>
    </defs>
    <g id="Teams/Defualt/TRaptors/WhiteBG/256" stroke="none" stroke-width="1" fill="none" fill-rule="evenodd">
        <g id="Teams/Defualt/TRaptors/WhiteBG/base" transform="translate(0.000000, 4.000000)">
            <g id="Group-18" transform="translate(0.000000, 0.000000)">
                <path d="M166.177105,239.641062 C166.376563,239.875057 166.500468,240.180719 166.631713,240.171025 C167.277575,240.149635 168.56455,239.936794 168.56455,239.936794 L169.843754,239.385912 L173.46982,237.972873 C173.46982,237.972873 182.52225,233.656045 182.542973,233.63489 C182.58485,233.603806 184.132156,232.788707 184.132156,232.788707 L184.964955,232.420877 L185.941951,231.752997 L187.544518,230.769957 L189.450156,229.724317 L191.912721,228.11441 L196.185513,225.100963 L198.269886,223.453497 L201.268654,221.283211 L203.999753,219.253667 L205.300111,218.304733 L207.09566,216.622729 L208.987051,214.751629 L212.00093,211.514979 L215.52295,208.129816 L219.594989,203.445158 L221.824422,200.463226 L222.608437,199.38607 L225.002789,196.435223 L229.659817,189.730951 L230.987806,187.533034 L234.104004,181.355036 L235.892644,177.994913 L238.90566,171.862245 L240.542765,168.140768 L242.318022,162.430328 C242.318022,162.430328 244.415778,154.879873 245.54431,150.935193 C245.681599,150.480586 245.723044,150.078649 245.441559,149.67628 C244.794833,148.768361 244.319935,147.604859 243.714223,146.587281 C243.397768,146.061007 242.944024,145.520486 242.648292,145.087465 C242.35256,144.643651 241.561206,143.639024 241.251659,143.278533 C240.92182,142.886094 240.522473,142.559278 240.123559,142.253616 C239.146563,141.345264 238.293472,140.433891 237.47492,139.841995 C237.076437,139.621814 236.72458,139.346805 236.374019,139.071796 C233.842809,137.114782 231.263247,135.549344 228.359458,134.290862 C227.155374,133.77495 225.896461,133.327682 224.637549,132.883867 C223.764599,132.587703 222.346811,132.250526 221.425507,132.092946 C220.888872,131.996239 220.462759,131.996239 220.049597,132.250526 C219.65025,132.525967 219.636867,133.138154 219.57513,133.740412 C219.402871,135.304987 219.341135,137.038366 219.216798,138.618052 C219.065693,140.255156 218.948696,141.8819 218.82479,143.522027 C218.694841,145.001552 218.625333,146.48453 218.446167,147.952399 C218.212603,149.899483 217.938025,151.83232 217.572785,153.769042 C216.891953,157.374386 216.114847,160.958143 215.364507,164.542332 C215.151234,165.536165 215.013514,166.551153 214.628414,167.483249 C213.968305,169.007242 213.493407,170.572248 213.190335,172.189062 C212.530658,175.604014 211.284697,178.820373 210.12249,182.043639 C209.165786,184.67803 208.230667,187.361207 206.737759,189.751242 C206.621193,189.910117 206.565932,190.112597 206.503763,190.271472 C205.795301,191.932322 205.128284,193.611304 204.378376,195.251862 C203.89657,196.318226 203.208399,197.291768 202.761994,198.361153 C202.190821,199.713318 201.426666,200.951508 200.649991,202.165954 C199.390646,204.112174 198.069565,206.014359 196.976435,208.047356 C196.226095,209.485004 195.359621,210.816447 194.417163,212.127167 C194.162445,212.467798 193.956512,212.804545 193.722516,213.141723 C192.972177,214.252553 192.284869,215.3949 191.44473,216.430179 C189.869794,218.427775 188.232689,220.426666 186.561046,222.362957 C185.529221,223.591649 184.373059,224.708956 183.273021,225.87548 C182.267963,226.931481 181.278016,227.990937 180.272958,229.046938 C180.059685,229.277048 179.784676,229.449307 179.55068,229.659126 C178.952308,230.157769 178.306014,230.642166 177.755564,231.19348 C176.455205,232.492975 175.113833,233.741958 173.579479,234.766876 C172.918938,235.21069 172.258829,235.643711 171.660025,236.153148 C170.036735,237.545896 168.213988,238.58506 166.177105,239.641062" id="Fill-1" fill="#CE1141"></path>
                <path d="M247.04391,142.803764 C247.112986,142.803764 247.133709,142.69756 247.140616,142.549478 C247.181199,142.242952 247.236028,141.68214 247.236028,141.68214 L248.116749,133.815662 L248.640432,126.455166 L248.674107,119.117983 L248.653816,117.996791 L247.787342,109.686498 C247.787342,109.686498 246.768469,102.219366 245.998701,98.3700972 C245.716353,97.0183633 244.877077,96.3202624 243.769268,95.7797415 C243.397984,95.601007 242.999069,95.4084572 242.593247,95.2845518 C241.788078,95.0302653 240.880158,94.6274649 240.068945,94.4280075 C238.196982,93.9496552 236.422156,93.3374678 234.523425,93.0210127 C232.294424,92.6393669 230.010594,92.4058032 227.761302,92.1955526 C225.896677,92.0271795 224.039824,91.9615572 222.16786,91.9309046 C220.682291,91.9101818 219.788187,91.8898907 218.294847,91.8898907 C217.503925,91.8898907 216.657742,91.9201115 216.286458,92.4058032 C215.935464,92.9044467 216.189751,93.7812821 216.327903,94.6788403 C216.602913,96.4886355 216.912029,97.3965552 217.2151,99.1955573 C218.116112,104.523487 219.065478,109.834148 219.258891,115.258353 C219.361642,117.691129 219.49893,120.112248 219.609452,122.554522 C219.629743,123.24183 219.629743,123.685644 219.637083,124.383745 C219.650466,124.807268 219.746741,125.261444 219.946199,125.567106 C220.159903,125.904715 220.496649,125.949183 220.888656,126.076542 C221.363555,126.224624 221.803915,126.265206 222.257659,126.372274 C222.725218,126.499202 223.592556,126.668438 224.18402,126.857103 C226.343945,127.555635 228.634683,128.315905 230.733735,129.172017 C232.211965,129.774275 233.594783,130.620026 235.025523,131.384181 C235.191305,131.456711 235.348885,131.573277 235.500421,131.690706 C236.332789,132.302462 237.172064,132.928033 237.997524,133.541084 C239.951516,134.978731 241.974152,136.374933 243.473536,138.342308 C243.755885,138.720932 244.099539,139.071493 244.45744,139.387949 C245.035089,139.907747 246.018992,141.768485 246.74127,142.614237 C246.865175,142.761887 246.981741,142.803764 247.04391,142.803764" id="Fill-3" fill="#CE1141"></path>
                <g id="Group-7" transform="translate(41.445692, 0.332861)">
                    <mask id="mask-2" fill="white">
                        <use xlink:href="#path-1"></use>
                    </mask>
                    <g id="Clip-6"></g>
                    <path d="M150.095702,54.0058517 C150.839134,53.9644061 151.513058,53.9436832 152.083368,53.8784926 C152.510777,53.8374786 152.902352,53.816324 153.088426,53.3725098 C153.280544,52.9295589 152.943798,52.4645901 152.83414,52.2616789 C152.675696,51.8903946 151.257908,49.3760226 151.257908,49.3760226 L149.87509,47.2191197 L144.034701,38.8026222 L142.824573,37.3649748 L141.703381,35.8409822 L139.776588,33.725525 L135.057392,28.5448135 L133.021372,26.5463541 L125.701459,19.7777546 L119.709534,15.1479254 L117.542702,13.9956488 L110.483982,9.70256594 L105.558852,7.0370899 L104.609919,6.63472131 L100.591414,5.1759193 L94.6340272,2.93353469 L94.1738073,2.82733011 L92.2474461,2.36236125 L91.7380095,2.26651809 L90.0663666,1.83220178 L86.5240551,1.18936183 L84.82435,1.13453264 L81.673614,0.542636353 L77.8830601,0.288349765 L76.5555028,0.144153296 L74.1749659,0.0988220711 L70.2194927,0.205890108 L66.2847423,0.64970439 L63.251004,0.725256432 L60.5751666,1.02098871 L57.8164377,1.56755377 L55.7247255,2.21427925 L52.3469016,2.87179788 L51.5762708,2.84762123 L48.4190588,3.98953638 L46.5479586,4.49897301 L45.4060434,5.19707388 L42.6404069,5.94655013 L41.3124179,6.72063477 L39.6476826,7.36390645 L35.5544888,9.06663361 L30.3534863,11.0957456 L28.6339218,11.9216374 L24.994472,13.8890125 L21.8234448,15.9595702 L18.858351,17.503854 L17.7915561,18.1190634 L14.5592239,19.8325838 L14.0294962,20.1697617 L10.3486007,23.0657794 L7.30147887,25.1194998 L6.70267497,25.5214367 L3.24239144,28.2490813 L1.99686206,29.295585 C1.99686206,29.295585 0.132669386,30.8908124 0.084747805,31.1045167 L1.39158227,30.7120778 C1.39158227,30.7120778 3.77211919,29.8348107 3.80622554,29.8559653 C3.85457885,29.8762564 4.26730886,29.8969792 4.26730886,29.8969792 L7.68657842,28.5007775 L8.18910744,28.5007775 L11.9377839,27.0320458 C11.9377839,27.0320458 13.8982515,26.3676195 13.8982515,26.4198584 C13.8982515,26.4712338 15.8932571,25.6906732 15.8932571,25.6906732 L18.6796164,24.6959766 L25.4145413,22.1164141 L26.0340681,22.081876 L29.4870123,20.8786557 L32.2181107,19.7570317 L32.6105495,20.0424026 C32.6105495,20.0424026 37.8383191,20.1697617 37.9073953,20.1697617 L41.2644963,20.4348415 L41.3745864,20.4862169 L48.1712481,21.0362357 L48.2472319,20.9744989 L57.6372714,21.4597589 L57.6921006,21.6937544 L61.0224347,24.5483264 L61.2767212,24.5383967 L64.6674969,27.8264215 L64.9774761,27.6787713 L69.648751,27.805267 L69.8827464,27.647687 L81.6321683,28.3324044 L81.7012445,28.5970524 L86.9294458,31.620861 L87.1565336,31.5897767 L96.3889932,36.0849073 L96.4572059,36.5809605 L101.699654,34.5406236 L109.377037,37.1309793 L110.676964,39.2464365 L113.497861,39.4351008 L116.207805,42.5038088 L116.483678,42.5133068 L118.67037,45.0073877 L118.704908,45.1658311 L119.007979,45.1658311 L125.06898,46.54131 L127.297549,49.98821 L132.904806,52.0181854 C132.904806,52.0181854 138.923066,53.5620375 141.984866,53.9436832 C144.723304,54.3020157 147.969883,54.1539337 150.095702,54.0058517" id="Fill-5" fill="#CE1141" mask="url(#mask-2)"></path>
                </g>
                <path d="M243.810585,89.891388 C243.63185,89.0003057 242.99894,87.2047574 242.99894,87.2047574 L242.648378,86.2312154 L242.338399,85.0379248 L241.34802,82.0762848 L240.425853,79.4967222 L237.550127,73.0881821 L236.236384,69.9275164 L234.59928,66.2884983 L232.631473,63.0652324 L232.171253,62.1327043 L230.856647,59.5017663 L229.639612,57.5136683 L229.122836,56.814704 L220.730083,45.4572893 C220.730083,45.4572893 219.925778,44.4941087 219.513048,44.0192101 C219.319635,43.7649235 219.258761,43.5762593 218.990228,43.5762593 C218.969073,43.5762593 218.948782,43.5965504 218.928059,43.5965504 C218.928059,43.5965504 216.348928,47.8063102 215.267887,49.0103939 C214.195048,50.1937547 212.035123,52.1818528 212.035123,52.1818528 C212.035123,52.1818528 210.218851,53.6743294 209.901965,53.9053028 C209.592849,54.1392982 208.210031,55.0571476 208.210031,55.0571476 L206.290577,56.1584805 C206.290577,56.1584805 204.846454,56.8254971 204.612458,56.9183182 C204.378463,57.0150248 204.103022,57.110868 203.944578,57.3003957 C203.807289,57.4925137 203.765844,57.6371419 203.820673,57.9574826 C203.869026,58.2083154 203.944578,58.4626019 204.061576,58.6965974 C204.832207,60.3129794 205.540669,61.9746926 206.386852,63.5500606 C207.680735,65.9064209 208.471657,68.4242466 209.531112,70.8764501 C209.889013,71.681619 210.239574,72.507079 210.514152,73.3329708 C211.223046,75.4998033 211.89697,77.686927 212.592481,79.8438299 C212.881305,80.8070105 213.197761,81.7697594 213.486585,82.7433014 C213.761595,83.7030282 213.988683,84.6761385 214.257216,85.6604737 C214.41566,86.3171289 214.848681,86.6029314 215.495406,86.59257 C216.127885,86.59257 216.761658,86.5683934 217.394137,86.5373091 C219.636953,86.4647791 221.878906,86.400452 224.142445,86.3585745 C224.789171,86.3477814 229.267896,86.7609431 229.267896,86.7609431 C229.267896,86.7609431 230.877802,86.9301797 231.661816,87.0566754 C233.36109,87.3731305 235.067271,87.7547763 236.766544,88.1126771 C238.196852,88.4084094 239.669038,88.8966914 240.997027,89.5097423 C241.643752,89.8054746 242.352646,89.9837774 243.067153,90.19705 C243.280857,90.2592186 243.63185,90.3140477 243.693587,90.2795097 C243.748416,90.2592186 243.831307,90.0083858 243.810585,89.891388" id="Fill-8" fill="#CE1141"></path>
                <path d="M214.449464,39.7679615 C214.381251,39.4515063 213.789355,38.5435867 213.789355,38.5435867 L213.356334,37.7802952 L212.138003,36.3840934 L211.31945,35.2003009 L209.792436,33.6901235 C209.792436,33.6901235 209.45569,33.4012988 209.296814,33.2640099 C206.614069,31.0863842 201.261963,26.7626488 201.248147,26.7423577 C201.248147,26.7315645 199.769486,25.5797197 199.769486,25.5797197 L196.99651,23.1447853 L183.093639,14.792615 L172.120461,9.59895172 C172.120461,9.59895172 166.301226,7.31468969 166.294319,7.32807319 C166.294319,7.32807319 164.175408,6.58593627 164.154685,6.58593627 C164.120579,6.59931978 156.986307,4.1229397 156.986307,4.1229397 L151.929933,2.84330397 L147.024663,1.78687056 L146.254895,1.71175024 L145.821442,2.14477137 L146.01356,2.35847572 C146.01356,2.35847572 146.509182,2.6093085 146.750085,2.69522197 C148.262853,3.30740937 149.804546,3.85829169 151.331992,4.4739329 C152.322372,4.87241596 153.26483,5.4021437 154.289747,5.69830771 C154.998641,5.91158033 155.652274,6.16241311 156.277845,6.53412916 C158.617368,7.87938724 160.928397,9.2311212 163.246765,10.6070318 C164.622676,11.438536 165.908788,12.4025801 167.09258,13.5229089 C168.007407,14.3488007 168.93605,15.1401544 170.023136,15.7458659 C170.511418,15.9962669 170.910333,16.4439667 171.343354,16.8018676 C171.577349,17.0008932 171.825592,17.2038044 172.065631,17.414055 C173.421251,18.5352473 174.907252,19.4984279 176.117811,20.8082844 C177.403923,22.1949882 178.759542,23.526431 180.135453,24.8367193 C181.415089,26.1059936 182.721923,27.3338222 183.823256,28.7714697 C184.730744,29.9552622 185.666294,31.1174685 186.719274,32.176924 C188.728095,34.1645903 190.275832,36.5317437 192.105919,38.667492 C192.339482,38.9222103 192.469864,39.2628421 192.662845,39.5581427 C193.845774,41.4193132 194.912569,43.3629435 196.329494,45.0751686 C197.327212,46.2619833 198.235132,47.5316893 198.888765,48.9490456 C199.294587,49.8051582 199.886484,50.575789 200.416211,51.3464199 C200.71842,51.8031859 201.240808,52.0237979 201.523589,52.013785 C201.792122,51.9823522 202.307603,51.7591499 202.307603,51.7591499 L203.291506,51.3559178 C203.291506,51.3559178 204.57805,50.7856078 205.038701,50.5861505 C205.458771,50.3763316 206.33906,49.8979793 206.641268,49.6126084 C206.958155,49.3272376 208.258082,48.4193179 209.00799,47.7514378 C209.730267,47.0736281 211.222744,45.3303187 211.222744,45.3303187 L212.303354,43.8926712 L214.147255,40.803672 C214.147255,40.803672 214.51854,40.109025 214.449464,39.7679615" id="Fill-10" fill="#CE1141"></path>
                <path d="M208.650218,86.0733332 C207.901174,83.7584186 207.322661,81.5669777 206.497201,79.2831474 C205.809462,77.4120471 205.300025,75.4891397 204.412396,73.6905694 C203.903823,72.6134131 203.621474,71.4369599 203.215652,70.3058379 C203.001948,69.7342327 202.720462,69.2083905 202.527913,68.6376488 C201.502132,65.7170227 200.120177,63.3606624 198.723544,60.6196343 C198.661375,60.4611909 198.585823,60.347647 198.45501,60.0933604 C198.317289,59.8382104 198.208063,59.6042149 197.863114,59.4155507 C197.51946,59.216525 197.223296,59.35036 196.598157,59.4263438 C195.414796,59.5636327 193.908072,59.7112829 193.295885,59.7112829 C192.738527,59.7112829 190.392528,59.9003789 188.528767,60.0484609 L188.094882,59.9215335 L186.917997,59.9215335 L185.824867,59.9215335 L179.825603,59.1401095 C177.63848,58.8236544 172.602828,57.5651732 172.602828,57.5651732 L168.921933,56.2958989 L164.395718,54.7516152 L164.0512,54.9342352 L156.973053,54.3833529 L156.752441,54.5107121 L152.776677,51.4834497 L152.315162,51.4527971 L149.838782,49.2203422 L149.742507,48.7558051 L146.983778,48.3430751 L146.729492,48.4600728 L144.466384,47.6795123 L144.211234,47.4459485 L139.011095,47.8275943 L134.305282,45.9115945 L117.987768,46.7681388 L117.726574,46.5997657 L114.64405,46.8432591 L114.320688,47.0738008 L106.292312,47.6795123 L106.072563,47.4865308 L94.6184419,54.0979821 L94.4807213,54.583242 L93.964377,55.0572771 L93.6897993,54.8686129 L87.9387779,54.328092 L87.621891,54.4662443 L77.4404978,54.5310032 L77.2341328,54.4247986 L74.3173923,54.328092 L73.4371031,53.8126112 L62.7596567,62.0607356 L62.7259821,62.2709861 L58.9833498,65.2326262 L54.8007887,63.2436647 L54.552978,63.3606624 L53.0117164,62.9034646 C53.0117164,62.9034646 45.3140426,64.8505487 45.3895946,64.916171 C45.4720543,64.9567533 38.2078334,63.7600089 38.2078334,63.7600089 L37.6983968,63.3606624 L36.3367331,64.7538421 L33.4674824,66.1297527 L33.3992697,66.3741096 L27.6542924,70.7630357 L19.5093505,76.6310548 L10.3459671,83.4415318 L6.21175939,86.454979 L5.99848677,88.2198747 L4.26467533,92.2370847 L3.52210669,95.7072979 L2.35903696,102.707303 L1.68511275,105.730679 L1.43773378,109.366675 L0.433107478,116.916699 L8.6345191e-05,133.475116 L0.446490983,134.469381 L0.742654988,139.016319 C0.742654988,139.016319 0.818638756,139.811126 0.997373302,139.841779 C1.01766442,139.862502 1.01766442,139.841779 1.01766442,139.862502 L21.318714,118.863783 L27.9776551,116.177152 L33.564189,115.891781 L36.9489205,112.01186 L37.2787591,111.292605 L37.6914891,111.482133 L46.8272421,110.456783 L47.2123416,110.171844 L50.6320429,110.171844 L51.1406161,110.360509 L52.2415173,108.912931 L56.3273717,106.384744 L60.7098219,103.381658 L73.0170337,103.553485 L73.0994934,103.80475 L77.922304,104.261948 L81.6856592,103.509018 L88.5855034,96.467999 L88.7227922,96.4779287 L94.1983725,91.2635426 L102.433545,90.2079727 L102.75,89.9839069 L103.120853,90.3452615 L107.393213,92.3640121 L107.70276,92.0894344 L111.485975,91.6248973 L111.679388,91.4215543 L115.229039,90.8197284 L115.545062,90.6207027 L119.418076,93.9186573 L119.638688,93.6643707 L127.556542,93.5270818 L128.237805,93.0318922 L134.608354,93.3375541 L134.959347,93.465345 L135.942387,93.2205564 L136.114214,92.9356173 L138.653194,91.7937021 L138.949358,91.8139932 L141.88639,90.503705 L142.126861,90.2282638 L145.257306,89.0444712 L145.491302,88.6839801 L154.187126,85.3644392 L154.247999,85.23708 L155.782353,84.7522518 L156.119963,84.41162 L156.552984,84.8899724 L159.077717,86.1247086 L159.854824,86.1454314 L162.662338,87.7238215 L162.868271,87.4587418 L163.735177,87.0468752 L163.817205,87.0770961 L165.234561,86.4204409 L165.29673,86.3276198 L167.326273,85.8492674 L172.519937,87.2048869 L173.620406,86.9501686 L174.570203,87.5865327 L178.387956,88.1577061 L182.124112,89.5957853 C182.124112,89.5957853 184.276698,89.4477033 184.297852,89.4477033 C184.331527,89.4477033 185.006315,89.9118087 185.006315,89.9118087 L185.549426,89.5957853 C185.549426,89.5957853 192.903014,88.6731869 196.58391,88.3675249 C198.97783,88.1887904 201.365275,87.9340721 203.766103,87.6901469 C205.107907,87.562356 206.462663,87.4384507 207.817851,87.2873466 C208.547036,87.2048869 208.918752,86.9087229 208.650218,86.0733332" id="Fill-12" fill="#CE1141"></path>
                <path d="M214.023221,123.76819 C214.023221,123.26307 213.926514,122.946184 213.899315,122.43761 C213.823763,121.020254 213.747779,119.602898 213.672659,118.185973 C213.651936,117.711506 213.589768,117.236608 213.555661,116.758255 C213.445571,114.993791 213.397218,113.235803 213.232299,111.46141 C212.998303,109.218593 212.68228,107.020677 212.344238,104.799015 C212.089952,103.085494 211.752774,101.352115 211.450566,99.6601807 C211.113388,97.8749939 210.831039,96.2344353 210.445939,94.448385 C210.060408,92.6394533 209.668401,92.3851667 207.80464,92.6191621 C207.660012,92.6394533 207.501568,92.6597444 207.342693,92.6908286 C206.662293,92.828981 205.699544,92.9356173 205.011373,93.021099 C201.399554,93.4856361 198.001439,93.6747321 194.396527,94.108185 L184.042875,97.7161188 L169.094796,97.3141819 L167.463303,96.7844542 L167.456827,97.0491022 L163.053654,100.296113 L162.434559,100.35785 L158.953553,103.594931 L158.761435,104.059468 L149.804417,105.242829 L141.631412,111.547323 L140.78523,111.523578 L136.43041,114.081986 L134.703938,114.285761 L133.005096,115.733338 L132.557828,115.375437 L124.219905,114.804696 L122.775781,116.431439 L122.809456,116.70688 L115.600064,124.562997 L115.524944,125.017173 L115.242163,125.082795 L106.058489,135.549128 L103.533756,135.591005 L103.334298,135.845292 L95.7946361,137.15558 L95.2100791,137.124496 C95.2100791,137.124496 95.0516357,137.472467 95.0240052,137.496212 C94.969176,137.516935 82.5997957,144.38958 82.5997957,144.38958 L77.0275088,143.732061 L75.8376721,144.144791 L70.286108,143.808045 L64.7820338,149.76241 L61.4940089,150.425972 L59.6298162,150.343513 L57.6762563,151.168973 L56.5136183,151.041614 L56.5826945,151.282085 L49.7234325,156.582816 L49.0771387,156.706722 L38.379833,165.03083 L38.4692003,165.515658 L31.8646566,181.527942 L32.1262825,182.202298 L21.2157042,183.195699 L17.631947,186.28513 L17.2878615,187.436975 L22.158162,194.18183 L25.7488267,199.671225 L28.8309183,203.637492 L33.8734775,209.103142 C33.8734775,209.103142 33.9015397,209.48522 34.0116298,209.515872 C34.1009971,209.55775 34.6782147,209.588402 34.6989375,209.612579 C34.726568,209.633302 37.7188606,210.626703 37.7400151,210.647858 C37.7533986,210.66858 41.4545853,211.810496 41.4545853,211.810496 C41.4545853,211.810496 41.4960309,211.989662 41.5370449,211.989662 C41.5581995,211.989662 41.908761,211.938286 41.908761,211.938286 L48.0729441,214.328321 L48.5405034,214.307599 L48.8772496,214.706513 L49.4281319,214.706513 C49.4691459,214.727236 50.8860705,215.680055 50.8860705,215.680055 L53.4660648,214.262699 L53.5899701,214.273492 L54.7452688,213.533514 L64.1016337,215.89376 L70.9673716,212.381237 L86.1908922,210.878399 L92.4301957,200.823933 C93.4283461,199.840462 95.2031715,198.031098 95.2031715,198.031098 L95.4436429,198.020737 C95.4436429,198.020737 97.590616,196.032639 97.6311983,195.991625 C97.6523528,195.949747 97.6311983,195.726545 97.6311983,195.726545 L101.559041,192.142356 L103.389559,190.240603 C103.389559,190.240603 103.795381,189.995815 103.850211,189.985453 C103.905903,189.985453 105.955738,187.794876 105.955738,187.794876 L107.655011,186.040342 L108.10228,185.958314 L107.667963,184.403237 L109.436313,177.950661 L112.848675,176.935241 L112.979056,176.807882 L113.99059,176.57734 L114.010881,176.00703 L118.592789,168.584366 L119.012426,168.390953 L120.897773,164.735529 L124.007064,162.96718 L124.419794,162.461197 L125.039321,162.55445 C125.039321,162.55445 126.848252,161.478157 126.903081,161.498448 L127.116354,161.498448 L130.479931,160.018923 L130.762712,159.616554 L141.947868,154.47772 L142.615748,154.412098 L142.753036,153.799911 L143.186489,153.473526 L144.342651,149.569428 L147.871579,148.048889 L151.964341,147.540316 L155.672867,144.95989 L160.983528,145.193886 L161.499009,145.6377 L161.774882,145.2975 L169.169484,141.988752 L169.12847,141.035501 L170.910635,137.644294 L174.542745,136.670752 L174.72148,136.437188 L179.701871,135.391116 L181.614848,133.12844 L181.85532,133.076201 C181.85532,133.076201 183.010618,131.955441 183.038681,131.934286 C183.079695,131.934286 186.464426,132.398392 186.464426,132.398392 L186.643592,132.525751 L188.507353,132.790399 L189.663515,132.928119 C189.663515,132.928119 194.692691,130.568737 196.810739,129.753638 C197.698367,129.41646 198.565273,129.192826 199.390301,128.897526 C200.553803,128.473571 201.715577,128.07552 202.879079,127.682649 C203.483927,127.490531 204.041285,127.345903 204.625842,127.163714 L206.971841,126.730262 L209.696031,126.276086 L211.361198,126.179379 C211.361198,126.179379 212.165504,126.076628 212.468144,126.031729 C212.764308,125.969992 213.232299,125.969992 213.589768,125.663898 C213.947237,125.333628 213.940761,124.996882 213.981775,124.700718 C214.009405,124.383831 214.023221,124.226251 214.023221,123.76819" id="Fill-14" fill="#CE1141"></path>
                <path d="M213.899229,133.561289 C213.91952,133.169282 213.981689,132.515217 213.65185,132.164655 C213.34921,131.827477 212.921801,131.762287 212.661039,131.762287 C212.392505,131.762287 211.105962,131.934114 211.105962,131.934114 L208.939129,132.271723 C208.69175,132.302376 208.450847,132.33346 208.217284,132.409012 C206.916493,132.715538 205.616135,132.980186 204.337362,133.337223 C202.919574,133.749953 201.461204,134.13203 200.120263,134.723495 C198.689092,135.360722 197.086525,135.865842 195.655354,136.54322 C195.145917,136.788008 190.337785,139.133576 188.149366,140.224115 L185.342716,143.206047 L185.240397,143.85968 L184.868249,143.691306 L183.114146,143.797511 L183.017871,143.945593 L177.321247,145.827055 L177.370464,146.463419 L176.778568,147.04409 L176.771229,147.412784 L174.095391,152.108236 L173.723675,152.128527 L173.668846,152.617672 C173.668846,152.617672 173.125303,153.504006 172.520023,154.498271 L160.488252,162.237822 L160.233102,162.217531 L158.403879,163.741092 L157.13072,168.814735 L155.961606,169.935927 L151.2627,187.299514 L151.888703,189.266889 L144.93403,192.596791 L143.812406,192.596791 L142.477509,198.656928 L142.264668,198.846456 L140.544672,204.346213 L140.640947,204.642377 L139.939392,209.368481 L139.678198,209.695297 L139.919101,210.13868 L133.225622,220.736689 L132.73,220.884771 L131.092032,223.45354 L131.044542,223.969884 C131.044542,223.969884 125.34835,232.018551 125.34835,231.997829 C125.334103,231.96329 119.321887,235.561726 119.321887,235.561726 L119.652158,236.067709 C119.652158,236.132036 119.328795,238.498758 119.328795,238.498758 L119.858523,239.396748 L119.005432,239.661396 L114.644137,242.240959 L114.183053,242.138208 L107.792214,245.921854 L107.035398,247.118598 C107.035398,247.211851 109.532933,247.486429 109.532933,247.486429 L113.667141,247.827492 L116.50099,247.964781 L119.776063,248.016157 L121.29617,248.078325 L123.772982,248.143516 L126.235979,248.078325 L135.171842,247.002032 L140.489843,246.069936 L144.507053,244.972489 L148.861872,243.702783 L154.420776,241.501412 L154.819259,241.27087 L156.380812,240.380651 C156.380812,240.380651 160.859537,238.013498 162.895988,236.489937 C166.342025,233.868929 169.836414,231.288935 172.994922,228.296642 C174.0751,227.268271 175.134124,226.232992 176.200919,225.18692 C177.211589,224.182725 178.209308,223.168601 179.226886,222.163975 C179.392669,221.981355 179.626232,221.812982 179.709124,221.603163 C180.04587,220.777703 180.692164,220.217322 181.297875,219.615065 C181.711037,219.17125 182.151397,218.748591 182.481668,218.239586 C183.155592,217.162861 184.180509,216.377983 185.06123,215.491218 C185.769261,214.782756 186.437141,213.987949 187.007883,213.17544 C188.059999,211.673466 189.044334,210.128319 190.04896,208.593965 C191.39724,206.554491 192.862087,204.587116 194.004433,202.440574 C195.235716,200.156744 196.4398,197.862121 197.739726,195.609806 C198.826812,193.696829 199.948005,191.760538 200.794619,189.730562 C202.204636,186.370871 203.642284,183.027585 204.942211,179.642422 C206.317689,176.027581 207.412115,172.326394 208.396018,168.594123 C209.138587,165.811649 209.558224,162.956646 210.583142,160.249724 C210.720862,159.892255 210.776555,159.510177 210.831384,159.152276 C211.22296,156.868446 211.615399,154.605339 211.959052,152.321508 C212.30357,150.164605 212.605778,148.004681 212.915757,145.847778 C213.122122,144.379046 213.369069,142.909883 213.493407,141.428199 C213.665233,139.387862 213.76194,137.327234 213.8444,135.273946 C213.851307,135.054197 213.87203,134.596568 213.87203,134.596568 C213.87203,134.596568 213.885845,133.952864 213.899229,133.561289" id="Fill-16" fill="#CE1141"></path>
            </g>
        </g>
    </g>
</svg>