<?xml version="1.0" encoding="UTF-8"?>
<svg width="256px" height="256px" viewBox="0 0 256 256" version="1.1" xmlns="http://www.w3.org/2000/svg" xmlns:xlink="http://www.w3.org/1999/xlink">
    <!-- Generator: Sketch 63.1 (92452) - https://sketch.com -->
    <title>Teams/Defualt/HRockets/BlackBG/256</title>
    <desc>Created with Sketch.</desc>
    <defs>
        <polygon id="path-1" points="4.60528573e-05 0.000158024691 192.562716 0.000158024691 192.562716 256 4.60528573e-05 256"></polygon>
        <polygon id="path-3" points="0.0105116726 0 190.029202 0 190.029202 253.453893 0.0105116726 253.453893"></polygon>
    </defs>
    <g id="Teams/Defualt/HRockets/BlackBG/256" stroke="none" stroke-width="1" fill="none" fill-rule="evenodd">
        <g id="Teams/Defualt/HRockets/BlackBG/Base" transform="translate(28.000000, 0.000000)">
            <g id="Group-7">
                <g id="Group-3">
                    <mask id="mask-2" fill="white">
                        <use xlink:href="#path-1"></use>
                    </mask>
                    <g id="Clip-2"></g>
                    <path d="M170.756112,135.522923 C164.939285,140.126183 149.456108,143.681738 129.016061,145.506528 L129.30836,120.866133 C152.699366,123.925491 171.684615,127.355417 171.684615,132.984652 C171.684615,133.856948 171.365922,134.703565 170.756112,135.522923 L170.756112,135.522923 Z M108.626832,146.681837 C104.712705,146.797985 100.706003,146.86001 96.6130306,146.86001 C91.7940375,146.86001 87.0920428,146.777047 82.5385612,146.619022 L82.7221344,140.90643 C82.2927464,126.439664 83.1901278,108.30001 83.4836085,88.9234173 C95.1810809,90.2804543 109.293368,93.625837 109.049129,101.880257 L108.626832,146.681837 Z M113.305191,59.0733432 C114.257723,66.1627259 112.230933,71.513442 108.584681,75.5557136 C102.063106,81.4832198 91.8424914,84.1838617 83.5312745,85.4093432 C83.6766361,72.032158 83.4804571,58.1433679 82.3234733,44.518479 C98.3636727,46.2358123 112.12851,50.2958617 113.305191,59.0733432 L113.305191,59.0733432 Z M62.4065707,145.32796 C37.426436,142.912158 20.5463696,137.826528 20.5463696,131.400454 C20.5463696,130.932306 20.6826707,130.482726 20.943061,130.048948 C26.7961304,125.918183 44.7441516,123.313936 62.7185663,120.610133 C62.6937485,127.673442 62.5881742,135.374775 62.3596925,143.848454 L62.4065707,145.32796 Z M129.331208,118.85922 L129.602629,95.9472198 C129.575053,85.1940346 118.431846,83.3913679 110.201779,83.5272691 C115.721581,81.695763 122.363306,78.5680593 127.175208,73.3540346 C132.219531,68.6832198 135.81536,62.1034667 135.19452,52.8712691 C134.144686,37.3330963 114.769837,29.593442 82.6531959,32.7168 C82.1261124,32.7685531 81.6013925,32.8214914 81.0790362,32.8764049 C79.5706634,21.3939358 77.2279387,10.2709728 73.6545645,0.000158024691 L72.0658292,1.58514568 C67.7963739,14.8651457 65.2452581,25.4567506 63.7617032,35.2827259 C44.592487,38.5957136 31.1636753,43.0038123 31.1636753,43.0038123 L29.580849,44.5899852 C29.580849,44.5899852 45.080965,43.1800099 62.7481113,43.4296889 C60.7835631,63.5707259 62.7843532,82.7023802 62.7225056,118.843812 C34.1839663,118.037886 9.1411961,122.792849 3.01749407,130.437294 C1.00488591,132.100109 -0.0650384823,133.926479 0.00311207759,135.885195 C0.311956233,144.645294 26.262744,152.691516 62.7327479,155.763911 L64.2864231,205.440553 L65.8712191,203.850035 L68.4337589,170.165096 C68.4443951,169.613985 68.5093942,169.145442 68.6126049,168.74959 C69.3780184,168.853491 70.1032507,169.834825 70.1032507,171.547022 L71.2302955,215.911664 L72.8190308,214.325886 L75.5379623,178.219615 C75.5308715,177.414479 75.6195067,176.75038 75.7692015,176.220207 C76.540918,176.354528 77.2527565,177.489541 77.1936664,179.522923 L78.4511033,225.773985 L80.0323539,224.188998 L82.2068689,156.8768 C86.399901,157.009541 90.6764471,157.083022 95.0294164,157.083022 C99.6396245,157.083022 104.179712,157.00322 108.62762,156.855072 L110.830104,227.031862 L112.413718,225.446479 L114.294752,188.7168 C114.299086,187.981195 114.38063,187.366874 114.514568,186.869886 C115.235073,187.034627 115.8957,188.10959 115.892154,190.005491 L117.783037,241.51522 L119.362712,239.930232 L121.280776,195.427714 C121.302836,194.792454 121.39541,194.25596 121.538408,193.812701 C122.451547,193.80243 123.372958,194.89517 123.415109,197.020207 L124.992421,256.000158 L126.574065,254.408849 L128.880548,155.645393 C160.04899,152.917491 183.711022,146.611516 189.574727,139.366874 C191.521549,137.727368 192.562716,136.027022 192.562716,134.300207 C192.123874,124.68243 163.291853,117.253689 129.331208,118.85922 L129.331208,118.85922 Z" id="Fill-1" fill="#9EA1A2" mask="url(#mask-2)"></path>
                </g>
                <g id="Group-6" transform="translate(2.534653, 0.000000)">
                    <mask id="mask-4" fill="white">
                        <use xlink:href="#path-3"></use>
                    </mask>
                    <g id="Clip-5"></g>
                    <path d="M126.800312,144.960098 L127.112701,118.625679 C151.094573,121.731023 170.827635,125.182717 170.827635,130.907334 C170.827635,137.471457 152.861514,142.631681 126.800312,144.960098 M80.5560821,146.068419 L80.7399098,140.378437 C80.2989585,125.531429 81.2619961,106.803331 81.5230393,86.8421475 C93.4220614,88.0724777 108.760504,91.3234463 108.50534,99.9184404 L108.071836,146.086917 C103.690152,146.233329 99.1752022,146.310077 94.5599118,146.310077 C89.7651052,146.310077 85.0867098,146.227425 80.5560821,146.068419 M18.8750287,130.907334 C18.8750287,124.993799 40.6305865,121.867595 62.4120135,118.579236 C62.3884961,125.61408 62.2834517,133.284162 62.0572926,141.721331 L62.1584175,144.93609 C36.4084287,142.596652 18.8750287,137.448629 18.8750287,130.907334 M112.74004,57.273683 C115.338322,76.6362315 95.6699332,83.0039579 81.543813,85.0899305 C81.6947163,71.1879073 81.4791401,56.7297559 80.1911704,42.5967013 C96.876768,44.199358 111.526934,48.215052 112.74004,57.273683 M190.029202,133.79739 C189.591387,124.214511 160.90525,116.814425 127.115053,118.413146 L127.383935,95.5878827 C127.346308,81.4630933 108.085946,82.839048 101.591615,83.7037427 C109.169315,82.3281815 134.510885,75.9734432 132.947761,52.672736 C131.903588,37.1928516 112.625981,29.4822311 80.6701415,32.5934789 C80.1460953,32.6454314 79.624009,32.6989582 79.1038824,32.7524851 C77.6030801,21.3130902 75.2721135,10.2318529 71.7166741,-3.93579731e-05 C67.2718849,13.8370432 64.6935935,24.7458926 63.249625,34.9155993 C43.4440519,38.2370186 29.4390462,42.8430822 29.4390462,42.8430822 C29.4390462,42.8430822 44.8613674,41.4383962 62.4398424,41.6883193 C60.4541896,62.0541025 62.5362638,81.3835902 62.4131893,118.448174 C28.8221064,117.260351 -0.33908176,123.827622 0.0136792896,133.79739 C0.314702052,142.524627 26.1375948,150.544208 62.4284757,153.606651 L63.9723932,203.085134 L66.5224636,169.527345 C66.5992871,165.36524 69.7576744,165.74898 69.7576744,169.323864 L70.8853339,213.522475 L73.5906192,177.550862 C73.5482878,172.696843 76.9300904,172.9263 76.8148552,177.271026 L78.0636293,223.347799 L80.2785767,154.667742 C84.9334547,154.832652 89.7027841,154.919633 94.5599118,154.919633 C99.1469813,154.919633 103.662323,154.840918 108.088298,154.694506 L110.28208,224.600563 L112.153281,188.008669 C112.179542,183.343568 115.323819,183.587587 115.313236,187.716632 L117.195412,239.029983 L119.105026,194.694407 C119.25005,190.337873 122.718867,190.531908 122.796866,194.694407 L124.371748,253.453893 L126.697619,153.679857 L126.697619,153.619246 C163.393391,150.567429 190.029202,142.538796 190.029202,133.79739" id="Fill-4" fill="#BF0B34" mask="url(#mask-4)"></path>
                </g>
            </g>
        </g>
    </g>
</svg>