<?xml version="1.0" encoding="UTF-8"?>
<svg width="256px" height="256px" viewBox="0 0 256 256" version="1.1" xmlns="http://www.w3.org/2000/svg" xmlns:xlink="http://www.w3.org/1999/xlink">
    <!-- Generator: Sketch 63.1 (92452) - https://sketch.com -->
    <title>Teams/Defualt/SASpurs/256</title>
    <desc>Created with Sketch.</desc>
    <g id="Teams/Defualt/SASpurs/256" stroke="none" stroke-width="1" fill="none" fill-rule="evenodd">
        <g id="Teams/Defualt/SASpurs/base" transform="translate(20.000000, 0.000000)">
            <g id="Group-10" transform="translate(-0.000000, 0.000000)">
                <polygon id="Fill-1" fill="#FFFFFF" points="179.618533 2.56213333 164.345644 29.6292444 161.693644 51.2541333 134.447422 99.7652444 98.7892 99.7652444 125.412311 52.7021333 125.412311 2.56213333 97.7612 2.56213333 83.1420889 29.3848 80.6616444 51.2541333 41.8376444 120.451467 48.3478667 136.765244 72.5216444 136.765244 61.5140889 164.623467 40.9083111 142.341244 43.3318667 175.049244 7.63986667 176.546578 36.0354222 196.521244 15.8163111 226.6608 48.4492 215.991022 61.9034222 248.307022 72.1603111 213.087467 108.566978 222.462578 85.0576444 195.291911 113.989644 171.403911 84.1363111 173.256356 116.436756 136.765244 158.950533 136.765244 206.028756 53.3221333 206.028756 2.56213333"></polygon>
                <path d="M178.122,0 L177.387333,1.30355556 L161.864667,28.8128889 L159.212222,50.4395556 L132.947778,97.2035556 L103.181111,97.2035556 L127.973111,53.3773333 L127.973111,0 L96.2397778,0 L80.6526667,28.5977778 L78.1744444,50.4511111 L39.0046667,120.264444 L46.6117778,139.326667 L68.7557778,139.326667 L60.6286667,159.892444 L37.814,135.222222 L40.5815556,172.600444 L-0.000222222222,174.302667 L32.5117778,197.174222 L9.54777778,231.404889 L46.9935556,219.160889 L62.3304444,256 L73.926,216.186667 L115.873556,226.990667 L88.71,195.597778 L121.701556,168.357778 L90.1597778,170.316 L117.59,139.326222 L160.446444,139.326667 L208.589556,53.9946667 L208.589556,0 L178.122,0 Z M179.795778,2.56222222 L179.795778,5.12355556 L179.795778,2.56222222 Z" id="Fill-2" fill="#FFFFFF"></path>
                <polygon id="Fill-3" fill="#061922" points="179.618533 2.56213333 164.345644 29.6292444 161.693644 51.2541333 134.447422 99.7652444 98.7892 99.7652444 125.412311 52.7021333 125.412311 2.56213333 97.7612 2.56213333 83.1420889 29.3848 80.6616444 51.2541333 41.8376444 120.451467 48.3478667 136.765244 72.5216444 136.765244 61.5140889 164.623467 40.9083111 142.341244 43.3318667 175.049244 7.63986667 176.546578 36.0354222 196.521244 15.8163111 226.6608 48.4492 215.991022 61.9034222 248.307022 72.1603111 213.087467 108.566978 222.462578 85.0576444 195.291911 113.989644 171.403911 84.1363111 173.256356 116.436756 136.765244 158.950533 136.765244 206.028756 53.3221333 206.028756 2.56213333"></polygon>
                <polygon id="Fill-4" fill="#C4CED4" points="173.899378 26.7019111 186.7936 26.7019111 195.774489 9.83791111 183.339378 9.83791111"></polygon>
                <polygon id="Fill-5" fill="#C4CED4" points="92.8105778 26.7251111 106.703022 26.694 115.551467 9.838 102.164356 9.84333333"></polygon>
                <polygon id="Fill-6" fill="#C4CED4" points="89.5074222 47.9536444 102.022533 47.9905333 103.192311 33.5056444 91.0798667 33.5056444"></polygon>
                <polygon id="Fill-7" fill="#C4CED4" points="170.326444 47.9536444 182.849111 47.9905333 184.027333 33.5056444 171.898444 33.5056444"></polygon>
                <path d="M56.7969333,198.877689 C53.6227111,198.877689 51.0569333,196.314133 51.0569333,193.145689 C51.0569333,189.975022 53.6227111,187.4168 56.7969333,187.4168 C59.9649333,187.4168 62.5338222,189.975022 62.5338222,193.145689 C62.5338222,196.314133 59.9649333,198.877689 56.7969333,198.877689 L56.7969333,198.877689 Z M167.6436,56.6203556 L139.4116,106.322578 L71.6547111,106.322578 L99.8973778,56.6203556 L86.6116,56.6203556 L52.5413778,116.779467 L90.3324889,116.779467 L61.6724889,180.872356 L49.8084889,167.698133 L50.4676,183.2288 L31.3618222,184.279467 L46.7498222,195.1128 L35.7867111,211.431911 L53.4724889,205.658578 L60.7564889,223.167911 L66.3222667,204.083022 L86.0431556,209.165689 L73.3076,194.441244 L88.9884889,181.492356 L64.7916,182.5568 L109.349822,116.779467 L147.216489,116.779467 L180.713378,56.6203556 L167.6436,56.6203556 Z" id="Fill-8" fill="#C4CED4"></path>
            </g>
        </g>
    </g>
</svg>