<?xml version="1.0" encoding="UTF-8"?>
<svg width="256px" height="256px" viewBox="0 0 256 256" version="1.1" xmlns="http://www.w3.org/2000/svg" xmlns:xlink="http://www.w3.org/1999/xlink">
    <!-- Generator: Sketch 63.1 (92452) - https://sketch.com -->
    <title>Teams/Defualt/PSuns/256</title>
    <desc>Created with Sketch.</desc>
    <g id="Teams/Defualt/PSuns/256" stroke="none" stroke-width="1" fill="none" fill-rule="evenodd">
        <g id="Teams/Defualt/PSuns/base" transform="translate(0.000000, 20.000000)">
            <g id="Group-9" transform="translate(0.000000, 0.000000)">
                <polygon id="Fill-1" fill="#F9A01B" points="189.1276 0.000133333333 164.076489 24.9414667 122.873822 3.34546667 115.497822 43.9108 77.4413778 52.1588 99.9578222 65.7303556 77.2978222 77.0965778 96.5538222 78.7694667 17.3693778 140.3548 97.0240444 98.0423556 11.5796 163.085467 102.5236 115.677911 5.37648889 188.720133 112.442267 131.664578 4.44444444e-05 213.109467 124.576044 144.889467 40.1013778 213.109467 142.601378 154.205022 140.917378 166.082356 158.010267 156.582356 196.617378 193.092133 217.169378 131.343244 243.247156 127.609911 231.775156 91.9743556 256.000044 70.9068 223.881822 57.3494667 232.708044 19.8961333 203.073378 33.4619111"></polygon>
                <g id="Group-8" transform="translate(103.555556, 27.776000)">
                    <path d="M124.402356,64.7469778 C122.993911,98.9820889 94.0943556,125.582533 59.8512444,124.166533 C25.6294667,122.756311 -0.9732,93.8585333 0.441022222,59.6269778 C1.85124444,25.3856444 30.7534667,-1.20857778 64.9828,0.2012 C99.2179111,1.61942222 125.822356,30.5136444 124.402356,64.7469778" id="Fill-2" fill="#E56020"></path>
                    <path d="M70.0204,115.707022 C35.7928444,114.283022 9.1844,85.3870222 10.6026222,51.1559111 C11.2488444,35.3141333 17.7906222,21.1239111 28.0190667,10.5723556 C12.0990667,21.2021333 1.28751111,39.0181333 0.441288889,59.6270222 C-0.972933333,93.8585778 25.6292889,122.756356 59.8510667,124.166578 C78.2524,124.932356 95.1030667,117.585689 106.975956,105.330133 C96.4386222,112.369244 83.6586222,116.267467 70.0204,115.707022" id="Fill-4" fill="#B95915"></path>
                    <path d="M124.435778,62.9097333 C124.466889,60.6884 124.376667,58.4910667 124.169111,56.3248444 C120.594444,53.8292889 116.338444,51.9292889 111.300667,51.2808444 C110.345111,51.1599556 109.430444,51.1066222 108.503778,51.0364 C107.902889,46.9386222 106.974444,42.9257333 105.740667,39.0217333 C106.380667,39.0630667 107.033111,39.0884 107.679333,39.1372889 C112.045111,39.4608444 116.342444,39.9541778 120.585111,40.5732889 C119.995333,38.9906222 119.331778,37.4470667 118.622444,35.9275111 C113.854889,35.1986222 109.009556,34.6346222 104.101111,34.2661778 L104.057556,34.2661778 C102.479333,30.2746222 100.563778,26.4337333 98.3153333,22.7728444 C101.486,22.1244 104.312667,20.8279556 106.604222,18.6635111 C105.436667,17.4746222 104.214444,16.3288444 102.953111,15.2359556 C100.959333,17.0692889 98.3815556,18.0426222 95.4162222,18.4364 C94.958,17.8017333 94.5073333,17.1675111 94.0357778,16.5524 C89.8224444,11.0679556 84.9633333,6.38662222 79.61,2.57551111 C74.9384444,1.23151111 70.05,0.407066667 64.9824444,0.201288889 C64.6966667,0.191511111 64.4224444,0.197288889 64.1406667,0.185733333 C73.5655556,3.89328889 81.9877778,10.1181778 88.7571111,18.4599556 C82.3011111,17.8368444 74.858,15.6706222 67.4975556,13.5164 C65.3255556,12.8701778 63.1886667,12.2430667 61.1282222,11.6750667 C48.5908889,8.2124 38.9562222,7.65817778 31.7246667,8.28662222 C26.3464444,11.3501778 21.4788889,15.2008444 17.254,19.6781778 C25.0695556,16.4208444 40.8206667,10.8564 59.9411111,16.1488444 C61.9744444,16.7088444 64.0815556,17.3261778 66.2242222,17.9528444 C74.6802222,20.4381778 84.154,23.2075111 92.3526667,23.2977333 C94.6095556,26.6648444 96.562,30.2155111 98.182,33.9257333 C96.574,33.8510667 94.9757778,33.7981778 93.3793333,33.7728444 C53.5442222,33.0870667 19.3931111,45.0115111 0.433555556,64.0221778 C0.538888889,67.7964 0.974,71.4964 1.73,75.0884 C7.07711111,67.4146222 14.9917778,60.4848444 25.206,54.7359556 C44.4913333,43.8990667 70.0735556,38.1932889 97.2557778,38.6652889 C98.1895556,38.6790667 99.1335556,38.7204 100.066,38.7515111 C101.437111,42.6884 102.459778,46.7568444 103.113556,50.9284 C85.6113333,51.6688444 74.2571111,62.5981778 61.2237778,74.2248444 C49.5251111,84.6941778 35.2522222,95.1217333 14.3673333,101.397289 C16.334,103.811956 18.4726667,106.074622 20.7877778,108.170178 C40.47,100.245733 53.5402222,87.9057333 64.5913333,78.0324 C77.13,66.8110667 87.8908889,56.0599556 103.709111,55.5315111 C104.116667,59.9052889 104.132222,64.3590667 103.728667,68.8524 C101.603778,93.1595111 87.5348889,113.7604 68.3437778,123.925733 C73.2522222,123.461289 78.0037778,122.421289 82.5322222,120.863956 C84.07,119.595067 85.5722222,118.255067 87.0135556,116.833289 C99.5997778,104.440844 107.410889,87.5595111 109.009556,69.3106222 C109.408667,64.7448444 109.407333,60.2146222 109.037111,55.7510667 C109.824222,55.8350667 110.611778,55.9012889 111.422444,56.0386222 C116.812667,56.9199556 121.090444,59.6386222 124.435778,62.9097333" id="Fill-6" fill="#061922"></path>
                </g>
            </g>
        </g>
    </g>
</svg>