<?xml version="1.0" encoding="UTF-8"?>
<svg width="256px" height="256px" viewBox="0 0 256 256" version="1.1" xmlns="http://www.w3.org/2000/svg" xmlns:xlink="http://www.w3.org/1999/xlink">
    <!-- Generator: Sketch 63.1 (92452) - https://sketch.com -->
    <title>Teams/Defualt/OKCThunder/BlackBG/256</title>
    <desc>Created with Sketch.</desc>
    <defs>
        <polygon id="path-1" points="0.255558621 0.0384882759 241.434483 0.0384882759 241.434483 102.4 0.255558621 102.4"></polygon>
        <polygon id="path-3" points="0 0.179865709 254.234439 0.179865709 254.234439 64.6423393 0 64.6423393"></polygon>
    </defs>
    <g id="Teams/Defualt/OKCThunder/BlackBG/256" stroke="none" stroke-width="1" fill="none" fill-rule="evenodd">
        <g id="Teams/Defualt/OKCThunder/BlackBG/base" transform="translate(0.000000, 52.000000)">
            <g id="Group-19" transform="translate(0.000000, 0.000000)">
                <g id="Group-3" transform="translate(12.800000, 44.076138)">
                    <mask id="mask-2" fill="white">
                        <use xlink:href="#path-1"></use>
                    </mask>
                    <g id="Clip-2"></g>
                    <path d="M0.255558621,102.400088 C15.2055172,89.1873986 32.0512,76.6155917 50.5127724,65.0492469 C53.9837793,63.2868193 57.4592,61.5460193 60.9452138,59.8184607 C62.3867586,59.1073986 65.2027586,57.7422124 68.7430621,56.0433434 C71.1172414,58.7141297 73.5858759,61.3107641 76.1374897,63.8367779 C49.6269241,76.2006952 24.2555586,89.114571 0.255558621,102.400088 M189.161931,7.9996469 C207.025434,4.02855724 224.537159,1.38557793 241.434483,0.0384882759 C222.705876,5.77818483 203.623724,12.1499366 184.290869,19.1387366 C186.018428,15.5392883 187.632552,11.8259641 189.161931,7.9996469" id="Fill-1" fill="#007DC3" mask="url(#mask-2)"></path>
                </g>
                <g id="Group-6" transform="translate(0.000000, 29.510621)">
                    <mask id="mask-4" fill="white">
                        <use xlink:href="#path-3"></use>
                    </mask>
                    <g id="Clip-5"></g>
                    <path d="M-4.4137931e-05,64.6423393 C17.3443972,53.6171255 36.55808,43.5726566 57.3007007,34.8501186 C57.988811,36.2404634 58.7073766,37.6215393 59.428149,38.9845186 C58.3110179,41.2655669 57.2035972,43.5439669 56.1023559,45.8342841 C36.8211421,51.7854014 18.0965076,58.0657876 -4.4137931e-05,64.6423393 M209.369114,0.53376 C224.809887,-0.11904 239.819432,0.136077241 254.234439,1.25938759 C238.709363,3.45833931 222.890328,6.01348414 206.845308,8.93364966 C207.726301,6.18959448 208.563597,3.38948414 209.369114,0.53376" id="Fill-4" fill="#EF3B24" mask="url(#mask-4)"></path>
                </g>
                <path d="M127.127526,5.35423693 C156.366698,5.35423693 179.293263,12.1965021 205.177512,25.0966952 C192.512132,72.8278952 169.337512,104.89013 127.134146,130.937247 C111.278919,121.132888 97.7987531,110.194626 86.5351945,97.7375779 C91.5426428,95.3550124 97.1914152,92.6709848 102.155167,90.3272607 C104.166091,90.51264 106.086974,90.6128331 107.880739,90.6538814 C107.770394,93.4076469 106.905291,95.4269572 105.517594,96.8680607 C106.323112,97.7940745 107.144519,98.7152331 107.968574,99.6218262 C110.153843,97.6647503 111.562284,94.7759228 111.675719,90.6693297 C116.809401,90.5845848 121.765208,90.0624331 126.366146,89.0799228 C126.107939,96.6041159 125.058339,102.139012 122.918532,104.335757 C122.841732,104.404612 122.800684,104.461109 122.767581,104.530847 C122.229539,105.100226 121.75285,105.566764 121.340601,105.930461 C123.408022,105.550433 125.441015,105.072419 127.448408,104.508778 C130.028712,99.16544 130.063581,89.8042262 130.104188,88.1812745 C134.893594,86.9789572 139.15776,85.7642814 142.992905,84.4551503 C143.144298,88.8477572 144.899663,93.0452745 148.254146,94.5940745 C149.764546,93.5303503 151.233898,92.397771 152.650284,91.2237021 C151.800629,91.3499366 146.485981,91.7171641 146.568077,83.1773572 C157.801181,78.9427641 165.111305,73.8382124 171.546174,66.2173572 C173.245484,62.37824 174.61376,58.3533021 175.58965,54.1840331 C167.889788,66.3272607 160.797263,73.4197848 146.951194,78.9771917 C147.348436,76.5310676 148.062588,73.5958952 149.198257,70.0935503 C153.238201,68.4004193 157.452491,66.3837572 159.991746,65.3359228 L166.045705,58.9760883 C167.568463,53.101771 169.082394,47.2203917 170.592353,41.3425434 L165.856353,42.8185159 L171.426119,36.9689159 C172.590919,32.3653297 173.742036,27.7599779 174.887857,23.1563917 C172.099663,23.5637848 169.305732,23.9791228 166.517098,24.41344 C166.983636,22.1147366 167.316877,19.8350124 167.492988,17.5583779 C166.152519,17.2185159 164.799691,16.8945434 163.446422,16.5921986 C163.163498,19.149109 162.662532,21.9827641 161.904243,25.1434814 L161.521126,25.2048331 C158.902422,25.6440055 156.227663,26.5029297 153.896298,28.4661848 L154.642229,26.2023503 C150.158257,27.0122814 145.683553,27.8385434 141.20885,28.7023228 L136.755774,33.3844745 L136.904077,33.0066538 L138.348712,29.2593434 C133.923884,30.1654952 129.507001,31.1007779 125.089677,32.0629848 C124.167636,26.0973021 123.246036,20.7036469 122.440519,16.3406124 C121.191415,16.4884745 119.940105,16.6570814 118.694091,16.8411366 C119.499608,21.2558124 120.445043,26.7783503 121.379884,32.8843917 L118.254036,33.5861848 L114.27147,37.7775228 C111.485043,34.829109 105.829208,36.68864 102.263746,37.5850814 C98.4012359,38.566709 94.5374014,39.5708469 90.6854841,40.6155917 C89.53216,40.9302952 88.3872221,41.2825159 87.2634703,41.6665159 C84.370229,37.4972469 81.6561876,33.2017434 79.4139807,28.5716745 L79.0096772,27.7176055 C77.8409048,28.1942952 76.6800772,28.685109 75.5263117,29.1931366 L76.0202152,30.2175779 C78.20416,34.7434814 80.8347807,38.9727779 83.6702014,43.0762814 C79.5119669,44.9265434 75.6679945,47.4944883 72.34176,51.1632331 C72.34176,51.1632331 66.9295669,56.8270124 66.2975117,57.5226262 C64.8908359,59.1371917 63.6805738,60.8519503 62.6124359,62.6042262 C56.9327669,51.1694124 52.4302566,38.7339917 49.0501738,25.1059641 C74.9397186,12.2009159 97.874229,5.34894345 127.127526,5.35423693 L127.127526,5.35423693 Z M129.990753,77.6080331 C132.67787,76.4211641 135.36587,75.2510676 138.046808,74.0743503 L139.305181,72.7621297 C139.836601,72.8495228 140.444381,72.8685021 141.130726,72.8000883 C142.171939,72.6270676 143.452381,72.2646952 144.847139,71.7831503 C143.939663,75.0815779 143.395884,77.9284745 143.144298,80.4085848 C139.317981,81.7645021 135.025567,83.0356745 130.142146,84.269771 C130.135526,82.1392331 130.08565,79.9111503 129.990753,77.6080331 L129.990753,77.6080331 Z M111.366753,85.9964469 L113.892326,84.8267917 L120.370008,79.6154262 L121.814201,75.6324193 C122.749043,77.5294676 123.258394,78.2692193 124.188381,80.1817159 L126.315388,79.2406952 C126.391305,81.2961986 126.426174,83.2907917 126.426174,85.1979917 C121.744905,86.2674538 116.696408,86.8403641 111.480629,86.9224607 L111.366753,85.9964469 Z" id="Fill-7" fill="#FFFFFF"></path>
                <path d="M142.879691,15.12448 C149.059884,15.12448 155.152243,15.4484524 161.168243,16.0968386 C165.740491,17.0550731 170.268601,18.2145766 174.761401,19.5691697 C176.473953,25.5683972 177.398643,31.9057214 177.398643,38.4566731 C177.398643,43.8693076 176.775857,49.130549 175.589429,54.1839007 C167.889567,66.3271283 160.797484,73.4196524 146.951415,78.9770593 C147.348657,76.5309352 148.062367,73.5962041 149.198036,70.0938593 C153.238422,68.4007283 157.452712,66.3836248 159.991967,65.3357903 L166.045484,58.9763972 C167.568684,53.1016386 169.082174,47.2202593 170.592132,41.342411 L165.856574,42.8183834 L171.426339,36.9687834 C172.590698,32.3651972 173.742257,27.7598455 174.888077,23.1562593 C172.099443,23.5640938 169.305512,23.9789903 166.517319,24.4133076 C166.983415,22.1146041 167.316657,19.83488 167.493208,17.5582455 C166.152739,17.2183834 164.79947,16.894411 163.446643,16.5925076 C163.163277,19.1489766 162.662312,21.9830731 161.904463,25.143349 L161.520905,25.2047007 C158.902643,25.6438731 156.227443,26.5027972 153.896519,28.4664938 L154.642008,26.2022179 C150.158036,27.0125903 145.683774,27.838411 141.20907,28.7021903 L136.755994,33.3847834 L136.904298,33.0069628 L138.348491,29.259211 C133.924105,30.1653628 129.506781,31.1006455 125.089898,32.0628524 C124.167857,26.0971697 123.245815,20.7035145 122.440298,16.34048 C129.144408,15.530549 135.95445,15.12448 142.879691,15.12448 L142.879691,15.12448 Z M171.545953,66.2172248 C167.235443,75.9558179 160.728188,84.4920938 152.650505,91.2235697 C151.80085,91.3498041 146.486201,91.7170317 146.567857,83.1776662 C157.801401,78.9426317 165.111084,73.83808 171.545953,66.2172248 L171.545953,66.2172248 Z M148.254367,94.5939421 C142.001788,98.9962593 134.98827,102.381639 127.448629,104.509087 C130.028932,99.1653076 130.063801,89.8040938 130.104408,88.1815834 C134.893374,86.9788248 139.157539,85.764149 142.993126,84.4550179 C143.144519,88.8476248 144.899443,93.0451421 148.254367,94.5939421 L148.254367,94.5939421 Z M121.340381,105.930328 C119.232353,106.32139 117.087691,106.613583 114.920077,106.809556 C112.525153,104.480397 110.206146,102.080177 107.968353,99.6216938 C110.154063,97.6646179 111.562063,94.7757903 111.675498,90.6691972 C116.809181,90.5844524 121.765429,90.0623007 126.365926,89.0802317 C126.107719,96.6044248 125.05856,102.139321 122.918753,104.335625 C122.841953,104.40448 122.800463,104.460977 122.767801,104.531156 C122.229319,105.100535 121.752629,105.566632 121.340381,105.930328 L121.340381,105.930328 Z M105.517374,96.8679283 C103.859553,94.9620524 102.235719,93.0177766 100.659112,91.032011 L102.154946,90.3271283 C104.166312,90.5125076 106.087194,90.6127007 107.880519,90.653749 C107.770615,93.4075145 106.90507,95.4272662 105.517374,96.8679283 L105.517374,96.8679283 Z M75.7940083,47.8783559 C73.6983393,42.5729766 71.8480772,37.1320938 70.2622014,31.5720386 C72.0069738,30.7462179 73.7627807,29.9548248 75.5265324,29.1934455 L76.0204359,30.2174455 C78.2043807,34.7437903 80.8350014,38.9730869 83.6704221,43.076149 C80.882229,44.3164248 78.2374841,45.8802317 75.7940083,47.8783559 L75.7940083,47.8783559 Z M79.0098979,27.7174731 C91.8986152,22.4390179 105.085263,18.8011697 118.694312,16.8410041 C119.499829,21.25568 120.445263,26.7782179 121.380105,32.8842593 L118.253815,33.5860524 L114.271691,37.7773903 C111.485263,34.8289766 105.828988,36.6885076 102.263967,37.5853903 C98.4014566,38.5665766 94.5376221,39.5711559 90.6857048,40.6154593 C89.5323807,40.9301628 88.3870014,41.2828248 87.263691,41.6663834 C84.3700083,37.4971145 81.6564083,33.2020524 79.4142014,28.5715421 L79.0098979,27.7174731 Z M129.990974,77.6079007 C132.678091,76.4210317 135.366091,75.2513766 138.047029,74.0746593 L139.30496,72.7619972 C139.836381,72.8498317 140.44416,72.868811 141.130505,72.7999559 C142.171719,72.6269352 143.452601,72.2645628 144.846919,71.7834593 C143.939443,75.0814455 143.396105,77.9283421 143.144519,80.4084524 C139.318201,81.7643697 135.025346,83.0355421 130.142367,84.2696386 C130.135746,82.1391007 130.08587,79.9110179 129.990974,77.6079007 L129.990974,77.6079007 Z M111.366974,85.9963145 L113.892546,84.8266593 L120.369788,79.6152938 L121.813981,75.6322869 C122.748822,77.5297766 123.258615,78.2690869 124.188601,80.1820248 L126.315608,79.2410041 C126.391084,81.2960662 126.425953,83.2906593 126.425953,85.1978593 C121.745126,86.2677628 116.696188,86.8402317 111.480408,86.9223283 L111.366974,85.9963145 Z" id="Fill-9" fill="#EF3B24"></path>
                <path d="M128.392607,123.002086 C115.970869,114.588072 104.894455,104.678665 95.3222621,93.5581131 L100.658979,91.0316579 C102.235586,93.0174234 103.859421,94.9621407 105.517241,96.8680166 C106.3232,97.7940303 107.144166,98.7156303 107.968662,99.6217821 C115.061628,107.407272 122.909352,114.543051 131.466814,120.944375 C130.450317,121.639548 129.427641,122.322361 128.392607,123.002086 L128.392607,123.002086 Z M69.8546759,53.7748303 C66.217269,45.8330924 63.1629241,37.5669407 60.7278345,29.0156579 C82.3924966,18.791989 104.822069,13.2743062 128.638014,12.6307752 C139.770924,12.7269959 150.589131,13.8909131 161.16811,16.0969269 C155.15211,15.4485407 149.059752,15.1245683 142.879559,15.1245683 C135.954317,15.1245683 129.144276,15.5306372 122.440607,16.3405683 C121.191503,16.4884303 119.935779,16.6570372 118.694179,16.8410924 C105.080276,18.8012579 91.8984828,22.4391062 79.0097655,27.7175614 C77.8409931,28.194251 76.6797241,28.6850648 75.5264,29.1930924 C73.7626483,29.9544717 72.0068414,30.7458648 70.262069,31.5721269 C71.8479448,37.1321821 73.6986483,42.5730648 75.7943172,47.8780028 C74.592,48.8600717 73.4391172,49.9551338 72.3418483,51.163189 L69.8546759,53.7748303 Z" id="Fill-11" fill="#FDBB30"></path>
                <path d="M42.8200166,22.2596414 C70.8255338,7.84463448 95.3949131,0 127.127437,0 C158.859079,0 183.434196,7.84463448 211.421175,22.2596414 C198.419023,74.6628414 173.585258,109.360552 127.127437,137.212469 C109.598941,126.708524 94.2777821,114.404634 81.5426648,100.119393 C78.0028028,101.818262 75.1868028,103.183448 73.7452579,103.894952 C69.3605959,106.072276 64.9759338,108.269462 60.6098097,110.496662 C55.6866648,113.00149 50.2210648,116.808828 44.5444855,115.333738 C38.3453131,112.643531 42.4329269,105.100359 44.3304166,100.807945 C49.1480717,89.949131 54.18112,79.168 59.4282372,68.4950069 C53.1253407,56.6638345 48.1726234,43.8060138 44.7016166,29.8496 L42.8200166,22.2596414 Z M127.127437,5.35436935 C97.8741407,5.34907586 74.9396303,12.2010483 49.0505269,25.1060966 C52.4301683,38.7275034 56.9326786,51.1823448 62.6123476,62.6043586 C63.6809269,60.8520828 64.8907476,59.1373241 66.2974234,57.5227586 C66.92992,56.8271448 72.3421131,51.1633655 72.3421131,51.1633655 C75.6679062,47.4946207 79.5118786,44.9266759 83.6701131,43.0764138 C80.8346924,38.9729103 78.2040717,34.7436138 76.0205683,30.2177103 L75.5266648,29.193269 C76.679989,28.6852414 77.8408166,28.1939862 79.0100303,27.7177379 L79.4143338,28.5718069 C81.6560993,33.2018759 84.3701407,37.4969379 87.2633821,41.6662069 C88.3871338,41.2826483 89.5325131,40.9304276 90.6853959,40.6157241 C94.5373131,39.5709793 98.4011476,38.5668414 102.264099,37.5852138 C105.82912,36.688331 111.484954,34.8292414 114.271382,37.7776552 L118.253948,33.5863172 L121.379796,32.8840828 C120.445396,26.7780414 119.499961,21.2559448 118.694003,16.841269 C119.940458,16.6572138 121.191327,16.4886069 122.44043,16.3407448 C123.245948,20.7037793 124.167989,26.0969931 125.09003,32.0626759 C129.506913,31.100469 133.924237,30.1656276 138.348623,29.2594759 L136.90443,33.0067862 L136.756127,33.3846069 L141.209203,28.7024552 C145.683465,27.8386759 150.158168,27.0124138 154.642141,26.2024828 L153.896651,28.4663172 C156.227575,26.5030621 158.902775,25.6436966 161.521037,25.2049655 L161.904154,25.1436138 C162.662444,21.9828966 163.16341,19.1492414 163.446334,16.592331 C164.799603,16.8946759 166.15243,17.2186483 167.492899,17.5585103 C167.316789,19.8351448 166.983548,22.114869 166.51701,24.4135724 C169.305644,23.9792552 172.099575,23.5639172 174.887768,23.1560828 C173.742389,27.759669 172.59083,32.3654621 171.426472,36.9690483 L165.856265,42.8186483 L170.592265,41.3426759 C169.082306,47.2200828 167.568375,53.1014621 166.045617,58.9762207 L159.991658,65.3360552 C157.452403,66.3834483 153.238113,68.4005517 149.198168,70.0936828 C148.062499,73.5960276 147.348789,76.5307586 146.951106,78.9768828 C160.797175,73.4199172 167.889699,66.3273931 175.589561,54.1841655 C174.613672,58.3529931 173.245837,62.3783724 171.546086,66.2170483 C165.111217,73.8383448 157.801092,78.9424552 146.567989,83.1774897 C146.486334,91.7172966 151.800982,91.350069 152.650196,91.2238345 C151.23381,92.3979034 149.764458,93.5304828 148.254058,94.5937655 C144.899575,93.0454069 143.14421,88.8478897 142.993258,84.4552828 C139.157672,85.7639724 134.893506,86.9786483 130.104099,88.1814069 C130.063934,89.8043586 130.029065,99.1655724 127.44832,104.50891 C125.440927,105.072552 123.408375,105.550566 121.340513,105.930593 C121.752761,105.566897 122.229451,105.100359 122.767492,104.530979 C122.800596,104.461241 122.841644,104.404745 122.918886,104.33589 C125.058251,102.139145 126.107851,96.6042483 126.366058,89.0800552 C121.76512,90.0625655 116.809313,90.5842759 111.67563,90.6694621 C111.562196,94.7756138 110.154196,97.6644414 107.968486,99.6219586 C107.14443,98.7153655 106.323023,97.7937655 105.517506,96.8681931 C106.905203,95.4270897 107.770306,93.4077793 107.880651,90.6540138 C106.086886,90.6129655 104.166003,90.512331 102.155079,90.3269517 C97.1913269,92.6711172 91.5429959,95.3551448 86.5351062,97.737269 C97.7986648,110.194759 111.279272,121.132579 127.134058,130.937379 C169.337423,104.889821 192.512044,72.8280276 205.177423,25.0963862 C179.293175,12.1966345 156.36661,5.35436935 127.127437,5.35436935 L127.127437,5.35436935 Z M129.991106,77.6081655 C130.085561,79.9112828 130.135879,82.1393655 130.142058,84.2699034 C135.025479,83.0358069 139.317892,81.7646345 143.14421,80.4087172 C143.396237,77.9286069 143.939575,75.081269 144.847051,71.7832828 C143.452734,72.2648276 142.171851,72.6267586 141.130637,72.7997793 C140.444292,72.8686345 139.836513,72.8496552 139.305092,72.7618207 L138.047161,74.0744828 C135.365782,75.2512 132.677782,76.4208552 129.991106,77.6081655 L129.991106,77.6081655 Z M111.367106,85.9965793 L111.480541,86.9221517 C116.69632,86.8404966 121.744817,86.2675862 126.426086,85.1976828 C126.426086,83.2909241 126.391217,81.2958897 126.315299,79.2408276 L124.188734,80.1818483 C123.258748,78.2693517 122.748954,77.5296 121.814113,75.6321103 L120.36992,79.6155586 L113.892237,84.8264828 L111.367106,85.9965793 Z" id="Fill-13" fill="#031F40"></path>
                <path d="M91.1717076,42.8119834 C84.5889766,44.5995697 78.7111283,47.4186593 74.0051421,52.6198731 C71.3069903,55.7130593 69.380811,59.2595421 67.5843972,62.8907697 C62.3169766,73.5889214 57.2728938,84.3855007 52.4406731,95.2765352 C51.179211,98.1176938 47.3074317,105.024397 51.4294731,106.815073 C55.9889214,107.99797 61.693749,104.165914 65.7195697,102.113942 C70.0918731,99.89248 74.4787421,97.6904386 78.871349,95.5100248 C86.3571421,91.7997903 93.0691972,87.2928662 97.6193766,80.05248 C99.43168,76.9946041 100.780094,73.7182455 102.111294,70.4463007 C104.966577,63.4098317 107.880563,56.3804248 110.849721,49.3757352 C111.961997,46.7482041 113.903183,43.4413903 113.285252,40.5746317 C112.034383,36.7258041 105.533308,39.0770317 102.705832,39.7819145 C98.8623007,40.7604524 95.0139145,41.7672386 91.1717076,42.8119834 M82.8534731,82.9955972 C79.370549,84.5492524 75.9026317,86.1108524 72.4316248,87.7086455 C77.4651145,76.0438731 82.6835421,64.4576662 88.1319283,52.9632662 C91.1796524,52.0001766 94.238411,51.0503283 97.3077628,50.1123972 C92.3201766,61.00608 87.5091421,71.9690593 82.8534731,82.9955972 M142.420259,30.7601214 C137.596866,37.0599283 132.835708,43.4100524 128.128397,49.8003421 C130.330439,43.9511834 132.552342,38.1108524 134.795432,32.2868524 C129.802549,33.3090869 124.816287,34.3979697 119.839735,35.530549 C118.547818,38.5389903 117.262521,41.5531697 115.995763,44.57088 C117.064342,44.2720662 118.14837,43.9732524 119.216508,43.6801766 C115.300149,53.1583559 111.480452,62.673611 107.73888,72.2047559 C106.200232,76.0822731 104.675708,79.9611145 103.154273,83.8386317 C108.151128,81.4785766 113.148425,79.1405903 118.163818,76.8339421 C120.434273,70.5654731 122.723708,64.3036248 125.042714,58.0576662 C127.171928,62.320949 129.279514,66.5882041 131.375183,70.8744386 C134.604756,69.4293628 137.845363,68.0107697 141.086411,66.5974731 C139.113446,62.097611 137.109142,57.6074593 135.091597,53.1203972 C138.681777,47.6764248 142.294908,42.2518731 145.953942,36.8458593 C146.983239,36.6035421 148.009004,36.3581352 149.03477,36.1219972 C149.808508,33.7778317 150.576066,31.4332248 151.347156,29.086411 C148.366963,29.624011 145.390301,30.1797076 142.420259,30.7601214 M161.772535,27.4466869 C159.085418,27.8951283 156.659597,28.7540524 154.654852,30.7698317 C153.012921,32.5410869 152.140314,34.6491145 151.412921,36.8961766 C149.273556,43.6113214 147.12139,50.3326455 144.975404,57.0566179 C144.13237,59.709749 142.75968,64.5490317 147.021197,64.1901903 C148.46848,63.9518455 149.839846,63.3537766 151.199294,62.7715972 C155.504066,60.9367834 159.821639,59.12448 164.148039,57.3399834 C165.25237,53.1203972 166.344342,48.8977214 167.430135,44.6688662 C165.155708,45.3794869 162.890108,46.1002593 160.614797,46.8333903 C160.079846,48.7339697 159.550632,50.647349 159.022301,52.5443972 C157.442604,53.1270179 155.869087,53.6994869 154.28939,54.2812248 C156.284866,47.4632386 158.279459,40.650549 160.262135,33.8312386 C161.659542,33.5293352 163.059156,33.2305214 164.459652,32.9414179 C164.126411,34.1366731 163.805087,35.3354593 163.468314,36.5311559 C165.507487,36.0434317 167.549749,35.5557076 169.588921,35.0900524 C170.368839,32.0189352 171.143018,28.9429628 171.907487,25.8718455 C168.531377,26.3675145 165.145997,26.8945214 161.772535,27.4466869" id="Fill-15" fill="#FFFFFF"></path>
                <path d="M179.940899,21.2133076 C181.990223,21.8868524 183.90581,22.5679007 185.819189,23.2886731 C190.620954,25.0727283 194.868789,26.8947421 198.380403,28.5715421 C187.540568,65.7736386 165.337423,96.9729766 134.015382,119.17568 L131.463768,120.944287 C122.291023,114.077749 116.877065,108.684094 116.877065,108.684094 L121.194196,107.973473 C134.295658,105.789087 146.919989,99.8613628 157.354637,90.1192386 C175.142665,73.5233766 182.364513,49.8292524 178.701506,27.498549 C178.61323,26.9940524 178.513037,26.4886731 178.424761,25.9837352 L178.386803,25.7634869 L178.343106,25.53088 L178.28661,25.2819421 L178.241589,25.04448 L178.194803,24.7862731 L178.141396,24.548811 L178.08181,24.2795697 L178.024872,24.0218041 L177.971465,23.7843421 L177.933506,23.5777766 L177.861561,23.2930869 L177.801534,23.025611 L177.750775,22.8256662 L177.713258,22.6243972 L177.663382,22.4293076 C177.462113,21.6286455 177.28512,20.9475972 177.097092,20.2881766 C178.059741,20.5949352 179.01003,20.9052248 179.940899,21.2133076 M180.287382,21.6476248 C182.20341,22.3066041 184.177258,22.9973628 186.057975,23.704011 C184.142389,22.9783834 182.21621,22.2973352 180.287382,21.6476248" id="Fill-17" fill="#007DC3"></path>
            </g>
        </g>
    </g>
</svg>