<?xml version="1.0" encoding="UTF-8"?>
<svg width="256px" height="256px" viewBox="0 0 256 256" version="1.1" xmlns="http://www.w3.org/2000/svg" xmlns:xlink="http://www.w3.org/1999/xlink">
    <!-- Generator: Sketch 63.1 (92452) - https://sketch.com -->
    <title>Teams/Defualt/MTimberwolves/256</title>
    <desc>Created with Sketch.</desc>
    <g id="Teams/Defualt/MTimberwolves/256" stroke="none" stroke-width="1" fill="none" fill-rule="evenodd">
        <g id="MTimberwolves" fill-rule="nonzero">
            <g id="g10" transform="translate(127.999997, 128.000003) scale(-1, 1) rotate(-180.000000) translate(-127.999997, -128.000003) translate(0.000000, 0.000006)">
                <g id="g12">
                    <path d="M250.102216,166.165774 L250.150216,166.223551 L248.849772,169.977329 C230.979994,221.429328 182.402218,256 127.973775,256 L127.970663,256 C113.706664,256 99.5875531,253.604438 86.0013312,248.887105 C19.3543551,225.747994 -16.0482663,152.688441 7.08159982,86.0288867 C24.9642216,34.5706658 73.5453315,0 127.967108,0 C142.231108,0 156.356885,2.39253327 169.949329,7.11248871 C235.331105,29.8187548 270.634215,100.555997 250.102216,166.165774" id="path14" fill="#9EA2A2"></path>
                    <path d="M127.970219,4.51737766 C75.4653314,4.51737766 28.6020882,37.8675546 11.3487997,87.5084423 C-10.9652886,151.81733 23.1913328,222.298217 87.4813311,244.622216 C100.591997,249.175549 114.213775,251.480883 127.967108,251.480883 C180.481773,251.480883 227.344439,218.133328 244.585327,168.495996 L245.169772,166.81644 L245.153327,166.797329 C266.305327,102.953775 232.199994,33.5102214 168.471996,11.3791553 C155.354663,6.82568872 141.726663,4.51737766 127.970219,4.51737766" id="path16" fill="#0C2340"></path>
                    <path d="M140.761774,183.44844 C140.084441,183.515995 139.300885,183.567107 138.424441,183.627995 C133.919108,183.933329 126.758219,184.488884 118.126664,187.465329 C116.367108,185.519551 114.918664,183.46444 113.830219,181.736884 C116.039553,179.437773 120.262219,175.019107 122.355997,172.665329 C125.968441,170.491551 129.590663,168.134662 133.183552,165.616885 C138.905774,172.058662 143.98933,177.286218 149.001774,182.533329 C146.567552,182.879995 144.043552,183.168884 141.413774,183.393773 L140.761774,183.44844" id="path18" fill="#236192"></path>
                    <path d="M87.1791089,162.16444 C77.6582203,148.770663 70.8795538,131.279997 70.2244427,110.400886 C80.3942202,121.598219 88.76222,131.97333 94.4715532,137.467552 C98.4279975,141.269774 102.425775,143.870663 106.044442,145.652885 C102.258664,154.383996 97.2591087,161.515552 90.4995533,164.922663 C89.2537755,164.02044 88.1266645,163.095551 87.1791089,162.16444" id="path20" fill="#236192"></path>
                    <path d="M114.241775,194.743995 C119.896886,197.046217 126.036441,199.399995 131.957774,201.381328 C139.436441,204.110662 146.079996,205.613328 151.243552,206.409773 C151.105774,206.448439 150.973774,206.49955 150.835996,206.538217 C147.162219,207.60755 143.479108,208.407106 139.795997,208.949773 C129.671552,210.43955 119.598219,209.974217 110.009775,207.806661 C109.457331,206.024439 108.709331,202.550217 109.961331,199.390217 C110.715997,197.486217 112.180442,195.944884 114.241775,194.743995" id="path22" fill="#236192"></path>
                    <path d="M102.48222,171.763107 C100.243997,170.693774 97.7906642,169.447996 95.4275532,168.079996 C102.083997,163.712885 107.038664,156.327107 110.808442,147.653774 C116.100442,149.490663 119.754664,149.52933 119.754664,149.52933 C123.30933,154.050663 126.591108,158.01644 129.670663,161.599996 C126.112886,164.08844 122.532441,166.41644 118.961775,168.555107 C115.043997,169.964885 105.69022,171.323107 102.48222,171.763107" id="path24" fill="#236192"></path>
                    <path d="M122.651997,191.463551 C129.318219,189.511106 134.82533,189.112884 138.78133,188.843551 C139.712441,188.779106 140.540885,188.721329 141.260441,188.653773 L141.851108,188.602218 C144.419996,188.383995 148.01333,187.97644 152.24533,187.218662 C155.392441,191.075106 159.194218,193.476884 161.753774,194.045328 C164.771996,192.915106 166.313329,191.151995 167.411551,188.637773 C171.59244,186.88444 174.39244,183.798662 176.235996,180.108884 C185.911106,175.895996 195.637328,169.656885 203.071106,160.418218 C195.280884,178.432884 181.094218,193.547551 162.463107,202.179106 L162.459996,202.082662 C162.235551,202.089328 145.039996,202.483995 123.756441,192.163551 C123.380886,191.945329 123.014664,191.711106 122.651997,191.463551" id="path26" fill="#236192"></path>
                    <path d="M209.487995,134.780886 C207.384439,144.481774 200.531995,162.351551 178.458662,173.66444 C180.940884,162.54444 178.124884,149.911552 178.124884,149.911552 C178.124884,149.911552 184.171551,146.411552 185.639106,139.738663 C185.645329,139.735552 186.444884,139.395108 187.080884,138.412441 C188.769773,136.34133 190.92444,131.559997 187.459551,122.16133 C187.459551,122.16133 185.40444,126.547552 181.053329,121.823997 C180.677773,121.300441 180.314662,120.783553 179.958662,120.272886 C188.246218,108.867108 194.559551,96.9635531 197.773773,85.3457756 C201.459995,91.3888866 204.433773,98.0071087 206.507995,105.132442 C209.394661,115.048442 210.297328,125.067108 209.487995,134.780886" id="path28" fill="#236192"></path>
                    <path d="M64.8808873,104.63422 C64.6048873,116.364442 66.1782206,127.674219 69.6111094,138.482663 C72.4911093,147.544441 76.3671092,155.203107 80.4933313,161.586663 C81.1195535,162.823107 82.1662202,164.759107 83.4093312,167.003996 C67.6617761,168.686662 53.3884431,151.895552 47.8457766,144.384885 C44.2142211,126.710663 46.6257766,108.995108 53.7959987,93.5591088 C57.6493319,97.1715531 61.3551096,100.909331 64.8808873,104.63422" id="path30" fill="#236192"></path>
                    <path d="M168.544885,84.3595534 C168.380885,76.5244425 172.240885,70.4875538 175.10844,61.1719985 C182.211551,66.1751095 188.547106,72.317776 193.80044,79.439998 C191.439995,91.1382199 185.290662,103.507553 176.797329,115.481775 C171.463551,106.815108 168.843551,98.6617753 168.544885,84.3595534" id="path32" fill="#236192"></path>
                    <path d="M99.1195531,188.260884 C101.77822,189.455106 105.015108,190.877773 108.605331,192.399995 C107.041331,193.851551 105.853331,195.550217 105.082664,197.511995 C103.86222,200.626662 103.910664,203.789773 104.308886,206.297773 C92.6199977,202.752439 81.8306646,196.635551 72.7946648,188.395551 C73.1897759,188.395551 73.632887,188.382662 74.0502204,188.373329 C81.7955535,188.83244 92.8191088,188.514662 99.1195531,188.260884" id="path34" fill="#236192"></path>
                    <path d="M86.1239978,171.85244 C87.22222,173.801329 88.3328867,175.753773 89.3444422,177.526218 C85.0062201,180.371551 82.2959979,182.432884 74.8204426,183.103995 C71.7475538,183.190662 69.1786649,183.094218 67.3742205,182.969329 C60.5919985,175.506662 55.1235542,166.679107 51.4115543,156.763107 C59.7253318,165.391551 72.2324426,174.568885 86.1239978,171.85244" id="path36" fill="#236192"></path>
                    <path d="M112.008442,189.367551 L106.350664,181.163107 C106.350664,181.163107 110.627997,178.192884 114.143997,174.175551 C107.991553,175.431107 101.235109,176.567996 101.235109,176.567996 L90.5293311,170.746218 L95.5484421,179.07244 C95.5484421,179.07244 92.1702199,181.959107 88.2786645,184.470218 C92.5462199,184.345329 100.663553,183.674218 100.663553,183.674218 L112.008442,189.367551" id="path38" fill="#78BE20"></path>
                    <path d="M116.572886,140.369774 C116.572886,140.369774 115.083108,136.259552 114.890219,132.438663 C114.890219,132.438663 105.574664,131.063997 101.091997,128.01333 C101.091997,128.01333 110.391553,137.280885 116.572886,140.369774" id="path40" fill="#78BE20"></path>
                    <path d="M179.33244,140.782663 C180.366218,141.035996 181.139995,141.074663 181.715107,141.035996 C181.544884,141.511552 181.223551,142.22133 180.645773,142.924441 C179.823551,143.923108 178.625773,144.671107 178.625773,144.671107 C179.39644,143.479996 179.422218,141.835552 179.33244,140.782663" id="path42" fill="#FFFFFF"></path>
                    <path d="M170.927107,136.542663 C172.131551,137.371552 173.226218,138.055108 174.224885,138.614219 C174.041773,139.047552 173.762662,139.667108 173.338662,140.418663 C172.542218,141.847552 170.458218,143.096885 170.458218,143.096885 C171.319107,140.550219 171.135996,137.971552 170.927107,136.542663" id="path44" fill="#FFFFFF"></path>
                    <path d="M71.0013316,73.6639982 C63.079554,70.4271094 44.34271,74.8426648 44.34271,74.8426648 C63.275554,75.9279981 81.7906646,89.4946644 81.7906646,89.4946644 C81.7777757,89.4626644 81.7586646,89.4275533 81.7488868,89.3951089 C76.196887,80.8826646 68.5448872,75.956887 68.5448872,75.956887 C69.3893316,74.880887 70.2404427,74.1617759 71.0013316,73.6639982" id="path46" fill="#9EA2A2"></path>
                    <path d="M165.40044,186.624884 C165.40044,186.624884 160.747107,190.272884 155.461774,184.611551 C161.123107,194.925773 164.395107,189.014217 165.40044,186.624884" id="path48" fill="#78BE20"></path>
                    <path d="M183.819551,136.63733 C183.819551,136.63733 183.334662,136.967997 183.22844,137.022663 C180.280884,138.595997 174.998662,134.013774 171.549773,132.115997 C168.10444,130.218219 163.082218,126.172441 160.628885,131.743552 C158.175552,137.314663 163.817329,146.029774 165.769774,151.511107 C170.082218,163.63644 170.239551,170.771551 169.327551,174.634662 C173.312885,170.135551 174.564885,161.510663 174.564885,161.510663 C174.564885,161.510663 176.045329,177.707551 168.126662,181.971995 C168.309774,181.397329 168.10444,179.377329 167.94044,177.787996 C167.94044,177.787996 167.92444,177.810218 167.914662,177.819996 C164.225329,177.148884 156.091552,178.070218 153.451996,179.454218 C143.44933,168.725774 132.544441,153.800885 124.336886,140.08933 C120.778664,132.841774 117.288442,124.335552 116.418219,117.42533 C116.418219,117.42533 115.284442,120.549775 115.018219,124.717775 C110.474219,122.964441 95.0386643,115.379553 91.7342199,92.1151088 C91.7342199,92.1151088 101.547553,102.236442 112.394664,106.183108 C112.394664,106.183108 105.522664,88.1911089 118.636886,56.3048875 C118.636886,56.3048875 123.944886,75.8573314 135.045774,80.7893313 C141.769774,47.4004433 161.479552,46.8542211 167.227551,24.1361327 C167.227551,24.1361327 173.24844,35.9045324 166.000885,55.9066653 C166.000885,55.9066653 168.502662,55.2097764 170.618662,52.7115542 C170.618662,52.7115542 170.291107,58.5622208 164.822663,71.1848871 C161.258218,77.9444425 160.140885,87.0608867 160.140885,87.0608867 C156.939107,84.1613312 156.120441,74.3639981 156.120441,74.3639981 C146.335996,100.91022 174.108885,127.215997 179.175996,131.098219 C181.651995,132.995997 183.177329,133.024886 184.098662,132.571997 C185.05244,134.547108 184.965773,135.811997 183.819551,136.63733" id="path50" fill="#9EA2A2"></path>
                    <path d="M201.395551,183.634218 C186.511995,203.276439 164.907551,215.941328 140.557774,219.296883 C136.351108,219.878217 132.080441,220.173772 127.867552,220.173772 C82.1315535,220.173772 42.9302211,185.955995 36.6748435,140.586219 C34.0770658,121.746219 37.2720435,102.996442 45.7142211,86.3982201 C46.7706655,87.27822 47.8204432,88.1773311 48.8608877,89.0893311 C41.1157767,104.746664 38.2161324,122.350219 40.6565768,140.036885 C46.6355544,183.431995 84.1288868,216.153328 127.867552,216.153328 C131.89733,216.153328 135.981774,215.873772 140.008441,215.318217 C163.295551,212.107106 183.959107,199.994662 198.194217,181.206662 C212.428884,162.421774 218.501328,139.250219 215.290217,115.963108 C211.748439,90.2675533 197.156884,68.3164427 176.766218,54.6822209 C177.042218,53.3142209 177.286662,51.8755543 177.488884,50.3631099 C199.594217,64.5306651 215.47955,87.9235534 219.271995,115.413775 C222.62755,139.763997 216.279106,163.991996 201.395551,183.634218" id="path52" fill="#9EA2A2"></path>
                    <path d="M69.6964427,214.065772 C67.2719983,214.065772 65.3097761,216.031106 65.3097761,218.452439 C65.3097761,220.876883 67.2719983,222.838661 69.6964427,222.838661 C72.1208871,222.838661 74.0826648,220.876883 74.0826648,218.452439 C74.0826648,216.031106 72.1208871,214.065772 69.6964427,214.065772 M69.6964427,226.492883 C65.2555539,226.492883 61.655554,222.893328 61.655554,218.452439 C61.655554,214.011106 65.2555539,210.415106 69.6964427,210.415106 C74.1373315,210.415106 77.7368869,214.011106 77.7368869,218.452439 C77.7368869,222.893328 74.1373315,226.492883 69.6964427,226.492883" id="path54" fill="#FFFFFF"></path>
                    <path d="M51.6706654,206.417328 L49.7857765,205.363995 C49.0919988,204.971995 48.6906654,204.955995 48.3053321,205.312439 C47.8528877,205.726662 47.9359988,206.365773 48.5271099,207.020884 C48.530221,207.023995 48.530221,207.027106 48.5333321,207.030217 C49.2111099,207.768884 49.9559988,208.147995 50.8839987,208.221773 L51.1955543,208.243995 L50.9577765,211.824439 L50.6497765,211.818217 C48.8995543,211.766661 47.2488877,210.909328 45.7462211,209.271995 C44.79911,208.234661 44.2210211,207.011106 44.1118211,205.819995 C43.9802211,204.426217 44.4937767,203.154662 45.59511,202.146217 C47.3004433,200.585773 49.3039988,200.479551 51.7222209,201.828439 L53.4048876,202.75955 C54.2782209,203.251106 54.8431097,203.437328 55.3088875,203.007106 C55.8675542,202.49955 55.7328875,201.780439 54.9137764,200.871551 C54.9075542,200.861773 54.901332,200.852439 54.8915542,200.845773 C53.8062209,199.663995 52.5795542,199.574217 51.7511098,199.609328 L51.4524432,199.622217 L51.0702209,195.720884 L51.4008876,195.704884 C52.701332,195.634217 55.2479986,195.913328 57.6626652,198.556439 C57.6853319,198.582217 57.7075541,198.607551 57.7302208,198.630217 C58.9568874,199.995106 59.6119985,201.346662 59.6791096,202.647106 C59.7497763,203.999106 59.1879985,205.225773 58.0128874,206.301328 C56.2688875,207.897328 54.3711098,207.929328 51.6706654,206.417328" id="path56" fill="#FFFFFF"></path>
                    <polyline id="path58" fill="#FFFFFF" points="27.9739549 123.66933 27.8904437 127.182219 12.2459997 126.809775 12.329333 123.296886 27.9739549 123.66933"></polyline>
                    <polyline id="path60" fill="#FFFFFF" points="42.3234212 179.637773 48.2253321 188.487551 45.3195544 190.427106 41.3666656 184.499106 39.1862657 185.950662 42.5900878 191.05644 39.6840435 192.995995 36.2802213 187.890218 34.1319547 189.322217 38.0848879 195.250217 35.2045325 197.170217 29.3024437 188.32044 42.3234212 179.637773"></polyline>
                    <polyline id="path62" fill="#FFFFFF" points="93.6751088 221.871994 89.0897756 233.207105 93.129331 234.841327 91.8448866 238.014216 80.5062202 233.425327 81.7906646 230.252883 85.8302201 231.887105 90.4191089 220.55555 93.6751088 221.871994"></polyline>
                    <polyline id="path64" fill="#FFFFFF" points="29.3394215 170.59644 18.315644 165.567996 18.1005329 165.041329 32.7109325 159.06844 34.0340436 162.30844 26.4397771 165.410663 37.5116435 170.458218 37.7267546 170.987996 23.1161328 176.960884 21.7770661 173.685329 29.3394215 170.59644"></polyline>
                    <polyline id="path66" fill="#FFFFFF" points="22.1499994 147.175107 12.5808886 139.74133 12.4940886 139.175997 28.0873326 136.735552 28.6300437 140.193774 20.525155 141.462219 30.1327992 148.924885 30.2227548 149.490218 14.6263996 151.930663 14.0803996 148.436885 22.1499994 147.175107"></polyline>
                    <polyline id="path68" fill="#FFFFFF" points="155.242663 223.834217 158.611107 222.83555 163.061774 237.838216 159.692885 238.83955 155.242663 223.834217"></polyline>
                    <polyline id="path70" fill="#FFFFFF" points="241.117327 104.147109 241.916438 107.57022 226.673328 111.124886 224.30355 100.961775 227.77155 100.152442 229.345328 106.892886 241.117327 104.147109"></polyline>
                    <path d="M235.628439,123.019552 C233.203994,123.019552 231.241772,124.984886 231.241772,127.406219 C231.241772,129.830219 233.203994,131.792441 235.628439,131.792441 C238.052883,131.792441 240.014661,129.830219 240.014661,127.406219 C240.014661,124.984886 238.052883,123.019552 235.628439,123.019552 M235.628439,135.446663 C231.18755,135.446663 227.58755,131.847108 227.58755,127.406219 C227.58755,122.964886 231.18755,119.368441 235.628439,119.368441 C240.069327,119.368441 243.668883,122.964886 243.668883,127.406219 C243.668883,131.847108 240.069327,135.446663 235.628439,135.446663" id="path72" fill="#FFFFFF"></path>
                    <polyline id="path74" fill="#FFFFFF" points="203.906662 192.719106 210.508884 184.37644 213.247995 186.543995 208.826217 192.131551 210.881328 193.75644 214.689772 188.946217 217.428883 191.113773 213.620439 195.923995 215.643106 197.526217 220.064883 191.938662 222.781772 194.090217 216.17955 202.432884 203.906662 192.719106"></polyline>
                    <polyline id="path76" fill="#FFFFFF" points="214.740884 78.3315536 209.053773 69.3404427 212.004884 67.474665 215.813328 73.4955537 218.028883 72.0955538 214.750217 66.9093317 217.701328 65.0404428 220.983106 70.2266649 223.16355 68.8488872 219.355106 62.8248873 222.280439 60.9751096 227.967105 69.9666649 214.740884 78.3315536"></polyline>
                    <polyline id="path78" fill="#FFFFFF" points="143.395552 226.491105 145.00133 238.613327 149.323552 238.038216 149.772885 241.432438 137.644441 243.041327 137.195108 239.647105 141.51733 239.072438 139.911552 226.953328 143.395552 226.491105"></polyline>
                    <polyline id="path80" fill="#FFFFFF" points="228.057772 87.5484423 236.551105 87.9435534 237.99955 91.5591088 220.684883 90.7755533 220.49555 90.3035533 232.492439 77.7933314 233.92755 81.379998 228.057772 87.5484423"></polyline>
                    <polyline id="path82" fill="#FFFFFF" points="178.139551 222.906661 175.362218 233.43555 175.342662 233.512883 174.890218 233.750661 167.571996 219.737328 170.667551 218.118661 174.039107 224.576439 175.635107 218.594217 176.039551 218.382217 181.851551 220.498217 178.479996 214.040439 181.60444 212.409328 188.919551 226.422661 188.447551 226.669772 178.139551 222.906661"></polyline>
                    <polyline id="path84" fill="#FFFFFF" points="22.693555 104.944442 16.3355996 96.1039976 16.2875107 96.0399976 16.3934218 95.5386643 31.8614659 98.804442 31.1388881 102.224442 24.0133772 100.71822 27.6163104 105.753331 27.5199549 106.199553 22.1894217 109.343553 29.3182215 110.846219 28.5892437 114.295108 13.121333 111.026219 13.2336886 110.502664 22.693555 104.944442"></polyline>
                    <polyline id="path86" fill="#FFFFFF" points="233.938661 148.568885 240.547105 154.111107 240.418661 154.641329 231.995994 156.622218 238.726216 161.075996 237.855994 164.691996 223.859106 155.395552 223.990661 154.852885 233.415105 152.663107 226.016883 146.452885 226.148439 145.906663 242.843105 144.018663 241.972883 147.621774 233.938661 148.568885"></polyline>
                    <path d="M224.59955,175.260885 L223.60755,177.274218 L227.524883,179.203996 L228.517328,177.190662 C229.227105,175.748884 228.892883,174.750218 227.618217,174.120885 C226.327105,173.485329 225.309328,173.819107 224.59955,175.260885 M223.925328,171.645329 C225.26755,170.225774 227.473772,170.033329 229.426216,170.993329 C232.354661,172.438218 233.275994,175.337773 231.647994,178.635996 L229.063105,183.879551 L215.02755,176.962662 L216.578217,173.809329 L223.074661,177.011107 L218.636883,169.635107 L220.486217,165.881329 C220.486217,165.881329 223.697328,171.288885 223.925328,171.645329" id="path88" fill="#FFFFFF"></path>
                    <path d="M196.315995,205.163106 L194.026217,207.153773 L195.885773,209.292439 L198.040439,207.420439 C198.926662,206.652884 199.135106,205.737773 198.573328,205.092439 C198.011551,204.449773 197.105773,204.47555 196.315995,205.163106 M199.739106,213.730217 L201.691106,212.034661 C202.510217,211.321772 202.631995,210.657328 202.063995,210.002217 C201.367106,209.199106 200.493773,209.661773 199.883551,210.19155 L198.049773,211.783995 L199.739106,213.730217 Z M202.365773,206.231995 C203.248884,206.469773 204.061328,206.973773 204.70355,207.712439 C205.689328,208.846217 206.090662,210.23955 205.833773,211.630217 C205.624884,212.760439 205.001773,213.784884 203.980884,214.671106 L202.031551,216.366661 L199.395551,218.659106 L197.102662,216.01955 L195.538662,214.221328 L195.413773,214.076884 L193.249329,211.585328 L193.120884,211.437328 L191.390217,209.443106 L189.097329,206.807106 L191.733773,204.514217 L194.023106,202.526662 C195.024884,201.656439 196.20044,201.174662 197.423551,201.135995 C198.871995,201.091106 200.252884,201.698217 201.209773,202.802662 C202.047551,203.766217 202.449328,204.983106 202.365773,206.231995" id="path90" fill="#FFFFFF"></path>
                    <path d="M199.994217,59.180443 C200.633328,59.8226652 201.416884,60.3782207 202.315995,60.8151096 C204.02755,61.6466651 206.535106,61.6662207 206.814661,61.6662207 L206.808439,58.1146652 C206.063106,58.1146652 204.602217,57.9795541 203.86355,57.6199986 C202.762217,57.0839986 201.975551,56.2746653 201.757328,55.4559986 C201.612439,54.9066653 201.818217,54.4666653 202.059106,54.2386653 C202.315995,53.9977764 202.646662,53.9431098 203.041773,54.0715542 C203.34355,54.1711098 203.918217,54.4537764 204.476884,54.7266653 C205.751995,55.3528875 207.196884,56.0657764 208.42355,56.1942208 C209.759106,56.332443 211.005328,55.9213319 211.929772,55.0319986 C213.024884,53.9786653 213.448884,52.4791098 213.381328,51.4644432 C213.313772,50.3884432 212.809772,48.346221 210.218661,46.7471099 C208.702661,45.8128877 206.570662,45.52711 206.329773,45.4982211 L205.889773,49.0208877 C206.499995,49.0977766 207.671995,49.438221 208.355995,49.7688876 C210.199106,50.6711098 210.234661,52.745332 208.792884,52.6622209 C208.19555,52.6266654 206.901328,51.9622209 206.043995,51.541332 C205.315106,51.1817765 204.685773,50.8733321 204.146217,50.6968876 C202.515106,50.1639987 200.825773,50.5235543 199.621773,51.6568876 C198.369328,52.8417765 197.871551,54.6431097 198.324439,56.364443 C198.597328,57.3919986 199.175551,58.3586652 199.994217,59.180443" id="path92" fill="#FFFFFF"></path>
                    <polyline id="path94" fill="#FFFFFF" points="108.738664 233.686661 113.523108 226.657328 117.360442 227.319105 107.624442 241.656438 107.123553 241.572883 102.753331 224.798217 106.561775 225.456439 108.738664 233.686661"></polyline>
                </g>
            </g>
        </g>
    </g>
</svg>