<?xml version="1.0" encoding="UTF-8"?>
<svg width="256px" height="256px" viewBox="0 0 256 256" version="1.1" xmlns="http://www.w3.org/2000/svg" xmlns:xlink="http://www.w3.org/1999/xlink">
    <!-- Generator: Sketch 63.1 (92452) - https://sketch.com -->
    <title>Teams/Defualt/GSWarriors/256</title>
    <desc>Created with Sketch.</desc>
    <g id="Teams/Defualt/GSWarriors/256" stroke="none" stroke-width="1" fill="none" fill-rule="evenodd">
        <g id="Teams/Defualt/GSWarriors/base">
            <g id="Group-5">
                <path d="M256,128 C256,198.692444 198.692444,256 128,256 C57.3075556,256 0,198.692444 0,128 C0,57.3075556 57.3075556,0 128,0 C198.692444,0 256,57.3075556 256,128" id="Fill-1" fill="#1D428A"></path>
                <path d="M128,240 C114.038222,240 100.467556,237.461333 87.8133333,232.604444 C87.2951111,224.943111 86.792,215.787556 86.3102222,205.775111 L76.0924444,202.296889 L76.0968889,227.301333 C74.4666667,226.447111 72.8577778,225.551111 71.2693333,224.614222 L71.2746667,200.874667 L76.0924444,201.046222 L76.0924444,201.203556 L81.3155556,201.231556 L90.7475556,201.565333 L208.616889,205.740444 C208.146667,206.227556 207.676,206.715556 207.196,207.196444 C186.041778,228.350222 157.916444,240 128,240 L128,240 Z M42.0746667,199.840889 L59.672,200.464 C59.3208889,205.899556 58.936,211.062222 58.5146667,215.849778 C55.1404444,213.170667 51.896,210.288 48.8035556,207.196444 C46.4382222,204.831111 44.1991111,202.373333 42.0746667,199.840889 L42.0746667,199.840889 Z M62.0248889,144.936 C61.6542222,159.146667 61.1297778,173.818667 60.4222222,187.476444 L50.7822222,187.800889 L62.0248889,144.936 Z M62.7413333,96.0062222 C62.7226667,105.898667 62.6008889,117.808 62.352,130.554667 L47.3075556,187.917333 L36.9182222,188.267556 L62.7413333,96.0062222 Z M23.768,169.129778 C21.1884444,162.588444 19.2328889,155.796444 17.9297778,148.827556 C22.0684444,145.533333 27.8933333,140.175556 34.8337778,131.825778 L23.768,169.129778 Z M25.808,173.968 L40.4017778,124.775111 C46.3057778,116.92 52.8124444,107.048889 59.6453333,94.7093333 L33.488,188.160889 C30.5777778,183.608889 28.0151111,178.866667 25.808,173.968 L25.808,173.968 Z M76.0728889,100.410667 L76.0746667,107.300444 L70.8568889,107.300444 L70.8568889,113.700444 L76.0755556,113.700444 L76.0764444,120.590222 L70.8568889,120.590222 L70.8568889,126.990222 L76.0782222,126.990222 L76.0808889,139.912889 L70.8568889,139.912889 L70.8568889,146.313778 L76.0817778,146.313778 L76.0844444,159.604444 L70.8568889,159.604444 L70.8568889,166.004444 L76.0853333,166.004444 L76.0897778,186.949333 L71.2773333,187.112 L71.2995556,89.6826667 L76.0711111,89.6826667 L76.072,94.0106667 L70.8568889,94.0106667 L70.8568889,100.410667 L76.0728889,100.410667 Z M214.629333,182.290667 L211.636444,175.600889 C216.573333,177.592889 221.543111,179.499556 226.541333,181.328889 C226.436889,181.52 226.331556,181.710222 226.226667,181.901333 L214.629333,182.290667 Z M218.448889,194.084444 C217.691556,195.116444 216.916444,196.136889 216.121333,197.145778 L85.9244444,194.595556 L85.8693333,193.340444 L218.448889,194.084444 Z M94.256,186.338667 L85.4533333,186.634667 C84.9137778,173.747556 84.4133333,160.206222 83.9644444,147.096 L94.256,186.338667 Z M107.835556,185.881778 L97.6702222,186.224 L83.4631111,132.055111 C83.0133333,118.088889 82.6311111,105.171556 82.3386667,94.7831111 L107.835556,185.881778 Z M122.996444,185.372444 L111.264,185.767111 L85.4435556,93.5128889 C87.7075556,96.0088889 90.0266667,98.448 92.4097778,100.821333 C94.9111111,103.316444 97.4737778,105.748444 100.082667,108.128 L122.996444,185.372444 Z M137.064,184.899556 L126.438222,185.256889 L104.805333,112.336 C106.336,113.666667 107.879111,114.981333 109.436444,116.279111 C112.169778,118.553778 114.944889,120.776 117.756444,122.952 L137.064,184.899556 Z M151.553778,184.412444 L140.518222,184.783111 L122.328889,126.427556 C126.535111,129.565333 130.816889,132.599111 135.167111,135.533333 L151.553778,184.412444 Z M165.570667,183.941333 L155.028444,184.295111 L139.685333,138.529778 C142.030222,140.057778 144.392,141.56 146.772444,143.032889 L151.671111,146.035556 L152.331556,146.423111 L165.570667,183.941333 Z M180.84,183.426667 L169.062222,183.824 L156.784889,149.028 C157.560889,149.479111 158.329778,149.943111 159.114667,150.377778 L161.624,151.774222 C163.299556,152.701333 164.965333,153.647111 166.649778,154.557333 L170.537778,156.612444 L180.84,183.426667 Z M193.118222,167.663111 C197.767111,169.777778 202.453333,171.813333 207.168889,173.773333 L211.033778,182.412444 L199.463111,182.800889 L193.118222,167.663111 Z M195.901333,182.920889 L184.363556,183.309333 L175.003556,158.945778 L176.838222,159.865778 L181.976,162.438222 C183.697778,163.274667 185.433778,164.083556 187.162667,164.907556 C187.652444,165.137778 188.146667,165.361778 188.637333,165.592 L195.901333,182.920889 Z M48.8035556,48.8035556 C69.9582222,27.6497778 98.0835556,16 128,16 C157.916444,16 186.041778,27.6497778 207.196,48.8035556 C228.350222,69.9582222 240,98.0844444 240,128 C240,144.091556 236.624,159.662222 230.216889,173.911111 C216.640444,169.332444 203.262222,164.163556 190.168,158.347556 C188.449778,157.576889 186.723556,156.822222 185.010667,156.04 L179.901333,153.628444 L177.346667,152.423111 L174.816,151.166222 L169.759111,148.643556 C168.082667,147.787556 166.424889,146.895111 164.755556,146.022222 L162.254222,144.707556 C161.420444,144.270222 160.605333,143.799111 159.778667,143.348444 L154.835556,140.609778 L149.952,137.769778 C136.960889,130.144 124.443556,121.693333 112.644444,112.337778 C106.751111,107.653333 101.031111,102.748444 95.5848889,97.5644444 C92.8604444,94.9751111 90.2133333,92.3075556 87.648,89.5724444 C87.0088889,88.8871111 86.3688889,88.2017778 85.7475556,87.5013333 C85.1173333,86.8088889 84.4995556,86.1075556 83.8897778,85.4 C83.2737778,84.6968889 82.68,83.9804444 82.088,83.264 C82.0648889,83.2355556 82.0408889,83.2062222 82.0186667,83.1777778 C81.7964444,74.9511111 81.6755556,70.0364444 81.6755556,70.0364444 L76.0666667,68.7155556 L76.0684444,76.2302222 L71.3022222,76.2302222 L71.304,68.3404444 L65.2906667,69.7706667 L65.3368889,72.6364444 L62.5262222,74.1662222 C62.6035556,76.5191111 62.6613333,79.5911111 62.6977778,83.2515556 C60.424,87.2204444 35.5982222,130.096889 17.0364444,143.287111 C16.3546667,138.262222 16,133.159111 16,128 C16,98.0844444 27.6497778,69.9582222 48.8035556,48.8035556 L48.8035556,48.8035556 Z M211.721778,44.2782222 C189.358222,21.9155556 159.625778,9.6 128,9.6 C96.3742222,9.6 66.6417778,21.9155556 44.2782222,44.2782222 C21.9155556,66.6417778 9.6,96.3742222 9.6,128 C9.6,159.625778 21.9155556,189.358222 44.2782222,211.721778 C66.6417778,234.084444 96.3742222,246.4 128,246.4 C159.625778,246.4 189.358222,234.084444 211.721778,211.721778 C234.084,189.358222 246.399556,159.625778 246.399556,128 C246.399556,96.3742222 234.084,66.6417778 211.721778,44.2782222 L211.721778,44.2782222 Z" id="Fill-3" fill="#FDB927"></path>
            </g>
        </g>
    </g>
</svg>