<?xml version="1.0" encoding="UTF-8"?>
<svg width="256px" height="256px" viewBox="0 0 256 256" version="1.1" xmlns="http://www.w3.org/2000/svg" xmlns:xlink="http://www.w3.org/1999/xlink">
    <!-- Generator: Sketch 63.1 (92452) - https://sketch.com -->
    <title>Teams/Defualt/WWizards/256</title>
    <desc>Created with Sketch.</desc>
    <defs>
        <polygon id="path-1" points="0 0.423950173 255.114187 0.423950173 255.114187 255.557093 0 255.557093"></polygon>
    </defs>
    <g id="Teams/Defualt/WWizards/256" stroke="none" stroke-width="1" fill="none" fill-rule="evenodd">
        <g id="Teams/Defualt/WWizards/base">
            <g id="Group-24" transform="translate(0.000000, 0.000000)">
                <path d="M127.777439,3.2824692 L127.556872,3.2824692 C58.7681661,3.28645536 2.960609,59.006317 2.84323875,127.806981 L2.84323875,128.026663 C2.85076817,196.842386 58.5896747,252.661016 127.424,252.737196 L127.500623,252.737196 L127.56883,252.737196 L127.594962,252.737196 C196.406699,252.718151 252.198754,196.986774 252.282464,128.159978 L252.282464,128.091327 L252.282464,128.000531 C252.266962,59.2109398 196.574118,3.41135502 127.777439,3.2824692" id="Fill-1" fill="#FFFFFF"></path>
                <g id="Group-5" transform="translate(0.000000, 0.019045)">
                    <mask id="mask-2" fill="white">
                        <use xlink:href="#path-1"></use>
                    </mask>
                    <g id="Clip-4"></g>
                    <path d="M252.282641,128.072282 L252.282641,128.140933 C252.198931,196.967729 196.406876,252.699106 127.595139,252.718151 L127.568565,252.718151 L127.500357,252.718151 L127.424177,252.718151 C58.5898519,252.641971 2.85094533,196.823784 2.84341592,128.007618 L2.84341592,127.787936 C2.96078616,58.987272 58.7683433,3.26741038 127.557049,3.26342422 L127.777617,3.26342422 C196.574295,3.39231003 252.267139,59.1918948 252.282641,127.981487 L252.282641,128.072282 Z M255.106613,127.711756 C254.94761,57.3737633 197.891056,0.427936332 127.565021,0.423950173 L127.511873,0.423950173 L127.287762,0.423950173 C56.9457827,0.579853287 0.0229868512,57.6510228 0.00792802768,127.924352 L-4.42906574e-05,128.06431 L-4.42906574e-05,128.144476 C0.0911944637,198.528089 57.1508484,255.523521 127.522945,255.557182 L127.54952,255.557182 L127.54952,255.553639 L127.61817,255.553639 L127.701437,255.553639 C198.073091,255.470372 255.060994,198.425334 255.106613,128.076269 C255.106613,128.02312 255.114585,127.973514 255.114585,127.90132 C255.106613,127.90132 255.114585,127.852158 255.106613,127.711756 L255.106613,127.711756 Z" id="Fill-3" fill="#C4CED4" mask="url(#mask-2)"></path>
                </g>
                <path d="M85.8667405,99.6828125 C98.8261869,86.7313384 104.280581,71.5857052 104.280581,71.5857052 L107.173204,61.067117 L107.856609,58.6116429 L94.5822561,51.1792277 C94.5822561,51.1792277 86.8384775,45.8041135 69.5252595,55.8483488 C49.251654,67.8050547 32.758699,83.2660374 24.225218,99.6637675 C19.4994048,108.751325 15.7493149,119.212778 13.809827,131.105262 C14.4130657,153.611117 21.5190588,174.496376 33.3619377,191.918992 C29.9838893,159.483615 61.3266159,123.950107 85.8667405,99.6828125" id="Fill-6" fill="#002B5C"></path>
                <path d="M185.778314,55.8482159 C168.461553,45.8039806 160.722203,51.1790948 160.722203,51.1790948 L147.451394,58.61151 L148.130812,61.067427 L151.022992,71.5855723 C151.022992,71.5855723 156.474287,86.7316484 169.436833,99.6826796 C193.902107,123.873794 225.138093,159.265129 221.979726,191.621226 C233.872653,173.99886 240.932584,152.859372 241.342716,130.091759 C239.357608,118.612949 235.67174,108.495192 231.078356,99.6636346 C222.545761,83.2659045 206.044833,67.8049218 185.778314,55.8482159" id="Fill-8" fill="#002B5C"></path>
                <path d="M144.133846,36.405326 C189.627881,41.5434851 219.524075,67.3644955 234.96557,90.2649799 C223.350345,57.2161772 196.915909,31.157326 163.629708,20.0412567 C156.288089,22.2088415 148.14968,26.7734367 144.133846,36.405326" id="Fill-10" fill="#E31837"></path>
                <path d="M111.170392,36.405326 C107.13507,26.724274 98.928454,22.1596789 91.556717,20.0089246 C58.0658934,31.1728277 31.5061149,57.4766062 19.9812429,90.8062118 C35.317326,67.7728554 65.3238035,41.5829038 111.170392,36.405326" id="Fill-12" fill="#E31837"></path>
                <path d="M118.617821,35.1222256 L127.648244,21.8292706 L136.690181,35.1222256 C140.315372,25.2130768 146.031967,19.7529246 151.763621,16.7770353 C144.00124,15.095319 135.950084,14.1922325 127.686334,14.1841896 C119.380949,14.1749592 111.29569,15.0842464 103.491233,16.7655197 C109.237946,19.732108 114.977572,25.1811875 118.617821,35.1222256" id="Fill-14" fill="#E31837"></path>
                <path d="M189.475521,134.836573 C170.974871,104.902289 128.969168,74.6756872 127.648421,73.7340678 C126.33476,74.6756872 84.3330436,104.902289 65.8284069,134.836573 C40.8555626,175.236296 44.1007391,198.535397 50.5609744,211.834552 C66.6561993,226.631175 87.0206007,236.847258 109.602635,240.429044 L119.335064,102.438843 L127.450884,94.3004346 L127.557182,94.1901509 L127.557182,94.194137 L127.564711,94.1901509 L127.667023,94.3004346 L135.7793,102.438843 L145.58348,240.316988 L145.451051,240.392725 C168.207147,236.798096 188.727895,226.49786 204.890884,211.524518 C211.252794,198.174871 214.266774,174.930691 189.475521,134.836573" id="Fill-16" fill="#002B5C"></path>
                <polygon id="Fill-18" fill="#C4CED4" points="135.779167 102.438843 127.667333 94.3004346 127.762115 250.474608 145.450918 240.392725 145.58379 240.316988"></polygon>
                <path d="M127.602491,63.2537467 L124.064997,65.8651239 L109.222754,76.8124457 L113.109702,62.6996706 L113.778048,60.251283 L115.087723,55.5214837 L110.772042,53.1984388 L96.8107405,45.6752277 C103.855612,44.1228401 111.052401,43.109027 118.32537,42.6461896 L121.878367,42.4220789 L122.022754,42.1297606 L123.446256,39.2220789 L123.669924,38.7680997 L123.67391,38.7645564 L127.648554,30.6775253 L131.763156,39.0378298 L131.763156,39.041373 L131.849965,39.2220789 L133.281439,42.1297606 L133.425827,42.4220789 L136.981924,42.6461896 C144.251349,43.109027 151.448138,44.1228401 158.493896,45.6752277 L144.536138,53.1984388 L140.220014,55.5214837 L141.526145,60.251283 L142.198035,62.6996706 L146.081439,76.8124457 L131.243183,65.8651239 L127.705246,63.2537467 L127.705246,63.1815529 L127.648554,63.2231862 L127.602491,63.1815529 L127.602491,63.2537467 Z" id="Fill-20" fill="#C4CED4"></path>
                <path d="M127.705201,63.1817301 L127.705201,63.2539239 L131.243139,65.865301 L146.081395,76.8126228 L142.19799,62.6998478 L141.526101,60.2514602 L140.21997,55.5216609 L144.536094,53.198173 L158.493852,45.6754048 C151.448094,44.1225744 144.251305,43.1087612 136.98188,42.6459239 L133.425783,42.4218131 L133.281395,42.1299377 L131.849921,39.2218131 L131.763111,39.0415502 L131.763111,39.037564 L127.648509,30.6777024 L123.673866,38.7642907 L123.66988,38.7682768 L123.446212,39.2218131 L122.02271,42.1299377 L121.878322,42.4218131 L118.325326,42.6459239 C111.052357,43.1087612 103.855568,44.1225744 96.8106962,45.6754048 L110.771997,53.198173 L115.087679,55.5216609 L113.778004,60.2514602 L113.109658,62.6998478 L109.223153,76.8126228 L124.064952,65.865301 L127.602447,63.2539239 L127.602447,63.1817301 L127.648509,63.2233633 L127.705201,63.1817301 Z" id="Fill-22" fill="#C4CED4"></path>
            </g>
        </g>
    </g>
</svg>